<?xml version="1.0" encoding="utf-8"?>
<!-- Generator: Adobe Illustrator 23.0.2, SVG Export Plug-In . SVG Version: 6.00 Build 0)  -->
<svg version="1.1" id="Layer_1" xmlns="http://www.w3.org/2000/svg" xmlns:xlink="http://www.w3.org/1999/xlink" x="0px" y="0px"
	 viewBox="0 0 1942.62 1728" style="enable-background:new 0 0 1942.62 1728;" xml:space="preserve">
<style type="text/css">
	.st0{fill:url(#SVGID_1_);}
	.st1{fill:#562900;}
	.st2{fill:#F79800;}
</style>
<g>
	<g>
		<linearGradient id="SVGID_1_" gradientUnits="userSpaceOnUse" x1="231.2158" y1="867.7844" x2="930.4073" y2="867.7844">
			<stop  offset="0" style="stop-color:#736357"/>
			<stop  offset="1" style="stop-color:#42210B"/>
		</linearGradient>
		<path class="st0" d="M383.24,948.03c-0.01-0.08-0.02-0.16-0.03-0.24c-7.44-46.61-5.41-84.52-3.75-101.63
			c1.11-12.73,4.95-25.2,6.03-37.83c0.94-11.03-3.3-23.26-8.88-32.62c-13.87-23.31-15.74-58.46-2.41-92.83
			c19.56-50.44,64.45-80.07,100.25-66.18c35.81,13.89,48.98,66.03,29.41,116.47c-13.33,34.36-38.41,59.07-64.37,66.93
			c-19.45,5.89-29.72,15.88-32.09,36.05l117.67-0.67c9.47-25.56,10.14-53.58,2.74-80.12c-9.71-34.78,9.69-70.01,23.97-101.43
			l10.93-24.04c2.21-4.85,7.92-6.99,12.77-4.79l0.23,0.11c4.85,2.21,7,7.93,4.79,12.78l-27.12,59.64c-1.54,3.39-0.04,7.4,3.35,8.94
			c3.39,1.54,7.4,0.04,8.94-3.35l27.12-59.64c2.21-4.85,7.93-7,12.78-4.79l0.62,0.28c4.85,2.21,7,7.93,4.79,12.78l-27.12,59.64
			c-1.54,3.39-0.04,7.4,3.35,8.94c3.39,1.54,7.4,0.04,8.94-3.35l27.12-59.64c2.21-4.85,7.93-7,12.78-4.79l0.62,0.28
			c4.85,2.21,7,7.93,4.79,12.78l-27.12,59.64c-1.54,3.39-0.04,7.4,3.35,8.94c3.39,1.54,7.4,0.04,8.94-3.35l27.12-59.64
			c2.21-4.85,7.93-7,12.78-4.79l0.23,0.11c4.85,2.21,6.99,7.93,4.79,12.78l-10.93,24.04c-14.29,31.42-28.09,69.19-60.68,84.74
			c-22.2,10.59-41.04,26.82-54.11,47.19l384.55-2.18C912.94,655.03,762.23,516.3,579.68,517.34
			c-193.55,1.1-349.56,158.89-348.46,352.43s158.89,349.56,352.43,348.46C443.14,1149.46,397.03,1034.03,383.24,948.03z
			 M452.02,624.92c0,0-76.94,26.81-70.94,119.9C381.08,744.82,409.98,656.73,452.02,624.92z"/>
	</g>
	<path class="st1" d="M773.75,353.14l11.63,23.98c8.07,16.63,25.84,26.26,44.17,23.94l26.44-3.35l-23.98,11.63
		c-16.63,8.06-26.26,25.84-23.94,44.17l3.35,26.44l-11.63-23.98c-8.06-16.63-25.84-26.26-44.17-23.94l-26.44,3.35l23.98-11.63
		c16.63-8.07,26.26-25.84,23.94-44.17L773.75,353.14z"/>
	<path class="st1" d="M873.35,485.39l6.31,13c4.37,9.02,14.01,14.24,23.95,12.98l14.34-1.82l-13,6.31
		c-9.02,4.37-14.24,14.01-12.98,23.95l1.82,14.34l-6.31-13c-4.37-9.02-14.01-14.24-23.95-12.98l-14.34,1.82l13-6.31
		c9.02-4.37,14.24-14.01,12.98-23.95L873.35,485.39z"/>
	<path class="st2" d="M621.98,459.05c-0.02,0-0.04,0-0.05-0.01c-3.32-0.34-6.63,0.29-9.49,2c-19.38,11.61-48.71,2.22-48.71,2.22
		c44.93,1.72,48.05-10.15,48.05-10.15s0.01-0.01,0.01-0.01c-2.56-3.59-3.49-8.32-1.88-12.89c0.04-0.12,0.09-0.25,0.13-0.37
		c0.34-0.93,0.75-1.82,1.21-2.68c-18.45,2.36-32.59-4.46-32.59-4.46c32.43,2.14,48.24-7.66,55.65-15.65c1.18-1.28,2.23-2.68,3-4.24
		c1.01-2.07,1.53-4.21,1.51-6.41c-0.15-15.88-28.41-28.48-63.1-28.14c-34.7,0.34-62.7,13.48-62.55,29.36
		c0.07,7.4,6.26,14.09,16.35,19.09c5.86,2.9,10.68,7.7,13.06,13.79c0.05,0.12,0.09,0.24,0.14,0.37c3.2,8.6-2.61,17.99-11.71,19.06
		c-200.37,23.6-357.58,188.31-370.43,390.98l41.39-0.4c13.93-195,176.06-350.31,374.91-352.23
		c198.86-1.92,363.95,150.22,381.66,344.92l41.39-0.4C983.14,640.41,822.78,478.78,621.98,459.05z M720.76,493.02
		c-0.65,1.94-6.39,1.77-12.82-0.4c-6.43-2.16-11.11-5.49-10.45-7.43c0.65-1.94,6.39-1.77,12.82,0.4
		C716.74,487.75,721.42,491.08,720.76,493.02z M919.22,657.68c-3.61-4.1-7.11-8.23-10.58-12.37c-3.62-4.03-7.19-8.06-10.7-12.12
		c-1.86-1.95-3.66-3.94-5.48-5.91c-1.81-1.98-3.63-3.94-5.41-5.94c-14.65-15.62-29.96-30.44-45.98-44.45
		c-16.03-14.01-32.78-27.18-50.23-39.58c-4.42-3.02-8.81-6.09-13.21-9.19c-4.5-2.92-8.97-5.93-13.46-8.95
		c-4.57-2.87-9.14-5.78-13.69-8.79c-4.65-2.8-9.27-5.72-13.88-8.78c5.32,1.36,10.62,2.87,15.89,4.49c5.2,1.79,10.36,3.71,15.53,5.66
		c5.07,2.15,10.12,4.38,15.16,6.66c2.49,1.19,4.93,2.48,7.39,3.73c2.46,1.27,4.93,2.51,7.37,3.82
		c19.39,10.65,37.66,23.48,54.37,38.06c16.72,14.58,31.89,30.95,45.07,48.72c1.63,2.24,3.19,4.52,4.77,6.79
		c1.58,2.27,3.17,4.53,4.7,6.82c2.95,4.68,5.82,9.4,8.65,14.12c2.63,4.86,5.23,9.72,7.71,14.62c2.33,5,4.53,10.05,6.6,15.14
		C926.15,666.09,922.62,661.91,919.22,657.68z"/>
</g>
<g>
	<path class="st2" d="M477.63,1044.96c-11.27-9.43-16.9-23.75-16.9-42.97c0-18.26,5.16-31.97,15.48-41.1
		c10.32-9.13,25.92-13.7,46.79-13.7h52.49l2.49,29.18h-54.8c-9.49,0-16.58,2.11-21.26,6.32c-4.69,4.21-7.03,10.65-7.03,19.3
		c0,9.37,3.11,16.31,9.34,20.82c6.23,4.51,15.69,6.76,28.38,6.76c13.88,0,24.23-1.48,31.05-4.45c6.82-2.96,10.23-7.59,10.23-13.88
		l3.74,25.98c-3.2,4.98-7.15,9.07-11.83,12.28c-4.69,3.2-10.11,5.61-16.28,7.21c-6.17,1.6-13.11,2.4-20.82,2.4
		C505.92,1059.11,488.9,1054.39,477.63,1044.96z M573.89,939.36c0-12.1-3.23-21.5-9.7-28.2c-6.47-6.7-15.63-10.05-27.49-10.05
		c-7.36,0-14.56,1.13-21.62,3.38c-7.06,2.25-13.32,5.4-18.77,9.43l-26.51-18.15c7-8.42,16.22-14.97,27.67-19.66
		c11.45-4.68,24.17-7.03,38.17-7.03c15.3,0,28.41,2.7,39.32,8.1c10.91,5.4,19.22,13.23,24.91,23.49c5.69,10.26,8.54,22.63,8.54,37.1
		v118.68h-34.52V939.36z"/>
	<path class="st2" d="M712.5,1059.11c0,0-4.78-1.07-14.32-3.2c-9.55-2.13-18.48-5.34-26.78-9.61c-8.3-4.27-15.96-9.61-22.95-16.01
		l21.53-26.51c9.96,7.59,19.87,13.29,29.71,17.08c9.84,3.8,19.57,5.69,29.18,5.69c14.35,0,25.12-2.22,32.29-6.67
		c7.18-4.45,10.76-11.12,10.76-20.02c0-5.93-1.96-10.38-5.87-13.34c-3.91-2.96-8.78-4.95-14.59-5.96c-5.81-1.01-14-1.93-24.55-2.76
		c-0.95,0-1.96-0.03-3.02-0.09c-1.07-0.06-2.08-0.15-3.02-0.27c-0.48,0-0.95-0.03-1.42-0.09c-0.48-0.06-0.95-0.09-1.42-0.09
		c-11.98-0.95-22.12-2.7-30.42-5.25c-8.3-2.55-15.21-7.32-20.73-14.32c-5.52-7-8.27-17.02-8.27-30.07c0-13.05,2.67-23.9,8.01-32.56
		c5.34-8.66,13.28-15.15,23.84-19.48c10.56-4.33,23.78-6.49,39.68-6.49c9.61,0,18.77,0.89,27.49,2.67c8.72,1.78,17.05,4.42,25,7.92
		c7.95,3.5,15.6,7.92,22.95,13.26l-21.89,26.51c-9.25-5.93-18.36-10.38-27.31-13.34c-8.96-2.96-17.7-4.45-26.24-4.45
		c-12.34,0-21.59,2.11-27.76,6.32c-6.17,4.21-9.25,10.53-9.25,18.95c0,4.98,1.75,8.72,5.25,11.21c3.5,2.49,7.92,4.15,13.25,4.98
		c5.34,0.83,12.93,1.54,22.78,2.13c0.71,0.12,1.45,0.18,2.22,0.18c0.77,0,1.57,0.06,2.4,0.18c0.36,0,0.71,0,1.07,0
		s0.71,0.06,1.07,0.18c12.93,0.83,23.93,2.55,33.01,5.16c9.07,2.61,16.69,7.77,22.86,15.48c6.17,7.71,9.25,18.86,9.25,33.45
		c0,13.29-2.85,24.29-8.54,33.01c-5.69,8.72-14.26,15.27-25.71,19.66c-11.45,4.39-25.83,6.58-43.15,6.58
		C717.95,1059.11,712.5,1059.11,712.5,1059.11z"/>
	<path class="st2" d="M832.96,871.75h37.01l56.76,160.49l-20.11,39.32L832.96,871.75z M996.47,871.75l-78.64,227.92
		c-2.85,8.42-6.58,15.09-11.21,20.02c-4.63,4.92-10.32,8.45-17.08,10.59c-6.76,2.13-15.07,3.2-24.91,3.2h-7.29v-34.87h7.29
		c6.76,0,12.13-1.37,16.1-4.09c3.97-2.73,7.44-7.41,10.41-14.06l68.32-208.71H996.47z"/>
	<path class="st2" d="M1112.12,871.75h92.34v30.96h-92.34V871.75z M1131.7,846.66c0-16.37,3.76-28.62,11.3-36.74
		c7.53-8.12,19.13-12.19,34.79-12.19h26.69v34.52h-25.98c-3.44,0-6.05,1.31-7.83,3.91c-1.78,2.61-2.67,5.99-2.67,10.14v210.13h-36.3
		V846.66z"/>
	<path class="st2" d="M1271.55,1049.68c-11.39-6.29-20.08-15.45-26.07-27.49c-5.99-12.04-8.99-26.54-8.99-43.5v-30.07
		c0-16.73,2.99-31.05,8.99-42.97c5.99-11.92,14.68-21,26.07-27.22c11.39-6.23,25.09-9.34,41.1-9.34c16.01,0,29.71,3.11,41.1,9.34
		s20.08,15.3,26.07,27.22c5.99,11.92,8.99,26.24,8.99,42.97v30.6c0,16.84-3,31.23-8.99,43.15c-5.99,11.92-14.68,21.03-26.07,27.31
		c-11.39,6.29-25.09,9.43-41.1,9.43C1296.63,1059.11,1282.93,1055.97,1271.55,1049.68z M1342.09,1012.67
		c6.94-7.95,10.41-19.1,10.41-33.45v-30.6c0-14.35-3.47-25.44-10.41-33.27s-16.76-11.74-29.45-11.74
		c-12.69,0-22.51,3.91-29.45,11.74c-6.94,7.83-10.41,18.92-10.41,33.27v30.6c0,14.35,3.47,25.5,10.41,33.45
		c6.94,7.95,16.75,11.92,29.45,11.92C1325.34,1024.59,1335.16,1020.62,1342.09,1012.67z"/>
	<path class="st2" d="M1470.11,1049.68c-11.39-6.29-20.08-15.45-26.07-27.49c-5.99-12.04-8.99-26.54-8.99-43.5v-30.07
		c0-16.73,2.99-31.05,8.99-42.97c5.99-11.92,14.68-21,26.07-27.22c11.39-6.23,25.09-9.34,41.1-9.34c16.01,0,29.71,3.11,41.1,9.34
		s20.08,15.3,26.07,27.22c5.99,11.92,8.99,26.24,8.99,42.97v30.6c0,16.84-3,31.23-8.99,43.15c-5.99,11.92-14.68,21.03-26.07,27.31
		c-11.39,6.29-25.09,9.43-41.1,9.43C1495.2,1059.11,1481.5,1055.97,1470.11,1049.68z M1540.66,1012.67
		c6.94-7.95,10.41-19.1,10.41-33.45v-30.6c0-14.35-3.47-25.44-10.41-33.27s-16.76-11.74-29.45-11.74
		c-12.69,0-22.51,3.91-29.45,11.74c-6.94,7.83-10.41,18.92-10.41,33.27v30.6c0,14.35,3.47,25.5,10.41,33.45
		c6.94,7.95,16.75,11.92,29.45,11.92C1523.91,1024.59,1533.72,1020.62,1540.66,1012.67z"/>
	<path class="st2" d="M1662.9,1050.84c-9.55-5.87-16.81-14.44-21.8-25.71c-4.98-11.27-7.47-24.79-7.47-40.57v-40.75
		c0-15.89,2.43-29.47,7.29-40.75c4.86-11.27,11.95-19.84,21.26-25.71c9.31-5.87,20.49-8.81,33.54-8.81
		c10.91,0,20.91,2.85,29.98,8.54c9.07,5.69,16.4,13.7,21.97,24.02l-3.74,37.72c0-7.83-1.42-14.53-4.27-20.11
		c-2.85-5.57-6.97-9.81-12.37-12.72c-5.4-2.91-11.95-4.36-19.66-4.36c-11.98,0-21.26,3.74-27.85,11.21
		c-6.58,7.47-9.88,17.97-9.88,31.49v40.21c0,13.41,3.29,23.75,9.88,31.05c6.58,7.29,15.86,10.94,27.85,10.94
		c7.71,0,14.26-1.51,19.66-4.54c5.4-3.03,9.52-7.38,12.37-13.08c2.85-5.69,4.27-12.51,4.27-20.46l2.49,38.97
		c-3.68,9.13-9.7,16.79-18.06,22.95c-8.36,6.17-18.65,9.25-30.87,9.25C1683.98,1059.64,1672.45,1056.71,1662.9,1050.84z
		 M1743.94,797.73h36.3v258.71h-36.3V797.73z"/>
</g>
</svg>
