<svg width="129" height="130" viewBox="0 0 129 130" fill="none" xmlns="http://www.w3.org/2000/svg">
<path d="M14.1311 110.906C13.6961 111.003 13.1644 111.116 12.5682 111.212C11.972 111.309 11.3597 111.406 10.7313 111.486C10.1029 111.567 9.50669 111.631 8.91051 111.68C8.33044 111.728 7.83094 111.76 7.42811 111.76C6.52578 111.76 5.63956 111.68 4.76946 111.502C3.88324 111.325 3.0937 111.035 2.38473 110.632C1.67576 110.213 1.09569 109.649 0.660634 108.94C0.225582 108.215 0 107.297 0 106.185V99.8848H3.0937V106.056C3.0937 106.62 3.22261 107.071 3.49653 107.426C3.77045 107.78 4.10882 108.054 4.52776 108.247C4.9467 108.441 5.41398 108.57 5.9296 108.65C6.44522 108.731 6.94472 108.763 7.44422 108.763H8.26599C8.58825 108.763 8.92662 108.747 9.265 108.731C9.60337 108.715 9.94174 108.699 10.264 108.699C10.5863 108.682 10.8763 108.666 11.0858 108.634V98.1607H14.1311V110.906ZM7.00917 96.2432C6.49356 96.2432 6.07462 96.066 5.72013 95.7115C5.36564 95.357 5.1884 94.9381 5.1884 94.4386C5.1884 93.923 5.36564 93.4718 5.72013 93.1173C6.07462 92.7628 6.50967 92.5856 7.00917 92.5856C7.49256 92.5856 7.92761 92.7628 8.2821 93.1173C8.6527 93.4718 8.82995 93.9068 8.82995 94.4386C8.82995 94.922 8.6527 95.357 8.2821 95.7115C7.92761 96.066 7.49256 96.2432 7.00917 96.2432Z" fill="#60605F"/>
<path d="M22.091 108.618C20.5441 108.618 19.3518 108.296 18.5139 107.651C17.6599 107.007 17.241 105.975 17.241 104.525V91.361H20.2863V104.525C20.2863 105.057 20.4636 105.395 20.8181 105.557C21.1725 105.718 21.6076 105.798 22.1071 105.798H23.09V108.618H22.091Z" fill="#60605F"/>
<path d="M22.6549 108.618V105.798H29.1485C29.4224 105.798 29.6802 105.766 29.9219 105.718C30.1636 105.669 30.3892 105.589 30.5664 105.46C30.7598 105.347 30.9048 105.186 31.0176 105.009C31.1304 104.815 31.1787 104.59 31.1787 104.316V102.995C31.1787 102.656 31.1143 102.382 30.9853 102.173C30.8564 101.963 30.6953 101.786 30.5181 101.673C30.3247 101.544 30.1152 101.464 29.8897 101.415C29.648 101.367 29.4224 101.351 29.1807 101.351H23.6217V98.9663L33.7246 90.7164V94.3258L28.5201 98.5313H29.0518C29.8252 98.5313 30.5342 98.5957 31.1787 98.7407C31.8071 98.8857 32.355 99.1113 32.8061 99.4336C33.2573 99.7559 33.6118 100.191 33.8535 100.723C34.1113 101.27 34.2402 101.931 34.2563 102.705V104.3C34.2563 104.767 34.2241 105.186 34.1596 105.524C34.4013 105.605 34.6591 105.669 34.9653 105.718C35.2553 105.766 35.5776 105.782 35.8998 105.782H37.2372V108.602H36.2865C35.5131 108.602 34.8364 108.521 34.2563 108.36C33.6762 108.199 33.1445 108.022 32.6611 107.812C31.8232 108.344 30.6631 108.602 29.1807 108.602H22.6549V108.618Z" fill="#60605F"/>
<path d="M36.7538 108.618V105.798H37.7367C38.2523 105.798 38.6712 105.718 39.0257 105.557C39.3802 105.395 39.5575 105.057 39.5575 104.525V98.1284H42.6028V104.525C42.6028 104.896 42.5706 105.234 42.5223 105.54C42.7962 105.653 43.1023 105.75 43.4568 105.814C43.7952 105.879 44.1497 105.911 44.5042 105.911C45.6482 105.911 46.2283 105.315 46.2283 104.106V98.1123H49.3058V104.3C49.3058 104.574 49.2736 104.799 49.2253 104.993C49.1769 105.186 49.1286 105.331 49.0803 105.476C49.3381 105.605 49.6442 105.718 50.0309 105.798C50.4176 105.879 50.8044 105.911 51.2072 105.911C52.3512 105.911 52.9313 105.315 52.9313 104.106V98.1123H55.9928V104.219C55.9928 105.041 55.8961 105.734 55.6866 106.298C55.4771 106.862 55.1871 107.297 54.8165 107.635C54.4298 107.973 53.9786 108.215 53.4308 108.36C52.8829 108.505 52.2868 108.57 51.61 108.57C50.7882 108.57 50.0632 108.489 49.4509 108.296C48.8386 108.119 48.2907 107.909 47.7751 107.667C47.4367 107.957 47.0017 108.183 46.4538 108.328C45.906 108.473 45.3098 108.554 44.6492 108.554C43.344 108.554 42.0389 108.36 40.7176 107.973C40.3309 108.183 39.8797 108.328 39.3802 108.425C38.8807 108.521 38.3329 108.57 37.7367 108.57H36.7538V108.618Z" fill="#60605F"/>
<path d="M66.6597 108.618H58.6354V105.798H61.9547V94.6641H65V105.798H66.6274C67.1269 105.798 67.562 105.718 67.9165 105.557C68.271 105.395 68.4482 105.057 68.4482 104.525V91.361H71.4936V104.525C71.4936 105.959 71.0746 107.007 70.2206 107.651C69.3989 108.296 68.2065 108.618 66.6597 108.618ZM60.859 112.743H61.7291C61.6807 112.646 61.6485 112.517 61.6163 112.356C61.5841 112.195 61.5679 112.082 61.5679 112.002C61.5679 111.631 61.6324 111.325 61.7452 111.067C61.858 110.809 62.0191 110.584 62.2125 110.439C62.4058 110.278 62.6314 110.165 62.9053 110.084C63.1631 110.004 63.4371 109.955 63.711 109.955C63.9366 109.955 64.1783 109.988 64.3877 110.068C64.6133 110.133 64.8389 110.262 65.1128 110.423V111.889C64.9839 111.808 64.8067 111.712 64.5811 111.615C64.3555 111.518 64.1299 111.47 63.9043 111.454C63.6788 111.438 63.5015 111.47 63.3404 111.551C63.1792 111.631 63.1148 111.808 63.1148 112.066C63.1148 112.147 63.1309 112.243 63.1631 112.388C63.1954 112.533 63.2598 112.662 63.3243 112.759H65.0967V114.145H60.8267V112.743H60.859Z" fill="#60605F"/>
<path d="M77.2298 91.361H74.1844V108.618H77.2298V91.361Z" fill="#60605F"/>
<path d="M96.227 108.618H91.2481C90.4908 108.618 89.7496 108.521 89.0406 108.296C88.3316 108.086 87.7032 107.764 87.1554 107.329C86.6075 106.894 86.1725 106.346 85.8502 105.685C85.528 105.025 85.3668 104.219 85.3668 103.285C85.3668 102.559 85.4957 101.883 85.7535 101.254C86.0113 100.626 86.3981 100.078 86.9137 99.6108C87.4293 99.1435 88.0577 98.7729 88.815 98.5151C89.5723 98.2412 90.4263 98.1123 91.4092 98.1123C91.6831 98.1123 92.0215 98.1445 92.4566 98.1929C92.8755 98.2412 93.3267 98.3056 93.7778 98.3862C94.229 98.4668 94.6802 98.5635 95.1152 98.6762C95.5503 98.789 95.9048 98.9179 96.2109 99.0307V108.618H96.227ZM88.6861 96.2593C88.1866 96.2593 87.7516 96.082 87.3971 95.7276C87.0426 95.3731 86.8653 94.9541 86.8653 94.4546C86.8653 93.939 87.0426 93.4878 87.3971 93.1334C87.7516 92.7789 88.1866 92.6016 88.6861 92.6016C89.1856 92.6016 89.6046 92.7789 89.9752 93.1334C90.3458 93.4878 90.523 93.9229 90.523 94.4546C90.523 94.938 90.3458 95.3731 89.9752 95.7276C89.6046 96.082 89.1856 96.2593 88.6861 96.2593ZM93.1816 101.061C93.0366 101.029 92.8111 100.98 92.5049 100.916C92.2149 100.851 91.8443 100.819 91.4253 100.819C90.3619 100.819 89.5723 101.045 89.0728 101.512C88.5733 101.979 88.3155 102.559 88.3155 103.285C88.3155 104.074 88.5733 104.703 89.105 105.138C89.6368 105.573 90.3458 105.798 91.2642 105.798H93.1978V101.061H93.1816ZM93.2622 96.2593C92.7627 96.2593 92.3277 96.082 91.9732 95.7276C91.6187 95.3731 91.4414 94.9541 91.4414 94.4546C91.4414 93.939 91.6187 93.4878 91.9732 93.1334C92.3277 92.7789 92.7627 92.6016 93.2622 92.6016C93.7456 92.6016 94.1807 92.7789 94.5513 93.1334C94.9219 93.4878 95.0991 93.9229 95.0991 94.4546C95.0991 94.938 94.9219 95.3731 94.5513 95.7276C94.1807 96.082 93.7456 96.2593 93.2622 96.2593Z" fill="#60605F"/>
<path d="M100.32 98.1445H103.365V110.342C103.365 111.647 102.978 112.598 102.221 113.21C101.464 113.823 100.481 114.129 99.2724 114.129C98.8857 114.129 98.5151 114.096 98.1606 114.016C97.8061 113.935 97.4839 113.855 97.1938 113.758V111.196C97.4839 111.293 97.7739 111.373 98.064 111.454C98.354 111.518 98.6118 111.551 98.8535 111.551C99.3047 111.551 99.6753 111.438 99.9331 111.212C100.191 110.987 100.32 110.552 100.32 109.907V98.1445Z" fill="#60605F"/>
<path d="M109.424 91.361H106.378V108.618H109.424V91.361Z" fill="#60605F"/>
<path d="M113.42 98.1446H116.465V110.342C116.465 111.647 116.078 112.598 115.321 113.21C114.564 113.823 113.581 114.129 112.372 114.129C111.986 114.129 111.615 114.096 111.26 114.016C110.906 113.935 110.584 113.855 110.294 113.758V111.196C110.584 111.293 110.874 111.373 111.164 111.454C111.454 111.518 111.712 111.551 111.953 111.551C112.405 111.551 112.775 111.438 113.033 111.212C113.291 110.987 113.42 110.552 113.42 109.907V98.1446ZM114.789 96.2432C114.29 96.2432 113.855 96.066 113.5 95.7115C113.146 95.357 112.968 94.9381 112.968 94.4386C112.968 93.923 113.146 93.4718 113.5 93.1173C113.855 92.7628 114.29 92.5856 114.789 92.5856C115.273 92.5856 115.708 92.7628 116.078 93.1173C116.433 93.4718 116.626 93.9068 116.626 94.4386C116.626 94.922 116.449 95.357 116.078 95.7115C115.708 96.066 115.289 96.2432 114.789 96.2432Z" fill="#60605F"/>
<path d="M125.891 108.618H123.99C123.232 108.618 122.491 108.521 121.782 108.296C121.073 108.086 120.445 107.764 119.897 107.329C119.349 106.894 118.914 106.346 118.592 105.685C118.27 105.009 118.109 104.219 118.109 103.285C118.109 102.559 118.237 101.883 118.495 101.254C118.753 100.626 119.14 100.078 119.671 99.6108C120.187 99.1435 120.816 98.7729 121.573 98.5151C122.33 98.2412 123.184 98.1123 124.167 98.1123C124.441 98.1123 124.779 98.1445 125.214 98.1929C125.633 98.2412 126.084 98.3057 126.536 98.3862C126.987 98.4668 127.438 98.5635 127.873 98.6763C128.308 98.7891 128.679 98.918 128.985 99.0307V109.198C128.985 110.165 128.808 110.971 128.437 111.615C128.066 112.26 127.615 112.775 127.051 113.146C126.487 113.532 125.875 113.79 125.198 113.951C124.522 114.113 123.861 114.193 123.216 114.193C121.798 114.193 120.509 113.919 119.333 113.355V110.519C120.026 110.906 120.67 111.196 121.267 111.373C121.863 111.551 122.507 111.647 123.216 111.647C123.958 111.647 124.586 111.438 125.118 111.035C125.649 110.632 125.907 109.988 125.907 109.134V108.618H125.891ZM125.923 101.061C125.762 101.029 125.553 100.98 125.247 100.916C124.957 100.852 124.586 100.835 124.167 100.835C123.104 100.835 122.314 101.061 121.815 101.512C121.315 101.963 121.057 102.559 121.057 103.285C121.057 104.074 121.315 104.703 121.847 105.138C122.362 105.573 123.087 105.798 124.006 105.798H125.939V101.061H125.923Z" fill="#60605F"/>
<path d="M6.71914 129.919V123.104L4.26996 128.501H3.44819L0.966782 123.104V129.919H0V120.961H0.966782L3.88324 127.309L6.71914 120.961H7.68592V129.919H6.71914Z" fill="#60605F"/>
<path d="M11.2307 120.961H10.28V129.919H11.2307V120.961Z" fill="#60605F"/>
<path d="M19.529 129.919L14.7756 122.733V129.919H13.825V120.961H14.7273L19.4806 128.115V120.961H20.4474V129.919H19.529Z" fill="#60605F"/>
<path d="M23.9763 120.961H23.0256V129.919H23.9763V120.961Z" fill="#60605F"/>
<path d="M28.8746 129.984C27.5372 129.984 26.651 129.646 25.8131 128.808L26.4737 128.147C27.2149 128.888 27.9078 129.13 28.9068 129.13C30.212 129.13 31.0176 128.518 31.0176 127.47C31.0176 127.003 30.8726 126.6 30.5826 126.342C30.2925 126.085 30.067 126.02 29.4063 125.907L28.359 125.746C27.65 125.633 27.1022 125.408 26.7154 125.069C26.2643 124.667 26.0387 124.119 26.0387 123.394C26.0387 121.879 27.1344 120.864 28.9068 120.864C30.0508 120.864 30.8082 121.154 31.5816 121.847L30.9693 122.459C30.4214 121.96 29.8253 121.686 28.8746 121.686C27.6822 121.686 26.9894 122.346 26.9894 123.345C26.9894 123.78 27.1183 124.135 27.3922 124.377C27.6661 124.618 28.1334 124.796 28.6007 124.86L29.5836 125.005C30.4214 125.134 30.8404 125.311 31.211 125.633C31.6944 126.052 31.9683 126.665 31.9683 127.406C31.9683 129.017 30.7437 129.984 28.8746 129.984Z" fill="#60605F"/>
<path d="M36.6088 121.815V129.919H35.6421V121.815H33.064V120.961H39.203V121.815H36.6088Z" fill="#60605F"/>
<path d="M46.0188 129.919L43.9886 125.94H41.8456V129.919H40.8949V120.961H44.327C45.8899 120.961 46.9856 121.911 46.9856 123.458C46.9856 124.763 46.1961 125.617 45.0359 125.859L47.1629 129.919H46.0188ZM44.2142 121.815H41.8295V125.102H44.2142C45.2615 125.102 46.0027 124.554 46.0027 123.474C46.0027 122.362 45.2615 121.815 44.2142 121.815Z" fill="#60605F"/>
<path d="M51.5456 126.213V129.919H50.5949V126.213L47.9363 120.961H48.9675L51.0783 125.247L53.1569 120.961H54.1881L51.5456 126.213Z" fill="#60605F"/>
<path d="M63.8077 129.065C63.1954 129.678 62.4058 130 61.5196 130C60.6334 130 59.8277 129.678 59.2316 129.065C58.3937 128.228 58.3937 127.341 58.3937 125.44C58.3937 123.539 58.3937 122.652 59.2316 121.815C59.8277 121.202 60.6334 120.88 61.5196 120.88C62.4058 120.88 63.2115 121.202 63.8077 121.815C64.6455 122.652 64.6455 123.539 64.6455 125.44C64.6455 127.341 64.6455 128.211 63.8077 129.065ZM63.0665 122.379C62.6797 121.976 62.1158 121.734 61.5196 121.734C60.9234 121.734 60.3595 121.976 59.9728 122.379C59.4088 122.959 59.3443 123.555 59.3443 125.44C59.3443 127.309 59.4088 127.921 59.9728 128.501C60.3595 128.904 60.9234 129.146 61.5196 129.146C62.1158 129.146 62.6797 128.904 63.0665 128.501C63.6304 127.921 63.6949 127.325 63.6949 125.44C63.6949 123.555 63.6304 122.959 63.0665 122.379Z" fill="#60605F"/>
<path d="M67.852 121.815V125.102H71.7836V125.956H67.852V129.919H66.9014V120.961H72.4604V121.815H67.852Z" fill="#60605F"/>
<path d="M82.5472 129.919V125.827H78.2933V129.919H77.3265V120.961H78.2933V124.973H82.5472V120.961H83.4978V129.919H82.5472Z" fill="#60605F"/>
<path d="M91.1676 129.065C90.5553 129.678 89.7658 130 88.8796 130C87.9934 130 87.1877 129.678 86.5915 129.065C85.7537 128.228 85.7537 127.341 85.7537 125.44C85.7537 123.539 85.7537 122.652 86.5915 121.815C87.2038 121.202 87.9934 120.88 88.8796 120.88C89.7819 120.88 90.5715 121.202 91.1676 121.815C92.0055 122.652 92.0055 123.539 92.0055 125.44C92.0216 127.341 92.0216 128.211 91.1676 129.065ZM90.4264 122.379C90.0397 121.976 89.4758 121.734 88.8796 121.734C88.2834 121.734 87.7195 121.976 87.3327 122.379C86.7688 122.959 86.7043 123.555 86.7043 125.44C86.7043 127.309 86.7688 127.921 87.3327 128.501C87.7195 128.904 88.2834 129.146 88.8796 129.146C89.4758 129.146 90.0397 128.904 90.4264 128.501C90.9904 127.921 91.0549 127.325 91.0549 125.44C91.0549 123.555 90.9904 122.959 90.4264 122.379Z" fill="#60605F"/>
<path d="M97.2584 129.984C95.4537 129.984 94.1324 128.743 94.1324 126.955V120.961H95.0831V126.89C95.0831 128.244 95.9371 129.146 97.2423 129.146C98.5474 129.146 99.4175 128.26 99.4175 126.89V120.961H100.368V126.955C100.4 128.743 99.0792 129.984 97.2584 129.984Z" fill="#60605F"/>
<path d="M105.17 129.984C103.832 129.984 102.946 129.646 102.092 128.808L102.753 128.147C103.494 128.888 104.187 129.13 105.202 129.13C106.507 129.13 107.313 128.518 107.313 127.47C107.313 127.003 107.168 126.6 106.894 126.342C106.604 126.085 106.378 126.02 105.718 125.907L104.67 125.746C103.961 125.633 103.413 125.408 103.027 125.069C102.576 124.667 102.35 124.119 102.35 123.394C102.35 121.879 103.446 120.864 105.218 120.864C106.362 120.864 107.119 121.154 107.893 121.847L107.281 122.459C106.733 121.96 106.137 121.686 105.186 121.686C103.993 121.686 103.301 122.346 103.301 123.345C103.301 123.78 103.43 124.135 103.703 124.377C103.977 124.618 104.445 124.796 104.912 124.86L105.895 125.005C106.733 125.134 107.152 125.311 107.522 125.633C108.006 126.052 108.28 126.665 108.28 127.406C108.263 129.017 107.023 129.984 105.17 129.984Z" fill="#60605F"/>
<path d="M111.212 120.961H110.261V129.919H111.212V120.961Z" fill="#60605F"/>
<path d="M119.527 129.919L114.773 122.733V129.919H113.806V120.961H114.709L119.462 128.115V120.961H120.429V129.919H119.527Z" fill="#60605F"/>
<path d="M128.195 128.953C127.567 129.629 126.729 129.984 125.811 129.984C124.924 129.984 124.119 129.662 123.523 129.049C122.685 128.211 122.685 127.325 122.685 125.424C122.685 123.523 122.685 122.636 123.523 121.799C124.135 121.186 124.924 120.864 125.811 120.864C127.519 120.864 128.679 121.976 128.953 123.539H128.002C127.744 122.411 126.939 121.718 125.827 121.718C125.231 121.718 124.667 121.96 124.28 122.362C123.716 122.943 123.651 123.539 123.651 125.424C123.651 127.293 123.716 127.921 124.28 128.485C124.667 128.888 125.231 129.114 125.827 129.114C126.487 129.114 127.116 128.856 127.519 128.34C127.889 127.905 128.018 127.406 128.018 126.713V126.036H125.811V125.198H128.969V126.616C128.969 127.68 128.759 128.373 128.195 128.953Z" fill="#60605F"/>
<path d="M35.1587 78.9861H25.0074V82.7404H35.1587V78.9861Z" fill="#006E43"/>
<path d="M79.1312 78.9861H43.4247V82.7404H79.1312V78.9861Z" fill="#006E43"/>
<path d="M58.442 71.4613H49.8215V75.2156H58.442V71.4613Z" fill="#006E43"/>
<path d="M73.8783 63.9365H49.8215V67.6909H73.8783V63.9365Z" fill="#006E43"/>
<path d="M73.8784 71.4935H70.124V82.7565H73.8784V71.4935Z" fill="#006E43"/>
<path d="M66.3535 71.4935H62.5991V82.7565H66.3535V71.4935Z" fill="#006E43"/>
<path d="M51.3039 63.9365H47.5334V75.2156H51.3039V63.9365Z" fill="#006E43"/>
<path d="M58.8126 71.4935H55.0582V82.7565H58.8126V71.4935Z" fill="#006E43"/>
<path d="M36.3027 71.4613H32.5322V82.7404H36.3027V71.4613Z" fill="#006E43"/>
<path d="M28.7618 71.4613H25.0074V82.7404H28.7618V71.4613Z" fill="#006E43"/>
<path d="M36.3027 63.9365H32.5322V67.6909H36.3027V63.9365Z" fill="#006E43"/>
<mask id="mask0_23_3003" style="mask-type:luminance" maskUnits="userSpaceOnUse" x="62" y="0" width="5" height="61">
<path d="M62.5978 1.88523V60.1822H66.3521V1.88523L64.4669 0L62.5978 1.88523Z" fill="white"/>
</mask>
<g mask="url(#mask0_23_3003)">
<path d="M66.3526 0H62.5983V60.1661H66.3526V0Z" fill="url(#paint0_linear_23_3003)"/>
</g>
<mask id="mask1_23_3003" style="mask-type:luminance" maskUnits="userSpaceOnUse" x="70" y="11" width="4" height="50">
<path d="M70.124 60.1822H73.8784V15.3396L70.124 11.5692V60.1822Z" fill="white"/>
</mask>
<g mask="url(#mask1_23_3003)">
<path d="M73.8784 11.5692H70.124V60.1661H73.8784V11.5692Z" fill="url(#paint1_linear_23_3003)"/>
</g>
<mask id="mask2_23_3003" style="mask-type:luminance" maskUnits="userSpaceOnUse" x="85" y="34" width="4" height="41">
<path d="M85.1575 74.0717H88.9279V37.8012L85.1575 34.0308V74.0717Z" fill="white"/>
</mask>
<g mask="url(#mask2_23_3003)">
<path d="M88.9118 34.0308H85.1575V74.0717H88.9118V34.0308Z" fill="url(#paint2_linear_23_3003)"/>
</g>
<mask id="mask3_23_3003" style="mask-type:luminance" maskUnits="userSpaceOnUse" x="92" y="45" width="5" height="16">
<path d="M92.681 60.2307H96.4515V49.1288L92.681 45.3583V60.2307Z" fill="white"/>
</mask>
<g mask="url(#mask3_23_3003)">
<path d="M96.4357 45.3583H92.6814V60.2145H96.4357V45.3583Z" fill="url(#paint3_linear_23_3003)"/>
</g>
<mask id="mask4_23_3003" style="mask-type:luminance" maskUnits="userSpaceOnUse" x="55" y="11" width="4" height="50">
<path d="M55.0574 15.0981V60.1824H58.8278V11.3277L55.0574 15.0981Z" fill="white"/>
</mask>
<g mask="url(#mask4_23_3003)">
<path d="M58.8121 11.3276H55.0577V60.1824H58.8121V11.3276Z" fill="url(#paint4_linear_23_3003)"/>
</g>
<mask id="mask5_23_3003" style="mask-type:luminance" maskUnits="userSpaceOnUse" x="47" y="22" width="5" height="39">
<path d="M47.5343 26.3445V60.1819H51.3048V22.5901L47.5343 26.3445Z" fill="white"/>
</mask>
<g mask="url(#mask5_23_3003)">
<path d="M51.3045 22.5903H47.5341V60.182H51.3045V22.5903Z" fill="url(#paint5_linear_23_3003)"/>
</g>
<mask id="mask6_23_3003" style="mask-type:luminance" maskUnits="userSpaceOnUse" x="40" y="33" width="4" height="50">
<path d="M40.0261 37.7366V60.1821V82.7404H43.7805V60.1821V33.9823L40.0261 37.7366Z" fill="white"/>
</mask>
<g mask="url(#mask6_23_3003)">
<path d="M43.78 33.9824H40.0256V82.7565H43.78V33.9824Z" fill="url(#paint6_linear_23_3003)"/>
</g>
<mask id="mask7_23_3003" style="mask-type:luminance" maskUnits="userSpaceOnUse" x="32" y="45" width="5" height="16">
<path d="M32.5322 49.0964V60.1822H36.2866V45.3421L32.5322 49.0964Z" fill="white"/>
</mask>
<g mask="url(#mask7_23_3003)">
<path d="M36.3027 45.3421H32.5322V60.1822H36.3027V45.3421Z" fill="url(#paint7_linear_23_3003)"/>
</g>
<mask id="mask8_23_3003" style="mask-type:luminance" maskUnits="userSpaceOnUse" x="25" y="56" width="4" height="12">
<path d="M25.0065 59.8925V67.7073H28.7608V56.1382L25.0065 59.8925Z" fill="white"/>
</mask>
<g mask="url(#mask8_23_3003)">
<path d="M28.7612 56.1381H25.0068V67.7072H28.7612V56.1381Z" fill="url(#paint8_linear_23_3003)"/>
</g>
<path d="M17.483 71.4612V78.986H4.91486L1.14441 82.7404H17.483H21.2374V78.986V67.6908L17.483 71.4612Z" fill="#006E43"/>
<path d="M103.978 59.8598L100.207 56.1055V63.8881V65.8216V82.7403H103.978V65.8216V59.8598Z" fill="#006E43"/>
<path d="M95.3091 78.986H85.1578V82.7403H95.3091V78.986Z" fill="#006E43"/>
<path d="M96.4368 63.9847H92.6825V82.7403H96.4368V63.9847Z" fill="#006E43"/>
<path d="M81.3874 71.4934H77.6331V82.7564H81.3874V71.4934Z" fill="#006E43"/>
<mask id="mask9_23_3003" style="mask-type:luminance" maskUnits="userSpaceOnUse" x="77" y="22" width="5" height="46">
<path d="M77.6499 67.7067H81.4042V26.4734L77.6499 22.7029V67.7067Z" fill="white"/>
</mask>
<g mask="url(#mask9_23_3003)">
<path d="M81.4039 22.7192H77.6495V67.7068H81.4039V22.7192Z" fill="url(#paint9_linear_23_3003)"/>
</g>
<path d="M111.503 71.4612V78.986H124.071L127.841 82.7565H111.503H107.732V78.986V67.7069L111.503 71.4612Z" fill="#006E43"/>
<path d="M88.9282 76.0213V74.7806H87.3813H86.1567V76.843H85.2222V78.0676H88.9282V76.843H87.3813V76.0213H88.9282Z" fill="#006E43"/>
<defs>
<linearGradient id="paint0_linear_23_3003" x1="64.4752" y1="15.069" x2="64.4752" y2="71.5871" gradientUnits="userSpaceOnUse">
<stop stop-color="#27AFA7"/>
<stop offset="1" stop-color="#2B7349"/>
</linearGradient>
<linearGradient id="paint1_linear_23_3003" x1="71.9975" y1="17.0502" x2="71.9975" y2="71.0863" gradientUnits="userSpaceOnUse">
<stop stop-color="#27AFA7"/>
<stop offset="1" stop-color="#2B7349"/>
</linearGradient>
<linearGradient id="paint2_linear_23_3003" x1="87.0445" y1="12.5078" x2="87.0445" y2="89.6506" gradientUnits="userSpaceOnUse">
<stop stop-color="#27AFA7"/>
<stop offset="0.7512" stop-color="#2B7349"/>
<stop offset="1" stop-color="#2B7349"/>
</linearGradient>
<linearGradient id="paint3_linear_23_3003" x1="94.5657" y1="24.1553" x2="94.5657" y2="69.351" gradientUnits="userSpaceOnUse">
<stop stop-color="#27AFA7"/>
<stop offset="1" stop-color="#2B7349"/>
</linearGradient>
<linearGradient id="paint4_linear_23_3003" x1="56.9422" y1="16.8323" x2="56.9422" y2="71.1412" gradientUnits="userSpaceOnUse">
<stop stop-color="#27AFA7"/>
<stop offset="1" stop-color="#2B7349"/>
</linearGradient>
<linearGradient id="paint5_linear_23_3003" x1="49.4209" y1="17.8792" x2="49.4209" y2="70.8771" gradientUnits="userSpaceOnUse">
<stop stop-color="#27AFA7"/>
<stop offset="1" stop-color="#2B7349"/>
</linearGradient>
<linearGradient id="paint6_linear_23_3003" x1="41.8988" y1="26.1509" x2="41.8988" y2="80.7803" gradientUnits="userSpaceOnUse">
<stop stop-color="#27AFA7"/>
<stop offset="1" stop-color="#2B7349"/>
</linearGradient>
<linearGradient id="paint7_linear_23_3003" x1="34.4068" y1="24.1538" x2="34.4068" y2="69.2895" gradientUnits="userSpaceOnUse">
<stop stop-color="#27AFA7"/>
<stop offset="1" stop-color="#2B7349"/>
</linearGradient>
<linearGradient id="paint8_linear_23_3003" x1="26.8867" y1="23.8257" x2="26.8867" y2="72.8092" gradientUnits="userSpaceOnUse">
<stop stop-color="#27AFA7"/>
<stop offset="1" stop-color="#2B7349"/>
</linearGradient>
<linearGradient id="paint9_linear_23_3003" x1="79.5221" y1="17.7543" x2="79.5221" y2="73.5155" gradientUnits="userSpaceOnUse">
<stop stop-color="#27AFA7"/>
<stop offset="1" stop-color="#2B7349"/>
</linearGradient>
</defs>
</svg>
