<svg width="125" height="73" viewBox="0 0 125 73" fill="none" xmlns="http://www.w3.org/2000/svg">
<path d="M120.843 67.8742H124.169V47.8259H120.843V67.8742Z" fill="#231F20"/>
<path d="M3.32622 61.4696V55.3502H0V61.4696C0 64.9529 2.8056 67.7874 6.27644 67.8618V67.8783H6.40866L33.349 67.87V64.5438L6.40866 64.5562C4.71043 64.5562 3.32622 63.172 3.32622 61.4696Z" fill="#231F20"/>
<path d="M112.199 61.5399C112.199 63.2382 110.939 64.548 109.237 64.548V64.5521H81.1434V55.3627H77.8213V64.5521H43.179V47.8384H39.8569V67.8784H109.237V67.8742C112.769 67.8742 115.645 64.9199 115.645 61.3871C115.645 58.7798 115.654 55.3627 115.654 55.3627H112.199" fill="#231F20"/>
<path d="M77.7678 72.8615H81.123V69.5063H77.7678V72.8615Z" fill="#231F20"/>
<path d="M71.0779 72.8615H74.4289V69.5063H71.0779V72.8615Z" fill="#231F20"/>
<path d="M6.64868 58.7219H10.0038V55.3708H6.64868V58.7219Z" fill="#231F20"/>
<path d="M13.3547 58.7219H16.7099V55.3708H13.3547V58.7219Z" fill="#231F20"/>
<path d="M108.865 72.8615H112.216V69.5063H108.865V72.8615Z" fill="#231F20"/>
<path d="M62.7044 29.8947C62.7044 29.8947 58.527 26.0933 45.9865 28.2626C51.6886 24.7132 58.5022 18.5855 62.7044 8.34242V29.8947ZM63.5473 29.7046C63.5473 29.7046 63.5432 2.5081 63.5473 0H30V32.8697H30.2231C31.6528 32.0681 57.0684 17.8914 62.7044 0.00413296V3.73942C61.0186 9.11509 56.0892 20.5565 43.214 28.8121C39.5407 29.6261 35.2517 30.9153 30.2562 32.8697H95.57V32.8656C70.6047 23.0894 63.5473 29.7046 63.5473 29.7046ZM63.6011 0C69.0346 18.2674 93.7478 31.845 95.57 32.849V0" fill="#F15A22"/>
<path d="M30 38.3899H95.5659V35.4645H30V38.3899Z" fill="#F15A22"/>
</svg>
