<svg width="153" height="60" viewBox="0 0 153 60" fill="none" xmlns="http://www.w3.org/2000/svg">
<g clip-path="url(#clip0_23_3336)">
<path d="M19.3591 19.9507C19.3591 24.3433 16.6409 26.3135 16.3395 27.0224C13.6633 29.3554 10.2837 29.121 9.61118 29.3554C4.73304 29.3554 2.81583 26.4503 2.05955 26.1293C0.00280549 23.6596 0.206526 20.8466 0.00280549 20.2577C-0.0306829 18.5917 0.396294 16.9507 1.23629 15.5135C1.66327 15.4159 5.06792 14.6484 5.49211 14.5507C4.54048 16.0856 4.05211 17.8605 4.0856 19.6661C4.0856 22.2112 5.42234 23.294 5.57025 23.6959C7.0549 25.1833 9.19815 25.0326 9.60281 25.1833C12.1061 25.1833 13.1861 23.9163 13.5823 23.7768C14.5675 22.8391 15.0642 21.5554 15.0698 19.9312V2.93865L19.3591 0.661438C19.3591 10.9507 19.3591 17.3777 19.3591 19.9507Z" fill="#510C76"/>
<path d="M4.74987 47.4C4.73312 53.5033 8.7601 52.9061 9.20382 53.5173C13.6047 53.5284 13.1806 48.0335 13.6215 47.4224C13.6215 44.0121 12.4885 42.7061 12.3629 42.1814C11.6736 41.1321 10.4931 40.5098 9.2401 40.5321C7.89498 40.4847 6.62801 41.1684 5.93312 42.321C5.15452 43.5154 4.76382 45.2094 4.75824 47.4M14.4643 55.761C15.6364 57.1089 16.9452 58.5684 18.388 60.1424L13.2978 60.1284C11.7573 58.3228 10.9034 57.3182 10.7331 57.1173C10.2978 57.1535 9.78149 57.1759 9.18149 57.1731C4.53777 57.1619 2.83266 54.2373 2.12661 53.9107C0.217773 51.3042 0.410332 48.0503 0.217773 47.3973C0.231727 42.4717 2.60661 40.32 2.87173 39.5331C5.29684 36.8149 8.60103 37.094 9.23731 36.8233C13.7945 36.8345 15.561 40.1303 16.2643 40.4987C18.1731 43.387 17.9806 46.7498 18.1731 47.4447C18.1648 51.1842 16.9285 53.961 14.4643 55.7721" fill="#510C76"/>
<path d="M38.8828 54.8344C40.0577 53.2186 40.7107 52.32 40.8419 52.1414C42.5386 53.3247 44.9386 53.213 45.3963 53.333C48.4298 53.333 48.134 51.2456 48.4382 51.014C48.4382 49.6214 45.293 48.6084 44.9442 48.3405C39.6168 46.4065 40.161 42.8903 39.6279 42.2847C39.6279 39.773 41.3107 38.6903 41.4977 38.2912C43.2363 36.8986 45.7116 37.0465 46.1805 36.9098C49.4986 36.9098 51.8093 38.7628 52.4372 38.9693C51.8763 39.8065 50.7572 41.3917 50.5703 41.6623C47.9693 40.5712 46.56 40.6744 46.1135 40.5656C43.7554 40.5656 43.9898 42.1507 43.7526 42.3265C43.7526 42.8233 43.9898 43.2893 44.3889 43.5823C45.0251 44.0958 46.6326 44.7182 46.881 44.8437C50.1014 46.0912 51.0837 47.3386 51.5498 47.6149C52.4903 48.5777 53.0037 49.8754 52.9814 51.2205C52.9814 54.321 50.9051 55.4847 50.6763 55.9591C48.8121 57.2847 46.4596 57.1451 45.9907 57.2791C43.8028 57.2791 41.4391 56.467 38.9023 54.8428" fill="#510C76"/>
<path d="M61.0941 46.2447C61.6578 46.4121 62.241 46.4958 62.8299 46.4958C62.8494 46.4958 62.9973 46.4958 63.0169 46.4958C65.3722 46.4763 65.1434 43.4623 65.3806 43.1247C65.3806 40.4623 63.1815 40.7191 62.9387 40.4512C61.842 40.4512 61.2336 40.5237 61.108 40.6633C61.0996 43.6409 61.0969 45.4996 61.0941 46.2447ZM56.6959 56.9247C56.7266 45.173 56.7434 38.6428 56.7462 37.3396C57.5527 37.214 58.3648 37.133 59.1796 37.0968C61.2755 36.9461 62.068 36.9656 62.3889 36.9489C69.9796 36.9684 69.2094 42.5191 69.9657 43.1386C69.9657 45.3684 69.1034 47.2437 67.3787 48.7702L71.1685 56.9637L66.7675 56.9526C64.8448 52.7442 63.7759 50.4084 63.5638 49.9396C63.2903 50.0009 63.0085 50.0316 62.7266 50.0316C62.7071 50.0316 62.5368 50.0316 62.5145 50.0316C62.0317 50.0205 61.5545 49.9507 61.0885 49.8196C61.0885 50.294 61.0829 52.6689 61.0717 56.947L56.6959 56.9247Z" fill="#510C76"/>
<path d="M102.913 37.4289L102.862 57.0475H98.4921C98.5144 47.5005 98.5284 42.1954 98.5312 41.1349C97.4456 45.7814 95.9135 51.0782 93.9377 57.0224C91.7219 57.0224 90.494 57.0224 90.2484 57.0224C87.9544 49.9228 86.4586 44.6791 85.7637 41.2884L85.7247 57.0028L81.4465 56.9917L81.5023 37.3647C85.1833 37.3731 87.2289 37.3786 87.6391 37.3814C90.254 44.8577 91.6214 50.5005 92.0623 51.9572C93.3154 47.4586 94.7944 42.6084 96.5023 37.4038L102.913 37.4289Z" fill="#510C76"/>
<path d="M125.877 37.4875L130.245 37.4986L130.206 53.6456L137.489 53.6652L137.478 57.1368L125.827 57.1061L125.877 37.4875Z" fill="#510C76"/>
<path d="M152.788 57.1759L152.796 53.7042L145.513 53.6875L145.557 37.5405L141.187 37.5266L141.134 57.1452L152.788 57.1759Z" fill="#510C76"/>
<path d="M49.3814 18.441C48.8707 18.5303 48.3544 18.5861 47.8381 18.6112C47.8381 18.0754 47.8381 13.7917 47.8381 13.2559C47.8381 10.9898 49.5963 11.2187 49.7916 10.9926C52.4009 10.9926 52.1414 14.3582 52.4009 14.7321C52.4009 16.9507 51.3963 18.187 49.3814 18.441ZM32.467 18.6112C31.9479 18.5861 31.4316 18.5303 30.9209 18.441C27.8986 18.0614 28.2028 15.1033 27.9014 14.7321C27.9014 10.9926 30.2512 11.3666 30.5107 10.9926C31.8167 10.9926 32.467 11.7461 32.467 13.2559C32.467 16.1107 32.467 17.8968 32.467 18.6112ZM54.5972 8.89679C52.7833 6.974 50.2744 7.16656 49.7916 6.974C46.7386 6.974 45.4995 8.73493 45.0223 8.93307C44.0316 10.0521 43.5377 11.5173 43.5377 13.3256C43.5377 15.0335 43.5377 15.9824 43.5377 16.1721C43.5377 17.5117 43.0409 17.8912 42.9879 18.081C42.6195 18.4633 42.0028 18.6503 41.1349 18.6475H36.7591C36.7591 15.4549 36.7591 13.68 36.7591 13.3256C36.7591 10.6131 35.4223 9.37121 35.2744 8.93307C33.5553 6.97679 30.9795 7.16935 30.5023 6.974C27.5163 6.974 26.1767 8.70423 25.6967 8.89679C23.6344 11.0959 23.8437 14.2717 23.6372 14.8689C23.6372 17.7517 25.0884 19.2866 25.2502 19.7777C26.5312 21.3824 28.3507 22.3089 30.7088 22.5573C31.2446 22.6214 31.5405 22.6549 31.6019 22.6605C31.9898 22.6856 32.2744 22.708 32.4502 22.7303C32.347 23.8298 31.3535 24.4298 31.2307 24.6168C30.4856 25.1442 29.5898 25.4205 28.6744 25.4066C27.3656 25.387 26.0874 25.0214 24.9684 24.3461C24.9684 24.72 24.9684 27.7117 24.9684 28.0856C26.2465 28.8391 27.7033 29.241 29.1879 29.2521C30.9126 29.2884 32.5981 28.7582 33.9935 27.7452C35.6177 26.601 36.6335 24.7814 36.7535 22.8C37.0326 22.8 39.2763 22.8 39.5553 22.8C41.1126 22.8 42.4409 22.3982 43.5377 21.6V22.8H44.453V22.7861C46.4819 22.7526 47.6065 22.7359 47.8326 22.7331C48.0139 22.7107 48.3014 22.6884 48.6809 22.6633C48.7702 22.6549 49.4846 22.5712 49.5739 22.56C53.1098 22.1833 54.4856 20.0596 55.0298 19.7805C56.6484 17.7517 56.4837 15.3628 56.6456 14.8717C56.6456 12.3517 55.9591 10.3619 54.586 8.89679" fill="#510C76"/>
<path d="M124.197 4.5377C126.427 4.5377 126.207 2.467 126.43 2.23537C126.519 1.09398 125.668 0.0977007 124.527 0.00560768C124.418 -0.00276441 124.306 -0.00276441 124.197 0.00560768C121.931 0.00560768 122.157 2.01212 121.931 2.23537C121.898 2.8577 122.121 3.46607 122.548 3.91817C122.989 4.34235 123.586 4.56561 124.197 4.5377Z" fill="#510C76"/>
<path d="M129.483 4.5377C131.713 4.5377 131.489 2.467 131.713 2.23537C131.805 1.09398 130.951 0.0977007 129.809 0.00560768C129.703 -0.00276441 129.592 -0.00276441 129.483 0.00560768C127.217 0.00560768 127.446 2.01212 127.217 2.23537C127.186 2.8577 127.407 3.46607 127.836 3.91817C128.277 4.34235 128.872 4.56561 129.483 4.5377Z" fill="#510C76"/>
<path d="M128.71 16.574C128.249 17.3107 127.585 17.8996 126.801 18.2707C126.031 17.9135 125.386 17.3331 124.948 16.6047C124.474 15.8624 124.222 14.9973 124.228 14.1154C124.228 10.9926 126.575 11.3052 126.837 10.9926C127.571 10.9619 128.277 11.2745 128.746 11.841C129.447 12.6893 129.377 13.9256 129.447 14.1573C129.444 15.0168 129.187 15.8568 128.71 16.574ZM104.813 18.6391L97.9089 18.6279V11.481C102.045 11.481 104.344 11.481 104.805 11.481C109.549 11.481 109.077 14.7266 109.552 15.0893C109.552 17.4475 107.972 18.6307 104.813 18.6307M139.312 15.6196C139.312 17.2689 138.706 17.721 138.639 17.9554C138.193 18.4103 137.445 18.6391 136.393 18.6419C133.937 18.6419 132.569 18.6419 132.296 18.6419C133.128 17.3749 133.58 15.8986 133.602 14.3833C133.602 11.4 132.212 9.90423 132.056 9.40748C130.206 6.96841 127.362 7.214 126.84 6.96841C123.888 6.96841 122.545 8.66795 122.068 8.85772C120.042 10.9507 120.246 13.8224 120.042 14.3721C120.064 15.8875 120.516 17.3638 121.348 18.6307C120.846 18.6307 116.827 18.6307 116.325 18.6307C114.723 18.6307 113.922 17.8745 113.922 16.3647C113.922 16.2838 113.922 16.2363 113.922 16.2279C113.955 15.8596 113.983 15.4773 113.983 15.0782C113.983 9.93493 111.053 7.3619 105.19 7.3619H93.5945V18.6056C92.9582 18.6056 92.6038 18.6056 92.534 18.6056C91.3675 18.4466 90.7843 17.6345 90.7843 16.1693V7.37586L86.4615 9.6419C86.4615 13.5628 86.4615 15.7396 86.4615 16.1749C86.4615 17.0652 86.2745 17.7014 85.9117 18.0838C85.5461 18.4661 84.9266 18.6503 84.0559 18.6503C83.4057 18.6503 78.2038 18.6503 77.5536 18.6503C76.2503 18.6503 75.8847 18.1396 75.7005 18.0838C75.3322 17.707 75.1508 17.0707 75.1508 16.1749C75.1508 15.6 75.1508 12.7284 75.1508 7.55725L75.1173 7.59074V7.55725L73.6326 8.34702L70.8196 9.83446C70.8196 16.507 70.8196 20.2159 70.8196 20.9554C70.8196 23.1154 69.8764 24 69.7703 24.3377C68.7238 25.56 67.1303 25.4345 66.8373 25.5545C65.6038 25.5293 64.3982 25.1889 63.335 24.561C63.335 24.9377 63.335 27.96 63.335 28.3368C64.6271 29.0484 66.0782 29.4252 67.5573 29.4335C69.3043 29.4726 71.0066 28.8614 72.3294 27.7172C74.5257 25.7945 74.7071 23.0233 74.9722 22.5014C75.6726 22.7107 76.4038 22.814 77.135 22.8084C77.8689 22.8084 83.7377 22.8084 84.4717 22.8084C86.9777 22.8084 88.2112 21.6028 88.627 21.4689C89.7266 22.3647 91.1108 22.8084 92.7796 22.8084C101.676 22.8084 106.621 22.8084 107.609 22.8084C110.115 22.8084 111.346 21.6028 111.762 21.4689C112.859 22.3647 114.246 22.8084 115.914 22.8084C120.823 22.8084 123.55 22.8084 124.094 22.8084C125.021 22.8279 125.944 22.747 126.854 22.5684C127.755 22.7526 128.676 22.8335 129.597 22.8084C130.303 22.8084 135.941 22.8084 136.647 22.8084C139.736 22.8084 141.095 21.1731 141.589 20.9889C142.94 19.6633 143.615 17.8884 143.615 15.6698V0.661438L139.323 2.96097C139.317 9.71446 139.312 13.934 139.312 15.6196Z" fill="#510C76"/>
<path d="M148.175 22.8H152.501V0.65863L148.175 2.95817V22.8Z" fill="#510C76"/>
<path d="M28.7191 42.9991C29.2298 44.5926 29.9275 46.68 30.8066 49.2642H29.1322L27.8596 52.8474C30.3684 52.8558 31.761 52.8614 32.0401 52.8642C32.5117 54.5191 32.9219 55.8502 33.268 56.8633L37.6996 56.8772L30.4996 37.2391H26.9052L19.6019 56.8354L23.9415 56.8493C26.4894 49.4623 28.0801 44.8465 28.7191 42.9991Z" fill="#510C76"/>
<path d="M114.447 43.2224C114.96 44.8158 115.655 46.9033 116.537 49.4903H114.86L113.587 53.0707C116.096 53.0819 117.491 53.0875 117.77 53.0903C118.239 54.7424 118.649 56.0763 118.998 57.0921H123.43L116.23 37.454H112.635L105.332 57.053L109.669 57.0642C112.217 49.6828 113.81 45.0698 114.447 43.2224Z" fill="#510C76"/>
</g>
<defs>
<clipPath id="clip0_23_3336">
<rect width="152.651" height="60" fill="white"/>
</clipPath>
</defs>
</svg>
