<svg width="130" height="130" viewBox="0 0 130 130" fill="none" xmlns="http://www.w3.org/2000/svg">
<path d="M129.455 114.356C129.455 115.119 129.455 115.82 129.455 116.583C129.242 116.583 129.059 116.583 128.876 116.583C124.544 116.583 120.213 116.583 115.881 116.583C97.0915 116.583 78.3321 116.583 59.6031 116.583C52.8619 116.583 46.1207 116.491 39.3796 116.461C36.9698 116.43 34.5295 116.4 32.1503 116.369C28.856 116.339 25.5921 116.308 22.2978 116.247C18.7594 116.186 15.2516 116.125 11.7132 116.064C9.48647 116.003 7.19874 115.942 4.97201 115.881C3.50786 115.82 2.01321 115.729 0.549057 115.607C0.366039 115.607 0.152516 115.546 0 115.485C0.396541 115.271 0.823583 115.271 1.18962 115.271C3.01981 115.18 4.85 115.119 6.68018 115.058C9.33396 114.966 11.9572 114.905 14.5805 114.875C21.8707 114.753 29.161 114.631 36.4512 114.6C48.7135 114.509 61.0063 114.478 73.299 114.448C91.7839 114.417 110.299 114.448 128.754 114.448C128.967 114.356 129.211 114.356 129.455 114.356Z" fill="#0A73B8"/>
<path d="M76.8679 86.6594C76.8679 86.8729 76.8679 87.0559 76.8679 87.239C76.8679 88.3676 76.8679 89.4657 76.8679 90.6248C76.8679 90.8078 76.8984 91.0213 76.9289 91.2044C77.0509 91.8144 77.4169 92.15 78.027 92.1805C78.8811 92.211 79.7352 92.1805 80.6198 92.1805C80.7113 91.5094 80.6503 90.8993 80.6503 90.2588C80.6503 89.6182 80.6503 89.0081 80.6503 88.3371C81.1383 88.215 81.5959 88.0625 82.1449 87.91C82.1449 89.3437 82.1449 90.7163 82.1449 92.1195C83.121 92.1195 84.0666 92.1195 85.0427 92.1195C85.1037 90.6858 85.0427 89.2217 85.0732 87.6965C85.5308 87.5745 85.9883 87.422 86.5374 87.2695C86.5374 88.9471 86.5374 90.5333 86.5374 92.15C87.544 92.15 88.5201 92.15 89.5267 92.15C89.5267 90.4418 89.5267 88.7946 89.5267 87.0559C90.0147 86.9339 90.4723 86.7814 91.0213 86.6289C91.0213 88.5201 91.0213 90.3198 91.0213 92.15C92.0584 92.15 93.065 92.15 94.1021 92.15C94.1327 90.8993 94.1021 89.6487 94.1327 88.3371C94.6207 88.215 95.0782 88.0625 95.5968 87.9405C95.5968 89.3742 95.5968 90.7468 95.5968 92.15C96.5729 92.15 97.5185 92.15 98.4946 92.15C98.4946 90.6858 98.4946 89.2217 98.4946 87.6965C98.9826 87.5745 99.4402 87.422 99.9588 87.2695C99.9588 88.9166 99.9588 90.5333 99.9588 92.089C100.416 92.211 101.697 92.211 102.094 92.089C102.491 91.9669 102.765 91.6924 102.857 91.2349C102.918 91.0213 102.948 90.7773 102.948 90.5333C102.948 89.5572 102.948 88.5506 102.948 87.5745C102.948 87.422 102.948 87.2084 102.948 87.0254C103.436 86.9034 103.894 86.7509 104.412 86.5984C104.412 86.8119 104.412 86.9949 104.412 87.1474C104.412 88.3371 104.412 89.5572 104.412 90.7468C104.412 92.3635 103.406 93.4006 101.789 93.4616C101.575 93.4616 101.392 93.4616 101.148 93.4616C93.6446 93.4616 86.1103 93.4616 78.6066 93.4616C78.393 93.4616 78.21 93.4616 77.966 93.4616C77.1729 93.4311 76.4408 93.2481 75.9833 92.5465C75.0682 93.6751 73.8481 93.6446 72.6279 93.3396C71.9569 93.1871 71.4688 92.6685 71.1943 92.0584C70.7062 90.7773 70.6452 89.4962 71.1638 88.2151C71.5603 87.239 72.3534 86.7814 73.3905 86.7204C74.4581 86.6899 75.5257 86.7204 76.5933 86.7204C76.6849 86.5984 76.7459 86.6289 76.8679 86.6594ZM75.4647 87.849C74.7632 87.849 74.1531 87.8185 73.543 87.849C73.055 87.8795 72.6584 88.1845 72.5364 88.6726C72.2924 89.5572 72.2924 90.4418 72.5669 91.3264C72.6889 91.7229 72.9635 92.0279 73.3905 92.1195C74.4276 92.3025 75.1902 92.0279 75.3427 90.9298C75.4037 89.9232 75.4037 88.8861 75.4647 87.849Z" fill="#5A595B"/>
<path d="M115.149 92.76C114.539 93.4006 113.777 93.4616 112.953 93.4311C112.496 93.4006 112.038 93.4311 111.519 93.4311C111.458 93.6141 111.428 93.7667 111.397 93.9192C111.031 95.0783 110.391 95.9324 109.171 96.2374C108.439 96.4204 107.676 96.3594 106.944 96.1459C106.7 96.0544 106.517 95.9324 106.395 95.6578C106.273 95.2918 106.09 94.9868 105.907 94.5597C106.09 94.6207 106.242 94.6512 106.334 94.6818C106.974 94.9258 107.615 95.0783 108.317 95.0478C109.201 94.9868 109.872 94.3767 109.964 93.4616C109.781 93.4616 109.567 93.4616 109.354 93.4311C108.835 93.3701 108.286 93.4006 107.768 93.3091C106.639 93.0041 105.998 92.2415 105.785 91.1129C105.632 90.1978 105.693 89.3437 106.059 88.5201C106.517 87.422 107.371 86.8424 108.561 86.8119C108.744 86.8119 108.957 86.8119 109.14 86.8119C110.147 86.9339 110.879 87.422 111.275 88.3676C111.58 89.0692 111.611 89.8318 111.611 90.5943C111.611 91.0824 111.611 91.5704 111.611 92.15C112.404 92.15 113.167 92.2415 113.929 92.028C114.509 91.8755 114.814 91.3874 114.905 90.8384C114.966 90.5333 115.027 90.2283 115.088 89.9233C115.424 88.9472 116.064 88.3066 117.102 88.1236C117.773 88.0016 118.444 88.0016 119.115 88.1846C119.877 88.3676 120.426 88.8556 120.731 89.5877C120.853 89.8623 120.884 90.1368 120.975 90.4113C121.036 90.5638 121.036 90.7773 121.097 90.9299C121.28 91.6924 121.83 92.1195 122.623 92.15C123.019 92.1805 123.477 92.15 123.873 92.1195C124.727 92.0585 125.154 91.6314 125.215 90.7773C125.215 90.6553 125.215 90.5333 125.215 90.3808C125.215 88.4896 125.215 86.5679 125.215 84.7072C125.215 84.5547 125.215 84.3412 125.215 84.1277C125.673 84.0057 126.161 83.8531 126.68 83.7006C126.68 83.9141 126.68 84.0667 126.68 84.1887C126.68 86.3544 126.649 88.5201 126.68 90.6858C126.71 92.1195 125.612 93.4006 123.965 93.4006C123.721 93.4006 123.477 93.4006 123.233 93.4006C122.318 93.4616 121.524 93.2481 120.914 92.516C120.182 95.1088 116.156 95.1393 115.149 92.76ZM110.177 92.15C110.177 91.2349 110.177 90.3808 110.177 89.5267C110.177 89.4047 110.147 89.2827 110.116 89.1302C109.964 88.4591 109.598 88.1236 108.988 88.0626C108.317 87.9711 107.768 88.2456 107.493 88.8862C107.188 89.5877 107.127 90.3503 107.371 91.1129C107.524 91.7229 108.012 92.089 108.622 92.1195C109.11 92.1805 109.598 92.15 110.177 92.15ZM119.694 91.2959C119.633 90.8994 119.603 90.5943 119.511 90.2588C119.328 89.5877 118.84 89.2827 118.078 89.2522C117.346 89.2522 116.858 89.5877 116.644 90.2283C116.43 90.8994 116.43 91.6314 116.644 92.3025C116.827 92.9126 117.315 93.2176 118.017 93.2176C118.688 93.2481 119.206 92.9736 119.45 92.3635C119.572 92.0585 119.633 91.6619 119.694 91.2959Z" fill="#5A595B"/>
<path d="M125.032 120.67C125.49 120.579 125.947 120.518 126.466 120.396C126.466 120.579 126.497 120.731 126.497 120.853C126.497 122.592 126.466 124.361 126.497 126.1C126.527 127.015 125.978 127.686 124.88 127.747C124.666 127.747 124.422 127.747 124.209 127.747C123.538 127.778 122.897 127.625 122.409 127.046C122.043 127.442 121.738 127.869 121.219 128.022C120.701 128.174 120.213 128.296 119.664 128.144C119.115 128.022 118.749 127.717 118.352 127.259C117.895 127.717 117.285 127.686 116.675 127.686C116.034 127.686 115.515 127.473 115.088 127.015C113.563 128.51 112.587 128.571 111.031 127.29C110.116 127.93 108.683 127.869 107.92 126.893C107.615 127.29 107.249 127.564 106.73 127.625C106.578 127.656 106.364 127.686 106.212 127.686C103.497 127.686 100.813 127.686 98.0981 127.686C98.0676 127.686 98.0371 127.686 97.9761 127.686C97.183 127.686 96.9085 127.503 96.6034 126.771C96.5119 126.893 96.4509 126.985 96.3594 127.076C95.6883 127.839 94.6207 127.93 93.8277 127.229C92.638 126.222 92.577 124.178 93.6446 123.05C94.3157 122.379 95.3528 122.165 96.2069 122.592C96.3899 122.684 96.5729 122.775 96.7865 122.897C96.878 122.775 96.9085 122.623 97 122.501C97.2135 122.501 97.3965 122.501 97.549 122.501C97.549 123.751 97.549 124.971 97.549 126.191C97.549 126.344 97.5795 126.557 97.61 126.71C97.7015 127.046 97.8541 127.168 98.1896 127.168C99.5622 127.168 100.935 127.168 102.277 127.168C102.308 127.168 102.338 127.137 102.399 127.107C102.43 127.015 102.46 126.924 102.46 126.802C102.46 126.313 102.491 125.795 102.46 125.307C102.43 124.971 102.369 124.636 102.277 124.331C102.002 123.629 101.484 123.263 100.721 123.263C100.386 123.263 100.05 123.263 99.7758 123.263C99.8978 122.867 99.8978 122.867 100.233 122.775C100.477 122.714 100.691 122.653 100.904 122.562C101.606 122.226 102.216 121.738 102.704 121.128C102.918 120.823 103.101 120.457 103.345 120.121C103.558 120.426 103.802 120.731 104.016 121.036C104.077 121.097 104.046 121.25 103.985 121.341C103.863 121.494 103.772 121.677 103.589 121.738C103.101 122.043 102.582 122.348 102.063 122.623C101.911 122.714 101.728 122.745 101.514 122.867C101.728 122.958 101.88 122.989 102.033 123.08C103.101 123.507 103.68 124.361 103.68 125.52C103.68 126.039 103.68 126.588 103.68 127.168C104.046 127.168 104.351 127.168 104.626 127.168C105.083 127.168 105.541 127.168 105.968 127.168C106.517 127.168 106.761 126.954 106.852 126.405C106.883 126.252 106.883 126.069 106.883 125.917C106.883 124.422 106.883 122.897 106.883 121.372C106.883 121.006 106.852 120.731 106.486 120.548C106.944 120.457 107.402 120.396 107.951 120.274C107.951 120.518 107.951 120.67 107.951 120.884C107.951 122.348 107.951 123.812 107.951 125.276C107.951 125.764 108.073 126.222 108.347 126.649C108.591 127.015 108.927 127.198 109.354 127.198C110.299 127.198 110.482 127.076 110.787 126.191C110.909 125.734 111.031 125.276 111.184 124.788C111.519 123.782 112.13 123.355 113.197 123.355C113.868 123.355 114.417 123.629 114.814 124.148C115.21 124.666 115.424 125.276 115.393 125.947C115.363 126.71 115.851 127.198 116.613 127.198C117.529 127.198 117.712 127.107 118.017 126.222C118.139 125.856 118.23 125.52 118.322 125.154C118.383 125.002 118.413 124.849 118.444 124.697C118.718 123.965 119.206 123.507 119.999 123.385C120.884 123.263 121.586 123.507 122.104 124.239C122.501 124.758 122.653 125.368 122.623 126.008C122.592 126.649 123.08 127.198 123.721 127.198C124.026 127.198 124.3 127.229 124.605 127.198C125.002 127.168 125.215 127.015 125.276 126.619C125.337 126.405 125.368 126.161 125.368 125.917C125.368 124.422 125.368 122.897 125.368 121.433C125.368 121.067 125.337 120.762 124.91 120.701C125.002 120.731 125.032 120.701 125.032 120.67ZM96.6034 125.002C96.5424 124.605 96.5119 124.148 96.4204 123.721C96.2984 123.141 95.8409 122.897 95.2613 122.928C94.8343 122.958 94.5902 123.233 94.3767 123.599C94.0717 124.178 94.0107 124.788 94.0717 125.429C94.1022 125.856 94.1632 126.344 94.4072 126.71C94.8038 127.412 95.5968 127.503 96.1154 126.863C96.2679 126.68 96.3899 126.435 96.4509 126.191C96.5729 125.825 96.5729 125.459 96.6034 125.002ZM118.779 126.832C119.023 127.168 119.298 127.473 119.694 127.656C120.213 127.9 120.609 127.808 121.006 127.442C121.738 126.71 121.738 124.91 121.006 124.148C120.579 123.721 119.938 123.751 119.603 124.27C119.481 124.483 119.389 124.727 119.298 124.971C119.145 125.581 118.962 126.191 118.779 126.832ZM114.295 125.825C114.265 125.612 114.234 125.276 114.173 125.002C114.082 124.758 113.99 124.483 113.838 124.27C113.411 123.66 112.648 123.721 112.313 124.361C112.191 124.605 112.099 124.849 112.008 125.124C111.886 125.52 111.794 125.886 111.672 126.283C111.489 126.924 111.489 126.954 111.977 127.381C112.099 127.503 112.282 127.595 112.404 127.686C112.953 127.961 113.441 127.808 113.838 127.32C114.173 126.893 114.265 126.435 114.295 125.825Z" fill="#5A595B"/>
<path d="M21.9013 92.6685C21.2302 93.3091 20.4677 93.4616 19.6441 93.4311C18.8815 93.4006 18.1189 93.4311 17.3258 93.4311C17.1733 93.4311 17.0208 93.4616 16.8683 93.4616C16.8073 93.6446 16.7768 93.8582 16.7463 94.0107C16.3802 95.3223 15.5261 96.0544 14.245 96.2984C13.5739 96.4204 12.8724 96.4204 12.2013 96.1459C11.9878 96.0544 11.8048 95.9324 11.7133 95.7189C11.5912 95.3528 11.3777 95.0478 11.1947 94.5902C11.3472 94.6512 11.4692 94.6513 11.5607 94.7123C12.1708 94.9868 12.8114 95.1088 13.4824 95.1088C14.6721 95.0783 15.4346 94.3767 15.4346 93.1566C15.4346 91.3264 15.4346 89.4962 15.4346 87.666C15.4346 87.5135 15.4346 87.3 15.4346 87.0865C15.8922 86.9645 16.3497 86.8119 16.8988 86.6594C16.8988 88.5506 16.8988 90.3503 16.8988 92.211C17.4478 92.211 17.9054 92.211 18.3934 92.211C18.8815 92.211 19.4 92.2415 19.8881 92.1805C20.7727 92.1195 21.1997 91.7229 21.1997 90.8384C21.2302 89.3132 21.1997 87.788 21.2302 86.2324C21.2302 85.5613 21.2302 84.8902 21.2302 84.1582C21.6878 84.0057 22.1758 83.8531 22.7249 83.7006C22.7249 83.9446 22.7249 84.0972 22.7249 84.2802C22.7249 86.2934 22.7249 88.3066 22.7249 90.3198C22.7249 90.5333 22.7249 90.7163 22.7249 90.9604C22.7554 91.6314 23.1214 92.1195 23.7925 92.15C24.4941 92.211 25.2261 92.211 25.9277 92.15C26.5683 92.089 26.8733 91.7534 27.0258 91.1129C27.0563 90.9299 27.0868 90.7163 27.0868 90.5333C27.0868 88.5811 27.0868 86.6899 27.0868 84.7377C27.0868 84.5852 27.0868 84.3717 27.0868 84.1582C27.5444 84.0362 28.0019 83.8836 28.5205 83.7616C28.551 83.9141 28.5815 84.0667 28.5815 84.1582C28.5815 86.3849 28.5815 88.6421 28.5815 90.8689C28.5815 92.272 27.6054 93.3701 26.2022 93.4311C25.3482 93.4921 24.4941 93.4616 23.64 93.4311C22.9079 93.3701 22.3894 93.0956 21.9013 92.6685Z" fill="#5A595B"/>
<path d="M34.2855 122.653C34.2855 124.209 34.2855 125.703 34.2855 127.259C35.6277 127.168 37.0003 127.381 38.3729 127.107C37.6714 125.917 36.9698 124.788 36.2987 123.629C37.3053 122.989 38.4034 122.531 39.6846 122.745C40.8437 122.928 41.5148 123.751 41.4538 124.849C41.4232 125.276 41.2707 125.673 40.9657 125.978C40.6302 126.283 40.2641 126.558 39.8676 126.863C39.7456 126.954 39.5931 127.015 39.349 127.198C39.6236 127.259 39.7456 127.32 39.9286 127.32C40.9352 127.32 41.9113 127.32 42.9484 127.32C43.4975 127.32 43.8025 127.076 43.833 126.558C43.894 125.795 43.8635 125.032 43.833 124.239C43.833 124.087 43.6195 123.934 43.467 123.751C43.894 123.66 44.3821 123.599 44.9006 123.477C44.9006 123.66 44.9006 123.843 44.9006 123.995C44.9006 124.575 44.9006 125.124 44.9006 125.703C44.9006 126.191 45.0531 126.619 45.3582 126.985C45.6632 127.351 46.0292 127.442 46.3953 127.351C46.7918 127.229 46.9138 126.893 46.9443 126.527C46.9443 126.405 46.9443 126.314 46.9443 126.192C46.9443 125.52 46.9138 124.849 46.9443 124.178C46.9443 123.812 46.8833 123.568 46.5173 123.416C46.9748 123.324 47.4629 123.233 48.0119 123.111C48.0119 123.324 48.0119 123.477 48.0119 123.629C48.0119 124.3 47.9814 124.941 48.0119 125.612C48.0424 126.008 48.1339 126.375 48.2865 126.741C48.378 126.954 48.561 127.137 48.744 127.29C49.232 127.656 49.8726 127.412 49.9946 126.832C50.0556 126.619 50.0556 126.405 50.0861 126.161C50.0861 125.429 50.0861 124.727 50.0861 123.995C50.0861 123.385 50.0861 123.385 49.6896 123.05C50.1777 122.958 50.6352 122.897 51.1538 122.775C51.1538 122.989 51.1538 123.172 51.1538 123.324C51.1538 124.178 51.1538 125.032 51.1538 125.886C51.1538 126.222 51.2453 126.527 51.3978 126.802C51.7943 127.473 52.3434 127.564 53.106 127.381C53.411 127.29 53.533 127.015 53.5635 126.71C53.594 126.558 53.594 126.344 53.594 126.192C53.594 124.697 53.594 123.172 53.594 121.647C53.594 121.341 53.655 121.006 53.1365 120.975C53.167 120.945 53.1975 120.884 53.2585 120.853C53.716 120.762 54.1736 120.701 54.6921 120.579C54.6921 120.792 54.7226 120.975 54.7226 121.097C54.7226 122.806 54.7226 124.514 54.7226 126.222C54.7226 126.344 54.7226 126.436 54.7226 126.558C54.6921 127.137 54.4176 127.564 53.899 127.747C53.0755 128.022 52.2519 128.113 51.5198 127.534C51.3673 127.412 51.2148 127.229 51.0927 127.107C50.2387 128.266 49.0185 128.266 47.9814 127.137C47.5849 127.625 47.0663 127.93 46.4258 127.961C45.7852 127.991 45.2361 127.747 44.8396 127.259C44.3516 127.9 43.6805 127.991 42.9789 127.961C42.0333 127.93 41.0877 127.961 40.1421 127.961C39.8981 127.961 39.6541 127.93 39.4405 127.869C39.044 127.778 38.739 127.778 38.3424 127.869C38.1594 127.93 37.9459 127.93 37.7019 127.93C36.6953 127.93 35.7192 127.93 34.6821 127.93C34.5295 127.93 34.3465 127.93 34.2245 127.93C33.5839 129.76 32.5163 130.218 30.6861 129.913C31.8148 129.669 32.7299 129.211 33.0959 127.93C32.6688 127.93 32.2723 127.93 31.8758 127.93C30.9607 127.9 30.1676 127.198 30.1066 126.344C29.9846 125.154 30.5031 123.843 31.7538 123.202C32.2113 122.958 32.6994 122.806 33.2179 122.806C33.5229 122.653 33.889 122.653 34.2855 122.653ZM33.1874 123.111C32.5773 123.111 32.1503 123.385 31.7843 123.812C31.3877 124.27 31.1742 124.819 31.1132 125.429C31.0522 125.856 31.0522 126.314 31.2352 126.68C31.3572 126.985 31.5707 127.229 31.9063 127.259C32.3028 127.29 32.7299 127.259 33.1569 127.259C33.1874 125.856 33.1874 124.453 33.1874 123.111ZM37.2748 123.721C37.8239 124.727 38.3729 125.703 38.8915 126.649C40.0201 126.13 40.5082 125.185 40.1726 124.117C40.0506 123.629 39.7151 123.324 39.1965 123.263C38.4644 123.202 37.8239 123.416 37.2748 123.721Z" fill="#5A595B"/>
<path d="M38.2203 86.6594C38.2203 86.8424 38.2203 87.0254 38.2203 87.1779C38.2203 88.3676 38.2203 89.5267 38.2203 90.7163C38.2203 91.7229 38.6779 92.1805 39.6845 92.1805C40.081 92.1805 40.4471 92.1805 40.8436 92.1805C41.6672 92.1805 42.0942 91.7839 42.2162 90.9908C42.2772 90.6858 42.2162 90.3808 42.2772 90.0757C42.3382 89.6487 42.3687 89.1911 42.4908 88.7946C42.8263 87.6965 43.5889 87.1169 44.687 86.9949C45.053 86.9339 45.4191 86.9339 45.7851 86.9949C46.9442 87.1474 47.6763 87.849 47.9813 88.9776C48.1948 89.8012 48.1948 90.6553 47.9813 91.4789C47.6458 92.76 46.7002 93.4616 45.3886 93.4921C44.5345 93.5226 43.8024 93.3396 43.1618 92.76C42.9178 92.9125 42.7043 93.065 42.4908 93.1871C42.0942 93.4006 41.6367 93.4921 41.1791 93.4921C40.6606 93.4921 40.1115 93.4921 39.593 93.4921C38.7084 93.4921 37.9153 93.3396 37.3967 92.577C36.4816 93.5836 34.804 93.8276 33.6143 93.1871C33.0958 92.882 32.7298 92.4855 32.5467 91.9364C32.1502 90.7468 32.1197 89.5267 32.5162 88.3371C32.8213 87.422 33.4923 86.8424 34.4684 86.7814C35.6886 86.5679 36.9087 86.6594 38.2203 86.6594ZM36.7257 87.8185C36.1156 87.8185 35.5665 87.788 35.0175 87.8185C34.4379 87.849 34.0109 88.1235 33.8279 88.7336C33.5838 89.5877 33.5838 90.4418 33.8279 91.2959C34.0109 91.9669 34.4684 92.211 35.2615 92.211C35.9631 92.211 36.3901 91.9059 36.5426 91.2959C36.6342 90.9908 36.6647 90.6553 36.6647 90.3503C36.7257 89.4657 36.7257 88.6421 36.7257 87.8185ZM46.7002 90.2283C46.6087 89.8317 46.5782 89.4047 46.4562 89.0081C46.2731 88.4286 45.7851 88.1845 45.236 88.1845C44.5955 88.154 44.1379 88.4591 43.9549 89.0081C43.6499 89.8012 43.6499 90.5943 43.9549 91.3569C44.1684 91.9364 44.626 92.1499 45.2055 92.1499C45.8156 92.1499 46.2731 91.9669 46.4562 91.3874C46.5477 91.0213 46.6087 90.6553 46.7002 90.2283Z" fill="#5A595B"/>
<path d="M49.354 84.1277C49.8421 83.9751 50.2996 83.8226 50.8182 83.6701C50.8182 83.9141 50.8182 84.0666 50.8182 84.2497C50.8182 86.5069 50.8182 88.7946 50.8182 91.0519C50.8182 91.967 50.9402 92.15 51.9163 92.15C52.5568 92.15 53.1669 92.15 53.8075 92.15C53.96 92.15 54.1125 92.15 54.326 92.15C54.326 91.9365 54.326 91.7534 54.326 91.5704C54.326 90.8383 54.326 90.1368 54.326 89.4047C54.387 87.788 55.5156 86.6594 57.1018 86.6289C57.8034 86.5984 58.4745 86.7204 59.0845 87.1475C59.2065 87.2695 59.359 87.361 59.5116 87.5135C59.1455 87.8795 58.81 88.1846 58.5049 88.4286C58.1694 88.2456 57.9254 88.0321 57.5899 87.91C56.7663 87.6355 55.8817 88.1541 55.7902 89.0082C55.6987 90.0148 55.7597 91.0519 55.7597 92.089C55.9122 92.089 56.0647 92.1195 56.2172 92.1195C57.8949 92.1195 59.5421 92.1195 61.2502 92.1195C61.4027 92.1195 61.6163 92.1195 61.7688 92.089C62.4704 91.967 62.8669 91.5704 62.9279 90.8688C62.9279 90.7468 62.9279 90.6248 62.9279 90.4723C62.9279 88.5201 62.9279 86.6289 62.9279 84.6767C62.9279 84.5242 62.9279 84.3107 62.9279 84.0971C63.3854 83.9751 63.843 83.8226 64.3616 83.6701C64.3921 83.8226 64.4226 83.9141 64.4226 84.0361C64.4226 86.3239 64.4226 88.6116 64.4226 90.8994C64.4226 91.7839 64.026 92.4855 63.2939 92.9736C62.8669 93.2786 62.3483 93.4006 61.7993 93.4006C61.0367 93.4006 60.3046 93.4006 59.5421 93.4006C57.0103 93.4006 54.448 93.4006 51.9163 93.4006C51.7333 93.4006 51.5197 93.4006 51.3367 93.4006C50.1166 93.3701 49.3845 92.6685 49.354 91.4484C49.354 90.8688 49.354 90.2893 49.354 89.7097C49.354 88.0321 49.354 86.3849 49.354 84.6767C49.354 84.5547 49.354 84.3717 49.354 84.1277Z" fill="#5A595B"/>
<path d="M10.5236 88.9166C10.2491 88.6726 9.97458 88.4896 9.73056 88.2456C9.27301 87.849 8.75446 87.788 8.1749 87.8795C7.65635 87.971 7.29031 88.2761 7.2293 88.8251C7.16829 89.2217 7.16829 89.6182 7.13779 90.0758C8.41892 90.0758 9.63905 90.0758 10.8592 90.0758C10.8592 90.2893 10.8897 90.4723 10.8897 90.5943C10.8897 91.4484 10.8897 92.272 10.8897 93.0956C10.8897 94.5292 10.2186 95.5358 8.84597 95.9934C7.59534 96.3899 6.31421 96.3899 5.03307 96.0544C4.14848 95.8104 3.50792 95.2308 3.11138 94.4072C2.71483 93.5226 2.53182 92.638 2.44031 91.6314C2.89785 91.5094 3.3554 91.3569 3.87395 91.2044C3.93496 91.6314 3.96547 92.028 3.99597 92.394C4.02647 92.638 4.05697 92.9126 4.11798 93.1566C4.42301 94.2852 5.12459 94.8648 6.2837 94.9563C6.86326 95.0173 7.44282 94.9868 7.99188 94.8343C8.93748 94.5597 9.36452 93.9802 9.36452 93.0041C9.36452 92.4855 9.36452 91.9975 9.36452 91.4179C8.11389 91.4179 6.86326 91.4179 5.64314 91.4179C5.64314 90.5028 5.55163 89.7097 5.67364 88.8556C5.79565 87.6965 6.46672 86.9644 7.62584 86.7204C8.72395 86.4764 9.73056 86.5984 10.6151 87.3915C10.8592 87.5745 10.9812 87.788 10.7982 88.0931C10.7067 88.3676 10.6151 88.7031 10.5236 88.9166Z" fill="#5A595B"/>
<path d="M81.9925 127.198C82.145 127.229 82.3585 127.259 82.511 127.259C83.4566 127.259 84.4022 127.259 85.3478 127.259C86.0189 127.259 86.2934 126.985 86.3239 126.283C86.3544 124.605 86.3239 122.958 86.3544 121.25C86.3544 120.945 86.1714 120.853 85.8664 120.67C86.4459 120.548 86.873 120.487 87.3915 120.365C87.3915 120.548 87.422 120.701 87.422 120.823C87.422 122.562 87.3915 124.3 87.422 126.039C87.4525 127.29 86.5985 127.747 85.7139 127.747C84.6463 127.747 83.5481 127.747 82.4805 127.747C82.1755 127.747 81.84 127.656 81.5654 127.564C81.4129 127.503 81.2604 127.534 81.1079 127.564C80.7724 127.656 80.4368 127.717 80.1318 127.717C78.9422 127.747 77.7525 127.717 76.5324 127.717C76.2884 128.418 76.0139 129.12 75.3123 129.455C74.6412 129.821 73.9092 129.76 73.0856 129.699C73.2381 129.608 73.3296 129.577 73.4211 129.547C74.7937 129.15 75.5258 128.205 75.6173 126.802C75.7088 125.642 75.6478 124.483 75.6783 123.324C75.6783 123.019 75.4343 122.958 75.1903 122.806C75.5258 122.745 75.7393 122.684 75.9834 122.653C76.2274 122.592 76.4409 122.562 76.7459 122.531C76.7459 124.087 76.8069 125.612 76.6544 127.137C77.661 127.32 80.3758 127.229 80.8944 126.985C80.2233 125.856 79.5522 124.758 78.8507 123.599C79.8573 122.958 80.9249 122.501 82.1755 122.714C83.1821 122.867 83.8532 123.507 84.0057 124.483C84.0667 124.941 83.9447 125.337 83.6702 125.703C83.3651 126.13 82.9686 126.435 82.511 126.71C82.3585 126.832 82.145 126.924 81.9925 127.046C81.9925 127.137 81.9925 127.168 81.9925 127.198ZM81.4129 126.68C82.389 126.191 82.8466 125.49 82.7551 124.453C82.6636 123.69 82.206 123.233 81.4739 123.263C80.8639 123.294 80.2843 123.446 79.7963 123.751C80.3148 124.727 80.8639 125.703 81.4129 126.68Z" fill="#5A595B"/>
<path d="M64.1481 122.989C64.2396 122.867 64.2701 122.714 64.3311 122.592C64.5447 122.592 64.7277 122.592 64.9107 122.592C64.9107 123.782 64.9107 125.002 64.9107 126.161C64.9107 126.283 64.9107 126.466 64.9107 126.588C64.9717 127.046 65.1852 127.229 65.6428 127.259C66.1003 127.259 66.5579 127.259 67.0459 127.259C67.534 127.259 67.7475 127.046 67.839 126.588C67.8695 126.436 67.8695 126.252 67.8695 126.1C67.8695 125.307 67.8695 124.514 67.8695 123.721C67.8695 123.355 67.8695 123.05 67.473 122.836C67.9305 122.745 68.4186 122.684 68.9371 122.562C68.9371 122.775 68.9371 122.958 68.9371 123.111C68.9371 123.904 68.9371 124.697 68.9371 125.49C68.9371 125.947 69.0591 126.405 69.3336 126.741C69.5472 127.076 69.8522 127.259 70.2487 127.229C70.5538 127.229 70.8283 127.229 71.1333 127.229C71.6519 127.198 71.9264 126.985 72.0179 126.436C72.0484 126.313 72.0179 126.191 72.0179 126.039C72.0179 125.276 72.0179 124.514 72.0179 123.721C72.0179 123.141 72.0179 123.141 71.5909 122.806C72.0789 122.714 72.5365 122.623 73.0245 122.531C73.055 122.653 73.0855 122.775 73.0855 122.897C73.0855 123.965 73.0855 125.032 73.0855 126.069C73.116 127.198 72.3535 127.686 71.4384 127.686C71.1333 127.686 70.8588 127.656 70.5538 127.686C69.9437 127.747 69.4557 127.503 69.0591 127.046C68.9981 126.985 68.9676 126.924 68.9371 126.863C68.4491 127.564 67.7475 127.717 66.9849 127.686C66.4359 127.656 65.8868 127.686 65.3377 127.686C65.1852 127.686 65.0022 127.656 64.8802 127.625C64.3616 127.564 64.0871 127.259 63.9651 126.71C63.8431 126.832 63.8126 126.893 63.7211 126.985C63.0195 127.808 61.8909 127.869 61.0673 127.107C59.8777 126.008 59.9082 123.873 61.1588 122.836C61.8299 122.257 62.806 122.165 63.6601 122.592C63.8431 122.806 63.9651 122.867 64.1481 122.989ZM63.8431 125.063C63.8736 125.063 63.9041 125.063 63.9346 125.063C63.8431 124.575 63.8126 124.087 63.6906 123.599C63.416 122.775 62.2874 122.714 61.8604 123.355C61.7384 123.538 61.6163 123.751 61.5553 124.026C61.3723 124.727 61.3723 125.459 61.5248 126.222C61.5859 126.436 61.6774 126.68 61.7994 126.893C62.1959 127.442 62.7755 127.534 63.294 127.076C63.6601 126.771 63.8126 126.344 63.8431 125.886C63.8431 125.581 63.8431 125.337 63.8431 125.063Z" fill="#5A595B"/>
<path d="M18.2409 122.989C18.3324 122.836 18.3629 122.714 18.4544 122.592C18.6374 122.592 18.8509 122.592 19.0034 122.592C19.0034 123.782 19.0034 125.002 19.0034 126.161C19.0034 126.283 19.0034 126.466 19.0034 126.588C19.0645 127.046 19.2475 127.259 19.7355 127.259C20.3151 127.259 20.8946 127.259 21.4742 127.259C21.9927 127.259 22.2063 127.076 22.3283 126.527C22.3588 126.375 22.3588 126.191 22.3588 126.069C22.3588 125.307 22.3588 124.575 22.3588 123.812C22.3588 123.263 22.3588 123.263 21.9317 122.897C22.4198 122.806 22.8773 122.714 23.3654 122.623C23.3959 122.745 23.4264 122.836 23.4264 122.928C23.4264 123.995 23.4569 125.093 23.4264 126.161C23.3959 127.168 22.7858 127.778 21.7792 127.778C20.9861 127.778 20.1626 127.778 19.3695 127.778C18.6374 127.778 18.3324 127.564 18.0578 126.771C17.9663 126.893 17.9358 126.985 17.9053 127.076C17.1733 127.991 15.9836 128.022 15.16 127.198C14.1229 126.191 14.0619 124.27 15.038 123.172C15.7701 122.379 16.8682 122.226 17.8138 122.745C17.9358 122.836 18.0883 122.897 18.2409 122.989ZM17.9968 125.032C17.9358 124.636 17.9358 124.209 17.8443 123.812C17.7223 123.172 17.2648 122.897 16.6547 122.958C16.1972 123.019 15.9226 123.294 15.7701 123.69C15.3736 124.636 15.3736 125.612 15.7396 126.558C15.8921 126.954 16.1667 127.29 16.6547 127.32C17.1428 127.351 17.5088 127.076 17.7528 126.649C17.8443 126.527 17.8748 126.344 17.9053 126.222C17.9053 125.825 17.9358 125.459 17.9968 125.032Z" fill="#5A595B"/>
<path d="M79.7962 106.486C79.7657 107.158 79.6742 107.829 79.4607 108.469C79.0337 109.628 78.1796 110.208 76.929 110.208C75.6783 110.208 74.7632 109.628 74.3972 108.469C73.9701 107.158 73.9701 105.815 74.3972 104.504C74.7937 103.345 75.6478 102.796 76.8679 102.765C78.2711 102.704 79.0947 103.436 79.4912 104.473C79.5827 104.687 79.6437 104.931 79.6742 105.144C79.7352 105.571 79.7352 106.029 79.7962 106.486ZM78.5761 106.486C78.5456 106.486 78.5456 106.486 78.5151 106.486C78.4846 106.181 78.4846 105.907 78.4541 105.602C78.3931 105.083 78.3321 104.534 78.0576 104.077C77.5085 103.162 76.3189 103.162 75.8003 104.077C75.6783 104.29 75.5868 104.534 75.5258 104.778C75.2818 105.907 75.2818 107.005 75.5258 108.103C75.5868 108.378 75.6783 108.652 75.8613 108.896C76.3494 109.659 77.3865 109.72 77.9356 109.018C78.1186 108.774 78.2711 108.5 78.3321 108.195C78.3931 107.646 78.4846 107.066 78.5761 106.486Z" fill="#5A595B"/>
<path d="M87.4831 105.632C87.4831 105.48 87.4831 105.297 87.4831 105.114C87.8491 105.114 88.1541 105.114 88.5202 105.114C88.5202 105.236 88.5507 105.327 88.5507 105.48C88.5507 107.066 88.5507 108.622 88.5507 110.208C88.5507 110.33 88.5507 110.452 88.5202 110.604C88.3982 111.733 87.7576 112.374 86.5985 112.465C86.2324 112.496 85.8664 112.496 85.5004 112.465C85.2258 112.435 84.9513 112.374 84.6463 112.343C84.6463 111.977 84.6463 111.672 84.6463 111.275C84.8598 111.397 85.0123 111.458 85.1953 111.55C85.5919 111.733 86.0189 111.916 86.4765 111.825C86.934 111.733 87.239 111.489 87.3306 111.031C87.4221 110.574 87.4526 110.116 87.4526 109.598C87.3306 109.628 87.3001 109.628 87.2696 109.659C86.2935 110.513 84.9513 110.208 84.4938 108.988C84.1277 108.042 84.1277 107.005 84.4938 106.059C84.8903 105.053 85.6834 104.87 86.507 105.022C86.9645 105.083 87.178 105.358 87.4831 105.632ZM87.5136 107.615C87.4221 107.188 87.3916 106.7 87.2696 106.273C87.1475 105.907 86.9035 105.663 86.507 105.663C86.1104 105.663 85.8359 105.907 85.7139 106.273C85.4089 107.127 85.4089 107.981 85.7139 108.866C85.8664 109.293 86.1104 109.476 86.5375 109.476C86.9645 109.476 87.2085 109.232 87.3001 108.835C87.3611 108.439 87.4221 108.042 87.5136 107.615Z" fill="#5A595B"/>
<path d="M45.8462 105.754C45.8767 105.449 45.8767 105.297 45.9072 105.083C46.2428 105.083 46.5783 105.083 46.9138 105.083C46.9443 105.205 46.9748 105.327 46.9748 105.449C46.9748 107.035 46.9748 108.591 46.9748 110.177C46.9748 110.299 46.9748 110.421 46.9443 110.574C46.8223 111.702 46.1818 112.343 45.0226 112.465C44.3821 112.526 43.7415 112.526 43.1314 112.313C43.0094 111.947 43.0094 111.763 43.1009 111.275C43.284 111.367 43.4365 111.458 43.6195 111.55C44.016 111.733 44.4431 111.916 44.9006 111.824C45.3582 111.733 45.6632 111.489 45.7852 111.031C45.8767 110.574 45.9072 110.116 45.9377 109.598C45.8157 109.628 45.7852 109.628 45.7547 109.659C44.7786 110.513 43.3755 110.177 42.9484 108.957C42.6129 108.042 42.6129 107.036 42.9484 106.12C43.345 105.053 44.1686 104.9 44.9921 105.022C45.3277 105.083 45.5717 105.358 45.8462 105.754ZM45.8767 107.615C45.7852 107.188 45.7547 106.7 45.6327 106.273C45.5107 105.907 45.2667 105.663 44.8701 105.663C44.4736 105.663 44.1991 105.907 44.077 106.273C43.772 107.127 43.772 107.981 44.077 108.866C44.2296 109.293 44.4736 109.476 44.9006 109.476C45.3277 109.476 45.5717 109.232 45.6632 108.835C45.7547 108.439 45.7852 108.042 45.8767 107.615Z" fill="#5A595B"/>
<path d="M21.1082 105.541C21.1082 104.656 21.1082 103.802 21.1082 102.887C21.4742 102.887 21.7793 102.887 22.1453 102.887C22.1453 105.297 22.1453 107.646 22.1453 110.086C21.8098 110.086 21.4742 110.086 21.1387 110.086C21.1082 109.933 21.0777 109.72 21.0472 109.506C20.9557 109.598 20.8947 109.628 20.8337 109.72C20.1931 110.543 18.8815 110.299 18.4239 109.659C18.3019 109.476 18.1494 109.262 18.0884 109.018C17.7833 108.073 17.7833 107.097 18.1189 106.181C18.4239 105.327 19.034 104.992 19.8881 104.992C20.3456 105.022 20.7116 105.236 20.9862 105.602C21.0167 105.541 21.0777 105.541 21.1082 105.541ZM21.0777 107.524C21.0472 107.402 21.0777 107.249 21.0472 107.127C20.9862 106.761 20.9557 106.395 20.8032 106.059C20.5286 105.449 19.7661 105.419 19.4 105.998C19.3085 106.12 19.278 106.303 19.217 106.425C19.034 107.158 19.034 107.89 19.217 108.622C19.278 108.805 19.339 109.018 19.4915 109.171C19.8271 109.598 20.4066 109.567 20.7116 109.11C20.8337 108.957 20.8947 108.744 20.9252 108.591C20.9862 108.256 21.0167 107.89 21.0777 107.524Z" fill="#5A595B"/>
<path d="M1.79965 109.964C1.79965 109.567 1.79965 109.201 1.79965 108.805C1.92166 108.866 2.04367 108.927 2.19619 108.927C2.62323 109.049 3.05028 109.232 3.47732 109.323C3.72134 109.384 3.99587 109.354 4.2399 109.293C5.06348 109.171 5.33801 108.256 4.81946 107.615C4.63644 107.402 4.36191 107.219 4.11789 107.036C3.81286 106.853 3.44682 106.669 3.17229 106.486C2.83675 106.273 2.50122 106.09 2.25719 105.815C1.25059 104.778 1.70814 103.192 3.08078 102.796C3.75185 102.613 4.42292 102.674 5.06349 102.735C5.27701 102.765 5.46002 102.826 5.70405 102.857C5.70405 103.192 5.70405 103.497 5.70405 103.802C5.2465 103.68 4.81946 103.528 4.39241 103.436C4.11789 103.375 3.81286 103.406 3.53833 103.467C2.89776 103.619 2.68424 104.29 3.08078 104.809C3.2333 105.022 3.47732 105.205 3.69085 105.358C3.99588 105.541 4.36191 105.724 4.63644 105.907C4.94147 106.09 5.24651 106.273 5.52103 106.486C6.1311 106.975 6.37512 107.646 6.2226 108.439C6.10059 109.232 5.61254 109.72 4.84996 109.964C4.2399 110.147 3.66034 110.177 3.05028 110.116C2.65374 110.147 2.25719 110.025 1.79965 109.964Z" fill="#5A595B"/>
<path d="M67.1679 93.4006C66.7104 93.4006 66.2528 93.4006 65.7648 93.4006C65.7648 90.3198 65.7648 87.2085 65.7648 84.0971C66.1918 83.9751 66.6799 83.8226 67.1679 83.6701C67.1679 86.9339 67.1679 90.1368 67.1679 93.4006Z" fill="#5A595B"/>
<path d="M128.083 84.1277C128.54 84.0057 128.998 83.8531 129.516 83.7006C129.516 86.9645 129.516 90.1673 129.516 93.4006C129.059 93.4006 128.601 93.4006 128.083 93.4006C128.083 90.3198 128.083 87.2695 128.083 84.1277Z" fill="#5A595B"/>
<path d="M16.6547 110.086C16.2887 110.086 15.9837 110.086 15.6176 110.086C15.5871 109.781 15.5871 109.476 15.5566 109.11C15.4346 109.293 15.3126 109.415 15.2211 109.506C14.8855 109.903 14.4585 110.177 13.9094 110.177C13.2079 110.208 12.6283 109.75 12.5673 108.988C12.5063 107.707 12.5368 106.395 12.5368 105.053C12.9028 105.053 13.2079 105.053 13.5739 105.053C13.5739 105.175 13.6044 105.327 13.6044 105.449C13.6044 106.303 13.6044 107.158 13.6044 108.012C13.6044 108.256 13.6349 108.53 13.6959 108.774C13.8179 109.293 14.2145 109.506 14.672 109.201C14.8855 109.079 15.0991 108.805 15.2516 108.561C15.5566 108.042 15.6176 107.463 15.6176 106.883C15.6176 106.273 15.6176 105.693 15.6176 105.022C16.0142 105.022 16.3192 105.022 16.6852 105.022C16.6547 106.761 16.6547 108.408 16.6547 110.086Z" fill="#5A595B"/>
<path d="M129.272 110.086C128.906 110.086 128.601 110.086 128.235 110.086C128.235 109.933 128.205 109.781 128.205 109.628C128.205 108.774 128.205 107.951 128.205 107.127C128.205 106.852 128.174 106.578 128.113 106.303C127.991 105.846 127.686 105.663 127.229 105.876C126.893 105.998 126.71 106.273 126.557 106.547C126.283 107.066 126.191 107.646 126.191 108.256C126.191 108.866 126.191 109.476 126.191 110.116C125.825 110.116 125.52 110.116 125.154 110.116C125.154 108.469 125.154 106.822 125.154 105.144C125.49 105.144 125.825 105.144 126.191 105.144C126.191 105.449 126.191 105.754 126.191 106.059C126.222 106.059 126.252 106.059 126.283 106.09C126.374 105.968 126.435 105.815 126.557 105.724C126.801 105.51 127.045 105.236 127.351 105.114C128.54 104.687 129.242 105.419 129.242 106.364C129.272 107.279 129.242 108.225 129.242 109.14C129.272 109.445 129.272 109.75 129.272 110.086Z" fill="#5A595B"/>
<path d="M95.4138 105.083C95.7798 105.083 96.0849 105.083 96.4509 105.083C96.4509 105.419 96.4509 105.724 96.4509 106.151C96.6339 105.907 96.7559 105.754 96.8474 105.602C97.183 105.205 97.61 104.961 98.1591 104.961C98.8607 104.961 99.3487 105.358 99.4402 106.059C99.4707 106.181 99.4707 106.273 99.4707 106.395C99.4707 107.493 99.4707 108.591 99.4707 109.689C99.4707 109.811 99.4402 109.933 99.4402 110.086C99.0742 110.086 98.7691 110.086 98.4336 110.086C98.4336 109.964 98.4031 109.781 98.4031 109.659C98.4031 108.744 98.4031 107.859 98.4031 106.944C98.4031 106.7 98.3726 106.425 98.2811 106.181C98.1591 105.815 97.8846 105.693 97.5185 105.785C97.183 105.907 96.9695 106.12 96.8474 106.425C96.5729 106.914 96.4509 107.432 96.4509 108.012C96.4509 108.53 96.4509 109.049 96.4509 109.537C96.4509 109.689 96.4509 109.842 96.4509 110.025C96.0849 110.025 95.7798 110.025 95.4748 110.025C95.3528 109.75 95.2918 106.09 95.4138 105.083Z" fill="#5A595B"/>
<path d="M66.7103 110.086C66.3137 110.086 66.0392 110.086 65.7036 110.086C65.5816 109.72 65.5816 105.754 65.6731 105.114C66.0087 105.114 66.3442 105.114 66.6797 105.114C66.6797 105.449 66.6797 105.754 66.6797 106.151C66.8323 105.937 66.9543 105.785 67.0763 105.663C67.4423 105.236 67.8694 104.992 68.4489 104.992C69.12 104.992 69.5775 105.388 69.6996 105.998C69.7301 106.09 69.7301 106.151 69.7301 106.242C69.7301 107.463 69.7301 108.744 69.7301 109.964C69.7301 109.994 69.6996 110.025 69.6691 110.086C69.364 110.086 68.998 110.086 68.6625 110.086C68.6625 109.933 68.6319 109.781 68.6319 109.659C68.6319 108.744 68.6319 107.859 68.6319 106.944C68.6319 106.7 68.6014 106.425 68.5099 106.181C68.3879 105.815 68.1134 105.724 67.7779 105.815C67.4423 105.907 67.2288 106.151 67.0763 106.425C66.8018 106.944 66.6797 107.524 66.6797 108.103C66.7103 108.713 66.7103 109.384 66.7103 110.086Z" fill="#5A595B"/>
<path d="M123.965 107.554C123.873 107.981 123.843 108.439 123.721 108.805C123.507 109.537 123.019 109.994 122.257 110.147C121.799 110.238 121.341 110.238 120.884 110.055C120.274 109.872 119.908 109.445 119.694 108.866C119.42 108.012 119.389 107.158 119.664 106.303C119.938 105.419 120.579 104.961 121.494 104.931C121.647 104.931 121.83 104.931 121.982 104.931C122.806 104.992 123.416 105.388 123.69 106.151C123.812 106.639 123.843 107.097 123.965 107.554ZM122.745 107.615C122.684 107.188 122.623 106.7 122.562 106.303C122.44 105.724 122.135 105.48 121.708 105.449C121.28 105.449 120.975 105.693 120.792 106.303C120.579 107.158 120.579 108.012 120.792 108.866C120.853 109.049 120.914 109.262 121.006 109.384C121.311 109.842 121.921 109.842 122.257 109.415C122.379 109.293 122.47 109.079 122.501 108.896C122.623 108.469 122.653 108.042 122.745 107.615Z" fill="#5A595B"/>
<path d="M59.9081 107.554C59.9996 107.127 60.0301 106.639 60.1826 106.242C60.4571 105.449 61.0672 105.053 61.8908 104.992C62.0433 104.992 62.2263 104.992 62.3788 104.992C63.2634 105.022 63.904 105.48 64.1785 106.334C64.453 107.157 64.4531 107.981 64.209 108.805C63.9955 109.598 63.4769 110.055 62.6534 110.208C61.4637 110.391 60.4266 110.025 60.0911 108.713C59.9996 108.408 59.9996 108.073 59.9691 107.768C59.9691 107.707 59.9691 107.646 59.9691 107.646C59.9691 107.646 59.9386 107.554 59.9081 107.554ZM63.2634 107.493C63.1719 107.066 63.1414 106.547 62.9584 106.059C62.8364 105.632 62.5314 105.419 62.1348 105.419C61.7383 105.449 61.4942 105.693 61.3722 106.059C61.3417 106.151 61.3112 106.181 61.2807 106.273C61.0672 107.127 61.0672 107.981 61.2807 108.835C61.3112 108.957 61.3722 109.11 61.4027 109.232C61.5552 109.537 61.7993 109.689 62.1348 109.689C62.4704 109.689 62.7144 109.506 62.8669 109.232C62.9279 109.11 62.9889 108.957 62.9889 108.835C63.1414 108.408 63.1719 108.012 63.2634 107.493Z" fill="#5A595B"/>
<path d="M111.58 110.086C111.214 110.086 110.909 110.086 110.574 110.086C110.543 109.903 110.513 109.72 110.482 109.506C110.36 109.628 110.238 109.72 110.116 109.811C109.72 110.116 109.293 110.238 108.805 110.177C108.256 110.086 107.829 109.689 107.707 109.232C107.585 108.622 107.829 108.103 108.347 107.798C108.805 107.493 109.354 107.402 109.903 107.341C110.055 107.31 110.269 107.31 110.452 107.28C110.574 106.791 110.482 106.334 110.33 105.846C110.238 105.571 110.055 105.449 109.781 105.449C109.506 105.449 109.262 105.51 109.14 105.815C109.049 106.029 109.018 106.273 108.927 106.517C108.591 106.517 108.256 106.517 107.92 106.517C107.859 105.876 108.134 105.327 108.713 105.144C109.354 104.9 109.994 104.931 110.665 105.083C111.062 105.205 111.336 105.48 111.458 105.876C111.519 106.09 111.58 106.334 111.58 106.578C111.58 107.676 111.58 108.774 111.58 109.872C111.611 109.933 111.611 109.964 111.58 110.086ZM110.543 107.829C110.025 107.798 109.598 107.89 109.323 108.073C109.018 108.256 108.896 108.53 108.927 108.896C108.988 109.415 109.384 109.628 109.842 109.415C110.147 109.293 110.36 109.018 110.452 108.713C110.543 108.408 110.543 108.134 110.543 107.829Z" fill="#5A595B"/>
<path d="M92.699 107.249C92.638 106.791 92.638 106.364 92.577 105.968C92.516 105.602 92.272 105.449 91.967 105.419C91.6009 105.419 91.3569 105.571 91.2654 105.937C91.2044 106.09 91.1739 106.303 91.1434 106.486C90.7773 106.486 90.4723 106.486 90.1063 106.486C90.0148 105.846 90.3198 105.297 90.8994 105.114C91.5399 104.87 92.1805 104.9 92.8516 105.053C93.2481 105.175 93.5226 105.449 93.6446 105.846C93.7056 106.059 93.7667 106.303 93.7667 106.547C93.7667 107.646 93.7667 108.744 93.7667 109.842C93.7667 109.903 93.7361 109.964 93.7361 110.055C93.4006 110.055 93.0651 110.055 92.7295 110.055C92.699 109.903 92.6685 109.72 92.6685 109.506C92.5465 109.628 92.4245 109.72 92.3025 109.811C91.906 110.116 91.4789 110.238 90.9909 110.177C90.4418 110.086 90.0148 109.689 89.8928 109.232C89.7707 108.622 90.0148 108.103 90.5333 107.798C90.9909 107.493 91.5399 107.402 92.089 107.341C92.2415 107.31 92.4245 107.31 92.699 107.249ZM92.6685 107.829C92.15 107.768 91.7534 107.89 91.4484 108.073C91.1434 108.256 91.0214 108.53 91.0519 108.896C91.1129 109.415 91.5094 109.628 91.967 109.415C92.272 109.293 92.4855 109.018 92.577 108.713C92.638 108.408 92.638 108.134 92.6685 107.829Z" fill="#5A595B"/>
<path d="M49.476 106.517C49.0795 106.517 48.7744 106.517 48.4389 106.517C48.3779 105.724 48.8049 105.175 49.598 105.053C50.0556 104.961 50.5131 104.992 51.0012 105.053C51.5807 105.144 51.9162 105.48 52.0383 106.029C52.0993 106.212 52.1298 106.425 52.1298 106.608C52.1298 107.676 52.1298 108.774 52.1298 109.842C52.1298 109.933 52.0993 109.994 52.0993 110.086C51.7332 110.086 51.4282 110.086 51.0927 110.086C51.0622 109.933 51.0622 109.75 51.0316 109.537C50.9096 109.659 50.8181 109.72 50.6961 109.811C50.2081 110.208 49.6285 110.33 49.0184 110.086C48.1034 109.689 47.9508 108.561 48.6829 107.89C49.0489 107.615 49.4455 107.493 49.8725 107.402C50.2386 107.341 50.6046 107.28 51.0012 107.249C51.0927 106.791 51.0316 106.334 50.8791 105.876C50.7876 105.602 50.6046 105.449 50.2996 105.449C49.9945 105.449 49.7505 105.571 49.6285 105.846C49.6285 106.029 49.5675 106.273 49.476 106.517ZM51.0622 107.829C50.5131 107.768 50.1166 107.89 49.72 108.164C49.354 108.439 49.293 108.988 49.598 109.354C49.842 109.628 50.2691 109.628 50.6046 109.293C50.7266 109.171 50.8791 108.957 50.9401 108.774C51.0011 108.439 51.0011 108.134 51.0622 107.829Z" fill="#5A595B"/>
<path d="M9.88303 107.249C9.82203 106.822 9.82203 106.395 9.76102 105.998C9.66951 105.602 9.4865 105.48 9.18146 105.449C8.81543 105.419 8.5714 105.602 8.47989 105.968C8.41888 106.12 8.38838 106.303 8.35788 106.517C7.99184 106.517 7.68681 106.517 7.32077 106.517C7.22926 105.937 7.47329 105.419 8.02234 105.175C8.69341 104.87 9.45599 104.87 10.1576 105.114C10.5541 105.236 10.7981 105.571 10.8896 106.029C10.9201 106.181 10.9506 106.364 10.9506 106.486C10.9506 107.646 10.9506 108.774 10.9506 109.903C10.9506 109.964 10.9201 109.994 10.9201 110.055C10.5846 110.055 10.2491 110.055 9.91354 110.055C9.88303 109.903 9.88303 109.72 9.85253 109.537C9.73052 109.659 9.63901 109.72 9.517 109.811C9.05945 110.177 8.54089 110.299 7.99184 110.116C7.50379 109.964 7.19876 109.628 7.10725 109.14C7.01574 108.622 7.19876 108.164 7.6258 107.89C7.96134 107.676 8.32738 107.524 8.72392 107.463C9.02895 107.341 9.39498 107.31 9.88303 107.249ZM9.82203 107.798C9.39498 107.737 9.02894 107.859 8.66291 108.042C8.38838 108.164 8.26637 108.408 8.23586 108.713C8.20536 108.988 8.26637 109.232 8.47989 109.384C8.69341 109.567 8.96794 109.506 9.21196 109.384C9.5475 109.232 9.76102 108.927 9.82203 108.561C9.85253 108.347 9.82203 108.103 9.82203 107.798Z" fill="#5A595B"/>
<path d="M107.066 109.384C107.066 109.567 107.096 109.659 107.096 109.781C107.096 109.872 107.096 109.964 107.066 110.116C105.846 110.116 104.626 110.116 103.406 110.116C103.284 109.75 103.345 109.445 103.558 109.14C104.229 108.195 104.839 107.219 105.51 106.242C105.602 106.12 105.663 105.968 105.815 105.785C105.022 105.785 104.321 105.785 103.589 105.785C103.589 105.571 103.589 105.388 103.589 105.144C104.717 105.083 105.815 105.114 106.974 105.114C107.096 105.51 107.005 105.785 106.822 106.09C106.151 107.005 105.541 107.981 104.9 108.927C104.809 109.049 104.748 109.201 104.595 109.384C105.419 109.384 106.212 109.384 107.066 109.384Z" fill="#5A595B"/>
<path d="M56.3392 109.537C56.3392 109.75 56.3392 109.933 56.3392 110.116C55.6987 110.269 55.1191 110.269 54.509 109.994C54.1125 109.811 54.021 109.415 54.021 109.018C54.021 108.103 54.021 107.158 54.021 106.242C54.021 106.09 54.021 105.876 54.021 105.693C53.7159 105.663 53.5024 105.632 53.2279 105.632C53.2279 105.48 53.1974 105.327 53.1974 105.144C53.4719 105.114 53.7159 105.083 54.021 105.053C54.021 104.656 54.021 104.29 54.021 103.894C54.387 103.68 54.692 103.497 55.1191 103.253C55.1191 103.894 55.1191 104.443 55.1191 105.053C55.5766 105.053 56.0037 105.053 56.4612 105.053C56.4612 105.266 56.4917 105.419 56.4917 105.632C56.0342 105.632 55.6071 105.632 55.1496 105.632C55.1191 105.815 55.1191 105.937 55.1191 106.059C55.1191 106.913 55.1191 107.737 55.1191 108.561C55.1191 108.713 55.1191 108.896 55.1496 109.018C55.2411 109.384 55.3631 109.506 55.7596 109.537C55.9427 109.537 56.1257 109.537 56.3392 109.537Z" fill="#5A595B"/>
<path d="M113.533 103.894C113.868 103.711 114.173 103.497 114.448 103.345C114.478 103.314 114.539 103.314 114.631 103.314C114.631 103.894 114.631 104.443 114.631 105.053C115.088 105.053 115.546 105.053 115.973 105.053C115.973 105.266 115.973 105.419 115.973 105.632C115.546 105.632 115.088 105.632 114.631 105.632C114.661 106.822 114.539 107.92 114.692 109.049C114.753 109.415 114.905 109.506 115.302 109.537C115.454 109.537 115.668 109.537 115.881 109.537C115.881 109.72 115.912 109.903 115.912 110.116C115.241 110.269 114.6 110.299 113.99 109.933C113.624 109.72 113.563 109.354 113.563 108.957C113.563 108.042 113.563 107.096 113.563 106.181C113.563 106.029 113.563 105.876 113.563 105.693C113.289 105.663 113.045 105.632 112.801 105.632C112.801 105.449 112.801 105.297 112.801 105.114C113.045 105.083 113.289 105.083 113.563 105.053C113.533 104.656 113.533 104.29 113.533 103.894Z" fill="#5A595B"/>
<path d="M57.1933 127.778C56.8273 127.778 56.5222 127.778 56.1867 127.778C56.1867 127.595 56.1562 127.381 56.1562 127.198C56.1562 125.307 56.1562 123.446 56.1562 121.555C56.1562 121.036 56.1562 121.036 55.7596 120.67C56.2477 120.579 56.7052 120.487 57.1933 120.396C57.1933 122.867 57.1933 125.307 57.1933 127.778Z" fill="#5A595B"/>
<path d="M30.8691 110.086C30.4726 110.086 30.1371 110.086 29.8015 110.086C29.6795 109.72 29.6795 103.711 29.7405 102.857C30.1065 102.857 30.4421 102.857 30.8386 102.857C30.8691 105.266 30.8691 107.646 30.8691 110.086Z" fill="#5A595B"/>
<path d="M28.8864 127.778C28.4899 127.778 28.1848 127.778 27.8798 127.778C26.9647 127.778 26.0496 127.747 25.1345 127.778C24.7685 127.778 24.555 127.686 24.3719 127.32C24.738 127.259 25.0735 127.29 25.4091 127.29C25.8056 127.29 26.1411 127.29 26.5377 127.29C26.9037 127.29 27.2392 127.29 27.6358 127.29C27.6663 127.137 27.6968 127.015 27.6968 126.893C27.6968 126.069 27.6663 125.246 27.6358 124.422C27.6053 124.056 27.5138 123.721 27.4223 123.385C27.3002 123.019 26.9952 122.958 26.6902 123.202C26.4157 123.416 26.2021 123.69 25.9581 123.965C25.7446 124.209 25.5616 124.453 25.3481 124.758C25.1955 124.453 25.1345 124.178 25.1345 123.843C25.5311 123.751 25.8056 123.477 26.0801 123.172C26.2021 123.019 26.3852 122.867 26.5377 122.775C26.9952 122.501 27.5443 122.562 27.8798 122.958C28.0933 123.202 28.2764 123.507 28.3679 123.843C28.5204 124.331 28.6424 124.819 28.7339 125.337C28.7949 126.13 28.8254 126.924 28.8864 127.778Z" fill="#5A595B"/>
<path d="M128.967 127.778C128.601 127.778 128.296 127.778 127.961 127.778C127.961 127.595 127.93 127.412 127.93 127.259C127.93 125.368 127.93 123.446 127.93 121.585C127.93 121.25 127.93 120.945 127.534 120.731C127.991 120.64 128.449 120.579 128.967 120.457C128.967 122.867 128.967 125.276 128.967 127.778Z" fill="#5A595B"/>
<path d="M89.8927 127.778C89.5267 127.778 89.2217 127.778 88.8556 127.778C88.8556 127.595 88.8251 127.412 88.8251 127.259C88.8251 125.307 88.8251 123.416 88.8251 121.463C88.8251 121.158 88.8556 120.853 88.3981 120.792C88.4286 120.762 88.4591 120.701 88.4591 120.67C88.9166 120.579 89.3742 120.518 89.8927 120.396C89.8927 122.867 89.8927 125.307 89.8927 127.778Z" fill="#5A595B"/>
<path d="M37.4884 110.086C37.0919 110.086 36.7868 110.086 36.4513 110.086C36.4513 108.408 36.4513 106.791 36.4513 105.114C36.7868 105.114 37.1224 105.114 37.4884 105.114C37.4884 105.449 37.4884 105.785 37.4884 106.12C37.9459 105.602 38.312 105.022 39.1356 104.992C39.1356 105.358 39.1356 105.663 39.1356 106.059C38.9831 106.09 38.8 106.12 38.6475 106.181C38.0375 106.303 37.7019 106.639 37.6104 107.279C37.5494 107.737 37.5494 108.225 37.5189 108.744C37.4579 109.14 37.4884 109.598 37.4884 110.086Z" fill="#5A595B"/>
<path d="M33.7061 105.114C33.7061 105.48 33.7061 105.785 33.7061 106.09C34.1331 105.571 34.4991 104.992 35.3227 104.992C35.3227 105.358 35.3227 105.663 35.3227 106.029C35.2007 106.059 35.0177 106.12 34.8957 106.151C34.2246 106.273 33.8586 106.608 33.7976 107.31C33.7366 108.042 33.7366 108.774 33.7061 109.537C33.7061 109.72 33.7061 109.933 33.7061 110.116C33.3095 110.116 33.035 110.116 32.6689 110.116C32.6689 108.439 32.6689 106.822 32.6689 105.144C33.0045 105.114 33.3705 105.114 33.7061 105.114Z" fill="#5A595B"/>
<path d="M82.1449 110.086C81.7484 110.086 81.4738 110.086 81.1383 110.086C81.0163 109.72 81.0163 105.876 81.0773 105.114C81.4128 105.114 81.7484 105.114 82.0839 105.114C82.0839 105.449 82.0839 105.785 82.0839 106.12C82.5415 105.602 82.9075 104.992 83.7311 104.992C83.7311 105.358 83.7311 105.663 83.7311 106.059C83.5481 106.09 83.3345 106.12 83.182 106.181C82.6635 106.303 82.2974 106.578 82.2059 107.096C82.1449 107.371 82.1144 107.646 82.1144 107.92C82.1449 108.622 82.1449 109.323 82.1449 110.086Z" fill="#5A595B"/>
<path d="M110.513 85.9883C109.079 85.9883 107.707 85.9883 106.212 85.9883C106.517 85.5003 106.761 85.0732 107.402 85.1952C107.432 84.9512 107.463 84.7377 107.524 84.5242C107.646 83.8531 108.012 83.3956 108.683 83.2125C109.323 83.0295 109.872 83.182 110.391 83.7311C110.208 83.8836 109.994 84.0971 109.75 84.2801C109.445 84.0056 109.079 83.7921 108.652 84.0971C108.256 84.3716 108.317 84.7682 108.347 85.2562C109.079 85.2562 109.781 85.2562 110.513 85.2562C110.513 85.4698 110.513 85.7443 110.513 85.9883Z" fill="#5A595B"/>
<path d="M23.8839 105.083C24.2499 105.083 24.555 105.083 24.86 105.083C24.982 105.48 24.982 109.537 24.8905 110.055C24.555 110.055 24.2194 110.055 23.8839 110.055C23.8839 108.408 23.8839 106.791 23.8839 105.083Z" fill="#5A595B"/>
<path d="M41.3013 110.116C41.1183 110.116 40.9353 110.116 40.8133 110.116C40.6607 110.116 40.4777 110.116 40.3557 110.116C40.2337 109.75 40.2337 105.907 40.2947 105.114C40.6302 105.114 40.9658 105.114 41.3013 105.114C41.3013 106.761 41.3013 108.378 41.3013 110.116Z" fill="#5A595B"/>
<path d="M57.5899 105.083C57.9559 105.083 58.261 105.083 58.5965 105.083C58.5965 106.761 58.5965 108.378 58.5965 110.055C58.261 110.055 57.9254 110.055 57.6204 110.055C57.4984 109.72 57.4679 105.785 57.5899 105.083Z" fill="#5A595B"/>
<path d="M101.209 105.083C101.575 105.083 101.881 105.083 102.216 105.083C102.216 106.761 102.216 108.378 102.216 110.055C101.881 110.055 101.545 110.055 101.27 110.055C101.148 109.75 101.087 106.029 101.209 105.083Z" fill="#5A595B"/>
<path d="M117.041 105.053C117.376 105.053 117.62 105.053 117.834 105.053C117.925 105.053 117.986 105.083 118.078 105.083C118.078 106.761 118.078 108.378 118.078 110.055C117.712 110.055 117.407 110.055 117.041 110.055C117.041 108.408 117.041 106.791 117.041 105.053Z" fill="#5A595B"/>
<path d="M74.153 84.4632C74.153 84.8597 73.7565 85.2563 73.36 85.2868C72.9329 85.2868 72.5364 84.9512 72.5364 84.5242C72.5364 84.0971 72.8719 83.7311 73.3295 83.7311C73.7565 83.7006 74.1225 84.0361 74.153 84.4632Z" fill="#5A595B"/>
<path d="M35.4447 84.4937C35.4447 84.9207 35.0481 85.2563 34.6211 85.2563C34.194 85.2563 33.828 84.8902 33.828 84.4327C33.828 84.0056 34.194 83.6701 34.6516 83.6701C35.1091 83.7311 35.4752 84.0666 35.4447 84.4937Z" fill="#5A595B"/>
<path d="M6.7412 98.3116C6.7412 98.7386 6.37516 99.1047 5.94811 99.1047C5.52107 99.1047 5.15503 98.7691 5.15503 98.3116C5.15503 97.8845 5.52107 97.5185 5.94811 97.5185C6.37516 97.549 6.7412 97.854 6.7412 98.3116Z" fill="#5A595B"/>
<path d="M37.4579 84.4632C37.4579 84.8902 37.0613 85.2563 36.6648 85.2563C36.2377 85.2563 35.8717 84.8902 35.8717 84.4327C35.8717 84.0056 36.2072 83.6701 36.6343 83.6701C37.0918 83.7006 37.4579 84.0361 37.4579 84.4632Z" fill="#5A595B"/>
<path d="M75.3428 83.7006C75.7698 83.7006 76.1664 84.0667 76.1664 84.4937C76.1664 84.8902 75.7698 85.2868 75.3428 85.2868C74.9157 85.2868 74.5497 84.8902 74.5497 84.4937C74.5497 84.0972 74.9157 83.7006 75.3428 83.7006Z" fill="#5A595B"/>
<path d="M8.75437 98.3116C8.75437 98.7386 8.38834 99.1047 7.9613 99.1047C7.53425 99.1047 7.16821 98.7386 7.16821 98.3116C7.16821 97.915 7.56475 97.5185 7.9918 97.5185C8.41884 97.549 8.75437 97.854 8.75437 98.3116Z" fill="#5A595B"/>
<path d="M23.8535 103.894C23.8535 103.558 23.8535 103.223 23.8535 102.887C24.2196 102.887 24.5551 102.887 24.9821 102.887C24.9821 103.223 24.9821 103.558 24.9821 103.894C24.5856 103.894 24.2196 103.894 23.8535 103.894Z" fill="#5A595B"/>
<path d="M41.3928 102.857C41.3928 103.223 41.3928 103.528 41.3928 103.863C40.9962 103.863 40.6607 103.863 40.2642 103.863C40.2642 103.528 40.2642 103.192 40.2642 102.857C40.6302 102.857 40.9962 102.857 41.3928 102.857Z" fill="#5A595B"/>
<path d="M58.5965 103.924C58.2 103.924 57.895 103.924 57.4984 103.924C57.4984 103.589 57.4984 103.253 57.4984 102.918C57.8645 102.918 58.2 102.918 58.5965 102.918C58.5965 103.223 58.5965 103.528 58.5965 103.924Z" fill="#5A595B"/>
<path d="M118.169 103.924C117.773 103.924 117.437 103.924 117.041 103.924C117.041 103.558 117.041 103.253 117.041 102.887C117.437 102.887 117.773 102.887 118.169 102.887C118.169 103.223 118.169 103.528 118.169 103.924Z" fill="#5A595B"/>
<path d="M102.247 103.924C101.85 103.924 101.514 103.924 101.148 103.924C101.148 103.558 101.148 103.253 101.148 102.887C101.514 102.887 101.85 102.887 102.247 102.887C102.247 103.192 102.247 103.528 102.247 103.924Z" fill="#5A595B"/>
<path d="M16.6852 121.097C16.6852 121.463 16.4107 121.707 16.0446 121.707C15.7091 121.707 15.4346 121.433 15.4041 121.097C15.4041 120.762 15.7396 120.426 16.0751 120.457C16.4412 120.487 16.7157 120.762 16.6852 121.097Z" fill="#5A595B"/>
<path d="M18.3324 121.067C18.3324 121.433 18.0884 121.677 17.7223 121.677C17.3868 121.677 17.0818 121.433 17.0818 121.097C17.0513 120.762 17.3868 120.426 17.7223 120.426C18.0579 120.487 18.3324 120.762 18.3324 121.067Z" fill="#5A595B"/>
<path d="M61.9519 121.707C61.5858 121.677 61.3723 121.402 61.3723 121.067C61.4028 120.731 61.6773 120.457 62.0129 120.457C62.3789 120.457 62.6229 120.792 62.5924 121.128C62.5619 121.494 62.3179 121.707 61.9519 121.707Z" fill="#5A595B"/>
<path d="M64.2397 121.097C64.2397 121.463 63.9956 121.707 63.6296 121.677C63.2941 121.677 63.0195 121.402 63.0195 121.067C63.0195 120.701 63.3246 120.396 63.6906 120.426C63.9956 120.487 64.2397 120.762 64.2397 121.097Z" fill="#5A595B"/>
<path d="M96.9695 121.067C96.9695 121.433 96.7255 121.707 96.39 121.707C96.0239 121.738 95.7799 121.494 95.7494 121.128C95.7189 120.762 95.9934 120.457 96.3594 120.457C96.6645 120.457 96.939 120.731 96.9695 121.067Z" fill="#5A595B"/>
<path d="M95.3223 121.067C95.3223 121.402 95.0783 121.677 94.7427 121.707C94.3767 121.738 94.1327 121.494 94.1022 121.128C94.0717 120.762 94.3462 120.457 94.7122 120.457C95.0173 120.457 95.2918 120.731 95.3223 121.067Z" fill="#5A595B"/>
<path d="M64.1309 0C78.3453 0.0610063 90.4246 7.22924 97.2268 18.2714C99.728 22.3588 101.436 26.7207 102.321 31.4182C102.931 34.5601 103.114 37.7019 102.9 40.8742C102.321 49.4456 99.301 57.0714 93.6274 63.5685C87.9538 70.0962 80.8771 74.2446 72.4277 76.0138C69.3164 76.6849 66.1746 76.8984 63.0327 76.7459C54.3698 76.3493 46.5915 73.4516 39.9724 67.8695C33.2312 62.1959 28.8997 54.9667 27.039 46.3038C26.368 43.2229 26.1239 40.1116 26.2764 36.9393C26.612 28.8865 29.2658 21.6572 34.1463 15.2516C39.6368 8.05283 46.7441 3.32484 55.5595 1.12861C57.4507 0.671063 59.3724 0.335529 61.2941 0.213516C62.4227 0.0610007 63.5513 0.0305031 64.1309 0ZM64.0698 74.6717C67.6387 74.5802 70.1705 74.3056 72.6412 73.7261C82.9818 71.2248 90.8516 65.3377 96.2202 56.1563C98.9044 51.5503 100.369 46.5173 100.826 41.2097C100.948 39.6541 100.948 38.0679 100.887 36.4817C100.765 34.377 100.491 32.3333 100.033 30.2896C98.5689 23.9145 95.6101 18.3324 91.0956 13.6044C84.5069 6.71068 76.4236 2.9588 66.9066 2.31823C63.6123 2.10471 60.379 2.34874 57.1761 3.05031C48.0862 5.06352 40.7349 9.7915 35.3054 17.3258C31.1875 22.9994 29.0522 29.466 28.6557 36.4513C28.5032 39.4711 28.6862 42.4299 29.2963 45.3887C30.9129 53.411 34.7563 60.1217 40.857 65.5207C47.7202 71.6519 55.8645 74.6717 64.0698 74.6717Z" fill="url(#paint0_linear_23_3115)"/>
<path d="M100.368 38.4034C100.399 58.017 84.5067 74.1226 64.6492 74.1226C44.4866 74.0921 28.93 57.6204 28.9605 38.3729C28.991 19.1865 44.5171 2.68427 64.6797 2.68427C84.5372 2.68427 100.399 18.8204 100.368 38.4034Z" fill="url(#paint1_radial_23_3115)"/>
<path d="M56.2609 18.1189C56.1389 18.2409 56.0169 18.3019 55.8949 18.3934C53.3326 20.3151 51.4109 22.7249 50.2213 25.7142C49.7332 26.9343 49.4282 28.2154 49.4892 29.5271C49.5197 29.9541 49.5502 30.3811 49.7027 30.8692C49.8247 30.6557 49.8857 30.5032 49.9772 30.3506C51.2584 27.8799 52.814 25.6532 54.7662 23.64C55.8948 22.4808 57.0845 21.4437 58.5181 20.6812C58.6706 20.5896 58.8537 20.5286 59.0062 20.4371C58.1521 21.8403 57.664 23.3044 57.6335 24.9211C57.603 26.5378 58.0606 28.0019 58.9757 29.344C59.3112 27.4528 60.0128 25.7447 60.9584 24.0975C61.904 22.4808 63.0631 20.9862 64.3442 19.583C64.4357 19.6745 64.4967 19.7051 64.5577 19.7661C65.7169 21.0777 66.7845 22.4503 67.6691 23.945C68.5841 25.4396 69.2857 27.0563 69.6213 28.795C69.6518 28.978 69.7128 29.161 69.7433 29.4661C70.4143 28.4594 70.7804 27.4529 70.9634 26.3852C71.3294 24.25 70.8414 22.2978 69.6823 20.4676C69.9263 20.5591 70.1703 20.6506 70.3533 20.8032C71.787 21.6267 73.0071 22.6944 74.1357 23.8535C76.0269 25.8362 77.5521 28.0629 78.8027 30.5032C78.8637 30.5947 78.9247 30.6557 78.9552 30.7472C79.0162 30.7167 79.0467 30.7167 79.0467 30.7167C79.0772 30.6557 79.1077 30.5947 79.1077 30.5337C79.3213 29.283 79.2297 28.0324 78.8637 26.8123C77.7961 23.3349 75.7219 20.5896 72.8546 18.3934C72.7326 18.2714 72.5801 18.1799 72.4581 18.0884C72.8546 18.0884 73.2816 18.1494 73.6477 18.2104C75.9659 18.6069 78.1316 19.461 80.1143 20.7727C81.548 21.7183 82.8291 22.8164 84.0492 24.0365C84.1713 24.1585 84.2933 24.25 84.4458 24.433C84.4458 24.311 84.4458 24.25 84.4458 24.189C83.8357 22.0233 82.7376 20.1321 81.0904 18.5764C79.4433 17.0818 77.5216 16.0752 75.4169 15.4041C74.5018 15.1296 73.5867 14.9161 72.6411 14.672C72.7326 14.6415 72.7631 14.611 72.8241 14.611C73.5867 14.55 74.3187 14.489 75.0813 14.489C75.9659 14.4585 76.8505 14.5195 77.7351 14.672C78.9552 14.8856 80.1143 15.3431 81.2735 15.8312C81.7615 16.0142 82.2801 16.2277 82.8901 16.5022C82.7681 16.3497 82.7376 16.2887 82.6766 16.2277C82.1886 15.7701 81.7005 15.3126 81.1819 14.8856C79.7788 13.6959 78.3147 12.7198 76.576 12.0793C74.6238 11.3472 72.6411 11.1642 70.5974 11.3472C70.3838 11.3777 70.1398 11.4082 69.8958 11.2862C70.2923 10.9812 70.6584 10.7066 71.0854 10.4931C71.5125 10.2796 72.0005 10.0966 72.4276 9.91355C70.2008 9.24248 68.0961 9.395 66.0829 10.6761C66.0219 10.4931 65.9914 10.3101 65.9609 10.1881C65.7474 9.33399 65.4118 8.5409 64.7408 7.96134C64.3442 7.62581 64.3137 7.62581 63.9477 7.99185C63.2766 8.63241 62.9106 9.4255 62.697 10.3406C62.6665 10.4626 62.6055 10.5846 62.575 10.7371C60.5923 9.456 58.4876 9.33398 56.2609 9.94404C57.176 10.3101 58.0911 10.6456 58.7621 11.3777C58.2131 11.4082 57.6945 11.3472 57.1455 11.3472C54.6137 11.2557 52.2345 11.8047 50.0382 13.1164C48.7876 13.8485 47.659 14.7635 46.5914 15.7396C46.3474 15.9837 46.0728 16.1972 45.8288 16.4412C46.1338 16.4107 46.4084 16.3192 46.6524 16.1972C47.5675 15.8311 48.4521 15.4956 49.3672 15.1601C51.1059 14.5195 52.936 14.489 54.7662 14.5805C55.1628 14.611 55.5898 14.6415 55.9864 14.672C55.8033 14.794 55.5898 14.8245 55.4068 14.8856C53.8206 15.2516 52.265 15.7091 50.8008 16.4412C47.6285 17.9969 45.4018 20.4066 44.3342 23.7925C44.2732 23.9755 44.2121 24.189 44.1816 24.372C45.8898 22.8164 47.6285 21.2912 49.6417 20.1626C51.5634 19.095 55.1933 17.9664 56.2609 18.1189Z" fill="white"/>
<path d="M85.8794 54.5701C84.3847 54.7836 82.8595 54.9667 81.3344 55.2412C75.6608 56.2478 70.1092 57.7424 64.7407 59.8777C64.4356 59.9997 64.2221 59.9997 63.9171 59.8777C61.9649 59.2066 60.0737 58.444 58.091 57.8339C53.5765 56.4003 48.9705 55.3937 44.2731 54.7531C43.663 54.6616 43.0835 54.6311 42.4734 54.5396C48.9401 55.8512 55.0102 58.2915 60.8363 61.5248C58.457 62.684 56.1693 63.8431 54.0036 65.2157C54.3391 65.8868 55.1322 66.9239 55.7727 67.4424C56.1693 67.8085 56.6573 68.1135 57.1149 68.388C57.3589 68.5406 57.5419 68.51 57.786 68.2965C59.1586 67.2289 60.5312 66.1918 61.9039 65.1852C62.6665 64.6057 63.49 64.0871 64.3136 63.5685C64.4356 63.66 64.5577 63.6905 64.6797 63.7821C66.8149 65.1547 68.8586 66.6189 70.8108 68.2355C71.2073 68.5711 71.2073 68.6016 71.6954 68.327C72.9765 67.595 73.8916 66.4663 74.7152 65.2157C72.4885 63.8126 70.2312 62.6535 67.852 61.5248C69.3467 60.6707 70.8108 59.9082 72.275 59.2371C73.7696 58.566 75.2948 57.8949 76.7894 57.3154C78.3146 56.7358 79.8702 56.2173 81.4259 55.7597C82.9816 55.3022 84.5677 54.9666 86.0929 54.5701C86.0624 54.5701 85.9709 54.5701 85.8794 54.5701Z" fill="white"/>
<path d="M63.8254 56.1868C63.4288 54.3871 62.9103 52.6179 62.2087 50.8792C61.7817 49.7811 61.2936 48.683 60.531 47.7374C59.616 46.5478 58.3958 45.7547 56.8402 45.6022C55.132 45.4497 53.7899 46.5478 53.5153 48.1035C53.2713 49.4761 53.6983 50.6657 54.5219 51.7333C55.1625 52.5264 55.9556 53.0755 56.8097 53.5635C58.9449 54.7836 61.2326 55.6682 63.5814 56.4613C63.6729 56.4918 63.7034 56.4918 63.8559 56.5223C63.8559 56.4003 63.8559 56.2783 63.8254 56.1868ZM57.4502 47.4629C56.2606 47.2494 55.2235 47.5849 54.3694 48.5C54.5524 47.1579 55.62 46.3038 56.9317 46.3953C58.0603 46.4563 58.9449 47.0053 59.6464 47.8594C59.9515 48.256 60.165 48.683 60.3175 49.1711C59.5244 48.2865 58.5788 47.6764 57.4502 47.4629Z" fill="white"/>
<path d="M75.9351 48.5305C75.8131 46.7308 74.41 45.5412 72.6103 45.6632C71.6342 45.7242 70.7801 46.0902 69.987 46.6698C69.0719 47.3409 68.4924 48.2254 67.9738 49.2015C67.0892 50.9097 66.5096 52.7399 65.9911 54.6006C65.8386 55.2717 65.6556 55.9122 65.5031 56.5833C65.6251 56.5833 65.6556 56.5833 65.6861 56.5833C67.9738 55.8207 70.231 54.9361 72.3357 53.777C73.0678 53.3805 73.7694 52.9229 74.3795 52.3434C75.4166 51.2452 76.0266 50.0251 75.9351 48.5305ZM74.8675 48.3169C73.9524 47.4019 72.8238 47.1883 71.5732 47.5544C70.6276 47.8289 69.865 48.378 69.2244 49.171C69.1634 49.2626 69.1024 49.2931 69.0414 49.4151C69.6515 47.3714 71.2376 46.3037 72.8543 46.3953C73.9829 46.4868 74.898 47.3103 75.0505 48.439C74.959 48.4085 74.898 48.378 74.8675 48.3169Z" fill="white"/>
<path d="M67.4858 30.8387C66.9062 28.856 66.0521 26.9648 65.1065 25.1041C64.8625 24.616 64.588 24.1585 64.3134 23.6094C64.1914 23.762 64.1304 23.8535 64.0999 23.9755C63.3983 25.3481 62.6663 26.7208 62.0257 28.0934C61.4156 29.4355 60.9276 30.8082 60.7751 32.2723C60.6531 33.706 60.9276 35.0176 61.7817 36.1157C62.9713 37.6714 64.954 37.8849 66.3876 36.6648C67.3027 35.8412 67.7908 34.8041 67.8823 33.584C67.9433 32.6384 67.7603 31.7233 67.4858 30.8387ZM62.5748 35.9022C61.6597 35.0481 61.3546 33.95 61.5377 32.7604C61.6292 32.2418 61.7817 31.7538 61.9342 31.1132C61.9647 31.7843 61.9647 32.3028 62.0562 32.8214C62.1782 33.706 62.5748 34.4686 63.2458 35.0786C63.8559 35.6582 64.5575 35.9937 65.4116 35.9632C65.5336 35.9632 65.5946 35.9632 65.8081 35.9632C64.832 36.8173 63.4899 36.7563 62.5748 35.9022Z" fill="white"/>
<path d="M72.0613 39.1355C71.5732 37.8849 70.2921 37.4274 69.377 37.6104C68.4619 37.7629 67.7298 38.2509 67.1197 38.8915C66.4792 39.5626 66.1436 40.3557 65.8996 41.2097C65.3506 43.0094 65.137 44.8701 65.015 46.7613C65.015 46.9138 65.015 47.0969 65.015 47.2799C65.1065 47.2799 65.137 47.2799 65.198 47.2494C67.0587 46.2428 68.8889 45.1446 70.5056 43.7415C71.1766 43.1619 71.7257 42.5214 72.0307 41.6673C72.3358 40.8437 72.3968 39.9896 72.0613 39.1355ZM71.2377 39.4711C70.4751 38.9525 69.6515 38.922 68.7974 39.2575C68.0348 39.5626 67.4553 40.0811 67.0282 40.7522C66.9367 40.8742 66.9062 40.9962 66.8147 41.1487C66.7842 41.1182 66.7537 41.1182 66.7232 41.0877C66.8757 40.6912 66.9977 40.2336 67.1807 39.8371C67.6688 38.8915 68.4619 38.312 69.56 38.2509C70.4446 38.2204 71.0852 38.678 71.4512 39.5626C71.3902 39.5321 71.2987 39.5016 71.2377 39.4711Z" fill="white"/>
<path d="M63.9474 43.0704C63.7949 41.9418 63.4899 40.8437 62.9408 39.8066C62.3918 38.7695 61.5682 38.0374 60.4396 37.6714C58.9449 37.2138 57.5723 38.0374 57.2062 39.5626C57.0232 40.3556 57.1452 41.0877 57.4503 41.8198C57.7553 42.5824 58.3043 43.1924 58.9144 43.711C60.5006 45.1141 62.3003 46.2122 64.1609 47.2188C64.2219 47.2493 64.283 47.2798 64.3745 47.3103C64.405 47.2188 64.4355 47.1883 64.405 47.1578C64.2524 45.7852 64.1304 44.4431 63.9474 43.0704ZM57.9078 39.5626C57.9688 39.41 57.9993 39.288 58.0298 39.166C58.4264 38.4339 59.2804 38.0679 60.1345 38.2509C61.1106 38.4644 61.8122 39.044 62.2088 39.9591C62.3613 40.3251 62.4528 40.6607 62.6053 41.0572C61.6292 39.288 59.616 38.4034 57.9078 39.5626Z" fill="white"/>
<defs>
<linearGradient id="paint0_linear_23_3115" x1="26.2124" y1="38.3794" x2="102.991" y2="38.3794" gradientUnits="userSpaceOnUse">
<stop stop-color="#F7CE3B"/>
<stop offset="0.4122" stop-color="#B2722A"/>
<stop offset="0.7365" stop-color="#F7CE3B"/>
<stop offset="1" stop-color="#B2722A"/>
</linearGradient>
<radialGradient id="paint1_radial_23_3115" cx="0" cy="0" r="1" gradientUnits="userSpaceOnUse" gradientTransform="translate(64.6442 38.4146) scale(35.7165 35.7165)">
<stop stop-color="#119FDB"/>
<stop offset="1" stop-color="#124B9B"/>
</radialGradient>
</defs>
</svg>
