<svg width="156" height="78" viewBox="0 0 156 78" fill="none" xmlns="http://www.w3.org/2000/svg">
<path d="M20.0373 53.9784L16.9618 53.9085C17.521 53.9085 17.5443 54.6075 17.5443 54.6075L17.521 59.9197L4.19384 59.8498C0.489249 58.5218 3.19197 53.8386 3.19197 53.8386L0.908637 54.2347C0.908637 54.2347 -0.0466347 54.957 0.0465624 57.5199C0.186358 61.4342 4.58992 61.7604 4.58992 61.7604L19.8277 61.8536C19.618 61.6206 19.5481 61.0847 19.5481 61.0847L19.5947 54.4444C19.5947 54.0483 20.0373 53.9784 20.0373 53.9784Z" fill="#0061A9"/>
<path d="M8.7141 54.6076C9.34318 54.6076 9.85576 54.095 9.85576 53.4893C9.85576 52.8602 9.36648 52.3476 8.7374 52.3476C8.10832 52.3476 7.59573 52.8602 7.59573 53.4893C7.57244 54.095 8.08502 54.6076 8.7141 54.6076Z" fill="#0061A9"/>
<path d="M11.6964 54.6309C12.3255 54.6309 12.8381 54.1183 12.8381 53.4893C12.8381 52.8602 12.3255 52.3476 11.7197 52.3476C11.0907 52.3476 10.5781 52.8602 10.5781 53.4893C10.5548 54.1183 11.0441 54.6309 11.6964 54.6309Z" fill="#0061A9"/>
<path d="M39.8184 63.1117C39.1893 63.1117 38.6768 63.6243 38.6768 64.2301C38.6768 64.8591 39.166 65.3717 39.7951 65.3717C40.4242 65.3717 40.9368 64.8591 40.9368 64.2301C40.9368 63.6243 40.4475 63.1117 39.8184 63.1117Z" fill="#0061A9"/>
<path d="M42.9636 63.1349C42.3578 63.1349 41.8219 63.6475 41.8219 64.2766C41.8219 64.9056 42.3345 65.4182 42.9403 65.4182C43.5694 65.4182 44.0819 64.9056 44.0819 64.2766C44.1052 63.6475 43.5926 63.1349 42.9636 63.1349Z" fill="#0061A9"/>
<path d="M107.969 63.5078C107.34 63.5078 106.827 64.0204 106.827 64.6262C106.827 65.2553 107.317 65.7678 107.969 65.7678C108.598 65.7678 109.111 65.2553 109.111 64.6262C109.087 64.0204 108.575 63.5078 107.969 63.5078Z" fill="#0061A9"/>
<path d="M111.114 63.531C110.485 63.531 109.973 64.0436 109.973 64.6494C109.973 65.2784 110.485 65.791 111.091 65.791C111.72 65.791 112.233 65.2784 112.233 64.6494C112.233 64.0436 111.72 63.531 111.114 63.531Z" fill="#0061A9"/>
<path d="M137.582 63.6942C136.953 63.6942 136.441 64.2067 136.441 64.8125C136.441 65.4416 136.953 65.9542 137.582 65.9542C138.211 65.9542 138.724 65.4416 138.724 64.8125C138.724 64.2067 138.211 63.6942 137.582 63.6942Z" fill="#0061A9"/>
<path d="M22.4603 61.9001L25.0465 61.9234C24.767 61.6205 24.6505 61.2244 24.6505 61.2244L24.6971 51.462C24.6971 50.833 25.3261 50.4369 25.3261 50.4369L22.5069 50.4136L22.4603 61.9001Z" fill="#0061A9"/>
<path d="M152.68 62.669L155.29 62.6923C154.987 62.3894 154.894 61.9933 154.894 61.9933L154.964 52.2542C154.964 51.6251 155.593 51.229 155.593 51.229L152.773 51.2057L152.68 62.669Z" fill="#0061A9"/>
<path d="M28.0523 54.6075L28.0057 61.8768C27.9824 65.395 25.4661 65.0921 25.4661 65.0921V65.4882C29.9395 66.2571 29.9628 62.436 29.9628 62.436L30.0094 54.9337C30.0094 54.2114 30.7084 54.025 30.7084 54.025L27.5164 53.9784C27.8193 53.9551 28.0523 54.6075 28.0523 54.6075Z" fill="#0061A9"/>
<path d="M75.3964 51.299L75.3498 59.3139C75.3498 60.2226 75.0236 60.2692 75.0236 60.2692L72.2044 60.2459C71.5986 60.2459 71.5054 59.9197 71.5054 59.9197L71.552 51.8582C71.552 51.1592 71.9947 50.7165 71.9947 50.7165L69.525 50.6932L69.4784 60.2226L65.634 60.1993C64.6088 60.1993 64.6554 59.3139 64.6554 59.3139L64.6787 54.8405C64.6787 54.3745 65.1913 54.1415 65.1913 54.1415L62.2556 54.1182C62.8148 54.1182 62.7216 54.7473 62.7216 54.7473L62.6983 59.4537C62.6983 59.4537 62.5352 60.9915 60.7877 60.9682C59.0403 60.9682 59.0403 59.5702 59.0403 59.5702L59.0636 54.8871C59.0636 54.3279 59.5063 54.1415 59.5063 54.1415L56.8269 54.1182C57.1065 54.1182 57.1531 54.8172 57.1531 54.8172L57.1298 59.4071C57.1298 59.4071 57.0832 60.9915 55.359 60.9682C53.6349 60.9682 53.3786 59.5935 53.3786 59.5935L53.4019 54.9803C53.4019 54.3512 54.031 54.0949 54.031 54.0949L51.5146 54.0716L51.4913 59.1741C51.4913 60.0129 50.4196 60.0828 50.4196 60.0828L42.0318 60.0362L42.0551 54.9104C42.0551 54.2114 42.5677 54.0017 42.5677 54.0017L40.0514 53.9784L40.0048 59.9896L35.4847 59.9663C34.3431 59.9663 34.4596 59.6401 34.4596 59.6401L34.5062 51.299C34.5062 50.6699 34.9488 50.4835 34.9488 50.4835L31.9432 50.4602C32.2461 50.4602 32.2461 51.0194 32.2461 51.0194L32.1762 61.9002L50.7225 62.0167C51.8175 62.0167 52.3301 61.0381 52.3301 61.0381C52.7961 61.6672 53.8679 62.4127 55.3357 62.669C56.8036 62.9253 58.085 61.4342 58.085 61.4342C58.085 61.4342 59.1102 62.5059 60.6712 62.6457C62.2323 62.8088 63.374 62.0865 63.374 62.0865L77.4467 62.1797L77.5166 50.7864L74.8372 50.7631C75.443 50.7864 75.3964 51.299 75.3964 51.299Z" fill="#0061A9"/>
<path d="M122.461 61.6905C121.11 61.6905 120.038 60.4789 120.061 59.011C120.061 57.5432 121.156 56.3549 122.508 56.3549C123.836 56.3549 124.931 57.5665 124.908 59.0343C124.884 60.5022 123.789 61.6905 122.461 61.6905ZM149.395 61.4109L149.442 52.3707C149.442 51.7184 150.048 51.1825 150.048 51.1825L146.762 51.1592C147.205 51.1592 147.415 51.9048 147.415 51.9048L147.368 60.6886L143.058 60.6653C142.615 60.6653 142.568 60.3624 142.568 60.3624C142.568 60.3624 142.801 59.011 142.312 58.0092C139.819 52.8833 132.992 55.0735 132.992 55.0735V56.4714C133.295 56.2151 135.742 55.4928 137.186 55.8423C140.751 56.6811 139.959 60.5721 139.959 60.5721L126.958 60.5022C127.517 55.6093 124.185 54.5842 122.624 54.5842C116.939 54.5376 117.918 60.5022 117.918 60.5022L110.532 60.4556L110.579 54.5143L107.876 54.491C108.388 54.491 108.342 55.2366 108.342 55.2366L108.318 60.4323L93.6865 60.3391C92.4517 60.3391 92.5682 59.71 92.5682 59.71L92.5915 56.2617C92.5915 55.5161 94.1059 55.586 94.1059 55.586V54.3279L84.4134 54.2813C83.9241 54.2813 83.761 54.8405 83.761 54.8405V56.3782C83.761 56.3782 83.7843 56.2151 84.2736 55.9821C85.4619 55.423 86.72 56.2151 86.72 56.2151C85.7182 56.285 83.3416 58.4286 83.4115 60.3391C83.4814 62.2729 84.0173 63.7641 85.4386 64.7194C89.4694 67.4454 93.337 65.6047 93.337 65.6047L93.3836 63.8573C93.3836 63.8573 93.104 65.1155 91.0071 64.9058C86.2075 64.3932 86.1609 61.1313 86.2308 60.3391C86.5569 56.4714 90.4945 56.3083 90.4945 56.3083L90.4712 60.1993C90.4479 62.8088 94.2923 62.4127 94.2923 62.4127L119.223 62.5059C119.223 62.5059 120.271 63.6942 122.368 63.6942C124.465 63.6942 125.56 62.5292 125.56 62.5292L140.704 62.6224C140.704 62.6224 141.66 63.5311 142.359 63.9039C143.058 64.2534 143.71 64.0903 143.71 64.0903C143.104 63.6942 142.988 62.6457 142.988 62.6457L150.281 62.6923C149.605 62.6224 149.395 61.4109 149.395 61.4109Z" fill="#0061A9"/>
<path d="M6.45378 74.7612L-0.00012207 74.7146V73.736H0.722155L0.745454 70.0314H1.77062L1.65413 72.408C2.30651 71.7323 2.98219 71.4061 3.70446 71.4061C4.91603 71.4061 5.59171 72.2915 5.6849 73.7593H6.47708L6.45378 74.7612ZM4.58984 73.7826V73.6894C4.58984 72.8972 4.24035 72.3381 3.58797 72.3381C2.84239 72.3381 2.16671 72.8273 1.60753 73.7826H4.58984Z" fill="#111E24"/>
<path d="M6.12781 74.7613V73.7827H7.03648C7.26947 73.7827 7.43257 73.6663 7.50247 73.4566C7.52577 73.41 7.54907 73.2702 7.54907 73.0838V71.4528H8.57423V73.0372C8.57423 73.3168 8.52763 73.5498 8.45774 73.7827H9.11012C9.45961 73.7827 9.6227 73.5731 9.6227 73.1304V71.4528H10.6479V73.0372C10.6479 73.3168 10.6013 73.5498 10.5081 73.7827H11.1605C11.5099 73.7827 11.673 73.5731 11.673 73.1304V71.4528H12.6982V73.0372C12.6982 73.5964 12.5118 74.039 12.1623 74.3652C11.8827 74.6215 11.5565 74.738 11.1838 74.738L6.12781 74.7613Z" fill="#111E24"/>
<path d="M16.6356 74.6682C16.6356 75.5769 16.0764 76.0196 14.958 76.0196H14.8648V75.2041H14.9347C15.3308 75.2041 15.7502 74.9245 15.7502 74.5284C15.6104 74.7614 15.3774 74.8546 15.0279 74.8546C14.096 74.8546 13.397 74.1323 13.397 73.1538C13.397 72.1519 14.096 71.4995 15.0512 71.4995C15.9832 71.4995 16.6589 72.2218 16.6589 73.2004L16.6356 74.6682ZM15.6337 73.1771C15.6337 72.7344 15.3774 72.4082 15.0279 72.4082C14.6784 72.4082 14.4221 72.7111 14.4221 73.1305C14.4221 73.5498 14.6551 73.876 15.0512 73.876C15.4007 73.9226 15.6337 73.643 15.6337 73.1771Z" fill="#111E24"/>
<path d="M18.616 70.1946H17.3113V69.8218H17.5909C17.5676 69.7519 17.5676 69.682 17.5676 69.6354C17.5676 69.3092 17.8005 69.0529 18.1267 69.0529C18.3597 69.0529 18.5228 69.1694 18.616 69.4024L18.2898 69.5422C18.2665 69.449 18.2199 69.3791 18.1267 69.3791C18.0102 69.3791 17.9636 69.449 17.9636 69.5888C17.9636 69.7053 18.0102 69.7752 18.0568 69.7985H18.616V70.1946ZM20.9692 73.6429C20.9692 73.9924 20.8528 74.2953 20.5965 74.505C20.3635 74.7146 20.0606 74.8311 19.7111 74.8311L17.288 74.8078V73.8293H18.383L17.4744 70.5907H18.5461L19.4315 73.8293C19.781 73.8293 19.9441 73.573 19.9674 73.0837L19.9907 70.1014H20.9925L20.9692 73.6429Z" fill="#111E24"/>
<path d="M21.6165 70.1548L21.5826 74.8612L22.6078 74.8686L22.6417 70.1621L21.6165 70.1548Z" fill="#111E24"/>
<path d="M29.2873 73.7129C29.2873 75.0643 28.1689 76.0895 26.7709 76.0895C25.373 76.0895 24.2313 75.0876 24.2313 73.6896V72.2917H25.2099V73.5964C25.2099 74.5517 25.7691 75.1575 26.7476 75.1575C27.3767 75.1575 27.8427 74.9478 28.099 74.4818C27.9592 74.5051 27.8194 74.5284 27.6563 74.5284C26.6778 74.5284 26.0487 73.8993 26.0487 72.9208C26.0487 71.9422 26.6778 71.3364 27.6563 71.3364C28.6582 71.3364 29.2873 71.9422 29.2873 72.9208V73.7129ZM27.4 70.9869H26.538V70.1714H27.4V70.9869ZM28.3087 72.9674C28.3087 72.4315 28.099 72.1519 27.7029 72.1519H27.633C27.2602 72.1519 27.0272 72.4781 27.0272 72.9441C27.0272 73.4101 27.2602 73.7595 27.6796 73.7595C28.0524 73.7362 28.3087 73.4333 28.3087 72.9674ZM28.7281 71.0102H27.866V70.218H28.7281V71.0102Z" fill="#111E24"/>
<path d="M32.8986 74.9245H31.7569C31.5938 75.7166 30.9182 76.1127 29.7765 76.1127V75.2973C30.4522 75.2973 30.7784 74.9711 30.7784 74.342L30.8017 71.616H31.8268L31.8035 73.9459H32.8753L32.8986 74.9245Z" fill="#111E24"/>
<path d="M40.1445 74.9709L32.5023 74.9243V73.9458H33.411C33.7372 73.9458 33.9236 73.7594 33.9236 73.2701V71.6391H34.9487V73.2235C34.9487 73.5031 34.9021 73.7361 34.809 73.9458H35.4613C35.8108 73.9458 35.9739 73.7361 35.9739 73.2934V71.6158H36.9991V73.2002C36.9991 73.4798 36.9525 73.7128 36.8826 73.9225H37.535C37.8845 73.9225 38.0476 73.7128 38.0476 73.2701V71.5925H39.0727V73.1769C39.0727 73.4565 39.0261 73.6895 38.9329 73.9225H40.1212L40.1445 74.9709ZM36.2768 71.08H35.3681V70.2412H36.2768V71.08ZM36.9525 69.8917H36.0438V69.0529H36.9525V69.8917ZM37.6515 71.1033H36.7428V70.2645H37.6515V71.1033Z" fill="#111E24"/>
<path d="M42.1251 73.5731C42.1251 73.9692 42.0086 74.2721 41.7989 74.5284C41.5659 74.8313 41.2165 74.9711 40.7971 74.9711H39.8418V73.9925H40.5874C40.9369 73.9925 41.1 73.7595 41.1 73.2935L41.1233 70.2879H42.1484L42.1251 73.5731Z" fill="#111E24"/>
<path d="M42.7539 74.9711L43.7558 74.9944L43.8024 70.2879H42.7772L42.7539 74.9711Z" fill="#111E24"/>
<path d="M51.7942 75.0409H51.7476C51.1652 75.0409 50.7225 74.8778 50.4429 74.5982C50.2099 75.5768 49.1614 76.2292 47.9732 76.2292C46.5286 76.2292 45.3636 75.1341 45.3869 73.7362V72.8508H46.4121V73.643C46.4121 74.6215 46.9713 75.2739 48.0198 75.2739C48.8119 75.2739 49.5575 74.7846 49.5575 74.1089C49.5575 73.7128 49.2313 73.4566 48.8818 73.4566C48.8352 73.4566 48.7653 73.4566 48.6954 73.4799V72.5945C48.6954 72.5945 48.8352 72.5945 49.1381 72.5945C49.8837 72.5945 50.4196 72.944 50.7691 73.6197C50.9322 73.9458 51.1885 74.0623 51.6311 74.0623H51.7942V75.0409ZM47.8334 77.9999H46.9247L46.948 76.8816H47.8567L47.8334 77.9999ZM49.208 77.9999H48.2994L48.3226 76.9049H49.2313L49.208 77.9999Z" fill="#111E24"/>
<path d="M55.9883 73.3866C55.9883 73.8759 55.8252 74.2719 55.5223 74.5981C55.2195 74.901 54.8001 75.0408 54.3108 75.0408L51.6547 75.0175V74.0389H52.7497C52.6798 73.8293 52.6332 73.5963 52.6332 73.3633C52.6332 72.3614 53.2856 71.709 54.2875 71.709C54.8001 71.709 55.2195 71.8721 55.5223 72.1517C55.8252 72.4779 55.9883 72.874 55.9883 73.3866ZM54.9632 73.4099C54.9632 72.8274 54.7535 72.5478 54.3108 72.5478H54.2409C54.0312 72.5478 53.8681 72.641 53.7516 72.8041C53.6584 72.9439 53.6118 73.1536 53.6118 73.3633C53.6118 73.5963 53.6584 73.7827 53.7749 73.9457C53.8914 74.1321 54.0778 74.202 54.2875 74.202C54.4972 74.202 54.6603 74.1321 54.8001 73.9457C54.9166 73.8293 54.9632 73.6429 54.9632 73.4099ZM54.7069 71.1964H53.7982V70.3577H54.7069V71.1964Z" fill="#111E24"/>
<path d="M59.646 74.4118C59.646 75.0874 59.4596 75.5534 59.1335 75.8563C58.8306 76.1359 58.318 76.2757 57.5957 76.2757V75.4602C58.2714 75.4602 58.5976 75.1573 58.5976 74.505L58.6209 71.7789H59.646V74.4118ZM59.5994 71.2198H58.6908V70.381H59.5994V71.2198Z" fill="#111E24"/>
<path d="M62.186 74.4119C62.186 75.0875 61.9996 75.5535 61.6734 75.8564C61.3472 76.136 60.8579 76.2758 60.1356 76.2758V75.4603C60.8113 75.4603 61.1375 75.1342 61.1375 74.5051L61.1608 71.7791H62.186V74.4119Z" fill="#111E24"/>
<path d="M66.9624 75.1108H66.0071C65.8906 75.903 65.3314 76.2991 64.3296 76.2991H64.2131V75.4836H64.3063C64.7024 75.4836 64.9354 75.3438 65.0053 75.0642C64.9354 75.0875 64.7257 75.1108 64.3762 75.1108C63.4209 75.1108 62.7219 74.4118 62.7219 73.4332C62.7219 72.4547 63.4209 71.779 64.3762 71.8023C65.3081 71.8023 65.9838 72.5013 65.9838 73.4798V74.1322H66.9391L66.9624 75.1108ZM65.0053 74.1322V73.4332C65.0053 73.0138 64.749 72.7343 64.3762 72.7343C63.9801 72.7343 63.7937 73.0371 63.7704 73.4099C63.7704 73.8293 64.0034 74.1322 64.3995 74.1322H65.0053Z" fill="#111E24"/>
<path d="M67.5447 71.2663H66.636V70.4276H67.5447V71.2663ZM68.9659 73.7127C68.9659 74.1088 68.8494 74.4117 68.6397 74.668C68.4067 74.9709 68.0572 75.1107 67.6379 75.1107H66.7758V74.1321H67.4282C67.7776 74.1321 67.9407 73.8991 67.9407 73.4332V71.8255H68.9659V73.7127ZM68.9193 71.2896H68.0106V70.4508H68.9193V71.2896Z" fill="#111E24"/>
<path d="M73.7419 75.1574H72.7866C72.6701 75.9496 72.111 76.369 71.1091 76.3457H70.9926V75.5302H71.0858C71.4819 75.5302 71.7149 75.3904 71.7848 75.1108C71.7149 75.1341 71.5052 75.1574 71.1557 75.1574C70.2004 75.1574 69.5014 74.4585 69.5247 73.4799C69.5247 72.5013 70.2237 71.8489 71.179 71.8489C72.111 71.8489 72.7866 72.5479 72.7866 73.5265V74.1789H73.7419V75.1574ZM71.7848 74.1789V73.4799C71.7848 73.0605 71.5285 72.7809 71.1557 72.7809C70.7596 72.7809 70.5732 73.0838 70.5499 73.4566C70.5499 73.876 70.7829 74.1789 71.179 74.1789H71.7848Z" fill="#111E24"/>
<path d="M77.8426 74.1555C77.8426 75.134 77.1669 75.8097 76.165 75.8097C75.5592 75.8097 75.0699 75.6 74.7904 75.1806H73.4856V74.2021H74.4875C74.4875 73.1536 75.0933 72.5012 76.1417 72.5012C77.1902 72.5012 77.8426 73.1536 77.8426 74.1555ZM76.8407 74.1788C76.8407 73.5963 76.631 73.3167 76.1883 73.3167H76.1184C75.7456 73.3167 75.4893 73.6662 75.4893 74.1322C75.4893 74.6215 75.7223 74.971 76.165 74.971C76.5611 74.971 76.8174 74.6448 76.8407 74.1788Z" fill="#111E24"/>
<path d="M83.9475 73.9459C83.9475 75.3905 82.9923 76.4157 81.6409 76.4157C80.3594 76.4157 79.3343 75.3206 79.3576 73.9226V73.2004H80.3594V73.8294C80.3594 74.7847 80.8487 75.4604 81.6409 75.4604C82.4331 75.4604 82.9224 74.8313 82.9224 73.8527L82.9457 70.5209H83.9708L83.9475 73.9459Z" fill="#111E24"/>
<path d="M84.6046 70.5148L84.5786 75.2213L85.6038 75.2269L85.6298 70.5205L84.6046 70.5148Z" fill="#111E24"/>
<path d="M89.3061 75.2506H88.1877C88.0246 76.0428 87.3489 76.4622 86.2073 76.4389V75.6234C86.883 75.6234 87.2091 75.2972 87.2091 74.6682L87.2324 71.9421H88.2576L88.2343 74.2721H89.3061V75.2506Z" fill="#111E24"/>
<path d="M92.3583 75.274L89.0731 75.2507V74.2722H89.7488C90.0983 74.2722 90.2614 74.0392 90.2614 73.5732V71.9422H91.2866V73.5266C91.2866 73.7829 91.24 74.0392 91.1701 74.2722H92.3583V75.274ZM91.24 71.4063H90.3313V70.5676H91.24V71.4063Z" fill="#111E24"/>
<path d="M97.3675 75.2973L92.1484 75.274V74.2954L96.2724 74.3187C96.2258 73.5032 95.62 72.8508 94.758 72.8508C94.3153 72.8508 93.826 73.0605 93.5231 73.3634C93.4299 73.2236 93.2435 72.9906 93.0105 72.6644C93.4998 72.1519 94.1056 71.8956 94.8279 71.8956C96.5054 71.9189 97.3675 73.0605 97.3442 74.9478L97.3675 75.2973ZM95.387 76.4855H94.4784V75.6467H95.387V76.4855Z" fill="#111E24"/>
<path d="M103.589 75.3438H102.563C101.981 75.3438 101.585 75.0409 101.352 74.4351C101.165 74.7147 100.816 74.8778 100.303 74.8545C99.418 74.8545 98.8821 74.0856 98.8821 73.0838C98.8821 71.9887 99.4413 71.313 100.397 71.313C100.397 71.313 101.049 71.313 102.354 71.313L102.33 73.6197C102.33 74.1089 102.563 74.3652 103.076 74.3652H103.589V75.3438ZM100.63 70.614H99.7209V69.7753H100.63V70.614ZM101.305 73.0139V72.0586H100.63C100.21 72.0586 99.9073 72.5246 99.9073 73.0838C99.9073 73.5963 100.187 74.0157 100.606 74.0157C101.026 74.0157 101.282 73.6196 101.305 73.0139ZM102.004 70.6373H101.096V69.7986H102.004V70.6373Z" fill="#111E24"/>
<path d="M108.458 75.3672L103.146 75.3439V74.3654L107.34 74.3887C107.247 73.5965 106.641 72.9907 105.872 72.9907H104.031L105.499 70.6841H106.711L105.779 72.0587H106.338C107.736 72.2218 108.435 73.2936 108.435 74.9945L108.458 75.3672Z" fill="#111E24"/>
<path d="M112.046 75.3904H110.928C110.765 76.1826 110.089 76.5787 108.948 76.5787V75.7632C109.623 75.7632 109.949 75.437 109.949 74.8079L109.973 72.0819H110.998L110.975 74.4118H112.046V75.3904Z" fill="#111E24"/>
<path d="M119.316 75.4369L111.673 75.3903V74.4118H112.582C112.908 74.4118 113.095 74.2254 113.095 73.7361V72.1051H114.12V73.6895C114.12 73.9691 114.073 74.2021 113.98 74.4351H114.632C114.982 74.4351 115.145 74.2254 115.145 73.7827V72.1051H116.17V73.6895C116.17 73.9691 116.124 74.2021 116.054 74.4118H116.706C117.056 74.4118 117.219 74.2021 117.219 73.7594V72.0818H118.244V73.6662C118.244 73.9458 118.197 74.1788 118.104 74.4118H119.292L119.316 75.4369ZM115.448 71.546H114.539V70.7072H115.448V71.546ZM116.124 70.3577H115.215V69.5189H116.124V70.3577ZM116.823 71.5693H115.914V70.7305H116.823V71.5693Z" fill="#111E24"/>
<path d="M121.296 74.0391C121.296 74.4352 121.18 74.7381 120.97 74.9944C120.737 75.2973 120.387 75.4371 119.968 75.4371H119.013V74.4585H119.758C120.108 74.4585 120.271 74.2255 120.271 73.7595L120.294 70.7539H121.319L121.296 74.0391Z" fill="#111E24"/>
<path d="M128.496 75.4834H127.098C126.702 76.229 125.956 76.695 125.094 76.6717C123.812 76.6717 122.787 75.5766 122.811 74.1787V73.4564H123.836V74.0855C123.836 75.0407 124.302 75.7164 125.117 75.7164C125.909 75.7164 126.399 75.1106 126.399 74.1088L126.422 70.777H127.447L127.424 74.4816H128.519L128.496 75.4834Z" fill="#111E24"/>
<path d="M129.055 76.6952H128.146V75.8565H129.055V76.6952ZM131.618 75.507L128.333 75.4837V74.5051H129.008C129.358 74.5051 129.521 74.2721 129.521 73.8061V72.1752H130.546V73.7595C130.546 74.0391 130.499 74.2721 130.429 74.5051H131.618V75.507ZM130.429 76.6952H129.521V75.8565H130.429V76.6952Z" fill="#111E24"/>
<path d="M136.534 75.5303L131.222 75.507V74.5284L135.416 74.5517C135.322 73.7595 134.717 73.1537 133.948 73.1537H132.107L133.575 70.8471H134.786L133.855 72.2218H134.414C135.812 72.3849 136.511 73.4566 136.511 75.1575L136.534 75.5303Z" fill="#111E24"/>
<path d="M140.355 75.4138C140.355 76.3224 139.795 76.7651 138.677 76.7651H138.584V75.9496H138.654C139.073 75.9496 139.469 75.6701 139.469 75.274C139.33 75.507 139.097 75.6002 138.747 75.6002C137.815 75.6002 137.116 74.8779 137.116 73.8993C137.116 72.8974 137.815 72.2451 138.77 72.2451C139.702 72.2451 140.378 72.9673 140.378 73.9459L140.355 75.4138ZM139.353 73.9226C139.353 73.4799 139.097 73.1537 138.747 73.1537C138.398 73.1537 138.141 73.4566 138.141 73.876C138.141 74.2954 138.374 74.6216 138.77 74.6216C139.12 74.6449 139.353 74.3653 139.353 73.9226Z" fill="#111E24"/>
<path d="M145.131 75.5768H143.989C143.826 76.3689 143.151 76.765 142.009 76.765V75.9495C142.685 75.9495 143.011 75.6466 143.011 74.9943L143.034 72.2682H144.059L144.036 74.5982H145.108L145.131 75.5768Z" fill="#111E24"/>
<path d="M148.183 75.6001L144.898 75.5768V74.5982H145.574C145.923 74.5982 146.086 74.3652 146.086 73.8992V72.2682H147.111V73.8526C147.111 74.1089 147.065 74.3652 146.995 74.5749H148.183V75.6001ZM146.995 76.8116H146.086V75.9728H146.995V76.8116Z" fill="#111E24"/>
<path d="M153.076 75.6233L147.764 75.6V74.6215L151.958 74.6448C151.865 73.8526 151.259 73.2468 150.49 73.2468H148.649L150.117 70.9402H151.329L150.397 72.3148H150.956C152.354 72.4779 153.053 73.5497 153.053 75.2506L153.076 75.6233Z" fill="#111E24"/>
<path d="M154.894 70.5441H153.589V70.1713H153.868C153.845 70.1014 153.845 70.0315 153.845 69.9849C153.845 69.6588 154.078 69.4025 154.404 69.4025C154.637 69.4025 154.8 69.519 154.894 69.752L154.567 69.9151C154.544 69.8219 154.498 69.752 154.404 69.752C154.288 69.752 154.241 69.8219 154.241 69.9617C154.241 70.0782 154.288 70.148 154.334 70.1713H154.894V70.5441ZM154.731 75.6467H153.705L153.729 70.9402H154.754L154.731 75.6467Z" fill="#111E24"/>
<mask id="mask0_23_3509" style="mask-type:luminance" maskUnits="userSpaceOnUse" x="54" y="0" width="47" height="45">
<path d="M60.7384 0C57.5523 0 54.8904 2.58119 54.8501 5.76733V38.7983C54.8904 41.9845 57.5119 44.606 60.7384 44.606H94.6164C97.8025 44.606 100.464 42.0248 100.505 38.7983V5.76733C100.464 2.58119 97.8428 0 94.6164 0H60.7384Z" fill="white"/>
</mask>
<g mask="url(#mask0_23_3509)">
<path d="M100.505 0H54.8501V44.606H100.505V0Z" fill="url(#paint0_linear_23_3509)"/>
</g>
<mask id="mask1_23_3509" style="mask-type:luminance" maskUnits="userSpaceOnUse" x="58" y="3" width="39" height="39">
<path d="M60.9399 3.02484C59.5687 3.02484 58.4797 4.11378 58.4797 5.48503V39.0807C58.4797 40.4519 59.5687 41.5409 60.9399 41.5409H94.5356C95.9068 41.5409 96.9958 40.4519 96.9958 39.0807V5.48503C96.9958 4.11378 95.9068 3.02484 94.5356 3.02484H60.9399Z" fill="white"/>
</mask>
<g mask="url(#mask1_23_3509)">
<path d="M81.3474 15.3661H64.7714V29.4013H85.1788V25.7715H68.4818V19.0766H85.1788V9.76013H64.7311V13.7529H81.3474V15.3661Z" fill="#0061A9"/>
</g>
<mask id="mask2_23_3509" style="mask-type:luminance" maskUnits="userSpaceOnUse" x="58" y="3" width="39" height="39">
<path d="M60.9399 3.02484C59.5687 3.02484 58.4797 4.11378 58.4797 5.48503V39.0807C58.4797 40.4519 59.5687 41.5409 60.9399 41.5409H94.5356C95.9068 41.5409 96.9958 40.4519 96.9958 39.0807V5.48503C96.9958 4.11378 95.9068 3.02484 94.5356 3.02484H60.9399Z" fill="white"/>
</mask>
<g mask="url(#mask2_23_3509)">
<path d="M85.1787 20.4882H80.823V24.4003H85.1787V20.4882Z" fill="#0061A9"/>
</g>
<mask id="mask3_23_3509" style="mask-type:luminance" maskUnits="userSpaceOnUse" x="58" y="3" width="39" height="39">
<path d="M60.9399 3.02484C59.5687 3.02484 58.4797 4.11378 58.4797 5.48503V39.0807C58.4797 40.4519 59.5687 41.5409 60.9399 41.5409H94.5356C95.9068 41.5409 96.9958 40.4519 96.9958 39.0807V5.48503C96.9958 4.11378 95.9068 3.02484 94.5356 3.02484H60.9399Z" fill="white"/>
</mask>
<g mask="url(#mask3_23_3509)">
<path d="M90.9462 9.71979H86.7114V13.6722H90.9462V9.71979Z" fill="#0061A9"/>
</g>
<mask id="mask4_23_3509" style="mask-type:luminance" maskUnits="userSpaceOnUse" x="58" y="3" width="39" height="39">
<path d="M60.9399 3.02484C59.5687 3.02484 58.4797 4.11378 58.4797 5.48503V39.0807C58.4797 40.4519 59.5687 41.5409 60.9399 41.5409H94.5356C95.9068 41.5409 96.9958 40.4519 96.9958 39.0807V5.48503C96.9958 4.11378 95.9068 3.02484 94.5356 3.02484H60.9399Z" fill="white"/>
</mask>
<g mask="url(#mask4_23_3509)">
<path d="M86.7517 31.1355H64.7311V35.4912H90.7445V15.2855H86.7517V31.1355Z" fill="#0061A9"/>
</g>
<mask id="mask5_23_3509" style="mask-type:luminance" maskUnits="userSpaceOnUse" x="58" y="3" width="39" height="39">
<path d="M60.9399 3.02484C59.5687 3.02484 58.4797 4.11378 58.4797 5.48503V39.0807C58.4797 40.4519 59.5687 41.5409 60.9399 41.5409H94.5356C95.9068 41.5409 96.9958 40.4519 96.9958 39.0807V5.48503C96.9958 4.11378 95.9068 3.02484 94.5356 3.02484H60.9399Z" fill="white"/>
</mask>
<g mask="url(#mask5_23_3509)">
<path d="M93.3257 37.4675H62.2306V7.13864H93.3257V37.4675ZM97.3588 3.18622H58.3588V3.30721H58.3185V41.2989H58.3588V41.4199H97.3588V3.18622Z" fill="#0061A9"/>
</g>
<defs>
<linearGradient id="paint0_linear_23_3509" x1="54.8509" y1="22.2859" x2="100.507" y2="22.2859" gradientUnits="userSpaceOnUse">
<stop stop-color="#A3ACB0"/>
<stop offset="0.053964" stop-color="#C2C7CA"/>
<stop offset="0.0858896" stop-color="#D6D9DB"/>
<stop offset="0.2569" stop-color="#E2E4E6"/>
<stop offset="0.5337" stop-color="white"/>
<stop offset="0.7537" stop-color="#E2E4E6"/>
<stop offset="0.8896" stop-color="#D6D9DB"/>
<stop offset="0.9306" stop-color="#C2C7CA"/>
<stop offset="1" stop-color="#A3ACB0"/>
</linearGradient>
</defs>
</svg>
