<svg width="137" height="112" viewBox="0 0 137 112" fill="none" xmlns="http://www.w3.org/2000/svg">
<path d="M80.4482 28.2603C79.5726 31.4633 78.6739 34.9429 77.66 38.9524C75.9778 45.6581 72.7978 63.0328 71.83 74.5084C71.3231 74.7388 69.8252 74.9462 69.1109 74.9462C66.7835 74.9462 64.0644 73.5175 63.9031 69.8306C63.6727 65.268 66.3457 48.4002 70.3783 32.7768C70.5165 32.2929 70.6318 31.809 70.77 31.3251C65.5853 33.0994 60.7692 34.989 56.437 36.8325C54.824 43.9298 52.681 54.7833 51.8744 65.5445C51.7131 65.7058 50.1923 65.9363 49.4318 65.9363C46.6666 65.9363 44.731 64.0928 44.754 60.9589C44.7771 54.8293 46.1366 46.7872 47.3118 40.9803C41.4819 43.8146 37.1036 46.2802 34.638 47.755C34.2002 46.9255 34.0619 45.5889 34.1771 44.9437C34.3154 44.022 34.8684 41.9942 37.0806 40.4503C40.6984 37.9616 44.6619 35.519 49.0171 33.1916C51.2523 24.0664 54.294 14.803 56.8288 9.31864C58.4649 5.76996 60.5618 4.43344 64.1566 4.43344C65.1013 4.43344 66.3918 4.66387 67.0831 4.87126C63.834 11.9225 60.7922 20.3103 58.4418 28.652C62.8892 26.7164 67.7053 24.8729 72.9592 23.1447C75.517 14.2499 77.7983 7.88995 79.9413 3.85736C81.2778 1.32258 83.49 0.308673 85.4948 0.078239C87.2691 -0.129152 88.813 0.101282 90.1956 0.469977C86.8774 8.3969 84.6882 14.273 82.7987 20.2873C86.3934 19.3425 90.1726 18.4208 94.1591 17.5912C96.3251 17.1304 104.137 15.7477 105.566 23.329C96.786 24.2047 88.3061 26.0251 80.4482 28.2603ZM46.0675 85.1084C44.7079 85.1084 43.3484 86.3527 43.3484 87.7814C43.3484 88.8183 44.0858 89.5557 45.0997 89.5557C46.4592 89.5557 47.8418 88.2884 47.8418 86.8827C47.8649 85.8227 47.0814 85.1084 46.0675 85.1084ZM36.6888 86.3297C35.9284 90.0857 33.4858 101.907 33.4858 101.907C33.3245 102.552 32.4489 105.963 36.0206 105.963H36.5506L41.2284 83.2879C41.2284 83.2879 37.4493 82.6197 36.6888 86.3297ZM42.2423 94.2105C41.4588 97.8744 40.6523 101.907 40.6523 101.907C40.491 102.552 39.6154 105.963 43.2101 105.963H43.7401L46.7818 91.2149C46.6205 91.2379 43.0258 90.5927 42.2423 94.2105ZM31.9189 96.2383C31.9189 99.3722 30.6515 102.345 28.4393 104.142C27.0567 105.294 25.1902 105.986 23.1163 105.986C19.798 105.986 17.4246 104.188 17.4246 100.709C17.4246 97.5979 18.6919 94.6253 20.9041 92.8509C22.3098 91.6988 24.1532 91.0075 26.2502 91.0075C29.5223 90.9844 31.9189 92.7357 31.9189 96.2383ZM27.9093 96.2614C27.9093 94.7175 27.3102 93.6114 25.7432 93.6114C24.7524 93.6114 23.8767 94.1875 23.2315 95.017C22.0102 96.5609 21.388 99.0266 21.388 100.709C21.388 102.276 22.0102 103.382 23.6002 103.382C24.5911 103.382 25.3976 102.806 26.0658 101.976C27.2871 100.409 27.9093 97.9205 27.9093 96.2614ZM102.501 85.3388C101.902 88.104 99.0673 101.907 99.0673 101.907C98.906 102.714 98.0995 105.963 101.602 105.963H102.132L106.971 82.4353C106.049 82.2971 103.146 82.2971 102.501 85.3388ZM116.419 90.9844C114.529 90.9844 112.916 91.837 111.902 92.9892C111.902 92.9892 111.764 90.1088 107.985 91.2609C108.676 93.2657 108.285 93.9801 107.524 98.0127L106.718 101.93C106.579 102.598 105.681 105.986 109.252 105.986H109.782L111.188 99.1879C111.58 97.3674 112.317 93.9109 115.059 93.9109C116.419 93.9109 117.133 94.7635 116.696 96.8605L115.659 101.93C115.497 102.575 114.622 105.986 118.193 105.986H118.723L120.636 96.6992C121.489 92.7127 119.415 90.9844 116.419 90.9844ZM13.8298 85.5231C13.6685 86.3757 13.2537 88.2653 12.6085 91.3531L6.01808 92.6666L7.95373 83.311C7.3546 83.1958 4.08244 82.9423 3.43722 86.3297C3.22983 87.3897 0.211149 101.907 0.211149 101.907C0.0498456 102.667 -0.825804 105.963 2.74592 105.963H3.29896L5.21157 96.7683L11.802 95.4548C11.1568 98.6118 10.4655 101.907 10.4655 101.907C10.3042 102.552 9.42851 105.963 13.0002 105.963H13.5302L18.3924 82.4353C18.3693 82.4353 14.6133 81.7671 13.8298 85.5231ZM132.572 90.9844C130.683 90.9844 129.07 91.837 128.056 92.9892C128.056 92.9892 127.918 90.1088 124.139 91.2609C124.83 93.2657 124.438 93.9801 123.678 98.0127L122.871 101.93C122.733 102.598 121.834 105.986 125.429 105.986H125.959L127.365 99.1879C127.756 97.3674 128.494 93.9109 131.236 93.9109C132.595 93.9109 133.31 94.7635 132.872 96.8605L131.835 101.93C131.674 102.575 130.798 105.986 134.37 105.986H134.9L136.812 96.6992C137.642 92.7127 135.568 90.9844 132.572 90.9844ZM58.1883 93.7266C57.9809 93.6114 57.474 93.4962 57.0362 93.4962C53.9944 93.4962 51.5288 97.2292 51.5288 100.686C51.5288 102.368 52.3353 103.313 53.6488 103.313C54.5936 103.313 55.2618 102.944 55.7918 102.368C56.3218 101.746 56.6905 100.824 56.9209 99.7409L58.1883 93.7266ZM64.2257 83.2879L59.5479 105.963H59.0179C57.8196 105.963 56.7827 105.525 56.437 104.442C55.6075 105.317 54.2018 105.963 52.4275 105.963C49.4318 105.963 47.4732 103.958 47.4732 100.778C47.4732 95.5931 51.5288 90.9844 57.2205 90.9844C57.7966 90.9844 58.3727 91.0305 58.6953 91.1227C58.6492 91.284 59.3175 88.1962 59.6631 86.3988C60.4005 82.7349 63.9031 83.2649 64.2257 83.2879ZM78.0517 92.344L75.2404 105.963H74.7104C73.5122 105.963 72.4752 105.548 72.1296 104.442C71.3231 105.317 69.8944 105.963 68.12 105.963C65.1244 105.963 63.327 104.004 63.327 100.801C63.327 95.3396 67.6361 90.9614 73.0744 90.9614C74.9409 90.9844 76.5309 91.5144 78.0517 92.344ZM73.8809 93.7036C73.6274 93.5883 73.3509 93.4731 72.9822 93.4731C69.5257 93.4731 67.3366 97.644 67.3366 100.686C67.3366 102.368 68.0048 103.267 69.3413 103.267C70.2861 103.267 71.0005 102.898 71.5305 102.322C72.0605 101.7 72.4061 100.778 72.6365 99.6948L73.8809 93.7036ZM89.8269 94.3718C90.6334 90.6157 94.4356 91.2609 94.4356 91.2609L91.7626 103.82C91.2326 106.354 90.5182 108.129 89.343 109.442C87.9143 111.032 85.7021 112 82.8678 112C79.5726 112 77.107 110.525 77.107 108.013C77.107 106.331 78.167 105.11 80.4713 104.557C79.8722 103.889 79.4804 103.036 79.4804 101.976C79.4804 101.239 79.6417 100.34 79.8491 99.4644C79.8491 99.4644 80.0104 98.7731 80.8861 94.6253C81.7848 90.4775 85.5408 91.2379 85.5408 91.2379L83.7895 99.5796C83.6282 100.294 82.8678 103.036 85.3335 103.036C88.1217 103.036 88.7669 99.5796 89.1356 97.7592C89.0895 97.7592 89.0204 98.1279 89.8269 94.3718ZM87.6147 104.557C86.8543 105.248 85.4948 105.594 83.9739 105.778C81.8309 106.032 80.3791 106.377 80.3791 107.875C80.3791 109.027 81.5313 109.673 82.8909 109.673C83.9969 109.673 85.0108 109.281 85.7482 108.567C86.5087 107.829 87.0617 106.769 87.3382 105.617L87.6147 104.557Z" fill="#509E34"/>
</svg>
