<svg width="124" height="130" viewBox="0 0 124 130" fill="none" xmlns="http://www.w3.org/2000/svg">
<path d="M26.9969 73.2288L26.296 73.3846L23.4666 76.2141C32.5001 74.2931 45.5572 73.0991 60.042 73.0991C74.5269 73.0991 87.558 74.2931 96.6175 76.2141L99.6547 73.1769C90.3356 71.23 77.2006 70.1138 63.4686 70.1138C49.6327 70.1138 36.316 71.256 26.9969 73.2288Z" fill="#00524C"/>
<path d="M26.322 73.3586L26.4778 72.6577C28.4506 63.3386 29.5928 50.022 29.5928 36.1861C29.5928 22.48 28.4766 9.31909 26.5557 0L23.4926 3.0631C25.4135 12.0966 26.6076 25.1538 26.6076 39.6386C26.6076 54.1234 25.4135 67.1545 23.4926 76.2141L26.322 73.3586Z" fill="#00524C"/>
<path d="M63.4686 3.21887C49.8923 3.21887 36.8352 2.12861 27.4901 0.233643C29.3851 9.57869 30.5013 22.6358 30.5013 36.2121C30.5013 49.7884 29.411 62.8455 27.4901 72.1905C36.8352 70.2955 49.8923 69.2053 63.4686 69.2053C77.0708 69.2053 90.1019 70.2955 99.447 72.1905C97.552 62.8455 96.4618 49.8143 96.4618 36.2121C96.4618 22.6358 97.552 9.57869 99.447 0.233643C90.1279 2.12861 77.0708 3.21887 63.4686 3.21887Z" fill="url(#paint0_radial_23_2937)"/>
<path d="M70.9965 27.0487C71.0224 26.5815 70.4254 25.9065 70.1917 25.6729L70.01 25.5172L70.2177 25.4133C70.3475 25.3614 70.3994 25.2835 70.3994 25.2057C70.4254 24.8941 69.6466 24.2711 69.1015 23.9596L68.8938 23.8299L69.1015 23.6741C69.1274 23.6481 69.1534 23.6481 69.1794 23.6222C69.0496 23.4664 68.9198 23.3107 68.79 23.0771C68.6862 23.1549 68.4785 23.2588 68.2189 23.2588C67.8295 23.2588 67.3363 23.0511 66.7652 22.6617L66.7393 22.6358C66.7133 22.6098 65.2856 21.0004 64.1694 20.1178C64.7405 21.1302 65.2596 22.6358 65.3116 22.8434C66.0384 24.0635 66.6095 23.8818 66.6095 23.8818L66.7912 23.8299L66.8171 24.0116C66.9729 25.3095 67.5959 25.3614 67.6219 25.3614H67.7517V25.5172C67.7776 26.7372 68.5564 27.0747 68.5823 27.1006L68.6602 27.1525L68.6862 27.2564C68.7381 28.3207 69.1015 29.1513 69.1015 29.1513L69.1274 29.2033V29.2552C69.1015 29.6186 69.5947 30.2935 69.9841 30.6829C70.1398 30.6569 70.2437 30.5791 70.3215 30.4493C70.5552 30.0858 70.4773 29.4109 70.4513 29.1773L70.4254 29.0735L70.5032 29.0215C71.2301 28.3985 70.8147 27.6717 70.7888 27.6458L70.7109 27.516L70.8407 27.4381C70.9445 27.3083 70.9965 27.2045 70.9965 27.0487Z" fill="white"/>
<path d="M75.1239 26.296L75.1499 26.2181C75.4874 24.8163 74.6307 24.1933 74.5788 24.1674L74.475 24.0895L74.5009 23.9597C74.5788 23.7001 74.5788 23.4665 74.449 23.2329C74.0856 22.506 72.9434 22.1686 72.9434 22.1686L72.7617 22.1166L72.8396 21.9349C72.9434 21.7273 72.9434 21.5456 72.8655 21.4158C72.6059 20.9485 71.4119 20.8447 70.9965 20.8447H70.7889L70.8667 20.637C70.8927 20.5591 70.8927 20.4813 70.9186 20.4034C70.8927 20.4034 70.8667 20.4293 70.8667 20.4293C70.4774 20.4293 70.062 20.2995 69.6467 20.014C69.4909 20.2217 69.0756 20.5851 68.1411 20.5851C67.9594 20.5851 67.7517 20.5851 67.544 20.5332H67.5181C67.4921 20.5332 65.4414 19.7285 64.1435 19.5727C64.0656 19.5468 63.9877 19.5468 63.9099 19.5468C63.9099 19.5468 63.8839 19.5468 63.8839 19.5727C63.9618 19.6246 64.0656 19.7025 64.1694 19.7544C64.2992 19.8583 64.455 19.9621 64.6107 20.0919C65.6491 20.9745 66.8432 22.2984 66.973 22.4541C67.4662 22.8175 67.9075 22.9992 68.2449 22.9992C68.5824 22.9992 68.7122 22.8175 68.7381 22.7916L68.7901 22.7137L68.8679 22.6098L68.9718 22.8175C69.1535 23.1031 69.3092 23.3367 69.465 23.4924C69.5169 23.5444 69.5688 23.5963 69.5948 23.6222C69.8803 23.9078 70.1139 23.9597 70.2697 23.9597C70.4254 23.9597 70.5033 23.9078 70.5033 23.9078L70.6331 23.8039L70.711 23.9597C71.308 25.2057 72.0089 25.3355 72.2945 25.3355C72.3464 25.3355 72.3723 25.3355 72.3723 25.3355L72.4762 25.3095L72.5281 25.4134C73.177 26.7113 74.0077 27.49 74.0077 27.49L74.0337 27.516V27.542C74.2413 28.113 75.1758 28.5543 75.6171 28.7101C76.1882 27.9313 75.1499 26.3998 75.1499 26.3738L75.1239 26.296Z" fill="white"/>
<path d="M77.6679 21.0263C77.5381 20.4033 76.6814 19.9101 76.6814 19.9101L76.6036 19.8582V19.7544C76.6555 18.5343 75.695 18.4045 75.6691 18.4045L75.5133 18.3786L75.5393 18.2228C75.5652 18.0411 75.5133 17.8854 75.4354 17.7815C75.2537 17.5739 74.8643 17.4441 74.2933 17.4441C73.9298 17.4441 73.6443 17.496 73.6443 17.496L73.4107 17.5479L73.4626 17.3143C73.5145 17.1585 73.4886 17.0547 73.4626 16.9768C73.4107 16.8989 73.2549 16.847 73.0473 16.847C72.3983 16.847 71.4119 17.2624 71.4119 17.2624L71.1782 17.3662L71.2042 17.1066C71.2302 16.9509 71.2042 16.847 71.1263 16.7691C71.0485 16.6653 70.8408 16.6134 70.6072 16.6134C70.0361 16.6134 69.2833 16.8989 69.2573 16.8989L69.2054 16.9249C68.9718 17.0547 68.6603 17.1585 68.219 17.1585C68.1671 17.4441 67.9594 18.0411 66.8951 18.5603H66.8691C66.8691 18.5603 66.2981 18.6901 65.6231 18.8718C65.2338 18.9756 64.7925 19.1314 64.4031 19.2871H64.3771C64.5069 19.3131 64.6367 19.339 64.7925 19.365C66.0125 19.6246 67.4143 20.1697 67.596 20.2476C67.7777 20.2735 67.9594 20.2995 68.1411 20.2995C69.2314 20.2995 69.465 19.7803 69.465 19.7544L69.5429 19.5727L69.6986 19.6765C70.114 19.988 70.5033 20.1178 70.8408 20.1178H70.8668C70.9187 20.1178 70.9706 20.1178 71.0225 20.0918C71.0744 20.0659 71.1263 20.0659 71.1782 20.0399C71.36 19.988 71.4378 19.8582 71.4378 19.8582L71.5417 19.7284L71.6455 19.8323C72.0608 20.1957 72.4762 20.3774 72.9434 20.3774C73.3588 20.3774 73.6183 20.2216 73.6183 20.2216L73.7222 20.1697L73.8001 20.2476C74.7086 21.0004 75.695 21.26 75.695 21.2859H75.7469L75.7729 21.3119C75.9286 21.4936 76.344 21.5974 76.941 21.5974C77.2266 21.5974 77.5121 21.5715 77.616 21.5455C77.6938 21.3638 77.7198 21.2081 77.6679 21.0263Z" fill="white"/>
<path d="M66.7913 18.1969C67.8815 17.6518 67.9334 17.0807 67.9334 17.0028V16.9769L67.9075 16.8211V16.7692H68.0113H68.0892C68.2968 16.7692 68.4526 16.7692 68.6083 16.7432C68.6603 16.7432 68.6862 16.7173 68.7381 16.7173C68.8679 16.6654 68.9977 16.6394 69.0756 16.5615C69.1275 16.5356 69.1794 16.4837 69.2054 16.4577C69.3871 16.276 69.4131 16.1202 69.4131 16.1202L69.439 15.9645L69.5948 15.9904C69.6986 16.0164 69.8024 16.0164 69.9063 16.0164C70.7889 16.0164 71.1782 15.3674 71.1782 15.3415L71.2301 15.2636L71.334 15.2896C71.4897 15.3155 71.6714 15.3155 71.8272 15.3155C72.554 15.3155 73.0992 15.1338 73.0992 15.1338H73.1511H73.177C73.203 15.1338 73.2549 15.1598 73.2809 15.1598C73.6702 15.1598 74.3192 14.6925 74.6047 14.4589C74.6047 14.3031 74.5528 14.1733 74.475 14.0955C74.1894 13.784 73.5664 13.758 73.4107 13.758H73.3328H73.229L73.177 13.6801C72.9694 13.2908 72.7098 13.0831 72.3464 13.0831C72.1387 13.0831 71.9829 13.161 71.9829 13.161L71.8272 13.2388L71.7753 13.0831C71.6974 12.9014 71.5676 12.7975 71.3859 12.7975C70.9446 12.7975 70.3476 13.2908 70.1399 13.4725L69.9582 13.6282L69.9063 13.3686C69.8544 13.135 69.7505 13.135 69.7246 13.135C69.3871 13.135 68.7641 13.8618 68.4266 14.3291L68.2709 14.5368L68.167 14.3031C68.0892 14.1214 67.9853 14.0955 67.9075 14.0955C67.9075 14.0955 67.8815 14.0955 67.8555 14.0955C67.6998 14.3031 67.4662 14.4848 67.1287 14.6146C67.1287 14.8742 67.0249 15.3934 66.2721 15.7828C66.324 16.0424 66.324 16.5875 65.701 17.3662L65.675 17.3922C65.675 17.3922 64.8444 18.0671 64.1954 18.7161C64.0656 18.8459 63.9618 18.9757 63.858 19.1055C63.858 19.1055 63.8579 19.1314 63.832 19.1314C63.832 19.1314 63.832 19.1574 63.806 19.1574C64.0397 19.0535 64.3252 18.9237 64.6107 18.8199C65.5712 18.4825 66.6355 18.2488 66.7913 18.1969Z" fill="white"/>
<path d="M64.3772 18.0931C64.8963 17.5998 65.4155 17.1845 65.4934 17.1066C66.1942 16.1981 65.9606 15.7568 65.9606 15.7308L65.8827 15.601V15.5751L65.9087 15.5491L66.0385 15.4972C66.2981 15.3674 66.4538 15.2376 66.5836 15.1078C66.7913 14.8742 66.8432 14.6925 66.8432 14.5627C66.8432 14.5108 66.8432 14.4589 66.8432 14.4589L66.8172 14.355L66.7913 14.3031L66.8951 14.2772L66.947 14.2512C67.3364 14.1214 67.57 13.9137 67.6998 13.7061C67.9075 13.4205 67.9075 13.1609 67.9075 13.1609V13.0571L68.0113 13.0312C68.7901 12.7456 69.3352 12.2264 69.3352 12.2005L69.3612 12.1745H69.4131C69.6986 12.1226 70.0621 11.5256 70.2438 11.1102C70.1659 10.9545 70.0101 10.8506 69.8025 10.8506C69.4391 10.8506 69.0497 11.0843 69.0497 11.0843L68.9718 11.1362L68.8939 11.0843C68.7122 10.9545 68.5305 10.8766 68.3748 10.8766C68.0373 10.8766 67.8296 11.1622 67.8296 11.1622L67.7258 11.2919L67.596 11.1881C67.5181 11.1102 67.4662 11.0843 67.3883 11.0843C67.0249 11.0843 66.6096 11.863 66.5057 12.1226L66.4279 12.3562L66.2721 12.1486C66.2202 12.0707 66.1683 12.0447 66.1683 12.0447C65.9347 12.0447 65.6232 12.7975 65.4934 13.4725L65.4415 13.732L65.2597 13.5503C65.2078 13.4984 65.1559 13.4725 65.104 13.4725C64.8444 14.978 64.1954 17.3143 63.8061 18.5863C63.7801 18.6641 63.7801 18.7161 63.7542 18.768C63.858 18.6641 63.9618 18.5344 64.0657 18.4305C64.1435 18.3267 64.2474 18.2228 64.3772 18.0931Z" fill="white"/>
<path d="M60.1977 22.6617L60.1718 22.6877C59.6267 23.0771 59.1334 23.2847 58.7181 23.2847C58.4326 23.2847 58.2509 23.1809 58.147 23.103C58.0172 23.3107 57.8875 23.4924 57.7577 23.6482C57.7836 23.6741 57.8096 23.7001 57.8355 23.7001L58.0432 23.8558L57.8355 23.9856C57.3164 24.2971 56.5376 24.9201 56.5636 25.2316C56.5636 25.3095 56.6414 25.3614 56.7453 25.4393L56.9529 25.5431L56.7712 25.6989C56.5376 25.9325 55.9406 26.6074 55.9665 27.0747C55.9665 27.2045 56.0444 27.3343 56.1742 27.4121L56.304 27.49L56.2261 27.6198C56.2001 27.6458 55.7588 28.3726 56.5116 28.9956L56.5895 29.0475L56.5636 29.1514C56.5636 29.1514 56.3819 30.008 56.6934 30.4233C56.7712 30.5272 56.8751 30.605 57.0049 30.6569C57.3683 30.2676 57.8874 29.5927 57.8615 29.2292V29.1773V29.1254C57.8615 29.1254 58.2509 28.2688 58.3028 27.2304V27.1266L58.3807 27.1006C58.4066 27.0747 59.1854 26.7372 59.2113 25.5172V25.3614H59.3671C59.393 25.3614 60.016 25.3095 60.1718 24.0116L60.1977 23.8039L60.3535 23.8558C60.3535 23.8558 60.9246 24.0375 61.6514 22.8175C61.7293 22.6098 62.2485 21.1042 62.7936 20.0919C61.6774 21.0004 60.2237 22.6358 60.1977 22.6617Z" fill="white"/>
<path d="M62.8196 19.5467C61.5216 19.7025 59.4709 20.5072 59.445 20.5072H59.419C59.2113 20.5331 59.0037 20.5591 58.822 20.5591C57.8874 20.5591 57.4721 20.1957 57.3164 19.988C56.901 20.2736 56.5117 20.4033 56.1482 20.4033C56.1223 20.4033 56.0963 20.3774 56.0704 20.3774C56.0704 20.4553 56.0963 20.5331 56.0963 20.611L56.1742 20.8187H55.9665C55.5252 20.8187 54.3571 20.9225 54.0975 21.3898C54.0196 21.5196 54.0196 21.7013 54.1235 21.9089L54.2013 22.0906L54.0456 22.1426C54.0456 22.1426 52.8775 22.506 52.54 23.2069C52.4362 23.4405 52.4102 23.6741 52.4881 23.9337L52.514 24.0635L52.4102 24.1414C52.3583 24.1673 51.5017 24.7644 51.8391 26.1921L51.8651 26.27L51.8132 26.3478C51.8132 26.3738 50.7748 27.9053 51.3459 28.6841C51.7872 28.5283 52.7217 28.0871 52.9294 27.516L52.9553 27.49L52.9813 27.464C52.9813 27.464 53.812 26.6853 54.4869 25.3874L54.5388 25.2835L54.6426 25.3095C54.6426 25.3095 54.6686 25.3095 54.7205 25.3095C55.0061 25.3095 55.7069 25.1797 56.304 23.9337L56.3819 23.7779L56.5376 23.8818C56.5376 23.8818 56.6155 23.9337 56.7712 23.9337C56.901 23.9337 57.1346 23.8818 57.4202 23.5962C57.4721 23.5703 57.4981 23.5184 57.55 23.4664C57.7057 23.3107 57.8615 23.0771 58.0432 22.7915L58.173 22.5839L58.2509 22.7136L58.3028 22.8175C58.3028 22.8175 58.4326 23.0251 58.77 23.0251C59.1075 23.0251 59.5228 22.8434 60.042 22.48C60.1718 22.3243 61.3659 21.0004 62.4042 20.1178C62.56 19.988 62.6898 19.8842 62.8455 19.7803C62.9494 19.7025 63.0272 19.6506 63.1311 19.5986C63.1051 19.5986 63.1051 19.5986 63.1051 19.5986C62.9753 19.5208 62.8974 19.5208 62.8196 19.5467Z" fill="white"/>
<path d="M51.2422 21.26H51.2941C51.2941 21.26 52.2805 20.9744 53.189 20.2216L53.2669 20.1438L53.3448 20.1957C53.3448 20.1957 53.6303 20.3514 54.0197 20.3514C54.461 20.3514 54.9023 20.1697 55.2917 19.8063L55.3955 19.7025L55.4994 19.8323C55.4994 19.8323 55.6032 19.9361 55.7849 20.014C55.8368 20.0399 55.8887 20.0399 55.9407 20.0659C55.9926 20.0659 56.0445 20.0919 56.0964 20.0919H56.1224C56.4598 20.0919 56.8492 19.9361 57.2645 19.6506L57.4203 19.5467L57.4722 19.7284C57.4722 19.7284 57.7058 20.2736 58.7961 20.2736C58.9518 20.2736 59.1335 20.2736 59.3412 20.2216C59.5229 20.1697 60.9506 19.6246 62.1707 19.3391C62.3005 19.3131 62.4303 19.2871 62.5601 19.2612H62.5341C62.1447 19.1054 61.7034 18.9756 61.314 18.8458C60.6391 18.6641 60.094 18.5343 60.094 18.5343H60.0421C58.9778 18.0152 58.7701 17.4441 58.7182 17.1326C58.2769 17.1326 57.9654 17.0288 57.7577 16.899L57.7058 16.873C57.7058 16.873 56.953 16.5875 56.3819 16.5875C56.1224 16.5875 55.9406 16.6394 55.8628 16.7432C55.7849 16.8211 55.7849 16.9249 55.7849 17.1066L55.8109 17.3662L55.5772 17.2624C55.5772 17.2624 54.5908 16.847 53.9419 16.847C53.7342 16.847 53.5784 16.899 53.5265 16.9768C53.4746 17.0288 53.4746 17.1585 53.5006 17.3143L53.5525 17.5479L53.3188 17.496C53.3188 17.496 53.0073 17.4441 52.6439 17.4441C52.0988 17.4441 51.6835 17.5739 51.5017 17.7816C51.3979 17.8854 51.372 18.0411 51.3979 18.2228V18.3786L51.2422 18.4046C51.2162 18.4046 50.2557 18.5343 50.3077 19.7544V19.8582L50.2298 19.9101C50.2298 19.9101 49.3991 20.4034 49.2434 21.0264C49.1914 21.2081 49.2174 21.3638 49.3212 21.5455C49.451 21.5715 49.7106 21.5974 50.0221 21.5974C50.5932 21.5974 51.0085 21.4936 51.1643 21.3119L51.2422 21.26Z" fill="white"/>
<path d="M63.1051 19.0795C63.0013 18.9497 62.8715 18.8199 62.7677 18.6901C62.1187 18.0152 61.314 17.3662 61.288 17.3662L61.2621 17.3402C60.6391 16.5355 60.6391 15.9904 60.691 15.7568C59.9382 15.3414 59.8344 14.8482 59.8344 14.5886C59.4969 14.4588 59.2633 14.2512 59.1075 14.0695H59.0816C59.0037 14.0695 58.8998 14.0954 58.822 14.2771L58.7181 14.5108L58.5624 14.3031C58.2249 13.8358 57.576 13.109 57.2645 13.109C57.2385 13.109 57.1347 13.109 57.0828 13.3426L57.0049 13.6022L56.8232 13.4465C56.7972 13.4465 56.0704 12.7715 55.5512 12.7715C55.3695 12.7715 55.2397 12.8494 55.1618 13.0571L55.1099 13.2128L54.9542 13.135C54.9542 13.135 54.7984 13.0571 54.5907 13.0571C54.2533 13.0571 53.9677 13.2648 53.7601 13.6541L53.7082 13.758H53.6043H53.5264C53.3447 13.758 52.7217 13.7839 52.4362 14.0954C52.3583 14.1993 52.3064 14.3291 52.3064 14.4588C52.5919 14.6925 53.2149 15.1597 53.6303 15.1597C53.6562 15.1597 53.7082 15.1597 53.7341 15.1338H53.786H53.812C53.812 15.1338 54.3571 15.3155 55.1099 15.3155C55.2916 15.3155 55.4474 15.2895 55.6031 15.2895L55.707 15.2636L55.7589 15.3414C55.7848 15.3674 56.1483 16.0164 57.0049 16.0164C57.1087 16.0164 57.2126 16.0164 57.3164 15.9904L57.4462 15.9644L57.4721 16.1202C57.4721 16.1202 57.524 16.3019 57.6798 16.4577C57.7058 16.4836 57.7577 16.5096 57.8096 16.5615C57.8875 16.6134 58.0173 16.6653 58.1471 16.7172C58.199 16.7172 58.2249 16.7432 58.2769 16.7432C58.4326 16.7692 58.5884 16.7951 58.796 16.7691H58.8739H58.9777V16.8211L58.9518 16.9768V17.0028C58.9518 17.0807 59.0037 17.6777 60.0939 18.1969C60.2497 18.2228 61.314 18.4565 62.2485 18.8199C62.534 18.9237 62.8196 19.0275 63.0532 19.1573V19.1314C63.1051 19.1054 63.1051 19.1054 63.1051 19.0795Z" fill="white"/>
<path d="M61.8851 13.4725C61.8331 13.4725 61.7812 13.4984 61.7033 13.5503L61.5216 13.732L61.4697 13.4725C61.314 12.7975 61.0284 12.0447 60.8467 12.0447C60.7948 12.0447 60.7429 12.0707 60.691 12.1486L60.5352 12.3562L60.4314 12.1226C60.3276 11.8371 59.9122 11.0843 59.5488 11.0843C59.4709 11.0843 59.393 11.1102 59.3411 11.1881L59.2113 11.2919L59.1075 11.1622C59.1075 11.1622 58.8998 10.8766 58.5624 10.8766C58.4066 10.8766 58.2249 10.9545 58.0432 11.0843L57.9653 11.1362L57.8875 11.0843C57.8875 11.0843 57.4981 10.8506 57.1347 10.8506C56.901 10.8506 56.7712 10.9285 56.6934 11.1102C56.901 11.5256 57.2644 12.1226 57.524 12.1745H57.55L57.576 12.2005C57.576 12.2005 58.1211 12.7456 58.8998 13.0312L58.9777 13.0571L59.0037 13.1609C59.0037 13.1869 59.0296 13.4465 59.2113 13.7061C59.3411 13.9137 59.6007 14.1214 59.9641 14.2772L60.016 14.3031L60.1199 14.3291L60.0939 14.381L60.068 14.4848C60.068 14.4848 60.068 14.5367 60.068 14.5887C60.068 14.6925 60.1199 14.9002 60.3275 15.1338C60.4573 15.2636 60.6131 15.3934 60.8727 15.5232L61.0025 15.5751L61.0284 15.601V15.627L60.9246 15.7828C60.9246 15.7828 60.691 16.2241 61.3919 17.1326C61.4957 17.2105 61.9889 17.6258 62.5081 18.119C62.6379 18.2229 62.7417 18.3526 62.8715 18.4824C62.9753 18.5863 63.0791 18.7161 63.183 18.8199C63.157 18.768 63.157 18.6901 63.1311 18.6382C62.8196 17.3143 62.1706 14.978 61.8851 13.4725Z" fill="white"/>
<path d="M64.7664 13.4984C64.7924 13.4205 64.7924 13.3167 64.8183 13.2388C64.8962 12.7975 64.9222 12.5119 64.8962 12.3821H64.7664L64.7924 12.2004C64.8962 11.0842 64.8183 10.1238 64.6107 9.86418C64.5588 9.81226 64.5328 9.81226 64.5069 9.81226C64.4809 9.81226 64.429 9.83822 64.403 9.83822L64.2213 9.94205L64.1694 9.73439C63.9877 8.8518 63.6762 8.33263 63.4945 8.099C63.3128 8.35858 62.9753 8.8518 62.8196 9.73439L62.7936 9.94205L62.6119 9.83822C62.56 9.81226 62.534 9.81226 62.508 9.81226C62.508 9.81226 62.4302 9.81226 62.4042 9.86418C62.1706 10.1497 62.0927 11.0842 62.2225 12.2004L62.2485 12.3821H62.1446C62.1187 12.5119 62.1446 12.8234 62.2225 13.2388C62.2225 13.3167 62.2485 13.3945 62.2744 13.4984C62.3004 13.6282 62.3263 13.7579 62.3523 13.9137C62.5859 14.978 62.9493 16.4576 63.3906 17.9373C63.3906 17.9632 63.4166 18.0151 63.4166 18.0411C63.4685 18.1968 63.4945 18.3266 63.5464 18.4824C63.5464 18.5083 63.5464 18.5083 63.5464 18.5343C63.5464 18.5083 63.5723 18.4824 63.5723 18.4824C63.5983 18.3266 63.6502 18.1968 63.7021 18.0411C63.7021 18.0151 63.7281 17.9632 63.7281 17.9373C64.1434 16.4576 64.5328 14.978 64.7664 13.9137C64.7145 13.7579 64.7405 13.6022 64.7664 13.4984Z" fill="white"/>
<path d="M68.2449 43.4285H64.2473L65.0001 39.6905L64.3252 39.0156L65.1818 35.615L64.5069 35.2776L65.3895 31.5655L64.5848 30.9685L65.2857 27.8015L64.4809 27.3603L64.9742 24.5567L64.2992 24.1154L64.4031 21.0783C64.4031 21.0783 64.1175 20.1178 63.4426 19.5468C62.7936 20.0659 62.5081 20.9225 62.4821 21.0523V21.0783L62.586 24.1154L61.9111 24.5567L62.4302 27.3603L61.6255 27.8015L62.3264 30.9685L61.5217 31.5655L62.4043 35.2776L61.7293 35.615L62.586 39.0156L61.9111 39.6905L62.7677 43.4545H58.6922C58.6922 43.4545 58.173 43.6881 58.3547 44.0775C58.5365 44.4669 60.6131 46.5695 60.7948 46.4657C60.9506 46.3619 60.9506 45.5831 61.0804 45.4273C61.1583 45.3235 61.7553 46.258 62.1706 46.4657C62.1706 46.4657 62.8456 45.9725 63.4686 45.5831C64.0916 45.9725 64.5069 46.4657 64.5069 46.4657C64.9222 46.2321 65.7789 45.2976 65.8827 45.4014C65.9865 45.5571 65.9865 46.3359 66.1682 46.4397C66.3499 46.5436 68.4266 44.4409 68.6083 44.0515C68.7641 43.6362 68.2449 43.4285 68.2449 43.4285Z" fill="white"/>
<path d="M52.1246 45.3754C49.2692 43.766 42.9613 41.9489 37.9513 43.8179C37.9513 43.8179 44.6226 43.2468 53.4745 49.1394C60.0939 53.5264 66.4797 59.7564 67.6997 60.9764L69.4908 59.2113C62.3782 51.5795 54.98 46.9848 52.1246 45.3754Z" fill="white"/>
<path d="M78.1351 60.1977C78.1351 60.1977 77.2006 59.1074 76.1363 60.1717C75.2018 61.1062 74.5528 61.3918 73.6443 61.3918C72.4242 61.4178 70.9187 60.7169 70.5552 59.9381C70.5552 59.9381 70.4514 59.6526 70.6331 59.367C70.8927 59.4189 71.1782 59.367 71.4119 59.1594C71.7753 58.8479 71.8272 58.3287 71.5676 58.0172C71.2821 57.6797 70.7629 57.6797 70.3995 58.0172C70.1139 58.2768 70.0101 58.6662 70.1399 58.9777C70.1139 59.0815 70.0361 59.1594 69.9322 59.2632C69.9322 59.2113 69.9322 59.1334 69.8803 59.0815C69.8024 59.0036 69.6986 59.0036 69.6207 59.0815L69.4909 59.2113L67.6998 60.9765L67.4142 61.262C67.3364 61.3399 67.3364 61.4437 67.4142 61.5216C67.4402 61.5475 67.4662 61.5735 67.4921 61.5735C67.4662 61.5735 67.4402 61.5995 67.4142 61.5995C67.2066 61.5995 66.947 61.6773 66.7653 61.8331C66.4019 62.1446 66.35 62.6638 66.6355 63.0012C66.921 63.3127 67.4402 63.3127 67.8036 63.0012C68.0373 62.7935 68.1411 62.508 68.1151 62.2225C68.167 62.0408 68.219 61.859 68.3228 61.8071C68.5305 61.7033 68.6862 61.8071 68.9199 62.0667C69.5169 62.7935 71.8791 64.377 74.5009 64.3251C76.5776 64.2732 79.6147 62.3523 78.1351 60.1977Z" fill="white"/>
<path d="M74.8384 45.3754C77.6938 43.766 84.0017 41.9489 89.0117 43.8179C89.0117 43.8179 82.3404 43.2468 73.4885 49.1394C66.8691 53.5264 60.4834 59.7564 59.2633 60.9764L57.4722 59.2113C64.5848 51.5795 71.983 46.9848 74.8384 45.3754Z" fill="white"/>
<path d="M48.828 60.1977C48.828 60.1977 49.7625 59.1074 50.8268 60.1717C51.7613 61.1062 52.3843 61.3918 53.3188 61.3918C54.5129 61.4178 56.0185 60.7169 56.3819 59.9381C56.3819 59.9381 56.4857 59.6526 56.304 59.367C56.0445 59.4189 55.7589 59.367 55.5253 59.1594C55.1619 58.8479 55.1099 58.3287 55.3955 58.0172C55.681 57.6797 56.2002 57.6797 56.5636 58.0172C56.8492 58.2768 56.953 58.6662 56.8232 58.9777C56.8751 59.0815 56.927 59.1594 57.0309 59.2632C57.0309 59.2113 57.0309 59.1334 57.0828 59.0815C57.1607 59.0036 57.2645 59.0036 57.3424 59.0815L57.4722 59.2113L59.2633 60.9765L59.5748 61.262C59.6527 61.3399 59.6527 61.4437 59.5748 61.5216C59.5489 61.5475 59.5229 61.5735 59.4969 61.5735C59.5229 61.5735 59.5489 61.5995 59.5748 61.5995C59.8084 61.5995 60.0421 61.6773 60.2238 61.8331C60.5872 62.1446 60.6391 62.6638 60.3536 63.0012C60.068 63.3127 59.5489 63.3127 59.1854 63.0012C58.9518 62.7935 58.848 62.508 58.8739 62.2225C58.848 62.0408 58.7701 61.859 58.6663 61.8071C58.4586 61.7033 58.3028 61.8071 58.0952 62.0667C57.4981 62.7935 55.1359 64.377 52.5401 64.3251C50.3595 64.2732 47.3484 62.3523 48.828 60.1977Z" fill="white"/>
<path d="M60.016 112.115L62.1446 113.438L63.0791 111.855L60.9505 110.609L60.016 112.115Z" fill="#00524C"/>
<path d="M8.85188 97.1366L11.0064 98.4345L11.9409 96.903L9.68256 95.5531L8.95572 96.7472L6.85308 95.4233L5.91858 97.0328L8.20292 98.3566L8.85188 97.1366Z" fill="#00524C"/>
<path d="M12.5898 103.626C12.5898 103.003 12.3562 102.458 11.863 102.017C11.7073 101.887 11.3438 101.575 10.7468 101.16C10.2017 100.771 9.83825 100.433 9.63059 100.174L7.83945 102.51C6.4377 104.353 5.73682 105.703 5.73682 106.585C5.73682 107.182 6.02236 107.598 6.6194 107.857C7.08666 108.065 7.63179 108.143 8.25479 108.065C9.21525 107.961 10.0459 107.624 10.7208 107.079C11.0843 106.819 11.4477 106.43 11.8111 105.936C12.3303 104.872 12.5898 104.093 12.5898 103.626ZM10.617 105.599C9.86421 105.911 9.13738 106.066 8.46246 106.066C7.70966 106.066 7.34624 105.755 7.34624 105.132C7.34624 104.95 7.39816 104.742 7.50199 104.535C8.07308 103.704 8.56629 103.029 8.98162 102.51C10.3574 103.367 11.0843 104.119 11.1102 104.794C11.1362 105.106 10.9804 105.391 10.617 105.599Z" fill="#00524C"/>
<path d="M18.6123 101.498C18.3527 102.64 18.1969 103.419 18.0931 103.86C19.8323 105.106 20.6889 106.092 20.6889 106.819C20.6889 107.831 19.9881 109 18.5604 110.375C17.1326 111.751 15.9385 112.426 14.9262 112.426C14.4589 112.426 13.8619 112.27 13.1091 111.959C12.3563 111.647 11.9409 111.492 11.889 111.492C11.7852 111.492 11.7333 111.544 11.7333 111.647C11.7333 111.985 12.4342 112.426 13.8359 112.971C15.1338 113.464 16.0683 113.698 16.6135 113.698C17.7297 113.698 18.794 112.971 19.7804 111.518C20.8966 109.934 21.4417 108.454 21.4417 107.079C21.4417 105.625 21.1562 104.431 20.5851 103.496C20.1698 102.873 19.5208 102.224 18.6123 101.498Z" fill="#00524C"/>
<path d="M53.7341 97.8894L55.9146 99.1873L56.8491 97.6558L54.5908 96.3059L53.8639 97.5L51.7613 96.1761L50.8268 97.7856L53.0592 99.0835L53.7341 97.8894Z" fill="#00524C"/>
<path d="M63.78 95.7089C63.2348 95.4233 62.6637 95.1118 62.0927 94.8003C61.9369 94.7225 61.859 94.6186 61.859 94.4888C61.859 94.411 61.885 94.3071 61.9629 94.1514C62.0407 93.9956 62.0667 93.8918 62.0667 93.8139C62.0667 93.736 62.0148 93.6582 61.885 93.6322C61.8071 93.5543 61.6514 93.6841 61.4697 94.0216L60.4573 95.7868C60.3794 95.9425 60.3275 96.0983 60.3275 96.254C60.3275 96.4876 60.4573 96.6693 60.6909 96.8251L60.8207 96.877C61.5735 101.394 61.9629 104.327 61.9629 105.625C61.9629 105.937 61.9369 106.092 61.885 106.092H57.5759H56.9789C56.7452 106.092 56.6154 106.014 56.5895 105.859C56.5895 105.833 56.6154 105.651 56.6674 105.288C56.9529 103.678 57.1087 102.458 57.1087 101.627C57.1087 101.498 57.1086 101.42 57.0827 101.394C56.3299 102.224 55.7588 102.925 55.3175 103.522L55.2656 106.092H50.1777H45.661L45.4533 105.962C45.1158 105.729 44.9601 105.417 44.9601 105.028C45.7129 104.665 46.7512 104.483 48.1011 104.483C48.3866 104.483 48.6202 104.483 48.8019 104.509C49.1913 103.626 49.4769 102.951 49.6326 102.484C49.5288 102.484 49.3211 102.484 48.9577 102.51H48.3087C47.3223 102.51 45.7648 102.198 43.6362 101.575C42.2085 101.16 41.1701 100.927 40.5212 100.927C39.379 100.927 38.4964 101.653 37.8734 103.107C37.7436 103.445 37.6658 103.73 37.6658 103.964C37.6917 103.99 37.6917 104.016 37.6917 104.042C38.6003 103.367 39.3271 103.029 39.8722 103.029L40.9365 103.263C42.4162 103.574 43.5324 103.808 44.2852 103.964C42.5459 105.391 40.9625 106.092 39.5348 106.092H35.1478H31.8511H31.3578H28.736H27.7496C27.2564 106.092 26.893 105.988 26.7113 105.781C26.6334 105.703 26.5555 105.625 26.5296 105.599C26.4257 105.365 26.2181 103.6 25.9066 100.304L25.2836 92.9573C24.7125 93.736 24.2712 94.3071 24.0116 94.6705C24.401 98.9018 24.7384 103.367 24.998 108.065H28.0611H31.3578H31.8511H34.7065H39.4828C40.3914 108.065 41.1442 107.78 41.7412 107.183C41.9749 106.949 42.3902 106.663 42.9353 106.3C43.5064 105.937 43.8958 105.651 44.1294 105.391C44.2332 106.222 44.3111 106.741 44.389 106.975C44.5707 107.676 44.8822 108.039 45.3495 108.039H50.619H54.1234C54.2273 108.039 54.409 107.831 54.6426 107.442C54.8762 107.053 55.032 106.845 55.0839 106.845C55.1358 106.871 55.2137 107.001 55.3435 107.26C55.4733 107.52 55.5771 107.676 55.6809 107.754C55.9405 107.935 56.2001 108.013 56.4597 108.013H57.0567H62.1706C62.3523 108.013 62.5599 107.494 62.7416 106.482C62.9233 105.521 63.0012 104.794 63.0012 104.301L62.3522 97.7596C62.4301 97.7856 62.508 97.8115 62.6378 97.8375L63.78 95.7089Z" fill="#00524C"/>
<path d="M68.0371 92.9832C66.9988 94.6965 66.5056 95.8127 66.5835 96.3578C67.1026 101.238 67.518 105.391 67.8035 108.844C68.4265 107.312 68.7121 106.196 68.7121 105.495L68.4525 99.2911C68.2448 95.2156 68.115 93.113 68.0371 92.9832Z" fill="#00524C"/>
<path d="M80.3415 97.1366L82.4961 98.4345L83.4306 96.903L81.1981 95.5531L80.4453 96.7472L78.3687 95.4233L77.4082 97.0328L79.6926 98.3566L80.3415 97.1366Z" fill="#00524C"/>
<path d="M84.0795 103.626C84.0795 103.003 83.8458 102.458 83.3526 102.017C83.1969 101.887 82.8335 101.575 82.2364 101.16C81.6913 100.771 81.3279 100.433 81.1202 100.174L79.3291 102.51C77.9273 104.353 77.2264 105.703 77.2264 106.585C77.2264 107.182 77.512 107.598 78.109 107.857C78.5763 108.065 79.1214 108.143 79.7444 108.065C80.7049 107.961 81.5355 107.624 82.2105 107.079C82.5739 106.819 82.9373 106.43 83.3007 105.936C83.8199 104.872 84.0795 104.093 84.0795 103.626ZM82.1326 105.599C81.3798 105.911 80.653 106.066 79.978 106.066C79.2252 106.066 78.8618 105.755 78.8618 105.132C78.8618 104.95 78.9137 104.742 79.0176 104.535C79.5887 103.704 80.0819 103.029 80.4972 102.51C81.873 103.367 82.5998 104.119 82.6258 104.794C82.6258 105.106 82.47 105.391 82.1326 105.599Z" fill="#00524C"/>
<path d="M90.1019 101.498C89.8423 102.64 89.6866 103.419 89.5827 103.86C91.3219 105.106 92.1786 106.092 92.1786 106.819C92.1786 107.831 91.4777 109 90.05 110.375C88.6223 111.751 87.4282 112.426 86.4158 112.426C85.9485 112.426 85.3515 112.27 84.5987 111.959C83.8459 111.647 83.4306 111.492 83.3786 111.492C83.2748 111.492 83.2229 111.544 83.2229 111.647C83.2229 111.985 83.9238 112.426 85.3255 112.971C86.6235 113.464 87.558 113.698 88.1031 113.698C89.2193 113.698 90.2836 112.971 91.296 111.518C92.4122 109.934 92.9573 108.454 92.9573 107.079C92.9573 105.625 92.6718 104.431 92.1007 103.496C91.6594 102.873 91.0104 102.224 90.1019 101.498Z" fill="#00524C"/>
<path d="M97.2924 92.9832C96.2541 94.6965 95.7608 95.8127 95.8387 96.3578C96.3579 101.238 96.7732 105.391 97.0588 108.844C97.6818 107.312 97.9673 106.196 97.9673 105.495L97.7077 99.2911C97.526 95.2156 97.3703 93.113 97.2924 92.9832Z" fill="#00524C"/>
<path d="M107.183 103.496C106.793 102.873 106.144 102.198 105.236 101.498C104.976 102.64 104.82 103.419 104.716 103.86C106.456 105.106 107.312 106.092 107.312 106.819C107.312 107.831 106.611 109 105.184 110.375C103.756 111.751 102.562 112.426 101.55 112.426C101.082 112.426 100.485 112.27 99.7324 111.959C98.9796 111.647 98.5643 111.492 98.5124 111.492C98.4086 111.492 98.3566 111.544 98.3566 111.647C98.3566 111.985 99.0575 112.426 100.459 112.971C101.757 113.464 102.692 113.698 103.237 113.698C104.353 113.698 105.417 112.971 106.43 111.518C107.546 109.934 108.091 108.454 108.091 107.079C108.039 105.651 107.754 104.457 107.183 103.496Z" fill="#00524C"/>
<path d="M105.599 97.3702L103.419 96.0723L102.458 97.6298L104.665 98.9537L105.599 97.3702Z" fill="#00524C"/>
<path d="M116.528 102.147C116.008 101.134 115.567 100.641 115.178 100.641C114.607 100.641 113.958 101.238 113.205 102.432C112.504 103.574 112.167 104.457 112.193 105.08C112.193 105.677 112.322 106.196 112.53 106.637C112.816 107.208 113.205 107.52 113.75 107.546C114.373 107.598 114.814 107.546 115.1 107.39C115.541 107.131 115.982 106.56 116.398 105.625C116.502 105.937 116.554 106.326 116.554 106.819C116.58 107.831 115.957 108.948 114.711 110.168C113.568 111.284 112.348 112.063 111.128 112.53C110.869 112.608 110.609 112.66 110.272 112.66C109.986 112.66 109.545 112.582 108.974 112.452C108.403 112.296 107.961 112.244 107.702 112.244C107.52 112.244 107.416 112.322 107.416 112.452C107.416 112.712 108.143 112.971 109.623 113.309C110.791 113.568 111.699 113.698 112.348 113.75C113.101 113.802 113.854 113.439 114.659 112.66C115.308 112.037 115.827 111.31 116.216 110.479C116.969 108.896 117.358 107.183 117.358 105.365C117.358 104.249 117.099 103.185 116.528 102.147ZM114.736 105.469C114.373 105.469 114.01 105.391 113.646 105.262C113.179 105.08 112.945 104.846 112.919 104.535C112.919 104.249 113.101 103.912 113.49 103.522C113.88 103.133 114.191 102.951 114.477 102.951C114.866 102.977 115.204 103.237 115.515 103.756C115.775 104.223 115.905 104.69 115.905 105.106C115.749 105.365 115.334 105.469 114.736 105.469Z" fill="#00524C"/>
<path d="M1.76518 118.007L4.38698 124.938L7.06071 118.007H8.82588V127.197H7.29433V120.863L4.85424 127.197H3.84186L1.53155 120.863V127.197H0V118.007H1.76518Z" fill="#00524C"/>
<path d="M11.5516 119.305H10.02V118.007H11.5256L11.5516 119.305ZM11.5516 127.197H10.02V120.551H11.5256L11.5516 127.197Z" fill="#00524C"/>
<path d="M12.6158 120.551H14.1474V121.096C14.4329 120.889 14.7444 120.707 15.0819 120.603C15.4194 120.499 15.7568 120.447 16.1202 120.447C16.4577 120.447 16.7692 120.499 17.0547 120.577C17.3403 120.681 17.548 120.811 17.7556 120.992C17.9373 121.174 18.0931 121.382 18.1969 121.641C18.3007 121.901 18.3527 122.161 18.3527 122.472V127.196H16.8471V122.602C16.8471 122.212 16.7692 121.927 16.6134 121.745C16.4577 121.589 16.25 121.486 15.9645 121.486C15.7049 121.486 15.4713 121.538 15.2636 121.641C15.0559 121.745 14.8483 121.875 14.6925 122.031C14.5368 122.186 14.407 122.368 14.3031 122.576C14.1993 122.784 14.1734 122.991 14.1734 123.225V127.196H12.6158V120.551Z" fill="#00524C"/>
<path d="M21.0265 119.305H19.5209V118.007H21.0265V119.305ZM21.0265 127.197H19.5209V120.551H21.0265V127.197Z" fill="#00524C"/>
<path d="M23.6482 124.99C23.6482 125.224 23.7001 125.431 23.752 125.587C23.8299 125.743 23.9078 125.873 24.0116 125.976C24.1155 126.08 24.2452 126.158 24.375 126.21C24.5308 126.262 24.6865 126.288 24.8423 126.288C24.9721 126.288 25.1278 126.262 25.2836 126.236C25.4393 126.21 25.5691 126.158 25.6989 126.106C25.8287 126.054 25.9326 125.95 26.0104 125.821C26.0883 125.717 26.1402 125.561 26.1402 125.379C26.1402 125.224 26.0883 125.094 26.0104 124.964C25.9326 124.86 25.8287 124.756 25.6989 124.678C25.5691 124.601 25.4134 124.523 25.2317 124.445C25.05 124.367 24.8683 124.315 24.6865 124.237C24.401 124.133 24.1155 124.03 23.8299 123.926C23.5444 123.822 23.2848 123.692 23.0771 123.536C22.8435 123.381 22.6618 123.199 22.532 122.991C22.3762 122.784 22.3243 122.524 22.3243 122.212C22.3243 121.901 22.4022 121.641 22.532 121.434C22.6618 121.226 22.8435 121.018 23.0771 120.889C23.3107 120.733 23.5703 120.629 23.8818 120.551C24.1933 120.473 24.5048 120.447 24.8423 120.447C25.2057 120.447 25.5432 120.473 25.8806 120.551C26.1921 120.629 26.4777 120.759 26.7113 120.915C26.9449 121.07 27.1266 121.278 27.2824 121.538C27.4122 121.797 27.4901 122.083 27.516 122.42H27.4122C27.3603 122.42 27.3083 122.42 27.2305 122.42C27.1786 122.42 27.1007 122.42 27.0488 122.42H26.9449H26.0104C25.9845 122.238 25.9326 122.109 25.8806 121.979C25.8028 121.875 25.7249 121.771 25.6211 121.693C25.5172 121.615 25.4134 121.563 25.2836 121.538C25.1538 121.512 25.024 121.486 24.8683 121.486C24.5568 121.486 24.2972 121.563 24.1414 121.693C23.9597 121.823 23.8818 122.005 23.8818 122.212C23.8818 122.368 23.9337 122.472 24.0116 122.602C24.0895 122.706 24.1933 122.809 24.3231 122.887C24.4529 122.965 24.6087 123.043 24.7904 123.121C24.9721 123.199 25.1538 123.251 25.3355 123.329C25.621 123.432 25.9066 123.536 26.1921 123.64C26.4777 123.744 26.7373 123.874 26.9449 124.03C27.1786 124.185 27.3603 124.341 27.4901 124.549C27.6198 124.756 27.6977 124.99 27.6977 125.25C27.6977 125.613 27.6199 125.924 27.4641 126.184C27.3084 126.444 27.1007 126.651 26.8411 126.833C26.5815 126.989 26.27 127.119 25.9325 127.196C25.5951 127.274 25.2317 127.3 24.8423 127.3C24.4789 127.3 24.1155 127.248 23.804 127.145C23.4665 127.041 23.181 126.911 22.9473 126.703C22.6877 126.522 22.506 126.262 22.3503 125.976C22.1945 125.691 22.1167 125.353 22.0907 124.964L23.6482 124.99Z" fill="#00524C"/>
<path d="M30.7348 118.656V120.551H31.7213V121.589H30.7348V125.639C30.7348 125.873 30.7868 126.054 30.8646 126.132C30.9425 126.21 31.0463 126.262 31.1761 126.262C31.2281 126.262 31.3059 126.262 31.4098 126.236C31.5136 126.21 31.6953 126.184 31.903 126.158V127.145C31.7213 127.196 31.5396 127.222 31.3319 127.248C31.1502 127.274 30.9685 127.3 30.8127 127.3C30.6051 127.3 30.3974 127.274 30.2157 127.222C30.034 127.171 29.8523 127.093 29.7225 126.989C29.5667 126.885 29.4629 126.729 29.385 126.573C29.3071 126.392 29.2552 126.184 29.2552 125.95V121.563H28.1909V120.525H29.1773V118.63L30.7348 118.656Z" fill="#00524C"/>
<path d="M32.7336 120.551H34.0835L34.1614 121.148C34.3431 120.915 34.5507 120.733 34.8103 120.629C35.0699 120.499 35.3035 120.447 35.5891 120.447C35.6669 120.447 35.7708 120.473 35.9006 120.499C36.0304 120.525 36.1602 120.551 36.29 120.603V121.849C35.8746 121.693 35.615 121.615 35.5372 121.615C35.3295 121.615 35.1478 121.667 34.992 121.745C34.8363 121.823 34.6805 121.953 34.5767 122.109C34.4729 122.264 34.369 122.42 34.3171 122.628C34.2652 122.835 34.2392 123.017 34.2392 123.251V127.222H32.7336V120.551Z" fill="#00524C"/>
<path d="M39.6386 125.094L41.1961 120.551H42.7536L39.9501 128.546C39.8462 128.806 39.7424 129.04 39.6126 129.221C39.4828 129.403 39.3271 129.559 39.1713 129.663C39.0156 129.766 38.8598 129.87 38.6781 129.922C38.5224 129.974 38.3406 130 38.1849 130C38.0551 130 37.8994 130 37.7436 129.974C37.5879 129.948 37.4061 129.896 37.1985 129.818V128.702C37.2764 128.728 37.3542 128.754 37.4321 128.78C37.51 128.806 37.5879 128.832 37.6917 128.884C37.7696 128.91 37.8474 128.936 37.8994 128.962C37.9772 128.988 38.0032 128.988 38.0551 128.988C38.107 128.988 38.1589 128.962 38.2109 128.884C38.2628 128.832 38.3147 128.754 38.3666 128.65C38.4185 128.546 38.4445 128.468 38.4964 128.365C38.5483 128.261 38.5743 128.183 38.6002 128.079L38.8858 127.196L36.4457 120.577H38.0551L39.6386 125.094Z" fill="#00524C"/>
<path d="M46.0243 123.874C46.0243 123.407 46.1022 122.965 46.232 122.55C46.3617 122.135 46.5694 121.771 46.855 121.46C47.1145 121.148 47.452 120.889 47.8414 120.733C48.2308 120.551 48.698 120.473 49.2172 120.473C49.7363 120.473 50.1776 120.551 50.593 120.733C50.9824 120.915 51.3198 121.148 51.6054 121.46C51.8909 121.771 52.0986 122.135 52.2284 122.55C52.3582 122.965 52.436 123.407 52.436 123.874C52.436 124.341 52.3582 124.782 52.2284 125.198C52.0986 125.613 51.8909 125.976 51.6054 126.288C51.3198 126.599 50.9824 126.833 50.593 127.015C50.2036 127.197 49.7363 127.274 49.2172 127.274C48.698 127.274 48.2567 127.197 47.8414 127.015C47.452 126.833 47.1145 126.599 46.855 126.288C46.5954 125.976 46.3877 125.613 46.232 125.198C46.1022 124.808 46.0243 124.367 46.0243 123.874ZM47.5299 123.874C47.5299 124.211 47.5558 124.523 47.6337 124.808C47.7116 125.094 47.8154 125.353 47.9712 125.561C48.1269 125.769 48.2827 125.951 48.4903 126.08C48.698 126.21 48.9316 126.262 49.1912 126.262C49.4508 126.262 49.6844 126.21 49.8921 126.08C50.0998 125.951 50.2815 125.795 50.4372 125.561C50.593 125.353 50.6968 125.094 50.7747 124.808C50.8526 124.523 50.9045 124.211 50.9045 123.874C50.9045 123.562 50.8526 123.251 50.7747 122.939C50.6968 122.654 50.593 122.394 50.4372 122.187C50.2815 121.979 50.0998 121.797 49.8921 121.667C49.6844 121.538 49.4508 121.486 49.1912 121.486C48.9316 121.486 48.698 121.538 48.4903 121.667C48.2827 121.797 48.101 121.953 47.9712 122.187C47.8154 122.394 47.7116 122.654 47.6337 122.939C47.5818 123.251 47.5299 123.562 47.5299 123.874Z" fill="#00524C"/>
<path d="M54.2013 120.551V119.097C54.2013 118.89 54.2273 118.734 54.3052 118.552C54.3831 118.397 54.4869 118.241 54.6426 118.111C54.7984 117.981 54.9541 117.903 55.1618 117.825C55.3695 117.748 55.6031 117.722 55.8627 117.722C56.0184 117.722 56.1742 117.748 56.3818 117.799C56.5895 117.851 56.7712 117.955 56.9529 118.059V119.071C56.7453 118.994 56.5636 118.916 56.4078 118.864C56.278 118.812 56.2001 118.786 56.1742 118.786C56.0444 118.786 55.9406 118.812 55.8627 118.89C55.7848 118.968 55.7329 119.097 55.7329 119.253V120.551H56.8491V121.615H55.7329V127.196H54.2013V121.615H53.1111V120.551H54.2013Z" fill="#00524C"/>
<path d="M62.0666 122.472C62.0666 123.147 62.1445 123.718 62.3003 124.211C62.456 124.704 62.6637 125.12 62.9232 125.431C63.1828 125.743 63.4943 126.002 63.8058 126.158C64.1433 126.314 64.4808 126.392 64.8182 126.392C65.1557 126.392 65.4931 126.314 65.7787 126.184C66.0642 126.054 66.2979 125.847 66.5315 125.613C66.7392 125.379 66.9209 125.12 67.0507 124.808C67.1804 124.523 67.2843 124.211 67.3622 123.9H68.8937C68.7899 124.393 68.6341 124.86 68.4264 125.276C68.2188 125.717 67.9332 126.08 67.5958 126.392C67.2583 126.703 66.843 126.963 66.4017 127.145C65.9344 127.326 65.4153 127.43 64.8442 127.43C64.1952 127.43 63.5982 127.326 63.079 127.093C62.5598 126.859 62.0926 126.547 61.7292 126.106C61.3657 125.691 61.0542 125.146 60.8725 124.549C60.6649 123.926 60.561 123.225 60.561 122.446C60.561 122.057 60.613 121.641 60.6908 121.252C60.7687 120.863 60.8985 120.499 61.0802 120.136C61.236 119.798 61.4436 119.461 61.7032 119.175C61.9368 118.89 62.2224 118.63 62.5598 118.397C62.8713 118.189 63.2348 118.007 63.6241 117.903C64.0135 117.774 64.4288 117.722 64.8961 117.722C65.4672 117.722 65.9864 117.799 66.4536 117.955C66.8949 118.111 67.3102 118.319 67.6477 118.604C67.9852 118.864 68.2707 119.201 68.5043 119.565C68.7379 119.928 68.8937 120.343 69.0235 120.785H67.466C67.2324 120.11 66.8949 119.617 66.4796 119.279C66.0642 118.942 65.5451 118.786 64.8961 118.786C64.4808 118.786 64.1173 118.89 63.7799 119.071C63.4424 119.279 63.1569 119.539 62.8973 119.876C62.6637 120.214 62.456 120.603 62.3262 121.044C62.1185 121.512 62.0666 121.979 62.0666 122.472Z" fill="#00524C"/>
<path d="M69.8802 123.874C69.8802 123.407 69.9581 122.965 70.0879 122.55C70.2177 122.135 70.4254 121.771 70.7109 121.46C70.9705 121.148 71.308 120.889 71.6973 120.733C72.0867 120.551 72.554 120.473 73.0732 120.473C73.5923 120.473 74.0336 120.551 74.4489 120.733C74.8383 120.915 75.1758 121.148 75.4613 121.46C75.7469 121.771 75.9545 122.135 76.0843 122.55C76.2141 122.965 76.292 123.407 76.292 123.874C76.292 124.341 76.2141 124.782 76.0843 125.198C75.9545 125.613 75.7469 125.976 75.4613 126.288C75.1758 126.599 74.8383 126.833 74.4489 127.015C74.0596 127.197 73.5923 127.274 73.0732 127.274C72.554 127.274 72.1127 127.197 71.6973 127.015C71.308 126.833 70.9705 126.599 70.7109 126.288C70.4513 125.976 70.2437 125.613 70.0879 125.198C69.9581 124.808 69.8802 124.367 69.8802 123.874ZM71.4118 123.874C71.4118 124.211 71.4378 124.523 71.5156 124.808C71.5935 125.094 71.6974 125.353 71.8531 125.561C72.0089 125.769 72.1646 125.951 72.3723 126.08C72.5799 126.21 72.8136 126.262 73.0732 126.262C73.3327 126.262 73.5664 126.21 73.774 126.08C73.9817 125.951 74.1634 125.795 74.3192 125.561C74.4749 125.353 74.5787 125.094 74.6566 124.808C74.7345 124.523 74.7864 124.211 74.7864 123.874C74.7864 123.562 74.7345 123.251 74.6566 122.939C74.5787 122.654 74.4749 122.394 74.3192 122.187C74.1634 121.979 73.9817 121.797 73.774 121.667C73.5664 121.538 73.3327 121.486 73.0732 121.486C72.8136 121.486 72.5799 121.538 72.3723 121.667C72.1646 121.797 71.9829 121.953 71.8531 122.187C71.6974 122.394 71.5935 122.654 71.5156 122.939C71.4378 123.251 71.4118 123.562 71.4118 123.874Z" fill="#00524C"/>
<path d="M77.3303 120.551H78.8358V121.044C79.0954 120.837 79.381 120.681 79.6925 120.577C80.004 120.473 80.2895 120.447 80.5751 120.447C80.9125 120.447 81.1981 120.525 81.5096 120.655C81.7951 120.785 82.0547 121.018 82.2883 121.33C82.4181 121.174 82.5739 121.044 82.7296 120.94C82.8854 120.837 83.0671 120.733 83.2488 120.655C83.4305 120.577 83.6122 120.525 83.7939 120.499C83.9756 120.473 84.1573 120.447 84.339 120.447C84.6765 120.447 84.988 120.499 85.2736 120.603C85.5591 120.707 85.7927 120.863 86.0004 121.044C86.2081 121.226 86.3638 121.434 86.4676 121.693C86.5715 121.953 86.6494 122.212 86.6494 122.498V127.196H85.1438V122.758C85.1438 122.498 85.1178 122.316 85.0399 122.135C84.988 121.979 84.9101 121.849 84.8063 121.745C84.7025 121.641 84.5986 121.589 84.4948 121.538C84.391 121.512 84.2612 121.486 84.1573 121.486C84.0016 121.486 83.8199 121.538 83.6641 121.615C83.5084 121.693 83.3526 121.823 83.2228 121.953C83.093 122.109 82.9892 122.264 82.8854 122.472C82.8075 122.68 82.7556 122.887 82.7556 123.121V127.17H81.25V122.732C81.25 122.472 81.224 122.29 81.1721 122.109C81.1202 121.953 81.0423 121.823 80.9385 121.719C80.8606 121.615 80.7568 121.563 80.6529 121.512C80.5491 121.486 80.4453 121.46 80.3415 121.46C80.1338 121.46 79.9261 121.512 79.7444 121.615C79.5627 121.719 79.4069 121.875 79.2771 122.031C79.1474 122.186 79.0435 122.394 78.9656 122.576C78.8878 122.784 78.8618 122.965 78.8618 123.147V127.145H77.3562V120.551H77.3303Z" fill="#00524C"/>
<path d="M87.7916 120.551H89.2972V121.044C89.5568 120.837 89.8423 120.681 90.1538 120.577C90.4653 120.473 90.7508 120.447 91.0364 120.447C91.3738 120.447 91.6594 120.525 91.9709 120.655C92.2564 120.785 92.516 121.018 92.7496 121.33C92.8794 121.174 93.0352 121.044 93.1909 120.94C93.3467 120.837 93.5284 120.733 93.7101 120.655C93.8918 120.577 94.0735 120.525 94.2552 120.499C94.4369 120.473 94.6186 120.447 94.8004 120.447C95.1378 120.447 95.4493 120.499 95.7349 120.603C96.0204 120.707 96.254 120.863 96.4617 121.044C96.6694 121.226 96.8251 121.434 96.9289 121.693C97.0328 121.953 97.1107 122.212 97.1107 122.498V127.196H95.6051V122.758C95.6051 122.498 95.5791 122.316 95.5012 122.135C95.4493 121.979 95.3714 121.849 95.2676 121.745C95.1638 121.641 95.0599 121.589 94.9561 121.538C94.8523 121.512 94.7225 121.486 94.6187 121.486C94.4629 121.486 94.2812 121.538 94.1254 121.615C93.9697 121.693 93.8139 121.823 93.6841 121.953C93.5543 122.109 93.4505 122.264 93.3467 122.472C93.2688 122.68 93.2169 122.887 93.2169 123.121V127.17H91.7113V122.732C91.7113 122.472 91.6853 122.29 91.6334 122.109C91.5815 121.953 91.5036 121.823 91.3998 121.719C91.3219 121.615 91.2181 121.563 91.1143 121.512C91.0104 121.486 90.9066 121.46 90.8028 121.46C90.5951 121.46 90.3874 121.512 90.2057 121.615C90.024 121.719 89.8682 121.875 89.7384 122.031C89.6087 122.186 89.5048 122.394 89.427 122.576C89.3491 122.784 89.3231 122.965 89.3231 123.147V127.145H87.8175V120.551H87.7916Z" fill="#00524C"/>
<path d="M99.7844 124.159C99.8104 124.445 99.8623 124.704 99.9402 124.964C100.018 125.224 100.148 125.457 100.304 125.639C100.459 125.847 100.615 126.002 100.823 126.106C101.03 126.21 101.238 126.288 101.472 126.288C102.225 126.288 102.77 125.873 103.055 125.016H104.457C104.379 125.379 104.249 125.717 104.042 126.002C103.86 126.288 103.626 126.548 103.341 126.729C103.081 126.937 102.77 127.067 102.432 127.197C102.095 127.3 101.757 127.352 101.42 127.352C100.927 127.352 100.485 127.248 100.07 127.067C99.6806 126.885 99.3431 126.625 99.0576 126.288C98.772 125.951 98.5644 125.587 98.4086 125.172C98.2529 124.756 98.175 124.289 98.175 123.822C98.175 123.381 98.2529 122.939 98.4086 122.55C98.5644 122.135 98.772 121.797 99.0576 121.486C99.3431 121.174 99.6806 120.941 100.07 120.759C100.459 120.577 100.927 120.473 101.42 120.473C101.887 120.473 102.328 120.551 102.718 120.707C103.107 120.863 103.419 121.096 103.704 121.382C103.964 121.667 104.171 122.005 104.327 122.394C104.483 122.784 104.535 123.225 104.535 123.692V124.185L99.7844 124.159ZM103.029 123.225C103.003 122.965 102.977 122.758 102.899 122.55C102.822 122.342 102.718 122.161 102.562 122.005C102.432 121.849 102.25 121.719 102.069 121.641C101.861 121.564 101.653 121.512 101.42 121.512C101.212 121.512 101.004 121.564 100.823 121.641C100.641 121.745 100.485 121.849 100.33 122.005C100.2 122.161 100.07 122.342 99.9921 122.55C99.9142 122.758 99.8623 122.965 99.8363 123.199L103.029 123.225Z" fill="#00524C"/>
<path d="M105.521 120.551H106.871L106.949 121.148C107.131 120.915 107.338 120.733 107.598 120.629C107.857 120.499 108.091 120.447 108.377 120.447C108.454 120.447 108.558 120.473 108.688 120.499C108.818 120.525 108.948 120.551 109.077 120.603V121.849C108.662 121.693 108.403 121.615 108.325 121.615C108.117 121.615 107.935 121.667 107.78 121.745C107.624 121.823 107.468 121.953 107.364 122.109C107.26 122.264 107.157 122.42 107.105 122.628C107.053 122.835 107.027 123.017 107.027 123.251V127.222H105.521V120.551Z" fill="#00524C"/>
<path d="M114.243 122.758C114.113 122.29 113.958 121.979 113.724 121.797C113.516 121.615 113.231 121.512 112.893 121.512C112.634 121.512 112.426 121.564 112.218 121.693C112.011 121.823 111.855 121.979 111.725 122.187C111.595 122.394 111.492 122.628 111.414 122.913C111.336 123.199 111.31 123.484 111.31 123.77C111.31 124.081 111.336 124.393 111.414 124.704C111.492 125.016 111.595 125.276 111.725 125.509C111.855 125.743 112.037 125.925 112.218 126.08C112.4 126.236 112.634 126.288 112.867 126.288C113.049 126.288 113.205 126.236 113.361 126.158C113.516 126.08 113.646 125.976 113.75 125.821C113.854 125.691 113.958 125.509 114.036 125.328C114.113 125.146 114.165 124.938 114.217 124.73H115.801C115.749 125.146 115.645 125.509 115.489 125.821C115.333 126.132 115.126 126.418 114.866 126.651C114.607 126.885 114.321 127.041 113.958 127.171C113.62 127.3 113.231 127.352 112.815 127.352C112.296 127.352 111.829 127.248 111.44 127.041C111.05 126.833 110.739 126.548 110.505 126.21C110.246 125.873 110.064 125.483 109.96 125.068C109.856 124.653 109.778 124.211 109.778 123.796C109.778 123.329 109.856 122.887 110.012 122.498C110.168 122.083 110.375 121.745 110.635 121.434C110.895 121.148 111.232 120.889 111.621 120.733C112.011 120.551 112.426 120.473 112.893 120.473C113.309 120.473 113.698 120.525 114.01 120.655C114.347 120.759 114.633 120.941 114.866 121.148C115.1 121.356 115.307 121.589 115.463 121.875C115.619 122.161 115.723 122.472 115.801 122.784L114.243 122.758Z" fill="#00524C"/>
<path d="M118.345 124.159C118.371 124.445 118.423 124.704 118.5 124.964C118.578 125.224 118.708 125.457 118.864 125.639C119.02 125.847 119.175 126.002 119.383 126.106C119.591 126.21 119.798 126.288 120.032 126.288C120.785 126.288 121.33 125.873 121.615 125.016H123.017C122.939 125.379 122.81 125.717 122.602 126.002C122.42 126.288 122.187 126.548 121.901 126.729C121.641 126.937 121.33 127.067 120.992 127.197C120.655 127.3 120.318 127.352 119.98 127.352C119.487 127.352 119.046 127.248 118.63 127.067C118.241 126.885 117.903 126.625 117.618 126.288C117.332 125.951 117.125 125.587 116.969 125.172C116.813 124.756 116.735 124.289 116.735 123.822C116.735 123.381 116.813 122.939 116.969 122.55C117.125 122.135 117.332 121.797 117.618 121.486C117.903 121.174 118.241 120.941 118.63 120.759C119.02 120.577 119.487 120.473 119.98 120.473C120.447 120.473 120.889 120.551 121.278 120.707C121.667 120.863 121.979 121.096 122.264 121.382C122.524 121.667 122.732 122.005 122.887 122.394C123.043 122.784 123.095 123.225 123.095 123.692V124.185L118.345 124.159ZM121.59 123.225C121.564 122.965 121.538 122.758 121.46 122.55C121.382 122.342 121.278 122.161 121.122 122.005C120.992 121.849 120.811 121.719 120.629 121.641C120.421 121.564 120.214 121.512 119.98 121.512C119.772 121.512 119.565 121.564 119.383 121.641C119.201 121.745 119.046 121.849 118.89 122.005C118.76 122.161 118.63 122.342 118.552 122.55C118.475 122.758 118.423 122.965 118.397 123.199L121.59 123.225Z" fill="#00524C"/>
<defs>
<radialGradient id="paint0_radial_23_2937" cx="0" cy="0" r="1" gradientUnits="userSpaceOnUse" gradientTransform="translate(63.4653 36.2121) scale(35.9784 35.9784)">
<stop stop-color="#7CA7AD"/>
<stop offset="0.1198" stop-color="#5F9396"/>
<stop offset="0.2874" stop-color="#3D7C7C"/>
<stop offset="0.4585" stop-color="#226967"/>
<stop offset="0.6324" stop-color="#0F5C58"/>
<stop offset="0.8106" stop-color="#04544F"/>
<stop offset="1" stop-color="#00524C"/>
</radialGradient>
</defs>
</svg>
