<svg width="169" height="110" viewBox="0 0 169 110" fill="none" xmlns="http://www.w3.org/2000/svg">
<path d="M143.535 89.1061C143.639 89.1099 143.742 89.0906 143.838 89.0495C143.933 89.0085 144.018 88.9467 144.087 88.8687C144.235 88.7082 144.313 88.4959 144.305 88.2779C144.307 88.1798 144.288 88.0823 144.251 87.9916C144.213 87.9009 144.158 87.8189 144.087 87.7507C144.015 87.6783 143.929 87.6216 143.834 87.5841C143.739 87.5466 143.637 87.529 143.535 87.5326C143.433 87.5305 143.332 87.5487 143.237 87.5861C143.142 87.6236 143.056 87.6795 142.983 87.7507C142.912 87.8186 142.856 87.9007 142.819 87.9915C142.782 88.0823 142.764 88.1799 142.767 88.2779C142.762 88.3858 142.778 88.4936 142.815 88.5951C142.852 88.6965 142.909 88.7896 142.983 88.8687C143.052 88.9455 143.138 89.0065 143.233 89.0474C143.328 89.0884 143.431 89.1084 143.535 89.1061Z" fill="#007CBF"/>
<path d="M2.45426 102.24C2.91994 102.239 3.38201 102.322 3.81792 102.486C4.25608 102.644 4.65585 102.894 4.99111 103.217C5.34801 103.561 5.62997 103.974 5.81924 104.432C6.22399 105.513 6.22399 106.705 5.81924 107.786C5.62892 108.243 5.3471 108.656 4.99111 109.001C4.64954 109.327 4.24459 109.58 3.80135 109.743C3.36012 109.909 2.89245 109.993 2.42113 109.992H1.97946C1.79175 109.992 1.62612 109.975 1.4743 109.964C1.32247 109.953 1.25346 109.925 1.15961 109.903C1.06486 109.881 0.972435 109.849 0.883565 109.809C0.607232 109.712 0.377017 109.515 0.237622 109.257C0.153533 109.102 0.0948212 108.934 0.0637127 108.76C0.0188361 108.542 -0.00244881 108.32 0.00022365 108.098L0.0223077 104.181C0.00344915 103.782 0.0810959 103.384 0.248664 103.021C0.387202 102.755 0.619112 102.548 0.900127 102.442C1.09515 102.364 1.30087 102.317 1.51019 102.301C1.67489 102.278 1.84085 102.266 2.00706 102.265C2.16441 102.24 2.32452 102.24 2.45426 102.24ZM2.45426 109.056C2.73682 109.057 3.01728 109.007 3.28239 108.909C3.55389 108.804 3.79757 108.638 3.99459 108.424C4.22562 108.159 4.40117 107.852 4.51079 107.518C4.65523 107.063 4.72151 106.587 4.70678 106.11C4.72165 105.632 4.65538 105.154 4.51079 104.697C4.40118 104.364 4.22561 104.057 3.99459 103.794C3.79974 103.578 3.55536 103.412 3.28239 103.311C3.01579 103.22 2.73601 103.173 2.45426 103.173H2.08988C1.96568 103.171 1.84187 103.188 1.72274 103.223C1.61963 103.251 1.52494 103.305 1.4467 103.377C1.40506 103.42 1.37278 103.472 1.35187 103.528C1.33097 103.584 1.3219 103.643 1.32524 103.703V108.52C1.32146 108.581 1.33031 108.642 1.35122 108.699C1.37212 108.756 1.40463 108.808 1.4467 108.851C1.52602 108.924 1.62027 108.977 1.72274 109.009C1.84228 109.042 1.9659 109.058 2.08988 109.056H2.45426Z" fill="#43952C"/>
<path d="M8.22619 108.827C8.22619 109.053 8.22619 109.23 8.22619 109.365C8.22619 109.5 8.22619 109.605 8.23999 109.682C8.25379 109.76 8.25379 109.834 8.26484 109.878C7.90659 109.903 7.55063 109.805 7.25451 109.602C7.13067 109.484 7.03547 109.339 6.97615 109.178C6.91684 109.017 6.89497 108.845 6.91222 108.675V104.09C6.90157 103.793 6.96514 103.497 7.09717 103.231C7.21105 103.006 7.38251 102.816 7.59405 102.679C7.82329 102.529 8.08057 102.426 8.35041 102.378C8.66517 102.312 8.98443 102.27 9.30552 102.251C9.53966 102.237 9.77462 102.247 10.0067 102.282C10.2619 102.309 10.513 102.366 10.7548 102.453C10.9997 102.534 11.2356 102.64 11.4587 102.77C11.6757 102.899 11.8713 103.061 12.0384 103.25C12.2057 103.447 12.3399 103.67 12.4359 103.91C12.539 104.173 12.5815 104.456 12.5601 104.738C12.5485 105.151 12.4064 105.549 12.1543 105.876C11.8736 106.227 11.486 106.478 11.0501 106.591C11.2087 106.649 11.3514 106.743 11.4669 106.867C11.5885 107.005 11.6898 107.161 11.7678 107.328C11.8589 107.502 11.95 107.698 12.0439 107.907C12.1377 108.117 12.2316 108.33 12.3392 108.539C12.4102 108.698 12.4952 108.851 12.5932 108.995C12.6871 109.125 12.7754 109.241 12.8693 109.345C12.9477 109.457 13.0405 109.559 13.1453 109.646C13.0786 109.708 13.0055 109.763 12.9272 109.809C12.8392 109.85 12.7465 109.88 12.6512 109.898C12.5233 109.92 12.3926 109.92 12.2647 109.898C12.0987 109.878 11.9383 109.825 11.7927 109.743C11.628 109.641 11.483 109.51 11.3648 109.357C11.1933 109.152 11.0417 108.931 10.9121 108.697C10.7465 108.421 10.5698 108.078 10.36 107.67C10.26 107.461 10.1091 107.281 9.9211 107.145C9.72649 107.017 9.51061 106.923 9.28344 106.869L9.16474 106.833C9.12726 106.827 9.09034 106.818 9.05432 106.806C9.00463 106.806 8.93562 106.784 8.84729 106.767L8.57125 106.72C8.46359 106.693 8.35041 106.676 8.24275 106.649L8.22619 108.827ZM9.30828 103.306C9.12627 103.318 8.94693 103.356 8.77552 103.419C8.65398 103.463 8.54234 103.53 8.44702 103.618C8.36685 103.685 8.3051 103.771 8.26759 103.869C8.23345 103.957 8.21568 104.05 8.21515 104.145V104.517C8.21515 104.672 8.21515 104.824 8.21515 104.987C8.21515 105.15 8.21515 105.29 8.21515 105.428V105.704C8.38077 105.743 8.54364 105.771 8.71479 105.804C8.88593 105.837 9.01292 105.842 9.18406 105.862C9.35842 105.878 9.53354 105.883 9.70855 105.878C10.0837 105.899 10.456 105.802 10.7741 105.602C10.9106 105.497 11.0225 105.363 11.1021 105.21C11.1817 105.057 11.227 104.889 11.2351 104.716C11.267 104.481 11.2265 104.241 11.1191 104.029C11.0134 103.841 10.8601 103.684 10.6747 103.573C10.4765 103.46 10.2611 103.378 10.037 103.333C9.79686 103.288 9.5514 103.278 9.30828 103.303V103.306Z" fill="#43952C"/>
<path d="M15.0777 109.627C15.0161 109.745 14.9197 109.841 14.8017 109.903C14.6937 109.964 14.5723 109.997 14.4483 110C14.3382 110.002 14.2298 109.972 14.1364 109.914C14.0294 109.857 13.9407 109.77 13.8802 109.665C13.8197 109.56 13.7899 109.439 13.7941 109.318C13.7964 109.189 13.8295 109.062 13.8907 108.948C13.9558 108.833 14.0513 108.737 14.1668 108.672C14.2716 108.608 14.3918 108.574 14.5146 108.573C14.6241 108.571 14.7317 108.601 14.8237 108.661C14.9329 108.715 15.0212 108.803 15.0749 108.912C15.1298 109.019 15.1582 109.137 15.1578 109.257C15.1621 109.385 15.1346 109.512 15.0777 109.627Z" fill="#43952C"/>
<path d="M24.4907 108.827C24.4907 109.045 24.4907 109.221 24.4907 109.357C24.4907 109.492 24.4907 109.605 24.4907 109.682C24.4907 109.76 24.5045 109.834 24.5128 109.878C24.1573 109.901 23.8047 109.803 23.5107 109.602C23.383 109.486 23.2843 109.342 23.2225 109.181C23.1606 109.02 23.1374 108.846 23.1546 108.675L23.2347 103.615C23.0332 104.206 22.8427 104.747 22.655 105.249C22.5777 105.47 22.4976 105.691 22.4148 105.92C22.332 106.149 22.252 106.362 22.1802 106.56C22.1084 106.759 22.0311 106.95 21.9759 107.112L21.8103 107.535C21.7284 107.739 21.5833 107.911 21.3962 108.026C21.2534 108.113 21.0931 108.166 20.927 108.183C20.7397 108.199 20.5512 108.174 20.3749 108.109L18.7186 103.612L18.7628 108.824C18.7628 109.042 18.7628 109.219 18.7628 109.354C18.7628 109.489 18.7628 109.602 18.7628 109.68C18.7628 109.757 18.7793 109.831 18.7848 109.876C18.4259 109.898 18.0695 109.801 17.7718 109.6C17.6469 109.482 17.5507 109.337 17.4904 109.176C17.4301 109.015 17.4074 108.843 17.4239 108.672V102.439L17.4681 102.414C17.518 102.407 17.5671 102.395 17.6144 102.378L17.7828 102.362C17.8526 102.356 17.9228 102.356 17.9926 102.362C18.2103 102.357 18.4273 102.387 18.6358 102.45C18.836 102.505 19.0235 102.599 19.1879 102.726C19.3805 102.881 19.5457 103.068 19.6765 103.278C19.8463 103.547 19.987 103.833 20.0961 104.131C20.0961 104.156 20.1237 104.219 20.154 104.302C20.1844 104.385 20.223 104.493 20.2644 104.617C20.3059 104.741 20.3528 104.874 20.4025 105.017C20.4522 105.161 20.5101 105.31 20.5626 105.459C20.6758 105.809 20.811 106.196 20.9518 106.621L21.7965 104.137C21.907 103.839 22.0467 103.554 22.2133 103.284C22.3473 103.076 22.512 102.89 22.7019 102.732C22.867 102.606 23.0543 102.512 23.254 102.456C23.4624 102.392 23.6795 102.363 23.8972 102.367C23.9651 102.361 24.0335 102.361 24.1015 102.367L24.2698 102.384C24.3191 102.401 24.37 102.413 24.4217 102.42L24.4603 102.444L24.4907 108.827Z" fill="#43952C"/>
<path d="M29.0011 102.229C29.4728 102.227 29.9407 102.312 30.3813 102.48C30.8181 102.643 31.2166 102.894 31.5518 103.217C31.9094 103.556 32.1916 103.966 32.3799 104.421C32.7884 105.503 32.7884 106.696 32.3799 107.778C32.1924 108.237 31.9102 108.652 31.5518 108.995C31.2149 109.325 30.8123 109.58 30.3703 109.743C29.4885 110.074 28.5165 110.074 27.6347 109.743C27.1981 109.578 26.7998 109.325 26.4643 109.001C26.1067 108.657 25.8246 108.242 25.6361 107.783C25.2349 106.7 25.2349 105.509 25.6361 104.426C25.8255 103.972 26.1075 103.562 26.4643 103.223C26.8008 102.901 27.1989 102.65 27.6347 102.486C28.0705 102.317 28.5337 102.23 29.0011 102.229ZM29.0011 109.056C29.286 109.056 29.5678 108.998 29.8292 108.885C30.1084 108.755 30.3562 108.567 30.5552 108.333C30.7819 108.059 30.9559 107.745 31.0687 107.408C31.3227 106.548 31.3227 105.634 31.0687 104.774C30.9585 104.441 30.784 104.132 30.5552 103.866C30.354 103.639 30.1065 103.457 29.8292 103.333C29.5711 103.22 29.2925 103.162 29.0108 103.162C28.7291 103.162 28.4504 103.22 28.1923 103.333C27.9151 103.457 27.6675 103.639 27.4663 103.866C27.2345 104.132 27.0573 104.44 26.9446 104.774C26.6906 105.634 26.6906 106.548 26.9446 107.408C27.0573 107.745 27.2314 108.059 27.458 108.333C27.6571 108.567 27.9048 108.755 28.184 108.885C28.442 108.996 28.72 109.055 29.0011 109.056Z" fill="#43952C"/>
<path d="M37.8295 103.565C37.8124 103.393 37.834 103.22 37.8928 103.057C37.9515 102.895 38.0459 102.748 38.169 102.626C38.4607 102.421 38.8151 102.323 39.171 102.35C39.158 102.418 39.1488 102.486 39.1434 102.555C39.1434 102.629 39.1434 102.74 39.1434 102.875C39.1434 103.01 39.1434 103.181 39.1434 103.399V108.826C39.1434 109.053 39.1434 109.229 39.1434 109.365C39.1434 109.5 39.1434 109.605 39.16 109.682C39.16 109.748 39.1664 109.814 39.1793 109.878C38.8219 109.902 38.4668 109.805 38.1718 109.602C38.0474 109.484 37.9517 109.339 37.8919 109.178C37.8321 109.017 37.8098 108.845 37.8267 108.675V106.361H34.7847V108.826C34.7847 109.053 34.7847 109.229 34.7847 109.365C34.7852 109.471 34.7917 109.577 34.804 109.682C34.8068 109.748 34.8133 109.813 34.8233 109.878C34.4635 109.901 34.1061 109.804 33.8075 109.602C33.6818 109.485 33.5848 109.34 33.524 109.179C33.4633 109.018 33.4403 108.846 33.4569 108.675L33.4845 103.565C33.4687 103.394 33.4903 103.221 33.548 103.059C33.6057 102.897 33.698 102.749 33.8185 102.626C34.1118 102.422 34.4666 102.324 34.8233 102.35C34.8233 102.397 34.8233 102.472 34.804 102.555C34.7915 102.661 34.785 102.768 34.7847 102.875C34.7847 103.005 34.7847 103.181 34.7847 103.399V105.287H37.8046L37.8295 103.565Z" fill="#43952C"/>
<path d="M46.7927 109.274C46.8203 109.343 46.8534 109.417 46.8782 109.478C46.9068 109.537 46.9317 109.598 46.9528 109.66C46.9826 109.724 47.0084 109.789 47.0301 109.856C46.833 109.913 46.6269 109.932 46.4228 109.911C46.2461 109.897 46.0748 109.844 45.9204 109.757C45.735 109.652 45.5945 109.483 45.5256 109.282C45.4842 109.18 45.4069 108.987 45.2938 108.686C45.1806 108.385 45.0453 108.043 44.888 107.645H41.8515C41.6886 108.043 41.5561 108.39 41.4429 108.686C41.3298 108.981 41.2525 109.18 41.2055 109.282C41.1338 109.483 40.9928 109.651 40.808 109.757C40.6562 109.843 40.4878 109.896 40.3139 109.911C40.1089 109.932 39.9019 109.913 39.7039 109.856C39.7231 109.789 39.749 109.723 39.7811 109.66L39.8474 109.478C39.875 109.417 39.9054 109.343 39.944 109.274C39.9937 109.141 40.0793 108.918 40.2201 108.6C40.3608 108.283 40.4961 107.916 40.6535 107.496C40.8108 107.076 40.9875 106.668 41.1724 106.196C41.3574 105.724 41.5258 105.31 41.6886 104.896C41.8515 104.482 41.9923 104.126 42.1192 103.808C42.2462 103.491 42.3373 103.273 42.3953 103.146C42.4569 102.973 42.5424 102.809 42.6492 102.66C42.7205 102.554 42.8092 102.46 42.9115 102.384C42.9823 102.32 43.0692 102.277 43.1627 102.26C43.2362 102.238 43.3125 102.228 43.3891 102.229C43.4674 102.227 43.5456 102.238 43.6209 102.26C43.7134 102.278 43.7991 102.321 43.8694 102.384C43.9738 102.462 44.0668 102.555 44.1454 102.66C44.2502 102.81 44.3347 102.973 44.3966 103.146L44.6561 103.808L45.0922 104.896C45.2542 105.31 45.4272 105.743 45.6112 106.196L46.1329 107.496C46.2958 107.907 46.4449 108.272 46.5691 108.6C46.6933 108.929 46.743 109.141 46.7927 109.274ZM44.4905 106.574C44.3414 106.212 44.2144 105.862 44.0681 105.52C43.9218 105.177 43.8197 104.868 43.7175 104.592C43.5878 104.272 43.4719 103.971 43.3725 103.681C43.2566 103.957 43.1406 104.272 43.0219 104.592C42.9142 104.868 42.7956 105.175 42.6658 105.52C42.5361 105.865 42.4063 106.212 42.2573 106.574H44.4905Z" fill="#43952C"/>
<path d="M54.6046 108.826C54.6046 109.045 54.6046 109.221 54.6046 109.356C54.6046 109.492 54.6046 109.605 54.6211 109.682C54.6377 109.759 54.6349 109.834 54.6432 109.878C54.2869 109.9 53.9334 109.803 53.6384 109.602C53.5107 109.486 53.412 109.342 53.3502 109.181C53.2883 109.02 53.2651 108.846 53.2823 108.675L53.3458 103.615C53.1471 104.205 52.9538 104.747 52.7661 105.249C52.6861 105.47 52.6088 105.691 52.5315 105.92C52.4542 106.149 52.3659 106.361 52.2886 106.56C52.2113 106.759 52.1478 106.949 52.0815 107.112C52.0153 107.275 51.9601 107.424 51.9104 107.532C51.834 107.736 51.6911 107.909 51.5046 108.023C51.3603 108.109 51.1993 108.162 51.0326 108.181C50.8453 108.196 50.6571 108.17 50.4805 108.106L48.8242 103.609L48.8684 108.821C48.8684 109.039 48.8684 109.216 48.8684 109.351C48.8667 109.46 48.8723 109.569 48.8849 109.677C48.8884 109.742 48.8958 109.808 48.907 109.873C48.5473 109.895 48.1902 109.798 47.8912 109.597C47.7663 109.479 47.6703 109.334 47.6104 109.173C47.5506 109.012 47.5286 108.84 47.5461 108.669V102.439L47.5875 102.414C47.64 102.406 47.6917 102.394 47.7421 102.378L47.905 102.362C47.9757 102.355 48.0468 102.355 48.1175 102.362C48.3352 102.358 48.5521 102.388 48.7607 102.45C48.9596 102.509 49.1465 102.602 49.3128 102.726C49.5031 102.882 49.6663 103.069 49.7959 103.278C49.9679 103.545 50.1086 103.832 50.2155 104.131C50.231 104.19 50.2513 104.247 50.2762 104.302L50.3866 104.617C50.428 104.738 50.475 104.874 50.5274 105.017C50.5799 105.161 50.624 105.31 50.671 105.459C50.7979 105.809 50.9249 106.196 51.074 106.621L51.9187 104.136C52.0247 103.837 52.1645 103.551 52.3355 103.283C52.4663 103.073 52.6314 102.887 52.8241 102.731C52.9888 102.605 53.1762 102.511 53.3762 102.455C53.5848 102.393 53.8017 102.363 54.0194 102.367C54.0892 102.361 54.1594 102.361 54.2292 102.367L54.3976 102.384C54.4448 102.401 54.4939 102.413 54.5439 102.419L54.588 102.444L54.6046 108.826Z" fill="#43952C"/>
<path d="M62.6434 108.827C62.6434 109.045 62.6434 109.221 62.6434 109.357C62.6434 109.492 62.6434 109.605 62.6655 109.682C62.6677 109.748 62.6732 109.813 62.6821 109.878C62.3266 109.901 61.9738 109.804 61.68 109.602C61.5533 109.486 61.4556 109.341 61.3948 109.18C61.3339 109.019 61.3115 108.846 61.3295 108.675L61.3902 103.615C61.1942 104.206 60.9982 104.747 60.816 105.249C60.736 105.47 60.6531 105.691 60.5731 105.92C60.493 106.149 60.413 106.361 60.3385 106.56L60.1287 107.112C60.0652 107.286 60.0072 107.424 59.9603 107.532C59.8802 107.735 59.737 107.907 59.5517 108.023C59.4064 108.109 59.2446 108.162 59.0769 108.181C58.8897 108.196 58.7013 108.171 58.5248 108.106L56.8686 103.609L56.9127 108.821C56.9127 109.039 56.9127 109.216 56.9127 109.351C56.9127 109.486 56.9127 109.599 56.9127 109.677C56.918 109.743 56.9282 109.808 56.9431 109.873C56.5823 109.896 56.224 109.799 55.9245 109.597C55.8002 109.479 55.7045 109.334 55.6447 109.173C55.5849 109.012 55.5626 108.84 55.5795 108.669V102.439L55.6181 102.414C55.6698 102.407 55.7207 102.395 55.7699 102.378L55.9383 102.362C56.0063 102.356 56.0746 102.356 56.1426 102.362C56.3612 102.357 56.5791 102.387 56.7885 102.45C56.9885 102.506 57.1759 102.599 57.3406 102.726C57.5336 102.882 57.6996 103.068 57.832 103.278C58.0163 103.54 58.1709 103.821 58.293 104.117C58.293 104.142 58.3233 104.206 58.3565 104.288C58.3896 104.371 58.4255 104.479 58.4669 104.603C58.5083 104.727 58.5552 104.86 58.6049 105.003C58.6546 105.147 58.7126 105.296 58.7595 105.445C58.8782 105.796 59.0134 106.182 59.157 106.607L60.0017 104.123C60.1103 103.825 60.249 103.539 60.4157 103.27C60.549 103.061 60.7149 102.874 60.9071 102.718C61.072 102.591 61.2593 102.498 61.4592 102.442C61.6677 102.379 61.8847 102.349 62.1024 102.353C62.1694 102.347 62.2369 102.347 62.3039 102.353L62.4723 102.37C62.5228 102.386 62.5745 102.398 62.6269 102.406L62.671 102.431L62.6434 108.827Z" fill="#43952C"/>
<path d="M70.3116 109.274C70.342 109.343 70.3696 109.417 70.3944 109.478C70.4267 109.537 70.4543 109.597 70.4772 109.66C70.5048 109.724 70.5241 109.79 70.5545 109.856C70.3546 109.913 70.1458 109.932 69.9389 109.911C69.7644 109.895 69.5953 109.842 69.4421 109.757C69.2584 109.653 69.1211 109.483 69.0583 109.282C69.0142 109.18 68.9341 108.987 68.8182 108.686C68.7022 108.385 68.567 108.043 68.4152 107.645H65.3787C65.2213 108.043 65.0833 108.39 64.9701 108.686C64.857 108.981 64.7769 109.18 64.7355 109.282C64.662 109.481 64.5227 109.648 64.3407 109.757C64.1898 109.843 64.0223 109.895 63.8494 109.911C63.6435 109.932 63.4355 109.913 63.2366 109.856C63.2549 109.789 63.2798 109.723 63.3111 109.66C63.3332 109.605 63.3553 109.539 63.3774 109.478C63.3994 109.417 63.4353 109.343 63.4684 109.274C63.5181 109.141 63.6037 108.918 63.7445 108.6C63.8853 108.283 64.0205 107.916 64.1779 107.496L64.6968 106.196C64.879 105.743 65.0529 105.31 65.2103 104.896C65.3676 104.482 65.5139 104.126 65.6464 103.808C65.7789 103.491 65.8645 103.273 65.9225 103.146C65.9844 102.973 66.0689 102.81 66.1737 102.66C66.2515 102.555 66.3446 102.462 66.4497 102.384C66.5196 102.32 66.6055 102.277 66.6982 102.259C66.7735 102.238 66.8517 102.227 66.93 102.229C67.0075 102.227 67.0848 102.238 67.1592 102.259C67.2545 102.277 67.3433 102.319 67.4159 102.384C67.5148 102.464 67.603 102.557 67.6781 102.66C67.7819 102.811 67.8663 102.974 67.9293 103.146C67.979 103.273 68.0646 103.493 68.1916 103.808C68.3185 104.123 68.4676 104.487 68.625 104.896C68.7823 105.304 68.959 105.743 69.1439 106.196C69.3289 106.649 69.4973 107.087 69.6629 107.496C69.8285 107.905 69.9721 108.272 70.0935 108.6C70.215 108.929 70.2647 109.141 70.3116 109.274ZM68.0039 106.574C67.8548 106.212 67.7278 105.862 67.5898 105.52C67.4518 105.177 67.3303 104.868 67.2309 104.592C67.0984 104.272 66.988 103.971 66.8859 103.681C66.7727 103.957 66.6512 104.272 66.5325 104.592C66.4249 104.868 66.3062 105.175 66.1792 105.52C66.0522 105.865 65.9032 106.212 65.7734 106.574H68.0039Z" fill="#43952C"/>
<path d="M73.5026 102.24C73.9739 102.237 74.4417 102.32 74.8828 102.486C75.3204 102.644 75.7193 102.894 76.0533 103.217C76.4135 103.558 76.6959 103.972 76.8814 104.432C77.0953 104.965 77.1995 105.536 77.1878 106.11C77.2011 106.685 77.0949 107.255 76.8759 107.786C76.6876 108.244 76.4055 108.658 76.0477 109.001C75.7056 109.328 75.2996 109.58 74.8552 109.743C74.4141 109.909 73.9464 109.993 73.475 109.992H73.0168C72.8291 109.992 72.6607 109.975 72.5088 109.964C72.3984 109.947 72.288 109.925 72.1914 109.903C72.0926 109.879 71.9958 109.848 71.9015 109.809C71.6278 109.709 71.3995 109.513 71.2584 109.257C71.1756 109.101 71.1161 108.934 71.0817 108.76C71.0402 108.542 71.0208 108.32 71.0237 108.098L71.0458 104.181C71.0251 103.782 71.1018 103.384 71.2694 103.021C71.4097 102.755 71.6423 102.549 71.9236 102.442C72.1186 102.364 72.3243 102.316 72.5337 102.301C72.6974 102.278 72.8625 102.266 73.0278 102.265C73.221 102.24 73.3756 102.24 73.5026 102.24ZM73.5026 109.056C73.7852 109.058 74.0659 109.008 74.3307 108.91C74.6047 108.806 74.8505 108.639 75.0485 108.424C75.2795 108.16 75.455 107.852 75.5647 107.518C75.826 106.596 75.826 105.619 75.5647 104.697C75.4551 104.365 75.2795 104.058 75.0485 103.794C74.8526 103.577 74.6061 103.411 74.3307 103.311C74.0643 103.219 73.7844 103.173 73.5026 103.173H73.1465C73.0205 103.171 72.8949 103.188 72.7738 103.223C72.6718 103.254 72.5776 103.307 72.4978 103.378C72.4581 103.422 72.4276 103.473 72.4081 103.529C72.3887 103.585 72.3807 103.644 72.3846 103.703V108.52C72.3801 108.58 72.3878 108.641 72.4072 108.698C72.4267 108.754 72.4575 108.807 72.4978 108.852C72.5788 108.921 72.6725 108.975 72.7738 109.009C72.8954 109.041 73.0207 109.057 73.1465 109.056H73.5026Z" fill="#43952C"/>
<path d="M87.0396 109.274C87.07 109.343 87.0976 109.417 87.1252 109.478C87.1546 109.537 87.1804 109.598 87.2025 109.66C87.2323 109.724 87.2581 109.789 87.2798 109.856C87.0818 109.913 86.8747 109.932 86.6697 109.911C86.4941 109.896 86.3238 109.843 86.1701 109.757C85.9832 109.655 85.8429 109.485 85.7781 109.282C85.7367 109.18 85.6566 108.987 85.5407 108.686C85.4248 108.385 85.295 108.043 85.1377 107.645H82.1012C81.9466 108.043 81.8086 108.39 81.6954 108.686C81.5822 108.981 81.5049 109.18 81.4608 109.282C81.3872 109.482 81.2467 109.649 81.0633 109.757C80.9126 109.843 80.7449 109.896 80.5719 109.911C80.3678 109.932 80.1616 109.913 79.9646 109.856C79.9822 109.789 80.0053 109.724 80.0336 109.66C80.0557 109.605 80.0778 109.539 80.1054 109.478C80.133 109.417 80.1606 109.343 80.1937 109.274C80.2462 109.141 80.3345 108.918 80.456 108.6C80.5774 108.283 80.732 107.916 80.8921 107.496L81.4138 106.196C81.596 105.743 81.7644 105.31 81.9273 104.896C82.0901 104.482 82.2309 104.126 82.3551 103.808C82.4794 103.491 82.5787 103.273 82.6312 103.146C82.6931 102.973 82.7776 102.81 82.8824 102.66C82.9609 102.555 83.0538 102.462 83.1584 102.384C83.2301 102.321 83.3166 102.279 83.4096 102.26C83.4859 102.238 83.565 102.227 83.6443 102.229C83.7208 102.228 83.7971 102.238 83.8706 102.26C83.9651 102.277 84.0531 102.32 84.1246 102.384C84.2249 102.463 84.3132 102.556 84.3868 102.66C84.4916 102.81 84.5769 102.974 84.6408 103.146C84.6877 103.273 84.776 103.493 84.903 103.808C85.03 104.123 85.1653 104.487 85.3337 104.896C85.502 105.304 85.6732 105.743 85.8526 106.196C86.032 106.649 86.206 107.088 86.3716 107.496C86.5372 107.905 86.6808 108.272 86.805 108.6C86.9292 108.929 87.001 109.141 87.0396 109.274ZM84.7319 106.574C84.5828 106.212 84.4558 105.862 84.3123 105.52C84.1688 105.177 84.0556 104.868 83.959 104.592C83.8292 104.272 83.716 103.971 83.6167 103.681C83.5035 103.957 83.382 104.272 83.2633 104.592C83.1529 104.868 83.0342 105.175 82.9045 105.52C82.7747 105.865 82.645 106.212 82.5014 106.574H84.7319Z" fill="#43952C"/>
<path d="M87.8595 103.333C87.8595 103.118 87.8595 102.944 87.8595 102.809C87.8618 102.703 87.8572 102.597 87.8457 102.491C87.8457 102.403 87.8292 102.337 87.8264 102.295C88.6969 102.295 89.1321 102.719 89.1321 103.565L89.1514 106.326C89.1495 106.721 89.1679 107.116 89.2066 107.51C89.2354 107.779 89.32 108.04 89.4551 108.274C89.5847 108.474 89.78 108.621 90.0072 108.691C90.3057 108.783 90.6171 108.825 90.9292 108.816H91.4178C91.5668 108.816 91.6938 108.816 91.7877 108.799C91.8951 108.797 92.0022 108.785 92.1079 108.766V108.832C92.107 108.958 92.0797 109.082 92.0278 109.196C91.9696 109.324 91.8871 109.44 91.7849 109.536C91.6599 109.644 91.5182 109.73 91.3653 109.793C91.1734 109.866 90.9689 109.901 90.7635 109.895C90.283 109.909 89.8033 109.847 89.3419 109.713C88.9931 109.611 88.6857 109.401 88.4641 109.114C88.225 108.781 88.068 108.397 88.0059 107.993C87.9136 107.422 87.8721 106.843 87.8816 106.265L87.8595 103.333Z" fill="#43952C"/>
<path d="M94.1788 108.827C94.1788 109.045 94.1788 109.221 94.1788 109.357C94.1788 109.492 94.1788 109.605 94.1926 109.682C94.1966 109.748 94.2049 109.814 94.2174 109.878C93.8603 109.9 93.5062 109.803 93.2099 109.602C93.0817 109.487 92.9824 109.342 92.9201 109.181C92.8578 109.02 92.8341 108.847 92.851 108.675V104.272C92.8286 103.875 92.9054 103.478 93.0746 103.118C93.1425 102.985 93.2363 102.867 93.3506 102.77C93.4604 102.683 93.581 102.611 93.7095 102.555C93.8051 102.519 93.9028 102.488 94.0021 102.464C94.1069 102.435 94.2141 102.416 94.3223 102.406C94.4741 102.387 94.6315 102.378 94.7888 102.373C94.9462 102.367 95.1256 102.373 95.3078 102.373H96.2491C96.7101 102.373 97.0331 102.373 97.2346 102.348C97.4361 102.323 97.5631 102.326 97.621 102.318H97.7066V102.384C97.7172 102.583 97.6723 102.78 97.5769 102.955C97.5052 103.101 97.3879 103.219 97.2429 103.292C97.1052 103.365 96.9539 103.409 96.7984 103.422C96.6328 103.422 96.4672 103.444 96.3071 103.444H94.4797C94.4172 103.448 94.3566 103.467 94.303 103.499C94.2604 103.514 94.2256 103.546 94.2064 103.587C94.1513 103.697 94.1275 103.819 94.1374 103.941V105.266H96.7957C96.8078 105.551 96.7089 105.83 96.5196 106.044C96.4209 106.144 96.3018 106.223 96.1704 106.273C96.039 106.323 95.8983 106.345 95.7577 106.337H94.1263L94.1788 108.827Z" fill="#43952C"/>
<path d="M103.343 109.274C103.374 109.343 103.401 109.417 103.429 109.478C103.459 109.537 103.484 109.598 103.503 109.66C103.534 109.724 103.553 109.79 103.584 109.856C103.385 109.913 103.177 109.931 102.971 109.911C102.794 109.895 102.623 109.843 102.468 109.757C102.284 109.652 102.144 109.483 102.076 109.282C102.032 109.18 101.958 108.987 101.847 108.686C101.737 108.385 101.596 108.043 101.436 107.645H98.3994C98.2421 108.043 98.1068 108.39 97.9881 108.686C97.8694 108.981 97.7949 109.18 97.7562 109.282C97.6818 109.481 97.5416 109.649 97.3587 109.757C97.2071 109.843 97.0385 109.896 96.8646 109.911C96.6605 109.932 96.4544 109.913 96.2573 109.856C96.2822 109.79 96.3015 109.724 96.3291 109.66C96.3567 109.597 96.3733 109.539 96.3981 109.478C96.423 109.417 96.4588 109.343 96.492 109.274C96.5389 109.141 96.63 108.918 96.7542 108.6L97.1876 107.496C97.3477 107.087 97.5244 106.668 97.7093 106.196C97.8943 105.724 98.0627 105.31 98.22 104.896C98.3773 104.482 98.5292 104.126 98.6534 103.808C98.7776 103.491 98.8742 103.273 98.9294 103.146C98.9914 102.973 99.0758 102.81 99.1806 102.66C99.2576 102.554 99.3508 102.461 99.4567 102.384C99.5276 102.322 99.6131 102.279 99.7051 102.259C99.7814 102.238 99.8605 102.227 99.9398 102.229C100.016 102.228 100.093 102.238 100.166 102.259C100.261 102.277 100.349 102.32 100.42 102.384C100.525 102.462 100.618 102.555 100.696 102.66C100.798 102.812 100.882 102.975 100.947 103.146C100.997 103.273 101.083 103.493 101.21 103.808C101.337 104.123 101.486 104.487 101.64 104.896C101.795 105.304 101.98 105.743 102.162 106.196C102.344 106.649 102.518 107.087 102.684 107.496C102.849 107.905 102.987 108.272 103.117 108.6L103.343 109.274ZM101.03 106.574C100.887 106.212 100.754 105.862 100.613 105.52C100.473 105.177 100.357 104.868 100.26 104.592C100.13 104.272 100.017 103.971 99.9177 103.681C99.7962 103.957 99.683 104.272 99.5643 104.592C99.4539 104.868 99.338 105.175 99.2138 105.52C99.0895 105.865 98.9377 106.212 98.7997 106.574H101.03Z" fill="#43952C"/>
<path d="M107.525 106.607C107.384 106.616 107.243 106.594 107.11 106.543C106.978 106.493 106.858 106.415 106.758 106.315C106.569 106.101 106.47 105.822 106.482 105.536H107.981C108.264 105.528 108.546 105.578 108.809 105.685C109.015 105.762 109.191 105.904 109.311 106.088C109.436 106.275 109.522 106.486 109.563 106.707C109.612 106.951 109.637 107.2 109.637 107.449V107.894C109.64 108.186 109.583 108.477 109.469 108.747C109.356 109.003 109.183 109.229 108.964 109.404C108.72 109.602 108.438 109.748 108.135 109.834C107.76 109.941 107.372 109.992 106.982 109.986C106.515 109.986 106.052 109.902 105.615 109.738C105.178 109.574 104.779 109.323 104.442 109.001C104.086 108.656 103.804 108.243 103.614 107.786C103.213 106.704 103.213 105.514 103.614 104.432C103.803 103.974 104.085 103.561 104.442 103.217C104.778 102.895 105.177 102.645 105.615 102.486C106.052 102.322 106.515 102.239 106.982 102.24C107.251 102.234 107.52 102.269 107.779 102.342C107.985 102.402 108.184 102.484 108.373 102.585C108.519 102.667 108.656 102.764 108.781 102.875C108.858 102.944 108.926 103.022 108.983 103.107C108.958 103.15 108.931 103.192 108.9 103.231C108.872 103.263 108.846 103.296 108.823 103.331C108.798 103.36 108.767 103.383 108.732 103.4C108.649 103.45 108.553 103.477 108.456 103.477C108.362 103.475 108.268 103.458 108.18 103.427C108.091 103.397 108 103.358 107.904 103.325C107.782 103.284 107.659 103.25 107.534 103.223C107.358 103.185 107.178 103.168 106.998 103.173C106.713 103.173 106.431 103.231 106.17 103.344C105.894 103.468 105.647 103.65 105.447 103.877C105.218 104.148 105.043 104.459 104.928 104.794C104.678 105.655 104.678 106.569 104.928 107.43C105.044 107.764 105.22 108.074 105.447 108.346C105.637 108.569 105.873 108.748 106.139 108.87C106.405 108.993 106.694 109.056 106.987 109.056C107.229 109.063 107.47 109.028 107.699 108.951C107.864 108.899 108.012 108.803 108.127 108.675C108.229 108.544 108.298 108.39 108.329 108.228C108.363 108.031 108.38 107.831 108.378 107.631V107.107C108.379 107.014 108.369 106.921 108.348 106.831C108.326 106.766 108.281 106.712 108.221 106.679C108.164 106.647 108.101 106.628 108.036 106.624H107.561L107.525 106.607Z" fill="#43952C"/>
<path d="M110.512 108.827V103.554C110.493 103.383 110.515 103.211 110.575 103.05C110.635 102.889 110.731 102.744 110.857 102.627C111.154 102.423 111.511 102.326 111.87 102.351C111.87 102.395 111.854 102.458 111.845 102.544C111.837 102.629 111.845 102.732 111.845 102.864C111.845 102.997 111.845 103.173 111.845 103.388L111.826 108.664C111.843 108.835 111.821 109.007 111.761 109.168C111.702 109.329 111.607 109.475 111.484 109.594C111.193 109.799 110.839 109.896 110.484 109.87C110.497 109.805 110.505 109.74 110.509 109.674C110.509 109.597 110.509 109.486 110.509 109.348C110.509 109.21 110.496 109.045 110.512 108.827Z" fill="#43952C"/>
<path d="M117.195 103.565C117.178 103.394 117.199 103.221 117.256 103.058C117.314 102.896 117.407 102.749 117.529 102.627C117.822 102.422 118.177 102.324 118.534 102.351C118.522 102.418 118.513 102.486 118.509 102.555C118.503 102.662 118.503 102.768 118.509 102.875C118.509 103.005 118.509 103.181 118.509 103.4L118.47 108.827C118.47 109.053 118.47 109.23 118.47 109.365C118.47 109.5 118.47 109.605 118.489 109.682C118.49 109.748 118.496 109.813 118.506 109.878C118.15 109.901 117.796 109.804 117.501 109.602C117.378 109.484 117.284 109.338 117.226 109.177C117.167 109.017 117.146 108.845 117.164 108.675V106.362H114.128V108.827C114.128 109.053 114.128 109.23 114.128 109.365C114.128 109.5 114.128 109.605 114.147 109.682C114.167 109.76 114.161 109.834 114.167 109.878C113.808 109.901 113.453 109.804 113.156 109.602C113.031 109.485 112.934 109.34 112.874 109.179C112.814 109.018 112.793 108.846 112.811 108.675L112.831 103.565C112.814 103.393 112.836 103.22 112.895 103.058C112.953 102.895 113.047 102.748 113.17 102.627C113.46 102.422 113.812 102.324 114.167 102.351C114.167 102.398 114.167 102.472 114.147 102.555C114.128 102.638 114.131 102.74 114.128 102.875C114.125 103.01 114.128 103.181 114.128 103.4V105.288H117.164L117.195 103.565Z" fill="#43952C"/>
<path d="M126.319 103.565C126.302 103.394 126.323 103.221 126.381 103.059C126.439 102.897 126.531 102.749 126.653 102.627C126.945 102.423 127.299 102.325 127.655 102.351C127.644 102.418 127.637 102.486 127.635 102.555C127.635 102.629 127.635 102.74 127.619 102.875C127.602 103.01 127.619 103.182 127.619 103.4V108.827C127.619 109.053 127.619 109.23 127.619 109.365C127.619 109.5 127.619 109.605 127.635 109.682C127.652 109.76 127.649 109.834 127.655 109.878C127.299 109.903 126.945 109.806 126.653 109.602C126.527 109.485 126.431 109.34 126.372 109.179C126.312 109.018 126.291 108.845 126.31 108.675V106.362H123.274V108.827C123.274 109.053 123.274 109.23 123.274 109.365C123.274 109.5 123.274 109.605 123.288 109.682C123.301 109.76 123.307 109.834 123.312 109.878C122.953 109.901 122.595 109.804 122.297 109.602C122.172 109.484 122.075 109.34 122.015 109.179C121.955 109.018 121.932 108.846 121.949 108.675L121.974 103.565C121.956 103.394 121.977 103.221 122.035 103.058C122.093 102.896 122.186 102.749 122.308 102.627C122.601 102.422 122.956 102.325 123.312 102.351C123.312 102.398 123.293 102.472 123.288 102.555C123.282 102.638 123.288 102.74 123.274 102.875C123.26 103.01 123.274 103.182 123.274 103.4V105.288H126.31L126.319 103.565Z" fill="#43952C"/>
<path d="M132.121 102.229C132.587 102.228 133.049 102.313 133.484 102.48C133.923 102.643 134.324 102.894 134.663 103.217C135.018 103.558 135.3 103.968 135.491 104.421C135.896 105.503 135.896 106.695 135.491 107.778C135.301 108.235 135.019 108.65 134.663 108.995C134.326 109.323 133.925 109.578 133.484 109.743C133.049 109.909 132.587 109.993 132.121 109.992C131.649 109.994 131.182 109.909 130.74 109.743C130.304 109.578 129.905 109.326 129.57 109.001C129.213 108.656 128.931 108.242 128.742 107.783C128.337 106.701 128.337 105.509 128.742 104.426C128.933 103.973 129.214 103.563 129.57 103.223C129.906 102.9 130.304 102.65 130.74 102.486C131.181 102.315 131.649 102.228 132.121 102.229ZM132.121 109.056C132.413 109.057 132.701 108.994 132.966 108.871C133.231 108.747 133.465 108.567 133.653 108.344C133.882 108.071 134.058 107.757 134.172 107.419C134.426 106.559 134.426 105.645 134.172 104.785C134.061 104.451 133.884 104.142 133.653 103.877C133.462 103.655 133.225 103.476 132.959 103.355C132.692 103.233 132.403 103.171 132.11 103.173C131.825 103.174 131.543 103.232 131.282 103.344C131.006 103.471 130.76 103.652 130.558 103.877C130.339 104.142 130.171 104.447 130.064 104.774C129.814 105.634 129.814 106.548 130.064 107.408C130.178 107.744 130.352 108.058 130.578 108.332C130.777 108.565 131.024 108.753 131.301 108.885C131.56 108.996 131.839 109.054 132.121 109.056Z" fill="#43952C"/>
<path d="M138.897 109.986C138.565 109.989 138.234 109.945 137.914 109.856C137.655 109.78 137.404 109.678 137.166 109.55C136.987 109.449 136.82 109.328 136.669 109.188C136.579 109.102 136.503 109.002 136.443 108.893L136.479 108.86C136.533 108.772 136.603 108.695 136.686 108.633C136.754 108.591 136.832 108.568 136.912 108.567C136.96 108.566 137.008 108.573 137.053 108.589L137.213 108.642C137.271 108.656 137.327 108.675 137.382 108.7C137.442 108.727 137.506 108.758 137.578 108.796C137.742 108.859 137.911 108.91 138.083 108.951C138.309 109.008 138.54 109.039 138.773 109.045H138.897C139.124 109.05 139.351 109.018 139.568 108.951C139.733 108.901 139.886 108.821 140.021 108.713C140.125 108.624 140.209 108.513 140.266 108.388C140.31 108.28 140.334 108.165 140.338 108.048C140.346 107.86 140.286 107.676 140.17 107.529C140.034 107.356 139.871 107.205 139.687 107.085C139.477 106.938 139.237 106.792 138.958 106.635C138.679 106.477 138.37 106.326 138.069 106.154C137.618 105.912 137.226 105.572 136.921 105.161C136.682 104.827 136.569 104.419 136.603 104.01C136.621 103.731 136.704 103.461 136.846 103.22C136.977 103.004 137.151 102.816 137.357 102.668C137.564 102.518 137.797 102.408 138.044 102.342C138.295 102.275 138.554 102.241 138.814 102.24C139.201 102.23 139.586 102.289 139.952 102.414C140.238 102.516 140.515 102.643 140.78 102.792C141.029 102.944 141.257 103.13 141.456 103.344L141.434 103.375C141.373 103.457 141.301 103.531 141.219 103.593C141.149 103.644 141.065 103.671 140.978 103.67C140.882 103.662 140.789 103.636 140.702 103.593C140.643 103.572 140.585 103.548 140.528 103.521L140.327 103.441C140.115 103.358 139.896 103.294 139.673 103.25C139.47 103.206 139.262 103.187 139.054 103.192C138.955 103.194 138.855 103.2 138.756 103.212C138.652 103.227 138.549 103.253 138.45 103.289C138.355 103.323 138.268 103.374 138.193 103.441C138.118 103.507 138.063 103.593 138.036 103.689C138.003 103.789 137.998 103.895 138.022 103.997C138.046 104.099 138.097 104.192 138.171 104.266C138.356 104.453 138.563 104.615 138.789 104.749C139.071 104.922 139.361 105.081 139.659 105.224C139.97 105.375 140.269 105.551 140.553 105.749C140.887 105.972 141.18 106.252 141.417 106.577C141.589 106.826 141.706 107.108 141.762 107.405C141.805 107.668 141.79 107.938 141.718 108.194C141.657 108.434 141.556 108.661 141.42 108.868C141.176 109.244 140.819 109.534 140.401 109.696C139.925 109.894 139.413 109.993 138.897 109.986Z" fill="#43952C"/>
<path d="M143.913 108.827C143.913 109.053 143.913 109.23 143.913 109.365C143.913 109.5 143.913 109.605 143.913 109.682C143.917 109.748 143.925 109.814 143.938 109.878C143.579 109.901 143.223 109.803 142.925 109.602C142.797 109.487 142.697 109.342 142.635 109.181C142.573 109.02 142.549 108.847 142.566 108.675L142.582 104.09C142.574 103.793 142.636 103.499 142.765 103.231C142.883 103.006 143.058 102.816 143.273 102.679C143.502 102.53 143.759 102.428 144.029 102.378C144.342 102.312 144.659 102.269 144.978 102.251C145.333 102.232 145.687 102.257 146.036 102.323C146.401 102.397 146.751 102.533 147.071 102.723C147.397 102.916 147.674 103.18 147.882 103.496C148.113 103.868 148.236 104.296 148.239 104.733C148.255 105.048 148.219 105.365 148.134 105.669C148.043 105.999 147.882 106.305 147.662 106.567C147.442 106.829 147.168 107.04 146.858 107.187C146.467 107.368 146.039 107.455 145.608 107.441C145.384 107.442 145.16 107.429 144.937 107.402C144.736 107.372 144.556 107.336 144.385 107.303C144.212 107.264 144.042 107.212 143.877 107.148L143.913 108.827ZM145.39 106.367C145.606 106.386 145.824 106.355 146.027 106.276C146.23 106.197 146.412 106.073 146.559 105.913C146.707 105.753 146.815 105.562 146.877 105.353C146.939 105.145 146.952 104.925 146.916 104.711C146.905 104.457 146.842 104.209 146.729 103.982C146.624 103.799 146.477 103.644 146.301 103.529C146.117 103.418 145.912 103.345 145.699 103.314C145.468 103.279 145.233 103.272 145.001 103.292C144.819 103.305 144.639 103.343 144.468 103.405C144.349 103.452 144.24 103.519 144.145 103.604C144.067 103.671 144.008 103.758 143.974 103.855C143.942 103.944 143.927 104.037 143.927 104.131V106.039C144.066 106.097 144.209 106.146 144.355 106.185C144.49 106.221 144.631 106.259 144.821 106.295C145.008 106.338 145.198 106.362 145.39 106.367Z" fill="#43952C"/>
<path d="M148.849 108.827V103.554C148.832 103.383 148.855 103.21 148.916 103.049C148.977 102.889 149.074 102.744 149.2 102.627C149.498 102.423 149.856 102.326 150.216 102.351C150.202 102.414 150.193 102.479 150.191 102.544C150.191 102.627 150.191 102.731 150.174 102.864C150.158 102.996 150.174 103.173 150.174 103.388L150.147 108.664C150.165 108.834 150.144 109.006 150.085 109.168C150.027 109.329 149.933 109.475 149.81 109.594C149.52 109.799 149.167 109.897 148.813 109.87C148.813 109.826 148.83 109.762 148.835 109.674C148.841 109.586 148.835 109.486 148.835 109.348C148.835 109.21 148.835 109.045 148.849 108.827Z" fill="#43952C"/>
<path d="M154.819 108.826C154.819 109.045 154.819 109.221 154.819 109.356C154.819 109.492 154.819 109.605 154.839 109.682C154.837 109.748 154.844 109.814 154.858 109.878C154.497 109.905 154.138 109.808 153.839 109.602C153.713 109.485 153.615 109.34 153.554 109.178C153.492 109.017 153.469 108.844 153.486 108.672L153.508 103.427H151.154C151.139 103.142 151.239 102.863 151.43 102.651C151.526 102.549 151.644 102.47 151.775 102.419C151.905 102.368 152.046 102.346 152.186 102.356H157.177C157.187 102.642 157.088 102.921 156.901 103.137C156.8 103.235 156.68 103.31 156.548 103.358C156.416 103.405 156.276 103.424 156.136 103.413H154.8L154.819 108.826Z" fill="#43952C"/>
<path d="M163.741 109.274C163.771 109.343 163.799 109.417 163.827 109.478C163.854 109.539 163.882 109.605 163.904 109.66C163.926 109.715 163.954 109.79 163.976 109.856C163.779 109.913 163.572 109.932 163.368 109.911C163.194 109.896 163.024 109.843 162.871 109.757C162.685 109.653 162.545 109.484 162.477 109.282C162.435 109.18 162.355 108.987 162.242 108.686C162.129 108.385 161.994 108.043 161.836 107.645H158.8C158.645 108.043 158.507 108.39 158.389 108.686C158.27 108.981 158.201 109.18 158.159 109.282C158.086 109.482 157.944 109.651 157.759 109.757C157.609 109.844 157.441 109.896 157.268 109.911C157.063 109.932 156.856 109.913 156.658 109.856C156.678 109.789 156.703 109.724 156.732 109.66C156.754 109.605 156.779 109.539 156.801 109.478C156.823 109.417 156.859 109.343 156.892 109.274C156.942 109.141 157.039 108.918 157.152 108.6C157.265 108.283 157.428 107.916 157.591 107.496C157.754 107.076 157.925 106.668 158.11 106.196C158.295 105.724 158.46 105.31 158.623 104.896C158.786 104.482 158.927 104.126 159.059 103.808C159.192 103.491 159.275 103.273 159.335 103.146C159.4 102.974 159.484 102.811 159.587 102.66C159.666 102.556 159.759 102.463 159.863 102.384C159.932 102.321 160.017 102.279 160.108 102.259C160.185 102.238 160.264 102.227 160.343 102.229C160.421 102.228 160.499 102.238 160.575 102.259C160.668 102.279 160.754 102.321 160.826 102.384C160.925 102.464 161.013 102.557 161.088 102.66C161.19 102.812 161.274 102.975 161.339 103.146C161.386 103.273 161.472 103.493 161.599 103.808C161.726 104.123 161.875 104.487 162.032 104.896C162.19 105.304 162.375 105.743 162.548 106.196L163.073 107.496C163.239 107.907 163.377 108.272 163.512 108.6C163.647 108.929 163.686 109.141 163.741 109.274ZM161.431 106.574C161.284 106.212 161.154 105.862 161.011 105.52C160.867 105.177 160.754 104.868 160.66 104.592C160.531 104.272 160.417 103.971 160.315 103.681C160.202 103.957 160.081 104.272 159.962 104.592C159.854 104.868 159.738 105.175 159.603 105.52C159.468 105.865 159.327 106.212 159.2 106.574H161.431Z" fill="#43952C"/>
<path d="M164.55 103.333C164.55 103.118 164.55 102.944 164.55 102.809C164.55 102.674 164.55 102.569 164.55 102.491C164.55 102.414 164.531 102.337 164.528 102.295C165.397 102.295 165.832 102.719 165.834 103.565L165.853 106.326C165.852 106.721 165.871 107.116 165.911 107.51C165.939 107.779 166.023 108.039 166.157 108.274C166.286 108.474 166.482 108.621 166.709 108.691C167.006 108.783 167.317 108.825 167.628 108.816H168.114C168.263 108.816 168.39 108.816 168.484 108.799C168.591 108.796 168.698 108.785 168.804 108.766V108.832C168.794 108.956 168.762 109.078 168.71 109.191C168.65 109.32 168.564 109.435 168.459 109.53C168.337 109.64 168.197 109.727 168.045 109.787C167.851 109.861 167.645 109.896 167.437 109.889C166.96 109.903 166.483 109.841 166.024 109.707C165.665 109.607 165.348 109.393 165.121 109.097C164.885 108.764 164.73 108.38 164.669 107.976C164.574 107.405 164.531 106.827 164.539 106.248L164.55 103.333Z" fill="#43952C"/>
<path d="M9.62311 97.6688C9.52394 97.6681 9.42568 97.6878 9.33448 97.7267C9.24328 97.7657 9.16111 97.823 9.0931 97.8952C8.94765 98.0559 8.86957 98.2665 8.87502 98.4832C8.87414 98.5816 8.89298 98.6792 8.93044 98.7702C8.96789 98.8613 9.0232 98.9439 9.0931 99.0132C9.16055 99.0862 9.24256 99.1444 9.33384 99.1838C9.42512 99.2233 9.52366 99.2432 9.62311 99.2423C9.72603 99.2448 9.82833 99.2257 9.92342 99.1862C10.0185 99.1467 10.1043 99.0878 10.1752 99.0132C10.2487 98.9462 10.307 98.8643 10.3461 98.7728C10.3851 98.6814 10.4041 98.5826 10.4015 98.4832C10.406 98.3749 10.3883 98.2668 10.3493 98.1657C10.3104 98.0646 10.2511 97.9725 10.1752 97.8952C10.1037 97.8215 10.0178 97.7633 9.92279 97.7244C9.82778 97.6854 9.72576 97.6665 9.62311 97.6688Z" fill="#007CBF"/>
<path d="M7.90883 97.6687C7.80631 97.6674 7.70457 97.6867 7.60971 97.7256C7.51484 97.7645 7.4288 97.8222 7.35674 97.8951C7.28134 97.9728 7.22241 98.0649 7.18352 98.166C7.14462 98.267 7.12655 98.3749 7.13039 98.4831C7.12859 98.5824 7.14783 98.6809 7.18684 98.7723C7.22585 98.8636 7.28375 98.9457 7.35674 99.0131C7.42828 99.0869 7.51416 99.1453 7.6091 99.1847C7.70405 99.2241 7.80605 99.2437 7.90883 99.2422C8.00838 99.2438 8.10713 99.2242 8.19851 99.1847C8.2899 99.1452 8.37182 99.0867 8.43884 99.0131C8.50962 98.9443 8.56569 98.8618 8.60365 98.7707C8.64161 98.6796 8.66067 98.5818 8.65967 98.4831C8.66612 98.2657 8.5868 98.0545 8.43884 97.8951C8.37136 97.8222 8.28928 97.7644 8.19796 97.7254C8.10664 97.6864 8.00812 97.6671 7.90883 97.6687Z" fill="#007CBF"/>
<path d="M17.8546 90.7566C17.9603 90.7596 18.0654 90.7411 18.1636 90.7022C18.2619 90.6633 18.3512 90.6047 18.4261 90.5302C18.4994 90.4583 18.5574 90.3723 18.5968 90.2775C18.6362 90.1826 18.656 90.0808 18.6552 89.9781C18.6602 89.8749 18.6423 89.7718 18.6027 89.6763C18.563 89.5809 18.5027 89.4954 18.4261 89.426C18.2679 89.2891 18.0637 89.2171 17.8546 89.2245C17.7578 89.2218 17.6614 89.2382 17.571 89.2728C17.4805 89.3074 17.3977 89.3594 17.3274 89.426C17.2543 89.4976 17.1972 89.5837 17.1596 89.6789C17.122 89.774 17.1049 89.8759 17.1093 89.9781C17.1086 90.1833 17.1866 90.3809 17.3274 90.5302C17.3946 90.6027 17.4762 90.6603 17.567 90.6993C17.6578 90.7383 17.7558 90.7578 17.8546 90.7566Z" fill="#007CBF"/>
<path d="M16.1462 90.7567C16.2454 90.758 16.3438 90.7385 16.4351 90.6996C16.5264 90.6606 16.6085 90.603 16.6762 90.5304C16.7491 90.4583 16.8068 90.3723 16.8456 90.2774C16.8845 90.1826 16.9039 90.0808 16.9025 89.9783C16.9081 89.8752 16.8907 89.7722 16.8516 89.6767C16.8124 89.5813 16.7525 89.4957 16.6762 89.4262C16.533 89.2918 16.3425 89.2194 16.1462 89.2247C15.9431 89.2183 15.7453 89.2905 15.5941 89.4262C15.5178 89.4957 15.4578 89.5813 15.4187 89.6767C15.3795 89.7722 15.3621 89.8752 15.3677 89.9783C15.3664 90.0808 15.3857 90.1826 15.4246 90.2774C15.4635 90.3723 15.5211 90.4583 15.5941 90.5304C15.6657 90.6038 15.7517 90.6618 15.8467 90.7008C15.9416 90.7397 16.0436 90.7587 16.1462 90.7567Z" fill="#007CBF"/>
<path d="M26.4649 90.7567C26.5674 90.7597 26.6694 90.7414 26.7644 90.7029C26.8595 90.6644 26.9455 90.6066 27.017 90.5331C27.1587 90.3846 27.2361 90.1862 27.2323 89.981C27.2376 89.8791 27.2212 89.7772 27.1842 89.6821C27.1472 89.587 27.0904 89.5008 27.0176 89.4293C26.9448 89.3578 26.8576 89.3025 26.7619 89.2673C26.6661 89.232 26.5639 89.2174 26.4621 89.2246C26.361 89.2192 26.2599 89.2346 26.165 89.2697C26.07 89.3048 25.9833 89.359 25.91 89.4289C25.7723 89.5791 25.699 89.7773 25.7058 89.981C25.7004 90.1844 25.7736 90.3821 25.91 90.5331C25.9809 90.6082 26.0672 90.6671 26.1629 90.7057C26.2587 90.7443 26.3617 90.7617 26.4649 90.7567Z" fill="#007CBF"/>
<path d="M34.4283 89.8816C34.317 89.9927 34.2296 90.1254 34.1717 90.2717C34.1137 90.418 34.0865 90.5745 34.0916 90.7318V95.6426H29.2028V94.1354C29.2036 93.7833 29.1322 93.4347 28.993 93.1113C28.8516 92.7895 28.6586 92.493 28.4216 92.2335C28.1552 92.0052 27.8555 91.819 27.5328 91.6814C27.2088 91.5481 26.8617 91.4805 26.5114 91.4826C26.1556 91.4792 25.8028 91.5468 25.4735 91.6814C25.147 91.8182 24.8435 92.0044 24.5736 92.2335C24.3419 92.4902 24.1553 92.7841 24.0215 93.103C23.7913 93.6739 23.7573 94.305 23.9249 94.8973C24.0122 95.163 24.1388 95.4142 24.3003 95.6426H19.6876V94.1354C19.6874 93.7831 19.6151 93.4345 19.475 93.1113C19.3368 92.7923 19.1506 92.4963 18.9229 92.2335C18.6537 92.0063 18.3523 91.8202 18.0286 91.6814C17.7048 91.5476 17.3575 91.48 17.0072 91.4826C16.6515 91.4794 16.2986 91.547 15.9693 91.6814C15.6426 91.8194 15.3383 92.0055 15.0666 92.2335C14.8395 92.4936 14.6533 92.7868 14.5145 93.103C14.3796 93.4303 14.312 93.7814 14.3158 94.1354C14.3136 94.3927 14.3471 94.6491 14.4151 94.8973C14.5071 95.1616 14.6343 95.4123 14.7933 95.6426H9.40769V91.2894C9.2234 91.2934 9.04196 91.3357 8.87492 91.4136C8.73629 91.487 8.60893 91.58 8.49674 91.6897C8.40781 91.7947 8.33267 91.9106 8.27315 92.0347C8.20473 92.1688 8.16969 92.3175 8.17101 92.4681V95.6426H5.51823V94.1354C5.52602 93.7793 5.45534 93.4259 5.31119 93.1002C5.16535 92.7731 4.95934 92.4763 4.70389 92.2252C4.46697 91.9883 4.18552 91.8007 3.87576 91.6731C3.54337 91.5394 3.1878 91.4728 2.82955 91.4771C2.4577 91.4709 2.08823 91.5375 1.74194 91.6731C1.42474 91.8053 1.13322 91.9921 0.880681 92.2252C0.632569 92.4696 0.43798 92.7628 0.309269 93.0864C0.0681343 93.7631 0.0681343 94.5022 0.309269 95.1789C0.43785 95.513 0.638621 95.8146 0.897245 96.0622C1.14267 96.3016 1.43366 96.4894 1.75298 96.6143C2.09105 96.7478 2.45235 96.8126 2.81575 96.8048H35.2896V89.5586C35.1007 89.5569 34.9133 89.5916 34.7375 89.6607C34.6195 89.7108 34.514 89.7862 34.4283 89.8816ZM4.23738 95.6426H2.80747C2.60932 95.6409 2.41365 95.5984 2.23269 95.5176C2.05172 95.4369 1.88936 95.3197 1.75574 95.1733C1.63309 95.0243 1.53011 94.8601 1.44933 94.6847C1.37214 94.5108 1.33173 94.3229 1.33063 94.1326C1.32921 93.9415 1.37171 93.7526 1.45485 93.5806C1.53053 93.4116 1.62301 93.2507 1.7309 93.1002C1.88307 92.9568 2.06103 92.8435 2.25538 92.7662C2.43454 92.6873 2.62827 92.6469 2.82403 92.6475C3.01534 92.6559 3.20304 92.7025 3.37608 92.7845C3.54911 92.8665 3.70399 92.9823 3.83159 93.1251C3.96566 93.2568 4.0719 93.4141 4.14397 93.5876C4.21605 93.7612 4.25251 93.9475 4.25118 94.1354L4.23738 95.6426ZM18.4647 95.6426H16.9934C16.8102 95.6442 16.6294 95.6015 16.4661 95.5184C16.289 95.432 16.1283 95.3152 15.9913 95.1733C15.8494 95.025 15.7287 94.8578 15.6325 94.6764C15.5507 94.5039 15.5083 94.3153 15.5083 94.1244C15.5088 93.9322 15.5552 93.7429 15.6435 93.5723C15.7353 93.3951 15.8525 93.2324 15.9913 93.0892C16.1177 92.9476 16.2719 92.8336 16.4443 92.7543C16.6167 92.6749 16.8036 92.632 16.9934 92.6282C17.182 92.6295 17.3681 92.6706 17.5398 92.7485C17.7115 92.8265 17.8648 92.9398 17.9899 93.0809C18.1339 93.2204 18.2525 93.3838 18.3405 93.564C18.4258 93.7355 18.4702 93.9245 18.4702 94.1161L18.4647 95.6426ZM27.98 95.6426H26.5114C26.3265 95.6441 26.1438 95.6015 25.9786 95.5184C25.8036 95.4324 25.6456 95.3155 25.5121 95.1733C25.365 95.0294 25.2437 94.8613 25.1533 94.6764C25.0672 94.5052 25.0228 94.316 25.0235 94.1244C25.0264 93.9322 25.0736 93.7432 25.1615 93.5723C25.2524 93.3939 25.3707 93.2309 25.5121 93.0892C25.637 92.9485 25.7902 92.8359 25.9617 92.7588C26.1333 92.6817 26.3192 92.6418 26.5073 92.6418C26.6953 92.6418 26.8813 92.6817 27.0528 92.7588C27.2243 92.8359 27.3776 92.9485 27.5024 93.0892C27.6455 93.2294 27.764 93.3927 27.853 93.5723C27.9362 93.7445 27.9796 93.9331 27.98 94.1244V95.6426Z" fill="#007CBF"/>
<path d="M36.9517 89.6496C36.773 89.5931 36.5871 89.5624 36.3996 89.5585V95.6646C36.3964 95.8257 36.4275 95.9857 36.4907 96.1339C36.5535 96.2642 36.6344 96.385 36.7309 96.4928C36.8361 96.5921 36.9641 96.6641 37.1036 96.7026C37.2827 96.7581 37.4683 96.7905 37.6556 96.7992V90.7262C37.6618 90.5683 37.6359 90.4108 37.5794 90.2633C37.523 90.1157 37.4371 89.9811 37.3272 89.8677C37.2212 89.7662 37.0924 89.6914 36.9517 89.6496Z" fill="#007CBF"/>
<path d="M73.3231 91.687C72.9916 91.5426 72.6329 91.471 72.2714 91.4772C71.9086 91.4722 71.5484 91.5388 71.2113 91.6732C70.902 91.8015 70.6207 91.9891 70.3832 92.2253C70.1314 92.4724 69.9283 92.7645 69.7842 93.0865C69.6411 93.4175 69.5697 93.7749 69.5744 94.1355V95.6427H64.8071V94.1796C64.807 93.8247 64.7347 93.4734 64.5946 93.1472C64.4527 92.8246 64.2513 92.5315 64.0011 92.2832C63.7444 92.0582 63.4561 91.8722 63.1453 91.7311C62.819 91.5931 62.4672 91.5254 62.1129 91.5324H60.5008C60.5013 91.7216 60.5378 91.909 60.6085 92.0845C60.6742 92.2074 60.7601 92.3184 60.8624 92.413C60.9653 92.5027 61.0817 92.5753 61.2075 92.6283C61.3453 92.6839 61.4923 92.713 61.6409 92.7139H62.1157C62.3063 92.7116 62.4953 92.7495 62.6703 92.8252C62.8454 92.9008 63.0025 93.0124 63.1315 93.1528C63.264 93.2941 63.3722 93.4564 63.4517 93.6331C63.5332 93.8056 63.5747 93.9943 63.5732 94.1852V95.6482H55.3995C55.5507 95.4139 55.6722 95.1616 55.7611 94.8974C55.8316 94.6514 55.8679 94.3969 55.8688 94.141C55.8723 93.7886 55.8008 93.4395 55.659 93.1169C55.5171 92.796 55.3252 92.4997 55.0904 92.2391C54.8218 92.011 54.5202 91.8249 54.196 91.687C53.8713 91.5532 53.5231 91.4856 53.1719 91.4882C52.8191 91.4857 52.4693 91.5523 52.1422 91.6842C51.814 91.8176 51.51 92.0042 51.2423 92.2363C50.748 92.7487 50.4745 93.4346 50.4804 94.1465V95.6537H45.1749C45.3324 95.426 45.4543 95.1756 45.5365 94.9112C45.6701 94.4451 45.676 93.9518 45.5537 93.4827C45.4313 93.0135 45.1851 92.5859 44.8408 92.2446H44.8546C44.6141 92.0122 44.3335 91.8252 44.0265 91.6925C43.6919 91.5563 43.3333 91.4888 42.972 91.4937H40.2861C40.3061 91.6819 40.3478 91.8672 40.4103 92.0458C40.46 92.1752 40.5362 92.2927 40.6339 92.3909C40.7423 92.4987 40.8718 92.5828 41.0144 92.6379C41.1569 92.693 41.3094 92.7179 41.4621 92.7111H42.9748C43.1647 92.7099 43.3528 92.7484 43.5269 92.8243C43.8949 92.9787 44.1907 93.2666 44.355 93.6303C44.4305 93.7987 44.4691 93.9813 44.4682 94.1658C44.4693 94.3569 44.4268 94.5457 44.344 94.7179C44.2507 94.8994 44.1348 95.0682 43.9989 95.2203C43.867 95.356 43.7094 95.4639 43.5352 95.5378C43.3602 95.6111 43.1727 95.6495 42.9831 95.651H40.7195C40.5577 95.6464 40.3967 95.6765 40.2475 95.7393C40.128 95.7957 40.0173 95.8691 39.919 95.9574C39.8146 96.0491 39.7325 96.1633 39.6788 96.2914C39.6127 96.4559 39.5691 96.6286 39.5491 96.8048H72.2631C72.6274 96.8129 72.9896 96.7481 73.3286 96.6144C73.6486 96.4876 73.9411 96.3001 74.1899 96.0623C74.4465 95.8152 74.6471 95.5158 74.7778 95.1844C74.8992 94.8481 74.9609 94.4931 74.96 94.1355C74.9644 93.7861 74.8985 93.4393 74.7662 93.1159C74.6339 92.7925 74.4379 92.499 74.1899 92.2529C73.9313 92.0213 73.6391 91.8305 73.3231 91.687ZM54.5024 94.6876C54.4099 94.8719 54.3009 95.0475 54.1767 95.2121C54.0407 95.3399 53.8839 95.4436 53.7129 95.5185C53.5411 95.6025 53.352 95.645 53.1608 95.6427H51.6729V94.1355C51.6735 93.9433 51.7199 93.7541 51.8082 93.5834C51.9055 93.4052 52.0261 93.2409 52.1671 93.0948C52.2885 92.9518 52.4403 92.8377 52.6115 92.7608C52.7851 92.6842 52.974 92.6483 53.1636 92.6559C53.3531 92.649 53.5418 92.6848 53.7157 92.7608C53.8868 92.839 54.0393 92.9529 54.1629 93.0948C54.3032 93.2434 54.4196 93.4128 54.5079 93.5972C54.5918 93.769 54.6344 93.9581 54.6321 94.1493C54.6317 94.3364 54.5873 94.5208 54.5024 94.6876ZM73.6267 94.6876C73.5456 94.8722 73.4457 95.0479 73.3286 95.2121C73.1832 95.3425 73.0172 95.4479 72.8372 95.524C72.6588 95.6021 72.4662 95.6425 72.2714 95.6427H70.8387V94.1355C70.8364 93.944 70.8799 93.7547 70.9657 93.5834C71.0469 93.407 71.1479 93.2403 71.2666 93.0865C71.4096 92.961 71.5694 92.856 71.7414 92.7746C71.9066 92.6939 72.0875 92.6505 72.2714 92.6476C72.4613 92.6511 72.6488 92.6915 72.8234 92.7663C73.0086 92.8478 73.1771 92.9629 73.3203 93.1058C73.4472 93.2461 73.5499 93.4066 73.624 93.5806C73.7029 93.7541 73.7443 93.9422 73.7454 94.1327C73.7466 94.3241 73.7061 94.5134 73.6267 94.6876Z" fill="#007CBF"/>
<path d="M77.5327 91.8525C77.4232 91.9586 77.3302 92.0805 77.2567 92.2141C77.1914 92.3379 77.1618 92.4774 77.1711 92.6171V98.6404C77.3467 98.6273 77.5187 98.5834 77.679 98.5107C77.8222 98.4392 77.9535 98.3461 78.0683 98.2346C78.1743 98.1237 78.261 97.9959 78.325 97.8564C78.3851 97.7276 78.4171 97.5873 78.4188 97.4451V91.4633C78.2542 91.4798 78.0931 91.5217 77.9413 91.5875C77.7921 91.6539 77.6542 91.7433 77.5327 91.8525Z" fill="#007CBF"/>
<path d="M86.8135 90.7565C86.9122 90.7572 87.0101 90.7375 87.1008 90.6985C87.1916 90.6596 87.2732 90.6022 87.3407 90.5301C87.4142 90.4586 87.4721 90.3726 87.5105 90.2776C87.549 90.1826 87.5674 90.0806 87.5643 89.9781C87.5717 89.8751 87.5553 89.7718 87.5166 89.6761C87.4778 89.5804 87.4177 89.4948 87.3407 89.426C87.198 89.2925 87.0088 89.2202 86.8135 89.2245C86.6103 89.2175 86.4123 89.2898 86.2614 89.426C86.1843 89.4949 86.1236 89.5804 86.084 89.6759C86.0443 89.7715 86.0266 89.8747 86.0323 89.9781C86.0304 90.0826 86.0496 90.1865 86.0888 90.2834C86.1279 90.3804 86.1862 90.4685 86.2602 90.5424C86.3341 90.6164 86.4222 90.6747 86.5191 90.7138C86.6161 90.753 86.72 90.7722 86.8245 90.7703L86.8135 90.7565Z" fill="#007CBF"/>
<path d="M88.525 90.7566C88.6298 90.7589 88.734 90.74 88.8313 90.701C88.9286 90.662 89.017 90.6038 89.0912 90.5298C89.1655 90.4558 89.224 90.3676 89.2633 90.2704C89.3026 90.1733 89.3219 90.0692 89.32 89.9644C89.3251 89.8612 89.3072 89.7581 89.2675 89.6626C89.2279 89.5671 89.1676 89.4816 89.0909 89.4123C88.9352 89.275 88.7325 89.2028 88.525 89.2108C88.4253 89.2053 88.3256 89.2208 88.2322 89.2562C88.1389 89.2916 88.054 89.3461 87.983 89.4163C87.912 89.4866 87.8565 89.5709 87.82 89.6638C87.7836 89.7568 87.7671 89.8564 87.7714 89.9561C87.7708 90.1608 87.8477 90.358 87.9868 90.5082C88.0533 90.586 88.1358 90.6485 88.2287 90.6914C88.3216 90.7342 88.4227 90.7565 88.525 90.7566Z" fill="#007CBF"/>
<path d="M95.3687 91.8719C95.5114 91.7171 95.6806 91.589 95.8684 91.4937C96.0608 91.4145 96.2676 91.376 96.4757 91.3805H99.8324C100.002 91.3845 100.171 91.3445 100.321 91.2646C100.468 91.1878 100.606 91.0952 100.732 90.9885C100.819 90.8943 100.893 90.7884 100.95 90.6738C101.019 90.4965 101.065 90.3109 101.086 90.1218H96.4757C96.1039 90.1186 95.7346 90.1821 95.3853 90.3095C95.0688 90.4236 94.7801 90.6033 94.5378 90.8367C94.2874 91.1243 94.0884 91.4531 93.9499 91.8084C93.8129 92.1438 93.7362 92.5008 93.7235 92.8629C93.7201 92.8941 93.7201 92.9255 93.7235 92.9567C93.7332 92.9842 93.7482 93.0095 93.7677 93.0313C93.7723 93.0515 93.7798 93.071 93.7897 93.0892C93.8036 93.0929 93.8155 93.1018 93.8229 93.1141L93.9167 93.2107C94.1072 93.3515 94.3115 93.4867 94.524 93.6275C94.7291 93.7659 94.9532 93.8738 95.1893 93.9477C95.2395 93.9762 95.2934 93.9975 95.3494 94.0112L95.4736 94.0416H95.5592C95.5592 94.0416 95.5978 94.0581 95.6475 94.0581H95.7441C95.8236 94.071 95.9039 94.0774 95.9843 94.0775C96.0726 94.0775 96.1665 94.0775 96.2603 94.0775H101.861C101.849 94.2793 101.794 94.4762 101.698 94.6544C101.599 94.8352 101.485 95.007 101.356 95.1678C101.21 95.3122 101.041 95.4316 100.856 95.5212C100.685 95.6063 100.496 95.6516 100.304 95.6537H88.4014V91.2894C88.2103 91.2855 88.021 91.3271 87.8493 91.4109C87.7143 91.4836 87.5914 91.5767 87.4849 91.6869C87.3914 91.7896 87.3141 91.906 87.2558 92.032C87.1942 92.168 87.1641 92.3161 87.1674 92.4654V95.6426H84.683V94.1272C84.687 93.7706 84.6234 93.4165 84.4953 93.0837C84.3554 92.7528 84.1454 92.4561 83.8798 92.2142C83.6248 91.9829 83.3327 91.7962 83.0157 91.6621C82.6952 91.5234 82.3491 91.4537 81.9999 91.4578C81.4671 91.4422 80.9422 91.5891 80.495 91.8791C80.0478 92.169 79.6994 92.5882 79.4962 93.081C79.3689 93.4129 79.3061 93.7661 79.3112 94.1216C79.3016 94.4819 79.3678 94.8401 79.5058 95.173C79.6437 95.5059 79.8502 95.8061 80.1118 96.0539C80.3479 96.2982 80.6355 96.4868 80.9537 96.606C81.2885 96.7374 81.6458 96.8021 82.0054 96.7965H83.4602V97.459C83.4523 97.6136 83.4758 97.7682 83.5294 97.9134C83.5831 98.0586 83.6656 98.1914 83.7721 98.3037C83.888 98.4105 84.0216 98.4965 84.1668 98.5577C84.3322 98.6226 84.5061 98.6635 84.683 98.6791V96.7965H100.326C100.517 96.7949 100.707 96.7773 100.895 96.7441C101.077 96.7069 101.257 96.659 101.433 96.6005C101.556 96.5464 101.675 96.4837 101.79 96.4128C101.923 96.3293 102.052 96.2371 102.173 96.1368L102.256 96.1174C102.508 95.8334 102.71 95.5086 102.852 95.1568C102.994 94.8147 103.067 94.4479 103.068 94.0775V92.8408L94.8912 92.8242C94.8979 92.6406 94.9441 92.4605 95.0265 92.2962C95.1089 92.1319 95.2256 91.9872 95.3687 91.8719ZM83.4491 95.6426H81.9888C81.7972 95.6433 81.6081 95.5988 81.4368 95.5129C81.2563 95.4274 81.0912 95.3127 80.9482 95.1734C80.8115 95.0335 80.6986 94.8722 80.6141 94.6958C80.5454 94.5143 80.5116 94.3213 80.5148 94.1272C80.5109 93.937 80.5495 93.7484 80.628 93.5751C80.7146 93.3946 80.8302 93.2295 80.9702 93.0865C81.112 92.9495 81.2751 92.8367 81.4533 92.7525C81.6194 92.6754 81.8002 92.6349 81.9833 92.6338C82.1778 92.6368 82.3695 92.6798 82.5466 92.7601C82.7237 92.8403 82.8825 92.9561 83.013 93.1003V93.0865C83.1399 93.2289 83.2442 93.3899 83.3221 93.564C83.4028 93.7369 83.4443 93.9254 83.4436 94.1161L83.4491 95.6426Z" fill="#007CBF"/>
<path d="M113.501 89.8815C113.39 89.9926 113.302 90.1254 113.244 90.2717C113.187 90.4179 113.159 90.5745 113.164 90.7317V95.6426H110.078C110.237 95.4155 110.359 95.1649 110.44 94.9C110.515 94.6597 110.551 94.4091 110.547 94.1574C110.557 93.7975 110.49 93.4397 110.353 93.1069C110.216 92.7741 110.01 92.4738 109.75 92.2251C109.51 91.9912 109.23 91.804 108.922 91.673C108.589 91.5361 108.232 91.4685 107.873 91.4743H105.187C105.204 91.6624 105.244 91.8478 105.305 92.0264C105.355 92.1557 105.431 92.2733 105.529 92.3714C105.637 92.4792 105.767 92.5633 105.909 92.6184C106.052 92.6736 106.204 92.6985 106.357 92.6916H107.875C108.065 92.6916 108.253 92.7301 108.427 92.8048C108.608 92.8886 108.773 93.0025 108.916 93.1416C109.05 93.2789 109.16 93.4375 109.242 93.6109C109.321 93.7782 109.36 93.9614 109.358 94.1464C109.358 94.3377 109.315 94.5265 109.231 94.6985C109.138 94.8792 109.024 95.0479 108.891 95.2009C108.757 95.3365 108.598 95.4443 108.422 95.5182C108.246 95.5921 108.058 95.6306 107.867 95.6315H105.603C105.44 95.6272 105.277 95.6573 105.126 95.7199C105.006 95.7776 104.895 95.8509 104.795 95.9379C104.694 96.0308 104.615 96.1449 104.563 96.2719C104.498 96.4371 104.454 96.6095 104.43 96.7854H114.335V89.5585C114.146 89.5578 113.959 89.5925 113.783 89.6607C113.675 89.7141 113.579 89.7893 113.501 89.8815Z" fill="#007CBF"/>
<path d="M116.011 89.6496C115.832 89.5931 115.646 89.5624 115.459 89.5585V95.6646C115.455 95.8257 115.486 95.9857 115.55 96.1339C115.612 96.2642 115.693 96.385 115.79 96.4928C115.895 96.5909 116.022 96.6628 116.16 96.7026C116.339 96.7571 116.525 96.7895 116.712 96.7992V90.7262C116.718 90.5683 116.693 90.4106 116.636 90.263C116.58 90.1154 116.494 89.9808 116.383 89.8677C116.278 89.7662 116.151 89.6914 116.011 89.6496Z" fill="#007CBF"/>
<path d="M133.139 90.7567C133.242 90.7606 133.344 90.7426 133.439 90.7041C133.534 90.6655 133.62 90.6073 133.691 90.5331C133.762 90.4599 133.817 90.3734 133.854 90.2786C133.891 90.1839 133.909 90.0827 133.906 89.981C133.912 89.8793 133.895 89.7777 133.859 89.6828C133.822 89.5879 133.765 89.5018 133.693 89.4304C133.62 89.3589 133.533 89.3036 133.438 89.2681C133.342 89.2327 133.241 89.2178 133.139 89.2246C133.038 89.2186 132.937 89.2336 132.842 89.2688C132.746 89.3039 132.66 89.3585 132.587 89.4289C132.518 89.5029 132.465 89.5898 132.43 89.6846C132.395 89.7793 132.379 89.88 132.383 89.981C132.376 90.1846 132.449 90.3827 132.587 90.5331C132.657 90.6084 132.743 90.6675 132.838 90.7061C132.934 90.7448 133.036 90.762 133.139 90.7567Z" fill="#007CBF"/>
<path d="M143.662 89.9644C143.658 90.1662 143.727 90.3625 143.858 90.5165C143.927 90.5933 144.012 90.6535 144.108 90.6927C144.203 90.7319 144.307 90.749 144.41 90.7429C144.517 90.7456 144.624 90.7271 144.724 90.6882C144.824 90.6493 144.915 90.591 144.992 90.5165C145.069 90.4464 145.129 90.361 145.171 90.2659C145.212 90.1708 145.233 90.0681 145.232 89.9644C145.237 89.8601 145.218 89.7561 145.177 89.6604C145.135 89.5647 145.072 89.4798 144.992 89.4123C144.83 89.2747 144.622 89.2028 144.41 89.2108C144.309 89.2037 144.207 89.218 144.112 89.2527C144.017 89.2874 143.93 89.3418 143.858 89.4123C143.79 89.4864 143.737 89.5735 143.703 89.6684C143.67 89.7633 143.656 89.8639 143.662 89.9644Z" fill="#007CBF"/>
<path d="M142.649 90.7567C142.754 90.7593 142.858 90.7407 142.956 90.7019C143.053 90.6631 143.142 90.6049 143.217 90.5309C143.291 90.4569 143.35 90.3685 143.39 90.2712C143.429 90.1738 143.448 90.0695 143.447 89.9645C143.452 89.8612 143.434 89.7582 143.394 89.6627C143.354 89.5672 143.294 89.4817 143.217 89.4124C143.061 89.2739 142.857 89.2016 142.649 89.2109C142.55 89.207 142.451 89.2236 142.359 89.2597C142.267 89.2958 142.184 89.3506 142.114 89.4207C142.044 89.4907 141.99 89.5745 141.954 89.6666C141.918 89.7588 141.902 89.8574 141.906 89.9562C141.904 90.161 141.981 90.3587 142.121 90.5083C142.186 90.5855 142.267 90.6477 142.358 90.6906C142.449 90.7335 142.548 90.7561 142.649 90.7567Z" fill="#007CBF"/>
<path d="M153.128 90.7567C153.232 90.7598 153.337 90.7413 153.434 90.7024C153.531 90.6634 153.62 90.6049 153.694 90.5304C153.769 90.4595 153.828 90.3739 153.869 90.2789C153.909 90.1839 153.929 90.0815 153.928 89.9783C153.934 89.8745 153.915 89.7708 153.875 89.6752C153.834 89.5795 153.772 89.4944 153.694 89.4262C153.538 89.2884 153.335 89.2161 153.128 89.2247C153.03 89.2208 152.932 89.2366 152.841 89.2712C152.749 89.3058 152.666 89.3586 152.595 89.4262C152.522 89.4977 152.466 89.584 152.429 89.6792C152.392 89.7744 152.376 89.8764 152.382 89.9783C152.378 90.183 152.455 90.3812 152.595 90.5304C152.662 90.604 152.745 90.6623 152.837 90.7013C152.929 90.7404 153.028 90.7593 153.128 90.7567Z" fill="#007CBF"/>
<path d="M151.411 90.7568C151.511 90.7579 151.611 90.7383 151.703 90.6994C151.796 90.6605 151.879 90.603 151.949 90.5304C152.021 90.458 152.079 90.3719 152.117 90.2771C152.156 90.1823 152.176 90.0808 152.175 89.9783C152.18 89.8754 152.162 89.7726 152.123 89.6772C152.084 89.5819 152.025 89.4962 151.949 89.4262C151.802 89.2921 151.609 89.2199 151.411 89.2247C151.208 89.2198 151.01 89.2917 150.858 89.4262C150.783 89.4965 150.725 89.5823 150.687 89.6777C150.648 89.7731 150.632 89.8757 150.638 89.9783C150.634 90.0825 150.651 90.1863 150.689 90.2834C150.727 90.3805 150.784 90.4688 150.857 90.543C150.93 90.6172 151.018 90.6756 151.115 90.7148C151.211 90.7539 151.315 90.7729 151.419 90.7706L151.411 90.7568Z" fill="#007CBF"/>
<path d="M168.199 92.2528C167.939 92.0222 167.646 91.8315 167.33 91.6869C166.998 91.543 166.64 91.4715 166.278 91.4771C165.915 91.4721 165.555 91.5387 165.218 91.6731C164.909 91.8017 164.628 91.9892 164.39 92.2252C164.139 92.473 163.936 92.765 163.791 93.0864C163.649 93.4176 163.578 93.7751 163.584 94.1354V95.6426H161.497V91.4771C161.299 91.4769 161.103 91.5164 160.92 91.593C160.796 91.65 160.683 91.7285 160.586 91.8249C160.483 91.9313 160.403 92.0572 160.35 92.1952C160.297 92.3332 160.272 92.4804 160.277 92.6282V95.3058C160.277 95.3638 160.277 95.419 160.277 95.4687C160.277 95.5184 160.277 95.5846 160.277 95.6426H159.325V92.4515C159.146 92.4564 158.968 92.4861 158.797 92.5399C158.663 92.5898 158.542 92.6694 158.443 92.7726C158.345 92.8759 158.27 93.0001 158.226 93.1361C158.179 93.2687 158.146 93.4055 158.127 93.5447V95.6426H157.064V93.6054C156.867 93.6246 156.674 93.6701 156.49 93.7406C156.359 93.7868 156.24 93.8613 156.142 93.9587C156.034 94.0671 155.95 94.1966 155.895 94.3392C155.84 94.4817 155.815 94.6342 155.822 94.7869V95.6481H153.006V91.2894C152.815 91.2874 152.626 91.3289 152.454 91.4108C152.322 91.485 152.201 91.578 152.095 91.6869C152.004 91.7923 151.926 91.9081 151.863 92.0319C151.803 92.1684 151.773 92.3162 151.775 92.4653V95.6426H146.351V91.4771C146.152 91.4766 145.956 91.5161 145.774 91.593C145.649 91.65 145.536 91.7285 145.44 91.8249C145.338 91.932 145.26 92.0582 145.208 92.1961C145.156 92.3341 145.133 92.481 145.139 92.6282V95.3058C145.136 95.3601 145.136 95.4144 145.139 95.4687C145.139 95.5211 145.139 95.5846 145.139 95.6426H144.192V92.4515C144.013 92.4561 143.835 92.4858 143.665 92.5399C143.532 92.587 143.412 92.6645 143.314 92.7662C143.207 92.8753 143.124 93.0049 143.069 93.1473C143.014 93.2897 142.988 93.4418 142.994 93.5943V95.6481H141.934V93.6054C141.745 93.6238 141.56 93.6665 141.382 93.7324C141.252 93.7799 141.133 93.8542 141.034 93.9504C140.927 94.059 140.843 94.1887 140.788 94.3312C140.734 94.4738 140.709 94.6261 140.716 94.7786V95.6398H135.886V94.1354C135.887 93.7826 135.814 93.4335 135.67 93.1113C135.536 92.7901 135.35 92.4935 135.118 92.2334C134.85 92.0039 134.547 91.8176 134.221 91.6814C133.901 91.5473 133.558 91.4796 133.211 91.4826C132.853 91.4784 132.498 91.5459 132.167 91.6814C131.842 91.8182 131.539 92.0044 131.27 92.2334C131.039 92.4902 130.852 92.7841 130.718 93.103C130.579 93.4291 130.509 93.7808 130.514 94.1354C130.515 94.3925 130.548 94.6485 130.613 94.8973C130.704 95.1616 130.83 95.4123 130.989 95.6426H129.907L129.595 95.5018L129.214 95.3279C129.115 95.2992 129.022 95.2545 128.938 95.1954C128.811 95.0418 128.703 94.8731 128.617 94.693C128.539 94.5196 128.497 94.3314 128.496 94.1409V92.6282C128.502 92.4734 128.474 92.3191 128.415 92.1761C128.355 92.0331 128.265 91.9048 128.151 91.8001C128.053 91.6995 127.938 91.6173 127.811 91.5571C127.676 91.4902 127.527 91.4534 127.375 91.4495H125.876C125.585 91.4464 125.297 91.5067 125.032 91.6261C124.783 91.7438 124.555 91.8983 124.353 92.0844C124.163 92.2766 124.012 92.5033 123.908 92.7524C123.812 93.0044 123.762 93.272 123.762 93.5419V94.4584C123.763 94.6053 123.731 94.7507 123.668 94.8835C123.6 95.0271 123.519 95.1639 123.425 95.292C123.204 95.5084 122.906 95.6293 122.597 95.6288H121.197C121.029 95.6218 120.864 95.5755 120.717 95.4935C120.55 95.4086 120.395 95.3019 120.256 95.1761C120.133 95.0132 120.025 94.8395 119.933 94.6571C119.842 94.4868 119.792 94.2979 119.787 94.105V92.6282C119.791 92.4693 119.762 92.3113 119.701 92.1644C119.641 92.0316 119.557 91.911 119.453 91.8083C119.343 91.7152 119.224 91.6346 119.097 91.5682C118.924 91.4851 118.736 91.4364 118.545 91.4246V94.1105C118.542 94.4693 118.618 94.8244 118.765 95.1512C118.91 95.4866 119.121 95.789 119.387 96.0401C119.623 96.2772 119.905 96.4648 120.215 96.5922C120.53 96.7233 120.867 96.7927 121.208 96.7965H122.865C123.142 96.8057 123.419 96.7564 123.676 96.6518C123.933 96.5471 124.166 96.3895 124.358 96.1892C124.559 96.001 124.718 95.7724 124.825 95.5184C124.934 95.2561 124.991 94.9746 124.99 94.6902V93.7821C124.997 93.4789 125.117 93.1892 125.327 92.9705C125.418 92.8659 125.526 92.778 125.647 92.711C125.796 92.6572 125.953 92.631 126.111 92.6337H127.262V94.1161C127.261 94.4739 127.32 94.8294 127.436 95.1678C127.549 95.478 127.727 95.7604 127.958 95.9959C128.222 96.2169 128.516 96.3982 128.833 96.5342C129.124 96.658 129.432 96.7362 129.746 96.7661V96.7854H166.27C166.636 96.7927 167 96.7279 167.341 96.5949C167.66 96.4674 167.951 96.28 168.199 96.0429C168.457 95.7976 168.656 95.4976 168.782 95.165C168.909 94.8299 168.973 94.4744 168.972 94.1161C168.973 93.7698 168.905 93.4269 168.772 93.107C168.64 92.7872 168.445 92.4969 168.199 92.2528ZM134.657 95.6426H133.189C132.997 95.6466 132.808 95.604 132.637 95.5184C132.462 95.4304 132.303 95.3137 132.167 95.1733C132.026 95.0243 131.904 94.8572 131.806 94.6764C131.724 94.5036 131.681 94.3154 131.679 94.1243C131.68 93.9316 131.728 93.7421 131.82 93.5723C131.909 93.394 132.027 93.2309 132.167 93.0892C132.293 92.9483 132.447 92.8356 132.619 92.7584C132.791 92.6813 132.978 92.6414 133.167 92.6414C133.355 92.6414 133.542 92.6813 133.714 92.7584C133.886 92.8356 134.04 92.9483 134.166 93.0892C134.307 93.2309 134.424 93.394 134.514 93.5723C134.599 93.7438 134.644 93.9328 134.644 94.1243L134.657 95.6426ZM167.636 94.6875C167.554 94.8709 167.455 95.0465 167.341 95.212C167.193 95.3407 167.027 95.4459 166.847 95.5239C166.673 95.6002 166.485 95.6406 166.295 95.6426H164.846V94.1354C164.845 93.944 164.888 93.7551 164.973 93.5833C165.054 93.4049 165.156 93.2363 165.276 93.0809C165.417 92.9543 165.576 92.8492 165.748 92.769C165.914 92.6882 166.096 92.6449 166.281 92.642C166.471 92.6438 166.659 92.6842 166.833 92.7607C167.018 92.8453 167.186 92.9621 167.33 93.1057C167.454 93.247 167.555 93.4073 167.628 93.5805C167.708 93.7537 167.749 93.942 167.749 94.1326C167.749 94.3232 167.708 94.5116 167.628 94.6847L167.636 94.6875Z" fill="#007CBF"/>
<path d="M120.705 1.77536V74.6779H49.7614V1.77536H120.705ZM122.481 0H47.9861V76.4321H122.481V0Z" fill="#0087CC"/>
<path d="M59.2583 8.03143C60.8476 10.0244 62.7513 11.7448 64.8944 13.125C68.003 15.1702 71.5162 16.5207 75.1943 17.0844C75.1943 17.0844 78.0123 17.4366 79.3016 17.4366C81.1544 17.4366 83.8457 17.1125 83.8457 17.1125C94.7867 15.3372 99.9014 8.03143 99.9014 8.03143H59.2583Z" fill="#0087CC"/>
<path style="mix-blend-mode:multiply" d="M59.2583 8.03143C59.2583 8.03143 64.6337 15.3161 71.8408 15.3161C71.6295 15.2738 72.0663 15.3161 71.8408 15.3161C84.4022 16.6264 80.9994 8.04552 94.1385 8.04552L59.2583 8.03143Z" fill="url(#paint0_linear_23_3395)"/>
<path d="M105.89 14.4848C103.072 17.4015 100.754 21.5299 100.754 24.8904V35.3242H91.7784C87.8754 37.3338 84.6272 40.4159 82.4155 44.2081H100.733V57.3471C100.733 65.6674 112.815 70.0283 112.815 70.0283V9.15875C110.258 10.5849 107.924 12.3794 105.89 14.4848Z" fill="#4EAD33"/>
<path d="M69.5938 35.4087V24.8975C69.5938 20.3534 65.7612 15.443 62.1964 12.2797C60.7632 11.1021 59.2258 10.0574 57.603 9.15875V70.0072C57.603 70.0072 69.6924 65.6674 69.6924 57.326V44.2081H77.7308C77.7308 44.1658 83.9587 40.8616 86.4174 35.3242L69.5938 35.4087Z" fill="#0087CC"/>
<path style="mix-blend-mode:multiply" d="M57.603 9.15875C57.603 9.15875 69.5797 15.8868 69.5797 24.8904C69.5797 25.1722 69.5444 24.6227 69.5444 24.8904C69.5444 40.7489 57.603 36.3598 57.603 52.789V9.15875Z" fill="url(#paint1_linear_23_3395)"/>
<path style="mix-blend-mode:multiply" d="M112.837 70.0069C112.837 70.0069 99.5214 65.3783 100.712 55.1418C100.712 54.86 100.761 53.4439 100.761 53.1832C100.761 37.3177 112.872 42.6156 112.872 26.2006V43.4328L112.837 70.0069Z" fill="url(#paint2_linear_23_3395)"/>
<defs>
<linearGradient id="paint0_linear_23_3395" x1="70.9884" y1="8.5105" x2="85.7971" y2="12.6812" gradientUnits="userSpaceOnUse">
<stop stop-color="white"/>
<stop offset="1" stop-color="#D6D6D6"/>
</linearGradient>
<linearGradient id="paint1_linear_23_3395" x1="59.4629" y1="23.4814" x2="64.6833" y2="42.0029" gradientUnits="userSpaceOnUse">
<stop stop-color="white"/>
<stop offset="1" stop-color="#D6D6D6"/>
</linearGradient>
<linearGradient id="paint2_linear_23_3395" x1="110.617" y1="55.7406" x2="105.376" y2="37.1416" gradientUnits="userSpaceOnUse">
<stop stop-color="white"/>
<stop offset="1" stop-color="#D6D6D6"/>
</linearGradient>
</defs>
</svg>
