<svg width="159" height="66" viewBox="0 0 159 66" fill="none" xmlns="http://www.w3.org/2000/svg">
<path fill-rule="evenodd" clip-rule="evenodd" d="M4.34037 59.2969V58.8317C4.34037 58.7471 4.36133 58.726 4.44521 58.726H5.11618C5.20005 58.726 5.22102 58.7471 5.22102 58.8317V62.4687C5.22102 62.6802 5.26296 62.8282 5.34683 62.9128C5.4307 62.9762 5.55651 63.0185 5.74522 63.0185H6.20651H7.38072H7.40169H8.55493H8.57589H9.7501H10.9243H12.0985H13.2727H13.2937H14.0066C14.1953 63.0185 14.3211 62.9762 14.405 62.9128C14.4889 62.8282 14.5098 62.6802 14.5098 62.4687V59.5929C14.5098 59.5084 14.5518 59.4872 14.6356 59.4872H15.3066C15.3695 59.4872 15.4114 59.5084 15.4114 59.5929V62.511C15.4114 62.9762 15.3066 63.3145 15.1179 63.526C14.9292 63.7586 14.6147 63.8643 14.1743 63.8643H13.2937H13.2727H12.0985H10.9243H9.7501H8.57589H8.55493H7.40169H7.38072H6.20651H5.57748C5.22102 63.8643 4.96941 63.8009 4.75973 63.674C4.57101 63.526 4.44521 63.3145 4.3823 62.9974C4.23553 63.1242 4.06778 63.23 3.8581 63.2934C3.66939 63.3568 3.45971 63.3991 3.22906 63.3991C2.93551 63.3991 2.6839 63.3568 2.45325 63.2722C2.2226 63.1877 2.01292 63.0819 1.82421 62.9128C1.65647 62.7436 1.53066 62.5533 1.42582 62.2996C1.32098 62.067 1.27905 61.7709 1.27905 61.4326C1.27905 61.0308 1.34195 60.6925 1.44679 60.4176C1.55163 60.1427 1.6984 59.9313 1.88712 59.7621C2.07583 59.5929 2.28551 59.4661 2.53712 59.4026C2.78874 59.3181 3.04035 59.2969 3.29197 59.2969H4.34037ZM157.7 63.7586C157.7 63.822 157.658 63.8643 157.595 63.8643H156.903C156.84 63.8643 156.798 63.822 156.798 63.7586V56.696C156.798 56.6115 156.84 56.5692 156.903 56.5692H157.595C157.658 56.5692 157.7 56.6115 157.7 56.696V63.7586ZM153.255 63.0185H153.905C154.094 63.0185 154.219 62.9762 154.303 62.9128C154.387 62.8282 154.429 62.6802 154.429 62.4687V56.696C154.429 56.6115 154.45 56.5692 154.534 56.5692H155.205C155.289 56.5692 155.31 56.6115 155.31 56.696V62.511C155.31 62.9762 155.226 63.3145 155.037 63.526C154.827 63.7586 154.513 63.8643 154.073 63.8643H153.255H153.234H152.081H152.06H150.906H150.885H149.795H149.774H149.711H149.564C149.334 63.8643 149.124 63.822 148.956 63.7163C148.789 63.6317 148.663 63.4837 148.579 63.3145C148.39 63.674 148.034 63.8643 147.468 63.8643H146.964C146.734 63.8643 146.524 63.822 146.356 63.7163C146.189 63.6317 146.063 63.4837 145.979 63.3145C145.79 63.674 145.434 63.8643 144.868 63.8643H144.364C144.134 63.8643 143.924 63.822 143.756 63.7163C143.589 63.6317 143.463 63.4837 143.358 63.3145C143.19 63.674 142.813 63.8643 142.268 63.8643H141.114H141.072H141.051H139.877H139.856H138.703H138.682H138.116H136.942H136.921H135.768H135.747H135.537C135.159 63.8643 134.866 63.7374 134.677 63.526V64.2238C134.677 64.7947 134.53 65.2388 134.237 65.5348C133.943 65.852 133.524 66 132.958 66H132.685C132.601 66 132.58 65.9577 132.58 65.8943V65.2599C132.58 65.1965 132.601 65.1542 132.685 65.1542H132.916C133.503 65.1542 133.776 64.8581 133.776 64.2449V59.5929C133.776 59.5084 133.817 59.4872 133.901 59.4872H134.572C134.635 59.4872 134.677 59.5084 134.677 59.5929V62.2996C134.677 62.5322 134.761 62.7225 134.929 62.8493C135.118 62.9551 135.348 63.0185 135.642 63.0185H135.747H135.768H136.921H136.942H138.116H138.682H138.703H139.856H139.877H141.051H141.072H141.114H142.1C142.289 63.0185 142.414 62.9762 142.498 62.9128C142.582 62.8282 142.603 62.6802 142.603 62.4687V60.5022C142.603 60.4388 142.645 60.3965 142.729 60.3965H143.4C143.463 60.3965 143.505 60.4388 143.505 60.5022V62.2996C143.505 62.5322 143.589 62.7225 143.756 62.8493C143.924 62.9551 144.155 63.0185 144.448 63.0185H144.7C144.889 63.0185 145.014 62.9762 145.098 62.9128C145.182 62.8282 145.224 62.6802 145.224 62.4687V60.5022C145.224 60.4388 145.245 60.3965 145.329 60.3965H146C146.063 60.3965 146.105 60.4388 146.105 60.5022V62.3418C146.105 62.5744 146.189 62.7436 146.377 62.8493C146.545 62.9762 146.776 63.0185 147.069 63.0185H147.3C147.489 63.0185 147.614 62.9762 147.698 62.9128C147.782 62.8282 147.824 62.6802 147.824 62.4687V59.5929C147.824 59.5084 147.845 59.4872 147.929 59.4872H148.6C148.684 59.4872 148.705 59.5084 148.705 59.5929V62.2996C148.705 62.5322 148.789 62.7225 148.977 62.8493C149.145 62.9551 149.376 63.0185 149.669 63.0185H149.711H149.774H149.795H150.885H150.906H152.06H152.081H153.234H153.255ZM145.937 58.43C145.853 58.43 145.811 58.3877 145.811 58.3242V57.5418C145.811 57.4573 145.853 57.415 145.937 57.415H146.65C146.713 57.415 146.755 57.4573 146.755 57.5418V58.3242C146.755 58.3877 146.713 58.43 146.65 58.43H145.937ZM144.637 58.43C144.553 58.43 144.532 58.3877 144.532 58.3242V57.5418C144.532 57.4573 144.553 57.415 144.637 57.415H145.35C145.434 57.415 145.455 57.4573 145.455 57.5418V58.3242C145.455 58.3877 145.434 58.43 145.35 58.43H144.637ZM145.287 57.1612C145.224 57.1612 145.182 57.1401 145.182 57.0555V56.2731C145.182 56.2097 145.224 56.1674 145.287 56.1674H146.021C146.084 56.1674 146.126 56.2097 146.126 56.2731V57.0555C146.126 57.1401 146.084 57.1612 146.021 57.1612H145.287ZM128.911 59.4872H129.855C130.4 59.4872 130.84 59.6352 131.176 59.9313C131.511 60.2485 131.679 60.7348 131.679 61.3903V62.0247C131.679 62.3841 131.658 62.6802 131.595 62.9128C131.532 63.1454 131.448 63.3357 131.322 63.4837C131.196 63.6106 131.05 63.7163 130.84 63.7797C130.651 63.8432 130.421 63.8643 130.169 63.8643H127.045H125.871H125.85H124.696H124.675H123.501H122.327H121.153H120.524C120.167 63.8643 119.895 63.8009 119.706 63.674C119.517 63.526 119.371 63.3145 119.308 62.9974C119.182 63.1242 119.014 63.23 118.804 63.2934C118.616 63.3568 118.385 63.3991 118.154 63.3991C117.882 63.3991 117.63 63.3568 117.4 63.2722C117.148 63.1877 116.938 63.0819 116.771 62.9128C116.603 62.7436 116.456 62.5533 116.372 62.2996C116.267 62.067 116.225 61.7709 116.225 61.4326C116.225 61.0308 116.267 60.6925 116.393 60.4176C116.498 60.1427 116.645 59.9313 116.833 59.7621C117.022 59.5929 117.232 59.4661 117.483 59.4026C117.714 59.3181 117.966 59.2969 118.238 59.2969H119.266V58.8317C119.266 58.7471 119.308 58.726 119.371 58.726H120.063C120.125 58.726 120.167 58.7471 120.167 58.8317V62.4687C120.167 62.6802 120.209 62.8282 120.293 62.9128C120.377 62.9762 120.503 63.0185 120.671 63.0185H121.153H122.327H123.501H124.675H124.696H125.85H125.871H127.024H127.045H129.834C130.022 63.0185 130.19 63.0185 130.316 62.9762C130.421 62.9551 130.526 62.8916 130.588 62.807C130.651 62.7436 130.693 62.6379 130.714 62.5322C130.735 62.4053 130.735 62.2573 130.735 62.067V61.3903C130.735 60.6714 130.337 60.3119 129.54 60.3119H127.821C127.758 60.3119 127.716 60.2907 127.716 60.2062V59.6141C127.716 59.5718 127.737 59.5507 127.758 59.5084C127.779 59.4661 127.8 59.4449 127.821 59.4449L130.148 56.6749C130.19 56.6326 130.232 56.6115 130.274 56.6537L130.777 57.0766C130.84 57.1189 130.861 57.1612 130.819 57.2247L128.911 59.4872ZM118.175 62.5533C118.574 62.5533 118.867 62.4264 119.035 62.1938C119.182 61.9612 119.266 61.6229 119.266 61.2V60.1216H118.238C117.903 60.1216 117.63 60.2273 117.421 60.4176C117.211 60.5868 117.106 60.9463 117.106 61.4326C117.106 61.7921 117.19 62.0881 117.379 62.2784C117.567 62.4687 117.84 62.5533 118.175 62.5533ZM118.532 57.9859C118.469 57.9859 118.427 57.9648 118.427 57.8802V57.0978C118.427 57.0344 118.469 56.9921 118.532 56.9921H119.266C119.329 56.9921 119.371 57.0344 119.371 57.0978V57.8802C119.371 57.9648 119.329 57.9859 119.266 57.9859H118.532ZM117.253 57.9859C117.169 57.9859 117.148 57.9648 117.148 57.8802V57.0978C117.148 57.0344 117.169 56.9921 117.253 56.9921H117.966C118.029 56.9921 118.071 57.0344 118.071 57.0978V57.8802C118.071 57.9648 118.029 57.9859 117.966 57.9859H117.253ZM112.22 63.7586C112.22 63.822 112.2 63.8643 112.116 63.8643H111.445C111.382 63.8643 111.34 63.822 111.34 63.7586V56.696C111.34 56.6115 111.382 56.5692 111.445 56.5692H112.116C112.2 56.5692 112.22 56.6115 112.22 56.696V63.7586ZM107.796 63.0185H108.446C108.635 63.0185 108.761 62.9762 108.845 62.9128C108.908 62.8282 108.949 62.6802 108.949 62.4687V56.696C108.949 56.6115 108.991 56.5692 109.054 56.5692H109.746C109.809 56.5692 109.851 56.6115 109.851 56.696V62.511C109.851 62.9762 109.746 63.3145 109.558 63.526C109.369 63.7586 109.054 63.8643 108.614 63.8643H107.796H107.775H106.308H105.133H105.112H103.624C103.372 63.8643 103.12 63.8432 102.89 63.8009C102.659 63.7374 102.449 63.6529 102.24 63.526C102.009 63.6529 101.757 63.7374 101.506 63.8009C101.233 63.8432 101.003 63.8643 100.793 63.8643H99.6607H98.4865H97.6058H96.7252H95.551H94.1252C93.8735 63.8643 93.6429 63.8432 93.4122 63.822C93.1816 63.8009 92.9719 63.7374 92.7622 63.6106C92.5316 63.7374 92.28 63.8009 92.0074 63.822C91.7558 63.8432 91.5042 63.8643 91.3154 63.8643H90.0364H90.0154H88.8622H88.8412H87.667H86.1993H86.1783H85.0041H83.8299H82.6557H82.0895H82.0686H80.8944H80.2653C79.825 63.8643 79.4895 63.7586 79.3008 63.526C79.1121 63.3145 79.0282 62.9762 79.0282 62.511V56.696C79.0282 56.6115 79.0492 56.5692 79.1331 56.5692H79.804C79.8879 56.5692 79.9089 56.6115 79.9089 56.696V62.4687C79.9089 62.6802 79.9508 62.8282 80.0347 62.9128C80.1186 62.9762 80.2444 63.0185 80.4331 63.0185H80.8944H82.0686H82.0895H82.6557H83.8299H85.0041H86.1783H86.1993H87.667H88.8412H88.8622H90.0154H90.0364H91.588C91.2945 62.8282 91.0638 62.5533 90.8961 62.2573C90.7283 61.9401 90.6445 61.6018 90.6445 61.2423C90.6445 60.9463 90.6864 60.6925 90.7703 60.4599C90.8541 60.2062 90.98 60.0159 91.1687 59.8256C91.3364 59.6564 91.5461 59.5295 91.8187 59.4238C92.0703 59.3392 92.3848 59.2969 92.7413 59.2969C93.1187 59.2969 93.4122 59.3392 93.6848 59.4238C93.9364 59.5295 94.1671 59.6564 94.3348 59.8256C94.5026 60.0159 94.6493 60.2062 94.7332 60.4599C94.8171 60.6925 94.859 60.9463 94.859 61.2423C94.859 61.6018 94.7752 61.9401 94.6074 62.2573C94.4397 62.5744 94.209 62.8282 93.9155 63.0396C93.9364 63.0396 93.9993 63.0185 94.0622 63.0185H95.551H96.7252H97.6058H98.4865H99.6397H99.6607H100.73C100.814 63.0185 100.94 63.0185 101.087 63.0185C101.233 62.9974 101.422 62.9551 101.632 62.9128C101.569 62.6167 101.485 62.3841 101.401 62.1727C101.296 61.9824 101.191 61.8132 101.066 61.6441C100.94 61.496 100.793 61.3692 100.646 61.2423C100.499 61.1366 100.332 61.0097 100.185 60.904C100.122 60.8617 100.08 60.8194 100.059 60.7982C100.038 60.7559 100.038 60.7348 100.038 60.6925V60.0581C100.038 59.9524 100.059 59.8678 100.143 59.8256C100.227 59.7833 100.332 59.7198 100.478 59.6564C100.604 59.5929 100.772 59.5295 100.961 59.4872C101.128 59.4238 101.338 59.3815 101.548 59.3392C101.778 59.2969 102.009 59.2969 102.24 59.2969C102.995 59.2969 103.561 59.4449 103.917 59.741C104.274 60.037 104.462 60.4388 104.462 60.9674C104.462 61.1789 104.42 61.4114 104.358 61.6229C104.274 61.8344 104.19 62.0247 104.064 62.1938C103.938 62.363 103.812 62.5322 103.666 62.659C103.519 62.807 103.393 62.9128 103.246 62.9974C103.288 63.0185 103.351 63.0185 103.393 63.0185C103.456 63.0185 103.498 63.0185 103.561 63.0185H105.112H105.133H106.308H107.775H107.796ZM102.24 60.1216C101.925 60.1216 101.653 60.1639 101.401 60.2273C101.17 60.2907 101.003 60.3542 100.919 60.3965C101.296 60.6079 101.611 60.904 101.883 61.2634C102.156 61.6441 102.345 62.0881 102.47 62.5956C102.575 62.5322 102.701 62.4264 102.827 62.3207C102.953 62.215 103.078 62.0881 103.162 61.9612C103.267 61.8344 103.351 61.6863 103.435 61.5172C103.498 61.3692 103.519 61.2 103.519 61.0308C103.519 60.8405 103.498 60.6925 103.435 60.5868C103.351 60.4599 103.267 60.3753 103.162 60.3119C103.037 60.2485 102.911 60.185 102.743 60.1639C102.596 60.1427 102.428 60.1216 102.24 60.1216ZM92.7413 60.1216C92.4058 60.1216 92.1332 60.2273 91.9025 60.4176C91.6929 60.6291 91.588 60.904 91.588 61.2846C91.588 61.6863 91.6929 62.0035 91.9235 62.2573C92.1542 62.511 92.4267 62.7225 92.7413 62.8493C93.0768 62.7225 93.3493 62.511 93.58 62.2573C93.8106 62.0035 93.9155 61.6863 93.9155 61.2846C93.9155 60.904 93.8106 60.6291 93.58 60.4176C93.3703 60.2273 93.0977 60.1216 92.7413 60.1216ZM93.0348 58.43C92.9719 58.43 92.93 58.3877 92.93 58.3242V57.5418C92.93 57.4573 92.9719 57.415 93.0348 57.415H93.7687C93.8316 57.415 93.8735 57.4573 93.8735 57.5418V58.3242C93.8735 58.3877 93.8316 58.43 93.7687 58.43H93.0348ZM91.7348 58.43C91.6719 58.43 91.63 58.3877 91.63 58.3242V57.5418C91.63 57.4573 91.6719 57.415 91.7348 57.415H92.4687C92.5316 57.415 92.5735 57.4573 92.5735 57.5418V58.3242C92.5735 58.3877 92.5316 58.43 92.4687 58.43H91.7348ZM75.5895 66C75.5266 66 75.4846 65.9577 75.4846 65.8943V65.2599C75.4846 65.1965 75.5266 65.1542 75.5895 65.1542H75.8411C76.4072 65.1542 76.7008 64.8581 76.7008 64.2449V59.5929C76.7008 59.5084 76.7217 59.4872 76.8056 59.4872H77.4766C77.5605 59.4872 77.5814 59.5084 77.5814 59.5929V64.2238C77.5814 64.7947 77.4347 65.2388 77.1621 65.5348C76.8685 65.852 76.4282 66 75.883 66H75.5895ZM72.2556 63.0185H72.9894C73.1572 63.0185 73.283 62.9762 73.3669 62.9128C73.4507 62.8282 73.4927 62.6802 73.4927 62.4687V59.5929C73.4927 59.5084 73.5346 59.4872 73.5975 59.4872H74.2895C74.3524 59.4872 74.3943 59.5084 74.3943 59.5929V62.511C74.3943 62.9762 74.2895 63.3145 74.1008 63.526C73.912 63.7586 73.5975 63.8643 73.1362 63.8643H72.2556H71.0814H70.2007H69.0265H67.2442H66.07H66.0491H64.8958H64.8749H63.7006H63.0716C62.7361 63.8643 62.4635 63.8009 62.2539 63.674C62.0651 63.526 61.9393 63.3145 61.8764 62.9974C61.7297 63.1242 61.5619 63.23 61.3732 63.2934C61.1635 63.3568 60.9538 63.3991 60.7232 63.3991C60.4296 63.3991 60.178 63.3568 59.9474 63.2722C59.7167 63.1877 59.5071 63.0819 59.3393 62.9128C59.1506 62.7436 59.0248 62.5533 58.92 62.2996C58.8151 62.067 58.7732 61.7709 58.7732 61.4326C58.7732 61.0308 58.8361 60.6925 58.9409 60.4176C59.0458 60.1427 59.2135 59.9313 59.3812 59.7621C59.57 59.5929 59.7796 59.4661 60.0313 59.4026C60.2829 59.3181 60.5345 59.2969 60.7861 59.2969H61.8345V58.8317C61.8345 58.7471 61.8764 58.726 61.9393 58.726H62.6103C62.6942 58.726 62.7152 58.7471 62.7152 58.8317V62.4687C62.7152 62.6802 62.7571 62.8282 62.841 62.9128C62.9248 62.9762 63.0506 63.0185 63.2394 63.0185H63.7006H64.8749H64.8958H66.0491H66.07H67.2442H69.0265H70.2007H71.0814H72.2556ZM73.7024 65.852C73.6395 65.852 73.5975 65.8097 73.5975 65.7463V64.9639C73.5975 64.9004 73.6395 64.8581 73.7024 64.8581H74.4362C74.4991 64.8581 74.5411 64.9004 74.5411 64.9639V65.7463C74.5411 65.8097 74.4991 65.852 74.4362 65.852H73.7024ZM72.4024 65.852C72.3394 65.852 72.2975 65.8097 72.2975 65.7463V64.9639C72.2975 64.9004 72.3394 64.8581 72.4024 64.8581H73.1362C73.1991 64.8581 73.2411 64.9004 73.2411 64.9639V65.7463C73.2411 65.8097 73.1991 65.852 73.1362 65.852H72.4024ZM60.7232 62.5533C61.1216 62.5533 61.4151 62.4264 61.5829 62.1938C61.7506 61.9612 61.8345 61.6229 61.8345 61.2V60.1216H60.7861C60.4506 60.1216 60.178 60.2273 59.9683 60.4176C59.7587 60.5868 59.6748 60.9463 59.6748 61.4326C59.6748 61.7921 59.7587 62.0881 59.9474 62.2784C60.1151 62.4687 60.3877 62.5533 60.7232 62.5533ZM61.1006 57.9859C61.0377 57.9859 60.9958 57.9648 60.9958 57.8802V57.0978C60.9958 57.0344 61.0377 56.9921 61.1006 56.9921H61.8135C61.8974 56.9921 61.9184 57.0344 61.9184 57.0978V57.8802C61.9184 57.9648 61.8974 57.9859 61.8135 57.9859H61.1006ZM59.8006 57.9859C59.7377 57.9859 59.6958 57.9648 59.6958 57.8802V57.0978C59.6958 57.0344 59.7377 56.9921 59.8006 56.9921H60.5345C60.5974 56.9921 60.6393 57.0344 60.6393 57.0978V57.8802C60.6393 57.9648 60.5974 57.9859 60.5345 57.9859H59.8006ZM54.7893 63.7586C54.7893 63.822 54.7473 63.8643 54.6844 63.8643H53.9925C53.9296 63.8643 53.8876 63.822 53.8876 63.7586V56.696C53.8876 56.6115 53.9296 56.5692 53.9925 56.5692H54.6844C54.7473 56.5692 54.7893 56.6115 54.7893 56.696V63.7586ZM50.3441 63.0185H51.015C51.1828 63.0185 51.3086 62.9762 51.3925 62.9128C51.4763 62.8282 51.5183 62.6802 51.5183 62.4687V56.696C51.5183 56.6115 51.5602 56.5692 51.6231 56.5692H52.2941C52.378 56.5692 52.3989 56.6115 52.3989 56.696V62.511C52.3989 62.9762 52.315 63.3145 52.1263 63.526C51.9376 63.7586 51.6021 63.8643 51.1618 63.8643H50.3441H50.3231H48.8973H47.4295H47.4085H46.2343H46.0037C45.794 63.8643 45.5843 63.822 45.4166 63.7163C45.2488 63.6317 45.123 63.4837 45.0182 63.3145C44.8505 63.674 44.473 63.8643 43.9279 63.8643H43.4037C43.173 63.8643 42.9843 63.822 42.8166 63.7163C42.6488 63.6317 42.523 63.4837 42.4182 63.3145C42.2504 63.674 41.873 63.8643 41.3069 63.8643H40.8036C40.573 63.8643 40.3843 63.822 40.2165 63.7163C40.0488 63.6317 39.902 63.4837 39.8181 63.3145C39.6504 63.674 39.273 63.8643 38.7068 63.8643H37.5746H37.5536H36.673H36.652H36.0858H34.5762C34.3245 63.8643 34.0729 63.8432 33.8632 63.8009C33.6326 63.7374 33.402 63.6529 33.1923 63.526C32.9616 63.6529 32.71 63.7374 32.4584 63.8009C32.1858 63.8432 31.9552 63.8643 31.7455 63.8643H30.3197H29.1455H29.1245H27.9713H27.9503H26.7761H26.7551H26.0212V64.1181C26.0212 64.4564 25.9793 64.7313 25.8954 64.985C25.8116 65.2176 25.6857 65.4079 25.518 65.5559C25.3712 65.704 25.1825 65.8097 24.9519 65.8943C24.7212 65.9577 24.4696 66 24.197 66H22.876C22.8131 66 22.7712 65.9577 22.7712 65.8943V65.2599C22.7712 65.1965 22.8131 65.1542 22.876 65.1542H24.1551C24.3019 65.1542 24.4277 65.133 24.5535 65.1119C24.6583 65.0696 24.7632 65.0273 24.868 64.9427C24.9519 64.8793 25.0148 64.7736 25.0567 64.6467C25.1196 64.4987 25.1406 64.3295 25.1406 64.1392V63.8643H24.0083C23.6938 63.8643 23.4002 63.822 23.1486 63.7586C22.897 63.674 22.6873 63.5471 22.5196 63.378C22.3309 63.2088 22.2051 62.9974 22.1212 62.7225C22.0164 62.4476 21.9744 62.0881 21.9744 61.6863C21.9744 61.2846 22.0373 60.9251 22.1422 60.6291C22.247 60.3119 22.3938 60.0581 22.5825 59.8678C22.7712 59.6775 22.9809 59.5295 23.2325 59.4238C23.4841 59.3392 23.7567 59.2969 24.0293 59.2969C24.6583 59.2969 25.1406 59.4661 25.497 59.8467C25.8535 60.2062 26.0212 60.7982 26.0212 61.6229V63.0185H26.7551H26.7761H27.9503H27.9713H29.1245H29.1455H30.2987H30.3197H31.6826C31.7665 63.0185 31.8923 63.0185 32.039 63.0185C32.2068 62.9974 32.3745 62.9551 32.5842 62.9128C32.5213 62.6167 32.4584 62.3841 32.3536 62.1727C32.2697 61.9824 32.1439 61.8132 32.0181 61.6441C31.8923 61.496 31.7455 61.3692 31.5987 61.2423C31.4519 61.1366 31.3052 61.0097 31.1374 60.904C31.0745 60.8617 31.0326 60.8194 31.0116 60.7982C30.9906 60.7559 30.9906 60.7348 30.9906 60.6925V60.0581C30.9906 59.9524 31.0326 59.8678 31.0955 59.8256C31.1793 59.7833 31.2842 59.7198 31.431 59.6564C31.5777 59.5929 31.7245 59.5295 31.9132 59.4872C32.081 59.4238 32.2906 59.3815 32.5003 59.3392C32.731 59.2969 32.9616 59.2969 33.1923 59.2969C33.9471 59.2969 34.5133 59.4449 34.8697 59.741C35.2471 60.037 35.4149 60.4388 35.4149 60.9674C35.4149 61.1789 35.3729 61.4114 35.31 61.6229C35.2262 61.8344 35.1423 62.0247 35.0165 62.1938C34.9116 62.363 34.7649 62.5322 34.6181 62.659C34.4923 62.807 34.3455 62.9128 34.1987 62.9974C34.2407 63.0185 34.3036 63.0185 34.3455 63.0185C34.4084 63.0185 34.4503 63.0185 34.5133 63.0185H36.0858H36.652H36.673H37.5536H37.5746H38.5601C38.7278 63.0185 38.8536 62.9762 38.9375 62.9128C39.0214 62.8282 39.0633 62.6802 39.0633 62.4687V60.5022C39.0633 60.4388 39.1052 60.3965 39.1681 60.3965H39.8601C39.923 60.3965 39.9649 60.4388 39.9649 60.5022V62.2996C39.9649 62.5322 40.0488 62.7225 40.2165 62.8493C40.3843 62.9551 40.6149 63.0185 40.8875 63.0185H41.1601C41.3278 63.0185 41.4536 62.9762 41.5375 62.9128C41.6214 62.8282 41.6633 62.6802 41.6633 62.4687V60.5022C41.6633 60.4388 41.7053 60.3965 41.7682 60.3965H42.4601C42.523 60.3965 42.5649 60.4388 42.5649 60.5022V62.3418C42.5649 62.5744 42.6488 62.7436 42.8166 62.8493C43.0053 62.9762 43.2359 63.0185 43.5085 63.0185H43.7601C43.9279 63.0185 44.0746 62.9762 44.1375 62.9128C44.2214 62.8282 44.2634 62.6802 44.2634 62.4687V59.5929C44.2634 59.5084 44.3053 59.4872 44.3682 59.4872H45.0601C45.123 59.4872 45.165 59.5084 45.165 59.5929V62.2996C45.165 62.5322 45.2488 62.7225 45.4166 62.8493C45.5843 62.9551 45.8359 63.0185 46.1085 63.0185H46.2343H47.4085H47.4295H48.8973H50.3231H50.3441ZM33.1923 60.1216C32.8778 60.1216 32.6052 60.1639 32.3536 60.2273C32.1229 60.2907 31.9552 60.3542 31.8923 60.3965C32.2487 60.6079 32.5632 60.904 32.8358 61.2634C33.1084 61.6441 33.2971 62.0881 33.4229 62.5956C33.5278 62.5322 33.6536 62.4264 33.7794 62.3207C33.9052 62.215 34.031 62.0881 34.1358 61.9612C34.2407 61.8344 34.3245 61.6863 34.3874 61.5172C34.4503 61.3692 34.4923 61.2 34.4923 61.0308C34.4923 60.8405 34.4503 60.6925 34.3874 60.5868C34.3245 60.4599 34.2197 60.3753 34.1149 60.3119C34.01 60.2485 33.8632 60.185 33.6955 60.1639C33.5487 60.1427 33.381 60.1216 33.1923 60.1216ZM24.0293 60.1216C23.6728 60.1216 23.3793 60.2696 23.1696 60.5445C22.9809 60.8405 22.876 61.2211 22.876 61.6863C22.876 62.1938 22.9599 62.5533 23.1696 62.7436C23.3793 62.9339 23.6728 63.0185 24.0712 63.0185H25.1406V61.6229C25.1406 61.1577 25.0567 60.7771 24.889 60.5233C24.7003 60.2485 24.4277 60.1216 24.0293 60.1216ZM20.8002 62.0247C20.8002 62.3841 20.7792 62.6802 20.7163 62.9128C20.6534 63.1454 20.5696 63.3357 20.4438 63.4837C20.3179 63.6106 20.1502 63.7163 19.9615 63.7797C19.7728 63.8432 19.5421 63.8643 19.2696 63.8643H16.9211C16.8582 63.8643 16.8163 63.822 16.8163 63.7586V63.1242C16.8163 63.0608 16.8582 63.0185 16.9211 63.0185H18.955C19.1437 63.0185 19.3115 63.0185 19.4163 62.9762C19.5421 62.9551 19.647 62.8916 19.7099 62.807C19.7728 62.7436 19.8147 62.6379 19.8357 62.5322C19.8567 62.4053 19.8567 62.2573 19.8567 62.067V61.2C19.8567 60.4811 19.4583 60.1216 18.6405 60.1216H17.4244C17.3405 60.1216 17.3195 60.0793 17.3195 60.0159V59.4026C17.3195 59.3181 17.3405 59.2969 17.4244 59.2969H18.976C19.5212 59.2969 19.9615 59.4449 20.297 59.741C20.6325 60.0581 20.8002 60.5445 20.8002 61.2V62.0247ZM15.034 65.852C14.9502 65.852 14.9292 65.8097 14.9292 65.7463V64.9639C14.9292 64.9004 14.9502 64.8581 15.034 64.8581H15.7469C15.8308 64.8581 15.8518 64.9004 15.8518 64.9639V65.7463C15.8518 65.8097 15.8308 65.852 15.7469 65.852H15.034ZM13.734 65.852C13.6711 65.852 13.6292 65.8097 13.6292 65.7463V64.9639C13.6292 64.9004 13.6711 64.8581 13.734 64.8581H14.4469C14.5308 64.8581 14.5518 64.9004 14.5518 64.9639V65.7463C14.5518 65.8097 14.5308 65.852 14.4469 65.852H13.734ZM3.22906 62.5533C3.62746 62.5533 3.92101 62.4264 4.08875 62.1938C4.25649 61.9612 4.34037 61.6229 4.34037 61.2V60.1216H3.29197C2.95648 60.1216 2.6839 60.2273 2.47422 60.4176C2.26454 60.5868 2.1597 60.9463 2.1597 61.4326C2.1597 61.7921 2.26454 62.0881 2.45325 62.2784C2.62099 62.4687 2.89358 62.5533 3.22906 62.5533ZM3.60649 57.9859C3.52262 57.9859 3.50165 57.9648 3.50165 57.8802V57.0978C3.50165 57.0344 3.52262 56.9921 3.60649 56.9921H4.3194C4.40327 56.9921 4.42424 57.0344 4.42424 57.0978V57.8802C4.42424 57.9648 4.40327 57.9859 4.3194 57.9859H3.60649ZM2.30647 57.9859C2.24357 57.9859 2.20164 57.9648 2.20164 57.8802V57.0978C2.20164 57.0344 2.24357 56.9921 2.30647 56.9921H3.01939C3.10326 56.9921 3.14519 57.0344 3.14519 57.0978V57.8802C3.14519 57.9648 3.10326 57.9859 3.01939 57.9859H2.30647ZM58.8361 40.6678V40.2449C59.6538 40.2449 60.0522 39.97 60.0522 39.4203C60.0522 39.2511 60.0103 39.0608 59.9474 38.8705L58.6474 35.0009H54.1602L53.2376 37.8132C53.007 38.511 52.8812 39.0185 52.8812 39.3357C52.8812 39.9278 53.2376 40.2449 53.9715 40.2449V40.6678H50.386V40.2449C50.8892 40.1815 51.3086 40.0123 51.5812 39.7374C51.8747 39.4626 52.1683 38.9128 52.4409 38.0458L56.278 26.5216H57.7248L61.7506 38.5744C61.9813 39.2722 62.2329 39.7374 62.4845 39.9489C62.7361 40.1604 63.1555 40.2449 63.7216 40.2449V40.6678H58.8361ZM152.521 40.6678V40.2449C153.339 40.2449 153.737 39.97 153.737 39.4203C153.737 39.2511 153.695 39.0608 153.632 38.8705L152.332 35.0009H147.845L146.901 37.8132C146.671 38.511 146.566 39.0185 146.566 39.3357C146.566 39.9278 146.922 40.2449 147.656 40.2449V40.6678H144.071V40.2449C144.574 40.1815 144.972 40.0123 145.266 39.7374C145.539 39.4626 145.832 38.9128 146.126 38.0458L149.942 26.5216H151.41L155.414 38.5744C155.666 39.2722 155.897 39.7374 156.169 39.9489C156.421 40.1604 156.84 40.2449 157.406 40.2449V40.6678H152.521ZM148.118 34.1339H152.039L150.068 28.2132L148.118 34.1339ZM142.582 26.6696V27.0714C141.995 27.0714 141.576 27.2405 141.345 27.5577C141.114 27.896 141.009 28.467 141.009 29.3128V38.0247C141.009 38.8705 141.114 39.4414 141.345 39.7586C141.576 40.0969 141.995 40.2449 142.582 40.2449V40.6678H137.592V40.2449C138.2 40.2449 138.619 40.0969 138.829 39.7797C139.059 39.4626 139.164 38.8705 139.164 38.0247V29.3128C139.164 28.4458 139.059 27.8537 138.829 27.5577C138.619 27.2405 138.2 27.0714 137.592 27.0714V26.6696H142.582ZM127.296 34.1974H126.164V38.0247C126.164 38.8493 126.29 39.4414 126.521 39.7586C126.751 40.0969 127.15 40.2449 127.737 40.2449V40.6678H122.746V40.2449C123.375 40.2449 123.774 40.0969 124.004 39.7586C124.214 39.4414 124.319 38.8493 124.319 38.0247V29.2493C124.319 28.4247 124.214 27.8537 124.004 27.5577C123.795 27.2405 123.375 27.0714 122.746 27.0714V26.6696H128.45C129.855 26.6696 130.987 27.0079 131.826 27.6846C132.664 28.3824 133.084 29.2493 133.084 30.3278C133.084 32.0405 132.119 33.2035 130.211 33.7744C130.63 34.0282 131.05 34.4088 131.448 34.874C131.846 35.3604 132.371 36.1427 133.021 37.2423C133.755 38.4476 134.321 39.2511 134.719 39.6317C135.138 40.0123 135.558 40.2238 135.977 40.2449V40.6678H133.147C132.559 39.9489 131.867 38.9128 131.029 37.5383C130.148 36.1004 129.456 35.1912 128.953 34.7894C128.45 34.3877 127.905 34.1974 127.296 34.1974ZM127.632 27.1982H126.164V33.6053H127.884C128.89 33.6053 129.687 33.3092 130.274 32.7172C130.84 32.1251 131.134 31.3427 131.134 30.37C131.134 29.4185 130.819 28.6573 130.169 28.0863C129.519 27.4943 128.68 27.1982 127.632 27.1982ZM116.812 40.6678V40.2449C117.63 40.2449 118.029 39.97 118.029 39.4203C118.029 39.2511 117.987 39.0608 117.924 38.8705L116.624 35.0009H112.137L111.193 37.8132C110.962 38.511 110.858 39.0185 110.858 39.3357C110.858 39.9278 111.214 40.2449 111.948 40.2449V40.6678H108.362V40.2449C108.866 40.1815 109.264 40.0123 109.558 39.7374C109.83 39.4626 110.145 38.9128 110.417 38.0458L114.233 26.5216H115.701L119.706 38.5744C119.958 39.2722 120.188 39.7374 120.461 39.9489C120.713 40.1604 121.132 40.2449 121.698 40.2449V40.6678H116.812ZM112.409 34.1339H116.33L114.359 28.2132L112.409 34.1339ZM94.4606 40.6678V40.2449C95.0687 40.2449 95.4881 40.0758 95.6977 39.7586C95.9284 39.4203 96.0332 38.8493 96.0332 38.0247V29.3128C96.0332 28.467 95.9284 27.8749 95.6977 27.5577C95.4881 27.2405 95.0687 27.0714 94.4606 27.0714V26.6696H99.451V27.0714C98.8639 27.0714 98.4445 27.2405 98.2139 27.5789C97.9833 27.9172 97.8784 28.4881 97.8784 29.3128V33.5207L101.799 29.0167C102.261 28.5093 102.533 28.1498 102.533 27.8537C102.533 27.452 102.24 27.1982 101.653 27.0714V26.6696H106.895V27.0714H106.203C105.804 27.0714 105.322 27.2194 104.777 27.4943C104.232 27.7692 103.708 28.1286 103.288 28.615L99.5768 32.9075L104.714 38.7859C105.238 39.3991 105.72 39.7586 106.014 39.9278C106.328 40.0969 106.748 40.2026 107.314 40.2449V40.6678H103.98L97.8784 33.7956V38.0247C97.8784 38.8493 97.9833 39.4203 98.2139 39.7586C98.4236 40.0758 98.8429 40.2449 99.451 40.2449V40.6678H94.4606ZM88.7154 40.6678V40.2449C89.5122 40.2449 89.9106 39.97 89.9106 39.4203C89.9106 39.2511 89.8687 39.0608 89.8057 38.8705L88.5057 35.0009H84.0186L83.096 37.8132C82.8654 38.511 82.7395 39.0185 82.7395 39.3357C82.7395 39.9278 83.096 40.2449 83.8299 40.2449V40.6678H80.2444V40.2449C80.7686 40.1815 81.167 40.0123 81.4395 39.7374C81.7331 39.4626 82.0266 38.9128 82.3202 38.0458L86.1364 26.5216H87.5831L91.609 38.5744C91.8396 39.2722 92.0913 39.7374 92.3429 39.9489C92.5945 40.1604 93.0138 40.2449 93.58 40.2449V40.6678H88.7154ZM84.2912 34.1339H88.2332L86.2412 28.2132L84.2912 34.1339ZM74.2895 37.6018H74.7088L74.1427 40.6678H64.6861V40.2449C65.2732 40.2449 65.6716 40.0758 65.9023 39.7163C66.1539 39.3568 66.2797 38.7648 66.2797 37.9189V29.1013C66.2797 28.3401 66.1539 27.8115 65.9232 27.5154C65.7136 27.2194 65.2942 27.0714 64.6861 27.0714V26.6696H69.6975V27.0714C69.1313 27.0714 68.733 27.2405 68.4813 27.5789C68.2297 27.9383 68.1249 28.4881 68.1249 29.2916V38.6379C68.1249 39.1454 68.2297 39.5048 68.4394 39.6952C68.6491 39.8855 69.0684 39.9912 69.6975 39.9912H71.5427C72.4024 39.9912 72.9894 39.822 73.3249 39.526C73.6604 39.23 73.9959 38.5956 74.2895 37.6018ZM54.4328 34.1339H58.3748L56.3828 28.2132L54.4328 34.1339ZM53.5941 13.052C53.5941 14.1727 53.8247 15.0819 54.307 15.7797C54.8522 16.6255 55.649 17.0485 56.6973 17.0485C57.7457 17.0485 58.5425 16.6467 59.0667 15.8009C59.528 15.1031 59.7587 14.1938 59.7587 13.052C59.7587 11.9101 59.528 11.0009 59.0667 10.2819C58.5216 9.45727 57.7248 9.03436 56.6764 9.03436C55.628 9.03436 54.8312 9.45727 54.286 10.3031C53.8247 11.022 53.5941 11.9313 53.5941 13.052ZM152.898 18.4441V18.2749C153.59 18.0634 154.031 17.4925 154.198 16.541C154.24 16.2449 154.282 15.4414 154.282 14.1727V3.30396C154.282 2.56388 154.24 2.07753 154.156 1.86608C154.01 1.40088 153.653 1.16828 153.087 1.12599V0.956828C154.073 0.872247 155.163 0.597357 156.379 0.174449C156.316 1.35859 156.274 2.73304 156.274 4.25551V14.0881C156.274 15.4626 156.4 16.2872 156.421 16.4987C156.568 17.4925 157.008 18.0846 157.7 18.2749V18.4441C156.903 18.4018 156.127 18.3806 155.373 18.3806C154.387 18.3806 153.569 18.4018 152.898 18.4441ZM148.097 17.3233C147.468 16.9639 147.153 16.2026 147.153 15.0396V3.30396C147.153 2.56388 147.111 2.07753 147.048 1.86608C146.901 1.40088 146.545 1.16828 145.979 1.12599V0.956828C146.943 0.872247 148.055 0.597357 149.271 0.174449C149.187 1.35859 149.145 2.73304 149.145 4.25551V14.0881C149.145 15.0608 149.208 15.8643 149.313 16.4987C149.46 17.4502 149.858 18.0846 150.487 18.3806C133.042 18.3806 115.596 18.3806 98.13 18.3806C97.1445 18.3806 96.3268 18.3806 95.6768 18.3806L95.6558 18.2749C96.3687 18.0634 96.7881 17.4925 96.9558 16.541C97.0187 16.2449 97.0397 15.4414 97.0397 14.1727V3.30396C97.0397 2.56388 96.9978 2.07753 96.9349 1.86608C96.7671 1.40088 96.4107 1.16828 95.8445 1.12599V0.956828C96.83 0.872247 97.9413 0.597357 99.1575 0.174449C99.0736 1.33744 99.0526 2.71189 99.0526 4.25551V17.3233C106.58 17.3233 115.009 17.3233 122.537 17.3233C122.306 17.1753 122.096 16.985 121.908 16.7947C120.901 15.822 120.398 14.5533 120.398 12.9885C120.398 11.4449 120.943 10.1762 122.013 9.24581C123.04 8.33656 124.319 7.89251 125.892 7.89251C127.485 7.89251 128.764 8.35771 129.771 9.28811C130.819 10.2396 131.343 11.5084 131.343 13.0731C131.343 14.6167 130.84 15.8855 129.834 16.837C129.645 17.0273 129.435 17.1753 129.205 17.3233C131.595 17.3233 133.964 17.3233 136.334 17.3233C134.845 16.393 134.09 14.9974 134.09 13.1154C134.09 11.5295 134.614 10.2608 135.663 9.3304C136.669 8.42115 137.969 7.95595 139.563 7.95595C141.072 7.95595 142.372 8.33656 143.505 9.0978L143.022 11.9736L142.876 11.9524C142.268 9.73216 141.24 8.61145 139.814 8.61145C138.724 8.61145 137.801 9.0978 137.068 10.0916C136.376 11.0009 136.019 12.0159 136.019 13.1366C136.019 14.6379 136.711 16.0335 138.074 17.3233C141.429 17.3233 144.763 17.3233 148.097 17.3233ZM126.395 4.42467C126.395 4.02291 126.542 3.66344 126.835 3.38855C127.129 3.09251 127.464 2.96564 127.884 2.96564C128.303 2.96564 128.659 3.09251 128.953 3.3674C129.246 3.66344 129.393 4.00176 129.393 4.42467C129.393 4.84758 129.246 5.20705 128.953 5.48194C128.659 5.73568 128.303 5.8837 127.884 5.8837C127.464 5.8837 127.108 5.75683 126.814 5.48194C126.542 5.20705 126.395 4.86872 126.395 4.42467ZM122.642 4.42467C122.642 4.02291 122.788 3.66344 123.082 3.38855C123.375 3.09251 123.732 2.96564 124.151 2.96564C124.571 2.96564 124.927 3.09251 125.2 3.3674C125.493 3.66344 125.64 4.00176 125.64 4.42467C125.64 4.84758 125.493 5.20705 125.2 5.48194C124.927 5.73568 124.571 5.8837 124.151 5.8837C123.732 5.8837 123.375 5.75683 123.082 5.48194C122.788 5.20705 122.642 4.86872 122.642 4.42467ZM122.725 13.052C122.725 15.1242 123.187 16.541 124.151 17.3233H127.674C128.617 16.541 129.1 15.1242 129.1 13.052C129.1 11.741 128.89 10.6626 128.471 9.85903C127.925 8.78062 127.066 8.23084 125.871 8.23084C124.738 8.23084 123.879 8.78062 123.334 9.85903C122.914 10.7048 122.725 11.7621 122.725 13.052ZM90.938 17.5348V13.052C90.938 12.3119 90.8961 11.8256 90.8122 11.6141C90.6654 11.1489 90.309 10.9163 89.7428 10.874V10.7048C90.7283 10.6203 91.8396 10.3665 93.0558 9.92247C92.9509 11.2758 92.93 12.8828 92.9929 14.7225C93.0348 16.5621 92.9929 17.6828 92.9719 18.0634C92.93 19.3322 92.7203 20.3683 92.1122 21.1295C91.1896 22.3137 90.1622 22.8423 89.0928 22.7366C88.0444 22.652 87.2267 22.2502 86.6396 21.5313L87.2477 19.2687H87.3944C87.7719 21.1718 88.3799 22.1022 89.1977 22.1022C90.3299 22.1022 90.938 20.5797 90.938 17.5348ZM81.4395 17.3233C81.0202 16.9004 80.7476 16.4352 80.6218 15.9278C80.5589 15.5894 80.5169 14.9762 80.5169 14.0881V11.0643C80.5169 10.3031 80.475 9.81674 80.3911 9.56299C80.2444 9.0978 79.8669 8.84405 79.2798 8.82291V8.65374C80.7266 8.46344 82.0057 8.18855 83.096 7.85022C82.9912 9.16123 82.9492 10.5357 82.9492 11.9736V13.7075C82.9492 15.1242 82.9912 15.9912 83.0541 16.3084C83.2218 17.3868 83.6621 18.0423 84.417 18.2749L84.396 18.3806C76.4492 18.3806 67.5797 18.3806 59.6329 18.3806V16.0123C59.3393 16.689 58.857 17.1965 58.207 17.5771C57.578 17.9366 56.8861 18.1057 56.1102 18.1057C54.6635 18.1057 53.4683 17.5771 52.5667 16.541C51.665 15.5471 51.2457 14.2996 51.2457 12.8194C51.2457 11.3604 51.707 10.1551 52.6296 9.24581C53.5731 8.33656 54.7473 7.87137 56.1941 7.87137C57.578 7.87137 58.7103 8.52687 59.5909 9.85903C59.7796 9.28811 60.0522 8.69603 60.3877 8.12511H62.4426L63.2394 8.10396V8.23084C62.6732 8.35771 62.3377 8.8652 62.2329 9.77445C62.191 9.9859 62.17 10.6626 62.17 11.8467V17.3233C68.2926 17.3233 75.3169 17.3233 81.4395 17.3233ZM75.233 21.0026C75.233 20.5797 75.3798 20.2203 75.6524 19.9454C75.9459 19.6493 76.3024 19.5225 76.7217 19.5225C77.1411 19.5225 77.4976 19.6493 77.7911 19.9454C78.0637 20.2203 78.2105 20.5797 78.2105 21.0026C78.2105 21.4256 78.0637 21.7639 77.7911 22.0388C77.4976 22.3137 77.1411 22.4617 76.7217 22.4617C76.2814 22.4617 75.9459 22.3137 75.6524 22.0388C75.3798 21.785 75.233 21.4256 75.233 21.0026ZM78.6718 21.0026C78.6718 20.5797 78.8185 20.2203 79.0911 19.9454C79.3847 19.6493 79.7411 19.5225 80.1605 19.5225C80.5798 19.5225 80.9363 19.6493 81.2089 19.9454C81.5024 20.2203 81.6492 20.5797 81.6492 21.0026C81.6492 21.4256 81.5024 21.7639 81.2089 22.0388C80.9153 22.3137 80.5798 22.4617 80.1605 22.4617C79.7411 22.4617 79.3847 22.3137 79.0911 22.0388C78.8185 21.785 78.6718 21.4256 78.6718 21.0026ZM56.5296 5.03789C56.5296 4.63612 56.6764 4.27665 56.949 4.00176C57.2425 3.70573 57.599 3.57885 57.9974 3.57885C58.4377 3.57885 58.7941 3.70573 59.0667 3.98062C59.3603 4.27665 59.4861 4.61498 59.4861 5.03789C59.4861 5.48194 59.3603 5.82026 59.0667 6.09515C58.7732 6.37004 58.4167 6.49692 57.9974 6.49692C57.578 6.49692 57.2215 6.37004 56.949 6.09515C56.6554 5.82026 56.5296 5.48194 56.5296 5.03789ZM52.1683 5.03789C52.1683 4.63612 52.315 4.27665 52.6086 4.00176C52.8812 3.70573 53.2376 3.57885 53.657 3.57885C54.0764 3.57885 54.4328 3.70573 54.7264 3.98062C54.9989 4.27665 55.1457 4.61498 55.1457 5.03789C55.1457 5.48194 54.9989 5.82026 54.7054 6.09515C54.4328 6.37004 54.0764 6.49692 53.657 6.49692C53.2376 6.49692 52.8812 6.37004 52.5876 6.09515C52.315 5.82026 52.1683 5.48194 52.1683 5.03789ZM40.0907 28.9322L42.6908 26.3101C45.1021 23.8784 45.1021 19.8819 42.6908 17.4502L27.2164 1.82379C24.7841 -0.607929 20.8421 -0.607929 18.4099 1.82379L2.93551 17.4502C0.524199 19.8819 0.524199 23.8784 2.93551 26.3101L5.53554 28.9322C3.64842 26.8176 3.71133 23.5401 5.72425 21.5101L19.0389 8.08282C21.1147 5.98943 24.5115 5.98943 26.5874 8.08282L39.902 21.5101C41.9149 23.5401 41.9778 26.8176 40.0907 28.9322ZM33.2342 35.8467L35.1633 33.9013C36.652 32.4 36.652 29.9048 35.1633 28.4035L25.539 18.6978C24.0502 17.1965 21.576 17.1965 20.0873 18.6978L10.463 28.4035C8.97428 29.9048 8.97428 32.4 10.463 33.9013L12.3921 35.8467C11.2808 34.726 11.2808 32.9075 12.3921 31.7868L20.6954 23.4132C21.8486 22.2291 23.7777 22.2291 24.9519 23.4132L33.2342 31.7868C34.3455 32.9075 34.3455 34.726 33.2342 35.8467ZM28.2019 40.9216L29.4809 39.6317C30.1939 38.9128 30.1939 37.7286 29.4809 37.0308L24.1761 31.6599C23.4212 30.9198 22.2051 30.9198 21.4502 31.6599L16.1453 37.0308C15.4324 37.7286 15.4324 38.9128 16.1453 39.6317L17.4244 40.9216C16.8582 40.3507 16.8582 39.3991 17.4244 38.8282L21.7018 34.4934C22.3099 33.8802 23.3164 33.8802 23.9035 34.4934L28.2019 38.8282C28.768 39.3991 28.768 40.3507 28.2019 40.9216ZM0 50.1833H159V51.1559H0V50.1833Z" fill="#B19A7B"/>
</svg>
