<svg width="116" height="130" viewBox="0 0 116 130" fill="none" xmlns="http://www.w3.org/2000/svg">
<path d="M57.7899 79.4984C33.9355 79.4984 14.5554 60.0645 14.5554 36.2639L14.9058 30.307H21.6713V21.2235H22.426V19.7949H25.6605L26.6039 21.3583H28.302V32.8947H29.6498V34.5389H30.1619V25.2666H35.5797V27.6386H37.3587V32.113H40.4045V27.7734H44.5015L45.9301 29.6332V34.5658H54.2859V35.8057H44.6632V30.0375L43.8546 28.9863H41.6713V34.8084H39.9732V33.3259H36.1457V28.8515H34.3667V26.4526H31.4287V35.7518H28.4368V34.1076H27.0891V22.5712H25.957L25.0136 21.0079H23.7198V22.4364H22.9651V31.5469H16.1457L15.9031 36.3178C15.9031 59.4175 34.7441 78.2585 57.8977 78.2585C80.9974 78.2585 99.8384 59.5254 99.8923 36.4796H95.4988V29.1211H92.9112V25.3205H89.9732V23.6763H86.3344V24.8084L85.5797 25.617V32.4364H81.8869V27.396L80.9435 26.3448H79.0029V24.6197H76.7387V35.7787H73.019V31.6278H69.6767V35.7787H60.8357V34.5389H68.4099V30.3879H74.232V34.5389H75.4718V23.3798H80.2966V25.1049H81.6444L83.2346 26.8839V31.2235H84.3667V25.1318L85.1214 24.3232V22.4364H91.24V24.0806H94.178V27.8812H96.7117V35.2397H100.997V36.3448C101.051 60.1453 81.6174 79.4984 57.7899 79.4984Z" fill="#81BD41"/>
<path d="M41.4287 62.1399C41.0783 62.1399 40.7278 62.2208 40.3774 62.3825C39.4879 63.0294 39.1915 64.2693 39.7305 65.2127C39.9731 65.6709 40.4314 65.9674 41.0783 66.1561C41.2939 66.1561 41.4556 66.21 41.7251 66.21C44.3667 66.21 46.7117 64.5658 48.6524 63.0294L49.0028 62.7329L49.2454 63.1103C50.1349 64.5928 51.6982 65.6979 53.3424 65.9944H53.6928C54.8249 65.9944 56.1456 65.4553 56.3882 64.2154C56.5499 63.3259 56.0109 62.3286 55.1483 61.9243C54.6362 61.7087 53.9623 61.7087 53.0459 62.1399C52.8303 62.2208 52.7494 62.4904 52.6685 62.8947C52.5877 63.272 52.426 63.9459 51.7791 63.9459C51.2669 63.9459 50.5931 63.5685 50.2966 63.0564C50.1349 62.7599 50.1349 62.4634 50.2966 62.2208C51.6443 60.1992 53.4233 58.7168 55.1214 57.396C55.93 56.7491 56.7117 56.1022 57.4664 55.4014L57.7629 55.1588L58.0594 55.4014C58.8141 56.1022 59.6227 56.7491 60.4044 57.3421C62.1834 58.7707 64.0971 60.2262 65.2292 62.4095C65.2831 62.4903 65.3909 62.706 65.2831 62.9216C65.1214 63.299 64.3936 63.9728 63.8545 64.0267C63.5041 64.0806 63.3154 63.9728 63.2076 63.865C62.992 63.6494 62.992 63.3529 62.992 63.1642C62.992 63.0025 62.992 62.8138 62.9381 62.706C62.6955 62.1939 62.1295 62.0591 61.5904 61.8974C60.5931 61.6548 59.434 62.4364 59.1915 63.5416C59.1106 64.0537 59.1915 64.5389 59.434 64.9701C60.027 65.7248 60.7817 66.1022 61.6712 66.1022C63.4502 66.1022 65.3909 64.6197 66.3074 63.1642L66.5499 62.7868L66.9003 63.0833C68.6793 64.5119 71.0513 66.1292 73.3693 66.1292C74.0162 66.1292 74.6092 66.0483 75.2292 65.7787C75.6066 65.5631 75.9839 65.1858 76.1187 64.6736C76.2804 64.1345 76.1726 63.5685 75.8761 63.1103C75.4987 62.5173 74.8249 62.2208 74.151 62.2208C73.4502 62.2208 72.7494 62.5712 72.426 63.1103L72.2103 63.4068L71.9138 63.3259C70.7278 62.8677 69.2184 62.1939 68.4907 60.8731C68.1942 60.4149 68.3289 59.768 68.5715 59.3097C68.8141 58.8515 69.0836 58.7707 69.2723 58.7707C69.3532 58.7707 69.4879 58.7707 69.5149 58.8246C70.1079 59.175 70.7009 59.3637 71.24 59.3637C72.2373 59.3637 73.0189 58.7707 73.2615 57.7734C73.3424 57.2612 73.2615 56.7761 72.965 56.2909C72.6685 55.8327 72.1564 55.4823 71.6173 55.3475H71.2669C70.3235 55.3475 69.3801 55.8057 68.7871 56.5335C68.4098 56.9917 68.2481 57.5847 68.0324 58.1777C67.8707 58.7168 67.682 59.2289 67.3855 59.741L67.1429 60.1184L59.6766 53.1912L59.9731 52.8947C68.0324 45.1319 78.895 42.3825 87.7629 41.5739C86.6308 41.493 85.4718 41.4122 84.3397 41.4122C74.5284 41.4122 65.2831 44.8084 58.275 50.927L58.0324 51.1426L57.7898 50.927C54.151 48.2316 49.2184 44.8893 43.558 43.2451C38.275 41.6817 32.992 41.0887 27.9246 41.547C36.7925 42.3556 47.6551 45.0779 55.7683 52.8947L56.0648 53.1912L48.5985 60.1184L48.3559 59.741C48.0055 59.2289 47.8437 58.6898 47.709 58.1777C47.4933 57.5847 47.3586 57.0456 46.9543 56.5335C46.4152 55.9944 45.8491 55.6979 45.0675 55.4014C43.8815 55.1588 42.7764 55.8596 42.5338 57.0456C42.372 57.9351 42.9111 58.9054 43.7737 59.3367C43.8545 59.3906 44.0702 59.3906 44.2858 59.3906C44.8249 59.3906 45.3909 59.148 45.93 58.9324L46.1726 58.8515C46.2534 58.7976 46.3343 58.7976 46.4152 58.7976C46.7656 58.7976 47.0621 59.0402 47.2507 59.3906C47.4933 59.8488 47.6012 60.4418 47.3047 60.8731C46.5499 62.1669 45.0675 62.8138 43.8815 63.3259L43.585 63.4068L43.3694 63.1642C42.8303 62.5173 42.1295 62.1399 41.4287 62.1399ZM41.7251 67.0456C41.4826 67.0456 41.213 67.0456 40.9165 66.9917C39.9192 66.7491 39.3262 66.2909 38.9758 65.644C38.2211 64.3502 38.6254 62.6521 39.9192 61.7087C41.213 60.954 42.7494 61.3313 43.7198 62.3556C44.7171 61.9782 45.9031 61.3583 46.4691 60.361C46.523 60.3071 46.523 60.1184 46.4691 59.9027C46.4152 59.6871 46.3074 59.5523 46.2535 59.5254L46.0378 59.6063C45.4448 59.8488 44.7979 60.1184 44.0432 60.1184C43.7467 60.1184 43.5041 60.0645 43.2346 59.9567C42.0486 59.3637 41.3478 58.016 41.5095 56.7761C41.806 55.3475 42.9381 54.3771 44.3397 54.3771C44.5823 54.3771 44.8518 54.431 45.0405 54.458H45.0944C45.9839 54.8084 46.6578 55.1588 47.3316 55.8596C47.8438 56.4526 48.0863 57.1534 48.275 57.8003C48.3559 58.0968 48.4907 58.4472 48.6254 58.6898L54.7171 53.0564C45.4448 44.4041 32.6686 42.2478 23.4772 42.0052L19.6766 41.9243L23.3424 41.2235C29.8114 39.9836 36.6847 40.334 43.585 42.3556C49.2184 43.9998 54.151 47.2882 57.8168 49.9567C64.9596 43.8381 74.2588 40.4418 84.178 40.4418C86.8195 40.4418 89.461 40.6844 91.9947 41.1965L95.7952 41.8974L91.9138 41.9782C82.7494 42.2208 69.9462 44.3771 60.6739 53.0294L66.7656 58.6629C66.9273 58.3664 66.9812 58.0699 67.116 57.7734C67.3316 57.1265 67.4933 56.4257 68.0055 55.8327C68.841 54.7815 70.2966 54.1885 71.6443 54.4041C72.399 54.6197 73.0729 55.051 73.5041 55.644C73.9623 56.2909 74.0971 57.0726 73.9623 57.8003C73.6119 59.148 72.5338 59.9836 71.1322 59.9836C70.4853 59.9836 69.7844 59.768 69.1915 59.4445C69.1106 59.6601 68.9758 60.0375 69.1106 60.1992C69.6497 61.1966 70.8357 61.7895 71.8599 62.1938C72.399 61.5469 73.2076 61.1965 74.0971 61.1965C75.0944 61.1965 75.9839 61.7087 76.5499 62.4904C77.0082 63.1373 77.1429 63.9189 76.9003 64.7275C76.6847 65.4823 76.1995 66.0752 75.5526 66.3178C74.8518 66.6143 74.151 66.7761 73.3963 66.7761C70.9435 66.7761 68.5715 65.2127 66.7656 63.8381C65.6335 65.3205 63.6389 66.7761 61.6982 66.7761C60.5661 66.7761 59.5149 66.2639 58.7602 65.2936C58.302 64.6467 58.1672 63.865 58.3828 63.1372C58.7332 61.7895 59.9462 60.7922 61.1591 60.7922C61.3747 60.7922 61.5365 60.8461 61.7521 60.8731C62.4529 61.0348 63.2346 61.2235 63.6389 62.0591C63.8545 62.3017 63.8006 62.706 63.8006 62.9486C64.0163 62.8946 64.3128 62.6521 64.4475 62.4364C63.3424 60.4418 61.6712 59.148 59.8653 57.6925C59.1645 57.1534 58.4367 56.5874 57.7629 55.9674C57.0621 56.6143 56.3613 57.1534 55.6605 57.7464C53.9354 59.148 52.2642 60.4957 51.0243 62.4364C51.0782 62.5982 51.5365 62.8946 51.7791 62.9486C51.833 62.8677 51.8599 62.6521 51.9408 62.5712C52.0216 62.113 52.1834 61.4661 52.8303 61.2235C53.9354 60.7653 54.771 60.7114 55.5796 61.0618C56.7656 61.6548 57.4664 63.0025 57.2777 64.2424C56.9003 66.1292 54.8788 66.8839 53.2615 66.6952C51.5365 66.3987 49.8653 65.2936 48.8141 63.8111C46.8195 65.5092 44.4745 67.0456 41.7251 67.0456Z" fill="#81BD41"/>
<path d="M73.558 11.2774L74.6092 12.086L73.8545 11.0348C69.0297 4.10761 63.585 3.89198 61.8599 4.0537C62.2103 3.7033 62.8033 3.1103 63.6389 2.81381L64.2319 2.57122L63.6389 2.40949C62.3451 2.05909 60.5122 1.76259 58.9488 3.05639C58.7063 1.76259 58.1133 0.307066 57.7629 0.0644785C57.682 0.0105702 57.5472 -0.016379 57.5203 0.0105751C57.1429 0.0914376 56.3882 1.19656 56.0378 3.05639C54.9327 2.16691 53.0459 1.76259 51.5095 2.54427L51.0513 2.78685L51.5634 2.94858C51.5634 2.94858 52.6146 3.29898 53.2076 4.18847C46.1456 4.3502 43.585 7.82728 41.5095 10.6036C41.3478 10.8192 41.213 10.9809 41.0513 11.1966L41.3478 11.4931C44.2319 8.79764 48.7063 7.90814 50.8626 8.44723C48.275 9.49844 43.3424 12.4634 41.6443 21.0079L41.4286 22.113L42.0216 21.1696C44.8518 16.6952 47.6011 13.9998 50.8895 12.5173C48.7332 15.7518 45.8491 21.2774 47.0082 26.2639L47.1699 27.1534L47.3855 26.21C48.4906 21.2774 51.3747 17.2073 53.2615 15.3475C51.6982 20.8461 52.3181 26.1022 53.0998 28.2046L53.4502 29.148L53.5041 28.1507C53.8006 23.6224 55.0674 18.7707 55.9839 16.4526L56.6308 20.927L56.2534 21.0079L56.5499 27.1804H56.0647L56.5769 33.5146L56.0378 33.6763V33.892C56.0378 33.9459 56.4152 37.8812 56.5769 40.1184C55.8222 40.4957 55.0944 41.2505 54.8518 41.52V41.8974H60.3774V41.52V41.4661C59.8383 40.7653 58.9758 40.334 58.6793 40.1184L59.2723 33.4876L58.6793 33.5416L59.0567 27.0186L58.5984 27.0726L58.8949 20.9001H58.3828C58.4637 20.361 58.6793 18.8785 58.9219 16.3718C60.1079 18.3933 61.1591 22.6521 61.6982 27.9081L61.8599 29.4984L62.1025 27.9351C63.1537 21.52 62.1564 16.5874 61.7251 14.8893C63.3693 16.4796 66.6577 22.113 67.7629 26.1292L68.0594 27.3151L68.1402 26.0753C68.5176 20.7114 67.3046 16.6143 63.9084 12.1669C65.31 12.5443 66.9812 13.7302 68.7871 15.5092C70.4852 17.1534 72.0755 19.3098 72.965 20.927L73.4772 21.8704L73.3963 20.7653C72.7494 14.1885 67.8168 9.55235 64.2858 8.17769C67.4664 7.74642 72.1294 10.2262 73.558 11.2774Z" fill="#81BD41"/>
<path d="M4.66312 128.76H4.09708V125.256L3.01892 128.76H2.29115L1.18603 125.256V128.76H0.619995V124.555H1.50948L2.64156 128.221L3.77363 124.555H4.66312V128.76Z" fill="#81BD41"/>
<path d="M6.19954 124.798C6.19954 124.906 6.17259 124.987 6.09172 125.067C6.01086 125.148 5.93 125.175 5.82218 125.175C5.71437 125.175 5.6335 125.148 5.55264 125.067C5.47178 124.987 5.44482 124.906 5.44482 124.825C5.44482 124.717 5.47178 124.636 5.55264 124.555C5.6335 124.474 5.71437 124.447 5.82218 124.447C5.93 124.447 6.01086 124.474 6.09172 124.555C6.17259 124.609 6.19954 124.69 6.19954 124.798ZM6.41517 128.356L6.49604 128.706C6.38822 128.76 6.19954 128.814 6.01086 128.814C5.84914 128.814 5.74132 128.76 5.66046 128.679C5.5796 128.598 5.52569 128.491 5.52569 128.356V125.768H6.11868V128.221C6.11868 128.329 6.17259 128.383 6.25345 128.383C6.30736 128.383 6.36127 128.383 6.41517 128.356Z" fill="#81BD41"/>
<path d="M9.81139 128.356L9.89225 128.706C9.78444 128.76 9.62271 128.814 9.40708 128.814C9.24535 128.814 9.13753 128.787 9.05667 128.706C8.97581 128.625 8.9219 128.517 8.9219 128.383V126.765C8.9219 126.577 8.89495 126.469 8.84104 126.388C8.78713 126.334 8.67931 126.28 8.54454 126.28C8.40977 126.28 8.24805 126.334 8.05937 126.415C7.87069 126.496 7.70897 126.604 7.57419 126.712V128.76H6.9812V125.768H7.57419V126.172C7.70897 126.038 7.87069 125.93 8.08632 125.849C8.30196 125.768 8.46368 125.714 8.62541 125.714C8.94886 125.714 9.19144 125.768 9.29926 125.903C9.43403 126.065 9.5149 126.307 9.5149 126.685V128.221C9.5149 128.329 9.5688 128.383 9.64967 128.383C9.70357 128.383 9.75748 128.383 9.81139 128.356Z" fill="#81BD41"/>
<path d="M10.9973 124.798C10.9973 124.906 10.9703 124.987 10.8895 125.067C10.8086 125.148 10.7277 125.175 10.6199 125.175C10.5121 125.175 10.4312 125.148 10.3504 125.067C10.2695 124.987 10.2426 124.906 10.2426 124.825C10.2426 124.717 10.2695 124.636 10.3504 124.555C10.4312 124.474 10.5121 124.447 10.6199 124.447C10.7277 124.447 10.8086 124.474 10.8895 124.555C10.9703 124.609 10.9973 124.69 10.9973 124.798ZM11.2129 128.356L11.2938 128.706C11.1859 128.76 10.9973 128.814 10.8086 128.814C10.6469 128.814 10.5391 128.76 10.4582 128.679C10.3773 128.598 10.3234 128.491 10.3234 128.356V125.768H10.9164V128.221C10.9164 128.329 10.9703 128.383 11.0512 128.383C11.132 128.383 11.1859 128.383 11.2129 128.356Z" fill="#81BD41"/>
<path d="M11.6443 128.652L11.7791 128.14C11.8869 128.194 12.0216 128.221 12.1834 128.275C12.3451 128.302 12.4799 128.329 12.5877 128.329C13.0729 128.329 13.3154 128.194 13.3154 127.898C13.3154 127.79 13.2615 127.709 13.1807 127.655C13.0998 127.601 12.9381 127.52 12.6955 127.439C12.372 127.332 12.1564 127.197 12.0486 127.116C11.8599 126.981 11.7791 126.792 11.7791 126.577C11.7791 126.307 11.8869 126.119 12.0756 125.957C12.2912 125.822 12.5607 125.741 12.9381 125.741C13.2615 125.741 13.558 125.795 13.7737 125.903L13.6659 126.388C13.4233 126.28 13.1807 126.226 12.9381 126.226C12.5338 126.226 12.3451 126.334 12.3451 126.55C12.3451 126.631 12.372 126.685 12.4529 126.739C12.5338 126.792 12.6685 126.873 12.8842 126.954C13.2076 127.089 13.4502 127.197 13.585 127.305C13.7737 127.466 13.8815 127.682 13.8815 127.924C13.8815 128.221 13.7467 128.437 13.4772 128.625C13.2615 128.76 12.992 128.841 12.6685 128.841C12.2642 128.787 11.9138 128.76 11.6443 128.652Z" fill="#81BD41"/>
<path d="M15.8761 128.221L15.957 128.679C15.7413 128.76 15.5257 128.787 15.2831 128.787C15.0675 128.787 14.9057 128.733 14.7979 128.598C14.6901 128.491 14.6632 128.275 14.6632 128.005V126.226H14.178L14.2858 125.741H14.6632V124.933L15.2561 124.744V125.741H15.8761V126.226H15.2561V127.951C15.2561 128.086 15.2831 128.167 15.3101 128.221C15.337 128.275 15.4179 128.302 15.5526 128.302C15.6605 128.302 15.7683 128.275 15.8761 128.221Z" fill="#81BD41"/>
<path d="M17.089 128.76H16.496V125.768H17.089V126.146C17.1429 126.011 17.2237 125.903 17.3316 125.822C17.4394 125.741 17.5472 125.687 17.655 125.687C17.8437 125.687 18.0324 125.741 18.221 125.849L18.1132 126.334C17.9245 126.28 17.7628 126.253 17.628 126.253C17.4394 126.253 17.2507 126.388 17.1159 126.658V128.76H17.089Z" fill="#81BD41"/>
<path d="M19.5149 128.679L18.3828 125.768H19.0297L19.8114 127.898L20.4583 125.768H21.1052L20.027 128.868C19.8923 129.299 19.7305 129.596 19.5688 129.757C19.4071 129.919 19.1915 130 18.895 130C18.6254 130 18.4098 129.973 18.275 129.892L18.3828 129.38C18.5446 129.434 18.7063 129.461 18.868 129.461C19.0028 129.461 19.0836 129.407 19.1915 129.353C19.2993 129.218 19.4071 129.003 19.5149 128.679Z" fill="#81BD41"/>
<path d="M24.0432 128.787C23.0728 128.787 22.5876 128.275 22.5876 127.251C22.5876 126.226 23.0728 125.687 24.0432 125.687C25.0135 125.687 25.4987 126.199 25.4987 127.251C25.4987 128.302 25.0135 128.787 24.0432 128.787ZM24.0432 128.329C24.3397 128.329 24.5283 128.248 24.6631 128.113C24.7979 127.951 24.8788 127.655 24.8788 127.278C24.8788 126.9 24.8248 126.604 24.6901 126.442C24.5553 126.28 24.3666 126.172 24.0701 126.172C23.7736 126.172 23.5849 126.253 23.4502 126.415C23.3154 126.604 23.2615 126.873 23.2615 127.278C23.2615 127.655 23.3154 127.951 23.4502 128.113C23.531 128.248 23.7467 128.329 24.0432 128.329Z" fill="#81BD41"/>
<path d="M26.9273 128.76H26.3343V126.253H25.8491L25.9569 125.768H26.3343V125.337C26.3343 125.013 26.3882 124.771 26.496 124.636C26.6308 124.474 26.8464 124.393 27.1699 124.393C27.4125 124.393 27.6281 124.42 27.7898 124.501L27.682 124.986C27.4933 124.933 27.3586 124.906 27.2777 124.906C27.1429 124.906 27.0621 124.933 27.0082 124.986C26.9542 125.04 26.9273 125.121 26.9273 125.283V125.795H27.5742V126.28H26.9273V128.76Z" fill="#81BD41"/>
<path d="M33.3962 128.76H32.8302V125.256L31.7251 128.76H30.9973L29.8922 125.256V128.76H29.3262V124.555H30.2426L31.3477 128.221L32.4798 124.555H33.3962V128.76Z" fill="#81BD41"/>
<path d="M37.0351 128.356L37.0891 128.706C36.9812 128.76 36.8195 128.814 36.6039 128.814C36.4422 128.814 36.3343 128.76 36.2535 128.679C36.1726 128.598 36.1187 128.491 36.1187 128.356C35.9839 128.491 35.8222 128.598 35.6335 128.679C35.4448 128.76 35.2831 128.814 35.1214 128.814C34.798 128.814 34.5554 128.76 34.4206 128.625C34.2858 128.464 34.205 128.221 34.205 127.844V125.795H34.7979V127.79C34.7979 127.978 34.8249 128.113 34.8788 128.167C34.9327 128.221 35.0405 128.275 35.1753 128.275C35.3101 128.275 35.4988 128.221 35.6874 128.14C35.8761 128.059 36.0109 127.951 36.0917 127.844V125.795H36.6847V128.248C36.6847 128.356 36.7386 128.41 36.8465 128.41C36.9273 128.383 36.9812 128.383 37.0351 128.356Z" fill="#81BD41"/>
<path d="M40.3774 128.356L40.4583 128.706C40.3505 128.76 40.1887 128.814 39.9731 128.814C39.8114 128.814 39.7036 128.787 39.6227 128.706C39.5418 128.625 39.4879 128.517 39.4879 128.383V126.765C39.4879 126.577 39.461 126.469 39.4071 126.388C39.3531 126.334 39.2453 126.28 39.1106 126.28C38.9758 126.28 38.8141 126.334 38.6254 126.415C38.4367 126.496 38.275 126.604 38.1402 126.712V128.76H37.5203V125.768H38.1133V126.172C38.248 126.038 38.4098 125.93 38.6254 125.849C38.841 125.768 39.0027 125.714 39.1645 125.714C39.4879 125.714 39.7305 125.768 39.8383 125.903C39.9731 126.065 40.054 126.307 40.054 126.685V128.221C40.054 128.329 40.1079 128.383 40.1887 128.383C40.2696 128.383 40.3235 128.383 40.3774 128.356Z" fill="#81BD41"/>
<path d="M41.5903 124.798C41.5903 124.906 41.5633 124.987 41.4825 125.067C41.4016 125.148 41.3207 125.175 41.2129 125.175C41.1051 125.175 41.0242 125.148 40.9434 125.067C40.8625 124.987 40.8356 124.906 40.8356 124.825C40.8356 124.717 40.8625 124.636 40.9434 124.555C41.0242 124.474 41.1051 124.447 41.2129 124.447C41.3207 124.447 41.4016 124.474 41.4825 124.555C41.5364 124.609 41.5903 124.69 41.5903 124.798ZM41.8059 128.356L41.8868 128.706C41.779 128.76 41.5903 128.814 41.4016 128.814C41.2399 128.814 41.1321 128.76 41.0512 128.679C40.9703 128.598 40.9164 128.491 40.9164 128.356V125.768H41.5094V128.221C41.5094 128.329 41.5633 128.383 41.6442 128.383C41.6981 128.383 41.752 128.383 41.8059 128.356Z" fill="#81BD41"/>
<path d="M44.5552 128.167L44.4474 128.679C44.2048 128.76 43.9083 128.814 43.5579 128.814C43.1806 128.814 42.8841 128.679 42.6145 128.41C42.345 128.14 42.2102 127.736 42.2102 127.251C42.2102 126.819 42.345 126.469 42.5876 126.172C42.8571 125.876 43.2075 125.714 43.6388 125.714C44.0161 125.714 44.3126 125.768 44.5822 125.876L44.4744 126.388C44.2318 126.28 43.9892 126.253 43.7196 126.253C43.1536 126.253 42.8571 126.604 42.8571 127.305C42.8571 127.978 43.1806 128.329 43.8275 128.329C43.9353 128.329 44.0431 128.329 44.2048 128.275C44.3665 128.221 44.4744 128.194 44.5552 128.167Z" fill="#81BD41"/>
<path d="M45.8491 124.798C45.8491 124.906 45.8221 124.987 45.7413 125.067C45.6604 125.148 45.5795 125.175 45.4717 125.175C45.3639 125.175 45.283 125.148 45.2022 125.067C45.1213 124.987 45.0944 124.906 45.0944 124.825C45.0944 124.717 45.1213 124.636 45.2022 124.555C45.283 124.474 45.3639 124.447 45.4717 124.447C45.5795 124.447 45.6604 124.474 45.7413 124.555C45.7952 124.609 45.8491 124.69 45.8491 124.798ZM46.0647 128.356L46.1456 128.706C46.0378 128.76 45.8491 128.814 45.6604 128.814C45.4987 128.814 45.3909 128.76 45.31 128.679C45.2291 128.598 45.1752 128.491 45.1752 128.356V125.768H45.7682V128.221C45.7682 128.329 45.8221 128.383 45.903 128.383C45.9569 128.383 46.0108 128.383 46.0647 128.356Z" fill="#81BD41"/>
<path d="M47.1969 129.946H46.6039V125.768H47.1969V126.172C47.4395 125.876 47.7629 125.714 48.1942 125.714C48.5446 125.714 48.8141 125.849 49.0298 126.092C49.2454 126.361 49.3532 126.738 49.3532 127.251C49.3532 127.736 49.2454 128.14 49.0028 128.41C48.7872 128.679 48.4637 128.814 48.0324 128.814C47.8707 128.814 47.709 128.787 47.5473 128.76C47.3856 128.733 47.2777 128.652 47.1969 128.571V129.946ZM47.1969 127.008V128.005C47.2777 128.086 47.3856 128.14 47.5203 128.194C47.6551 128.248 47.7899 128.275 47.8977 128.275C48.1942 128.275 48.4098 128.194 48.5446 128.032C48.6793 127.871 48.7333 127.601 48.7333 127.251C48.7333 126.873 48.6793 126.577 48.5446 126.442C48.4368 126.307 48.2481 126.226 47.9785 126.226C47.709 126.226 47.5203 126.307 47.3586 126.496C47.2508 126.658 47.1969 126.846 47.1969 127.008Z" fill="#81BD41"/>
<path d="M52.6146 128.356L52.6955 128.706C52.5607 128.76 52.399 128.814 52.2103 128.814C52.0486 128.814 51.9408 128.787 51.8599 128.706C51.779 128.625 51.7251 128.517 51.7251 128.383C51.5634 128.679 51.2669 128.814 50.8626 128.814C50.2157 128.814 49.9192 128.517 49.9192 127.951C49.9192 127.574 50.0809 127.278 50.3774 127.116C50.593 126.981 50.8895 126.927 51.2399 126.927C51.3747 126.927 51.5364 126.927 51.7251 126.954V126.685C51.7251 126.523 51.6712 126.388 51.5634 126.334C51.4556 126.28 51.2669 126.226 50.9974 126.226C50.7009 126.226 50.4044 126.28 50.1079 126.388L50.2157 125.903C50.4852 125.795 50.8087 125.741 51.1591 125.741C51.5903 125.741 51.8868 125.822 52.0486 126.011C52.2103 126.172 52.2912 126.469 52.2912 126.846V128.248C52.2912 128.356 52.3451 128.41 52.4529 128.41C52.5337 128.383 52.5607 128.383 52.6146 128.356ZM51.6982 127.655V127.358C51.5095 127.332 51.3478 127.332 51.2669 127.332C50.9974 127.332 50.8087 127.385 50.7009 127.466C50.593 127.547 50.5122 127.682 50.5122 127.871C50.5122 128.167 50.7009 128.302 51.0513 128.302C51.2399 128.302 51.4017 128.248 51.5095 128.113C51.6443 128.005 51.6982 127.844 51.6982 127.655Z" fill="#81BD41"/>
<path d="M54.0432 128.356L54.124 128.706C54.0162 128.76 53.8545 128.814 53.6389 128.814C53.4771 128.814 53.3693 128.76 53.2885 128.679C53.2076 128.598 53.1537 128.491 53.1537 128.356V124.555H53.7467V128.221C53.7467 128.329 53.8006 128.383 53.8815 128.383C53.9354 128.383 53.9893 128.383 54.0432 128.356Z" fill="#81BD41"/>
<path d="M58.6524 128.76H57.9246L57.116 127.224H56.3613V128.76H55.7144V124.555H57.0621C58.0324 124.555 58.5176 124.987 58.5176 125.876C58.5176 126.172 58.4637 126.415 58.3289 126.631C58.1941 126.846 58.0055 126.981 57.7898 127.089L58.6524 128.76ZM56.3613 126.658H57.1968C57.6281 126.658 57.8437 126.415 57.8437 125.903C57.8437 125.633 57.7629 125.445 57.6281 125.31C57.5203 125.175 57.3586 125.121 57.1699 125.121H56.3343V126.658H56.3613Z" fill="#81BD41"/>
<path d="M62.0755 128.356L62.1295 128.706C62.0216 128.76 61.8599 128.814 61.6443 128.814C61.4826 128.814 61.3747 128.76 61.2939 128.679C61.213 128.598 61.1591 128.491 61.1591 128.356C61.0243 128.491 60.8626 128.598 60.6739 128.679C60.4852 128.76 60.3235 128.814 60.1618 128.814C59.8384 128.814 59.5958 128.76 59.461 128.625C59.3262 128.464 59.2454 128.221 59.2454 127.844V125.795H59.8383V127.79C59.8383 127.978 59.8653 128.113 59.9192 128.167C59.9731 128.221 60.0809 128.275 60.2157 128.275C60.3505 128.275 60.5392 128.221 60.7278 128.14C60.9165 128.059 61.0513 127.951 61.1322 127.844V125.795H61.7251V128.248C61.7251 128.356 61.7791 128.41 61.8869 128.41C61.9677 128.383 62.0216 128.383 62.0755 128.356Z" fill="#81BD41"/>
<path d="M63.1537 128.76H62.5607V125.768H63.1537V126.146C63.2076 126.011 63.2884 125.903 63.3962 125.822C63.5041 125.741 63.6119 125.687 63.7197 125.687C63.9084 125.687 64.0971 125.741 64.2857 125.849L64.1779 126.334C63.9892 126.28 63.8275 126.253 63.6927 126.253C63.5041 126.253 63.3154 126.388 63.1806 126.658V128.76H63.1537Z" fill="#81BD41"/>
<path d="M67.2507 128.356L67.3316 128.706C67.1968 128.76 67.0351 128.814 66.8464 128.814C66.6847 128.814 66.5769 128.787 66.496 128.706C66.4151 128.625 66.3612 128.517 66.3612 128.383C66.1995 128.679 65.903 128.814 65.4987 128.814C64.8518 128.814 64.5553 128.517 64.5553 127.951C64.5553 127.574 64.717 127.278 65.0135 127.116C65.2292 126.981 65.5257 126.927 65.8761 126.927C66.0108 126.927 66.1726 126.927 66.3612 126.954V126.685C66.3612 126.523 66.3073 126.388 66.1995 126.334C66.0917 126.28 65.903 126.226 65.6335 126.226C65.337 126.226 65.0405 126.28 64.744 126.388L64.8518 125.903C65.1213 125.795 65.4448 125.741 65.7952 125.741C66.2265 125.741 66.523 125.822 66.6847 126.011C66.8464 126.172 66.9273 126.469 66.9273 126.846V128.248C66.9273 128.356 66.9812 128.41 67.089 128.41C67.1699 128.383 67.2238 128.383 67.2507 128.356ZM66.3612 127.655V127.358C66.1726 127.332 66.0108 127.332 65.93 127.332C65.6604 127.332 65.4717 127.385 65.3639 127.466C65.2561 127.547 65.1752 127.682 65.1752 127.871C65.1752 128.167 65.3639 128.302 65.7143 128.302C65.903 128.302 66.0647 128.248 66.1725 128.113C66.3073 128.005 66.3612 127.844 66.3612 127.655Z" fill="#81BD41"/>
<path d="M68.6793 128.356L68.7601 128.706C68.6523 128.76 68.4906 128.814 68.275 128.814C68.1132 128.814 68.0054 128.76 67.9246 128.679C67.8437 128.598 67.7898 128.491 67.7898 128.356V124.555H68.3828V128.221C68.3828 128.329 68.4367 128.383 68.5176 128.383C68.5984 128.383 68.6523 128.383 68.6793 128.356Z" fill="#81BD41"/>
<path d="M73.5849 128.76H72.8841L72.5876 127.79H71.0512L70.7547 128.76H70.0808L71.5094 124.555H72.2102L73.5849 128.76ZM72.4258 127.251L71.8328 125.364L71.2129 127.251H72.4258Z" fill="#81BD41"/>
<path d="M74.8518 128.76H74.2589V126.253H73.7737L73.8815 125.768H74.2589V125.337C74.2589 125.013 74.3128 124.771 74.4206 124.636C74.5554 124.474 74.771 124.393 75.0944 124.393C75.337 124.393 75.5527 124.42 75.7144 124.501L75.6066 124.986C75.4179 124.933 75.2831 124.906 75.2022 124.906C75.0675 124.906 74.9866 124.933 74.9327 124.986C74.8788 125.04 74.8518 125.121 74.8518 125.283V125.795H75.4987V126.28H74.8518V128.76ZM76.9273 128.76H76.3343V126.253H75.8492L75.957 125.768H76.3343V125.337C76.3343 125.013 76.3882 124.771 76.4961 124.636C76.6308 124.474 76.8465 124.393 77.1699 124.393C77.4125 124.393 77.6281 124.42 77.7899 124.501L77.682 124.986C77.4934 124.933 77.3586 124.906 77.2777 124.906C77.143 124.906 77.0621 124.933 77.0082 124.986C76.9543 125.04 76.9273 125.121 76.9273 125.283V125.795H77.5742V126.28H76.9273V128.76Z" fill="#81BD41"/>
<path d="M80.62 128.356L80.7008 128.706C80.5661 128.76 80.4043 128.814 80.2157 128.814C80.0539 128.814 79.9461 128.787 79.8653 128.706C79.7844 128.625 79.7305 128.517 79.7305 128.383C79.5688 128.679 79.2723 128.814 78.868 128.814C78.2211 128.814 77.9246 128.517 77.9246 127.951C77.9246 127.574 78.0863 127.278 78.3828 127.116C78.5984 126.981 78.8949 126.927 79.2453 126.927C79.3801 126.927 79.5418 126.927 79.7305 126.954V126.685C79.7305 126.523 79.6766 126.388 79.5688 126.334C79.4609 126.28 79.2723 126.226 79.0027 126.226C78.7062 126.226 78.4097 126.28 78.1132 126.388L78.2211 125.903C78.4906 125.795 78.814 125.741 79.1645 125.741C79.5957 125.741 79.8922 125.822 80.0539 126.011C80.2157 126.172 80.2965 126.469 80.2965 126.846V128.248C80.2965 128.356 80.3504 128.41 80.4583 128.41C80.5391 128.383 80.593 128.383 80.62 128.356ZM79.7305 127.655V127.358C79.5418 127.332 79.3801 127.332 79.2992 127.332C79.0297 127.332 78.841 127.385 78.7332 127.466C78.6254 127.547 78.5445 127.682 78.5445 127.871C78.5445 128.167 78.7332 128.302 79.0836 128.302C79.2723 128.302 79.434 128.248 79.5418 128.113C79.6766 128.005 79.7305 127.844 79.7305 127.655Z" fill="#81BD41"/>
<path d="M81.833 124.798C81.833 124.906 81.806 124.987 81.7251 125.067C81.6443 125.148 81.5634 125.175 81.4556 125.175C81.3478 125.175 81.2669 125.148 81.1861 125.067C81.1052 124.987 81.0782 124.906 81.0782 124.825C81.0782 124.717 81.1052 124.636 81.1861 124.555C81.2669 124.474 81.3478 124.447 81.4556 124.447C81.5634 124.447 81.6443 124.474 81.7251 124.555C81.806 124.609 81.833 124.69 81.833 124.798ZM82.0486 128.356L82.1295 128.706C82.0216 128.76 81.833 128.814 81.6443 128.814C81.4826 128.814 81.3747 128.76 81.2939 128.679C81.213 128.598 81.1591 128.491 81.1591 128.356V125.768H81.7521V128.221C81.7521 128.329 81.806 128.383 81.8869 128.383C81.9677 128.383 82.0216 128.383 82.0486 128.356Z" fill="#81BD41"/>
<path d="M83.1806 128.76H82.5876V125.768H83.1806V126.146C83.2345 126.011 83.3154 125.903 83.4232 125.822C83.531 125.741 83.6389 125.687 83.7467 125.687C83.9354 125.687 84.124 125.741 84.3127 125.849L84.2049 126.334C84.0162 126.28 83.8545 126.253 83.7197 126.253C83.531 126.253 83.3424 126.388 83.2076 126.658V128.76H83.1806Z" fill="#81BD41"/>
<path d="M84.6361 128.652L84.7709 128.14C84.8787 128.194 85.0135 128.221 85.1752 128.275C85.3369 128.302 85.4717 128.329 85.5795 128.329C86.0647 128.329 86.3073 128.194 86.3073 127.898C86.3073 127.79 86.2534 127.709 86.1725 127.655C86.0916 127.601 85.9299 127.52 85.6873 127.439C85.3639 127.332 85.1482 127.197 85.0404 127.116C84.8517 126.981 84.7709 126.792 84.7709 126.577C84.7709 126.307 84.8787 126.119 85.0674 125.957C85.283 125.822 85.5526 125.741 85.9299 125.741C86.2534 125.741 86.5499 125.795 86.7655 125.903L86.6577 126.388C86.4151 126.28 86.1725 126.226 85.9299 126.226C85.5256 126.226 85.3369 126.334 85.3369 126.55C85.3369 126.631 85.3639 126.685 85.4447 126.739C85.5256 126.792 85.6604 126.873 85.876 126.954C86.1995 127.089 86.442 127.197 86.5768 127.305C86.7655 127.466 86.8733 127.682 86.8733 127.924C86.8733 128.221 86.7385 128.437 86.469 128.625C86.2534 128.76 85.9838 128.841 85.6604 128.841C85.2561 128.787 84.9057 128.76 84.6361 128.652Z" fill="#81BD41"/>
<path d="M92.2372 128.248L92.1563 128.787C92.0485 128.814 91.9407 128.841 91.752 128.841C91.5094 128.841 91.2668 128.679 91.0242 128.383C90.8894 128.517 90.7277 128.625 90.539 128.706C90.3234 128.787 90.1078 128.841 89.8921 128.841C89.4609 128.841 89.1105 128.733 88.8948 128.544C88.6523 128.356 88.5444 128.086 88.5444 127.709C88.5444 127.089 88.814 126.658 89.3531 126.442C89.1105 126.119 89.0027 125.795 89.0027 125.472C89.0027 125.202 89.1105 124.96 89.2992 124.798C89.4878 124.636 89.7304 124.528 90.0269 124.528C90.4043 124.528 90.7277 124.582 91.0242 124.717L90.9164 125.256C90.6469 125.148 90.4043 125.067 90.1078 125.067C89.7843 125.067 89.5957 125.202 89.5957 125.472C89.5957 125.687 89.6765 125.93 89.8652 126.172C90.0269 126.415 90.4312 126.873 91.0242 127.52C91.1051 127.385 91.159 127.224 91.1859 127.062C91.2129 126.9 91.2129 126.631 91.2129 126.28H92.318L92.2372 126.792H91.6981C91.6981 126.981 91.6711 127.197 91.6172 127.412C91.5633 127.628 91.4824 127.79 91.4016 127.951C91.5094 128.086 91.6172 128.194 91.6981 128.248C91.7789 128.302 91.8598 128.329 91.9676 128.329C92.0485 128.302 92.1563 128.275 92.2372 128.248ZM90.6469 127.978C90.3773 127.709 90.0269 127.305 89.5957 126.792C89.2992 126.9 89.1374 127.17 89.1374 127.601C89.1374 128.059 89.38 128.302 89.8921 128.302C90.0269 128.302 90.1617 128.275 90.3234 128.221C90.4582 128.14 90.566 128.086 90.6469 127.978Z" fill="#81BD41"/>
<path d="M97.1968 128.76H96.5768V126.873H94.7439V128.76H94.097V124.555H94.7439V126.334H96.5768V124.555H97.1968V128.76Z" fill="#81BD41"/>
<path d="M99.3801 128.787C98.4097 128.787 97.9246 128.275 97.9246 127.251C97.9246 126.226 98.4097 125.687 99.3801 125.687C100.35 125.687 100.836 126.199 100.836 127.251C100.836 128.302 100.35 128.787 99.3801 128.787ZM99.3801 128.329C99.6766 128.329 99.8653 128.248 100 128.113C100.135 127.951 100.216 127.655 100.216 127.278C100.216 126.9 100.162 126.604 100.027 126.442C99.8922 126.28 99.7035 126.172 99.407 126.172C99.1105 126.172 98.9219 126.253 98.7871 126.415C98.6523 126.604 98.5984 126.873 98.5984 127.278C98.5984 127.655 98.6523 127.951 98.7871 128.113C98.8949 128.248 99.0836 128.329 99.3801 128.329Z" fill="#81BD41"/>
<path d="M104.34 128.356L104.393 128.706C104.286 128.76 104.124 128.814 103.908 128.814C103.747 128.814 103.639 128.76 103.558 128.679C103.477 128.598 103.423 128.491 103.423 128.356C103.288 128.491 103.127 128.598 102.938 128.679C102.749 128.76 102.588 128.814 102.426 128.814C102.102 128.814 101.86 128.76 101.725 128.625C101.59 128.464 101.509 128.221 101.509 127.844V125.795H102.102V127.79C102.102 127.978 102.129 128.113 102.183 128.167C102.237 128.221 102.345 128.275 102.48 128.275C102.615 128.275 102.803 128.221 102.992 128.14C103.181 128.059 103.315 127.951 103.396 127.844V125.795H103.989V128.248C103.989 128.356 104.043 128.41 104.151 128.41C104.232 128.383 104.286 128.383 104.34 128.356Z" fill="#81BD41"/>
<path d="M104.717 128.652L104.852 128.14C104.96 128.194 105.094 128.221 105.256 128.275C105.418 128.302 105.552 128.329 105.66 128.329C106.145 128.329 106.388 128.194 106.388 127.898C106.388 127.79 106.334 127.709 106.253 127.655C106.172 127.601 106.011 127.52 105.768 127.439C105.445 127.332 105.229 127.197 105.121 127.116C104.933 126.981 104.852 126.792 104.852 126.577C104.852 126.307 104.96 126.119 105.148 125.957C105.364 125.822 105.633 125.741 106.011 125.741C106.334 125.741 106.631 125.795 106.846 125.903L106.738 126.388C106.496 126.28 106.253 126.226 106.011 126.226C105.606 126.226 105.418 126.334 105.418 126.55C105.418 126.631 105.445 126.685 105.526 126.739C105.606 126.792 105.741 126.873 105.957 126.954C106.28 127.089 106.523 127.197 106.658 127.305C106.846 127.466 106.954 127.682 106.954 127.924C106.954 128.221 106.819 128.437 106.55 128.625C106.334 128.76 106.065 128.841 105.741 128.841C105.337 128.787 105.013 128.76 104.717 128.652Z" fill="#81BD41"/>
<path d="M108.248 124.798C108.248 124.906 108.221 124.987 108.14 125.067C108.059 125.148 107.978 125.175 107.871 125.175C107.763 125.175 107.682 125.148 107.601 125.067C107.52 124.987 107.493 124.906 107.493 124.825C107.493 124.717 107.52 124.636 107.601 124.555C107.682 124.474 107.763 124.447 107.871 124.447C107.978 124.447 108.059 124.474 108.14 124.555C108.221 124.609 108.248 124.69 108.248 124.798ZM108.464 128.356L108.544 128.706C108.437 128.76 108.248 128.814 108.059 128.814C107.898 128.814 107.79 128.76 107.709 128.679C107.628 128.598 107.574 128.491 107.574 128.356V125.768H108.167V128.221C108.167 128.329 108.221 128.383 108.302 128.383C108.383 128.383 108.437 128.383 108.464 128.356Z" fill="#81BD41"/>
<path d="M111.86 128.356L111.941 128.706C111.833 128.76 111.671 128.814 111.456 128.814C111.294 128.814 111.186 128.787 111.105 128.706C111.024 128.625 110.97 128.517 110.97 128.383V126.765C110.97 126.577 110.943 126.469 110.89 126.388C110.836 126.334 110.728 126.28 110.593 126.28C110.458 126.28 110.297 126.334 110.108 126.415C109.919 126.496 109.757 126.604 109.623 126.712V128.76H109.03V125.768H109.623V126.172C109.757 126.038 109.919 125.93 110.135 125.849C110.35 125.768 110.512 125.714 110.674 125.714C110.997 125.714 111.24 125.768 111.348 125.903C111.483 126.065 111.563 126.307 111.563 126.685V128.221C111.563 128.329 111.617 128.383 111.698 128.383C111.752 128.383 111.806 128.383 111.86 128.356Z" fill="#81BD41"/>
<path d="M114.447 128.679V128.41C114.286 128.571 114.151 128.679 114.043 128.706C113.935 128.76 113.747 128.787 113.531 128.787C112.695 128.787 112.291 128.275 112.291 127.251C112.291 126.226 112.803 125.687 113.801 125.687C114.259 125.687 114.663 125.741 115.067 125.849V128.544C115.067 129.191 114.906 129.623 114.582 129.811C114.394 129.919 114.043 129.973 113.531 129.973C113.1 129.973 112.695 129.892 112.345 129.73L112.453 129.218C112.776 129.38 113.127 129.461 113.531 129.461C113.908 129.461 114.151 129.407 114.259 129.299C114.367 129.218 114.447 129.003 114.447 128.679ZM114.447 127.305V126.28C114.232 126.226 114.043 126.199 113.854 126.199C113.558 126.199 113.369 126.253 113.235 126.361C113.019 126.523 112.938 126.792 112.938 127.224C112.938 127.601 112.992 127.871 113.1 128.032C113.208 128.194 113.423 128.275 113.693 128.275C114.178 128.275 114.447 127.951 114.447 127.305Z" fill="#81BD41"/>
<path d="M6.25337 95.7951H3.93531V94.8517L3.2345 95.7951H2.69542C1.75202 95.7951 1.05121 95.5525 0.592991 95.0404C0.215633 94.6091 0 94.0161 0 93.2614V90.8895C0 90.0269 0.269541 89.3531 0.835579 88.8948C1.2938 88.5444 1.85984 88.3558 2.53369 88.3558H5.36388V94.3665H6.22641V95.7951H6.25337ZM1.61725 86.6037C1.37466 86.6037 1.15903 86.5229 0.997303 86.3342C0.808624 86.1455 0.727762 85.9568 0.727762 85.7143C0.727762 85.4717 0.808624 85.283 0.997303 85.0943C1.18598 84.9326 1.37466 84.8248 1.61725 84.8248C1.85984 84.8248 2.04852 84.9056 2.2372 85.0943C2.39892 85.256 2.50674 85.4717 2.50674 85.7143C2.50674 85.9568 2.42587 86.1725 2.2372 86.3342C2.07547 86.4959 1.85984 86.6037 1.61725 86.6037ZM3.93531 94.3665V89.8113H2.50674C1.83288 89.8113 1.48248 90.1617 1.48248 90.8625V93.3153C1.48248 93.6927 1.56334 93.9892 1.75202 94.1509C1.91375 94.3126 2.21024 94.3935 2.61455 94.3935H3.93531V94.3665ZM3.82749 86.6037C3.5849 86.6037 3.39622 86.5229 3.20754 86.3342C3.04582 86.1455 2.938 85.9568 2.938 85.7143C2.938 85.4717 3.01887 85.283 3.20754 85.0943C3.36927 84.9326 3.5849 84.8248 3.82749 84.8248C4.07008 84.8248 4.25876 84.9056 4.44744 85.0943C4.60916 85.256 4.71698 85.4717 4.71698 85.7143C4.71698 85.9568 4.63612 86.1725 4.44744 86.3342C4.25876 86.4959 4.07008 86.6037 3.82749 86.6037Z" fill="#006C68"/>
<path d="M7.78983 95.7951H6.14563V94.3666H7.89765C8.59846 94.3666 8.94886 94.0431 8.94886 93.3693V88.3558H10.3774V93.2884C10.3774 94.1779 10.0809 94.8517 9.5149 95.283C9.08364 95.6334 8.49064 95.7951 7.78983 95.7951ZM8.32892 98.841C8.32892 99.0835 8.24805 99.2722 8.05938 99.4609C7.89765 99.6226 7.68202 99.7304 7.43943 99.7304C7.19684 99.7304 6.98121 99.6496 6.81948 99.4879C6.65776 99.3261 6.5769 99.1105 6.5769 98.8679C6.5769 98.6253 6.65776 98.4366 6.84644 98.248C7.00816 98.0862 7.2238 97.9784 7.46638 97.9784C7.70897 97.9784 7.89765 98.0593 8.08633 98.248C8.24806 98.4097 8.32892 98.5984 8.32892 98.841ZM9.70358 99.7035C9.46099 99.7035 9.24536 99.6226 9.05668 99.4609C8.89495 99.2992 8.78714 99.0835 8.78714 98.841C8.78714 98.5984 8.868 98.4097 9.05668 98.221C9.2184 98.0593 9.43404 97.9515 9.70358 97.9515C9.91921 97.9515 10.1348 98.0323 10.2966 98.221C10.4583 98.3827 10.5661 98.5984 10.5661 98.841C10.5661 99.0835 10.4853 99.2722 10.3235 99.4609C10.1348 99.6226 9.94617 99.7035 9.70358 99.7035Z" fill="#006C68"/>
<path d="M19.0836 95.7951H12.4529V94.3666H16.7655V91.9407C16.7655 90.5121 16.0647 89.7843 14.6631 89.7843H13.6928V88.3558H14.744C15.7413 88.3558 16.5769 88.6792 17.2238 89.3531C17.8437 89.973 18.1672 90.7817 18.1672 91.779V94.3396H19.0567V95.7951H19.0836Z" fill="#006C68"/>
<path d="M22.965 95.7951H18.9758V94.3666H20.6739V85.3369H22.0756V94.3666H22.965V95.7951Z" fill="#006C68"/>
<path d="M28.0054 95.7951H22.8842V94.3666H25.6874V88.3558H27.116V94.3666H28.0054V95.7951ZM26.4152 99.7035C26.1726 99.7035 25.9569 99.6226 25.7683 99.4609C25.6065 99.2992 25.4987 99.0835 25.4987 98.841C25.4987 98.5984 25.5796 98.4097 25.7683 98.221C25.93 98.0593 26.1456 97.9515 26.4152 97.9515C26.6308 97.9515 26.8464 98.0323 27.0081 98.221C27.1699 98.3827 27.2777 98.5984 27.2777 98.841C27.2777 99.0835 27.1968 99.2722 27.0351 99.4609C26.8464 99.6226 26.6577 99.7035 26.4152 99.7035Z" fill="#006C68"/>
<path d="M28.4906 95.7951H27.8976V94.3666H28.4636C28.8679 94.3666 29.1644 94.2857 29.3531 94.124C29.5148 93.9623 29.6226 93.6658 29.6226 93.2614V85.3369H31.0512V93.3693C31.0512 94.1509 30.8086 94.7709 30.3504 95.1752C29.8922 95.6065 29.2992 95.7951 28.4906 95.7951Z" fill="#006C68"/>
<path d="M34.5554 95.7951L33.0999 96.6038V85.3369H34.5554V95.7951Z" fill="#006C68"/>
<path d="M47.2778 96.0647V88.3558H48.7333V96.1994C48.7333 97.4393 48.1673 98.3827 47.0621 99.0296C46.2266 99.5148 45.2293 99.7574 44.0972 99.7574C42.8034 99.7574 41.6983 99.4339 40.8088 98.814C39.9193 98.1671 39.4611 97.2776 39.4611 96.1994V92.4528L40.9166 91.5094V96.0647C40.9166 96.8733 41.2939 97.4932 42.0487 97.8975C42.6147 98.1671 43.2886 98.3288 44.0972 98.3288C45.0675 98.3288 45.8492 98.1401 46.4152 97.7358C46.9813 97.3045 47.2778 96.7655 47.2778 96.0647ZM44.205 86.6037C43.9624 86.6037 43.7468 86.5229 43.5581 86.3342C43.3694 86.1455 43.2886 85.9568 43.2886 85.7143C43.2886 85.4717 43.3694 85.283 43.5581 85.0943C43.7468 84.9326 43.9624 84.8248 44.205 84.8248C44.4206 84.8248 44.6363 84.9056 44.798 85.0943C44.9597 85.256 45.0675 85.4717 45.0675 85.7143C45.0675 85.9568 44.9867 86.1725 44.798 86.3342C44.6363 86.4959 44.4476 86.6037 44.205 86.6037Z" fill="#006C68"/>
<path d="M52.4529 99.7035L51.4825 98.4097H51.6982C53.6928 98.4097 54.6901 97.6819 54.6901 96.2264V95.7682H53.4502C52.5607 95.7682 51.8868 95.5256 51.4017 95.0674C50.9704 94.6361 50.7548 94.0162 50.7548 93.2345V90.8625C50.7548 90.0269 50.9973 89.38 51.4825 88.9488C51.9407 88.5445 52.5337 88.3558 53.2615 88.3558H56.0917V95.9569C56.0917 97.2507 55.7682 98.1671 55.1213 98.787C54.5822 99.3261 53.6928 99.6226 52.4529 99.7035ZM54.717 94.3666V89.8113H53.2885C52.9111 89.8113 52.6416 89.8922 52.5068 90.0808C52.3451 90.2426 52.2642 90.5391 52.2642 90.9164V93.2884C52.2642 93.7197 52.3451 94.0161 52.5337 94.1509C52.7224 94.3126 53.0728 94.3666 53.6119 94.3666H54.717Z" fill="#006C68"/>
<path d="M64.4745 95.7952H63.612V95.9839C63.612 97.2777 63.2886 98.1941 62.6147 98.814C62.0217 99.3262 61.1322 99.6496 59.8923 99.7305L58.922 98.4367H59.1376C61.1322 98.4367 62.1295 97.7089 62.1295 96.2534V95.7952H60.8896C60.0001 95.7952 59.3263 95.5526 58.8411 95.0944C58.4098 94.6631 58.1942 94.0432 58.1942 93.2615V90.8895C58.1942 90.0539 58.4368 89.407 58.922 88.9758C59.3802 88.5715 59.9732 88.3828 60.7009 88.3828H63.5311V94.3936H64.3937V95.7952H64.4745ZM62.2373 86.6038H59.5419V86.0108H60.1888C60.081 85.7952 60.0001 85.6065 60.0001 85.4178C60.0001 85.0674 60.108 84.7979 60.3236 84.5822C60.5392 84.3666 60.8088 84.2588 61.1592 84.2588H61.7791V84.8518H61.3748C60.8896 84.8518 60.647 85.0405 60.647 85.4448C60.647 85.8491 60.8896 86.0378 61.3748 86.0378H62.2104V86.6038H62.2373ZM62.1295 94.3666V89.8113H60.7009C60.3236 89.8113 60.054 89.8922 59.9193 90.0809C59.7576 90.2426 59.6767 90.5391 59.6767 90.9165V93.2884C59.6767 93.7197 59.7576 94.0162 59.9462 94.151C60.1349 94.3127 60.4853 94.3666 61.0244 94.3666H62.1295Z" fill="#006C68"/>
<path d="M78.4368 95.7952H64.3667V94.3666H68.5716V88.3828H69.9732V94.3666H72.4799V88.3828H73.9085V94.3666H76.3883V88.3828H77.8168V94.3666H78.4098V95.7952H78.4368ZM72.992 85.7143C72.992 85.9569 72.9112 86.1456 72.7225 86.3342C72.5608 86.496 72.3451 86.6038 72.1025 86.6038C71.86 86.6038 71.6443 86.5229 71.4826 86.3342C71.2939 86.1725 71.2131 85.9569 71.2131 85.7143C71.2131 85.4717 71.2939 85.2561 71.4826 85.0674C71.6443 84.9057 71.86 84.7979 72.1295 84.7979C72.3721 84.7979 72.5608 84.8787 72.7494 85.0674C72.9112 85.283 72.992 85.4987 72.992 85.7143ZM73.9624 83.7466C73.9624 83.9623 73.8815 84.151 73.7198 84.2857C73.5581 84.4475 73.3694 84.5283 73.1807 84.5283C72.9651 84.5283 72.7764 84.4475 72.6416 84.2857C72.4799 84.124 72.399 83.9353 72.399 83.7466C72.399 83.531 72.4799 83.3423 72.6416 83.2076C72.8033 83.0458 72.992 82.965 73.1807 82.965C73.3963 82.965 73.585 83.0458 73.7198 83.2076C73.8815 83.3423 73.9624 83.531 73.9624 83.7466ZM75.2292 85.7143C75.2292 85.9569 75.1484 86.1456 74.9597 86.3342C74.771 86.5229 74.5823 86.6038 74.3667 86.6038C74.1241 86.6038 73.9085 86.5229 73.7198 86.3342C73.5311 86.1456 73.4502 85.9569 73.4502 85.7143C73.4502 85.4717 73.5311 85.2561 73.7198 85.0674C73.8815 84.9057 74.0972 84.7979 74.3667 84.7979C74.6093 84.7979 74.798 84.8787 74.9866 85.0674C75.1484 85.2561 75.2292 85.4717 75.2292 85.7143Z" fill="#006C68"/>
<path d="M78.9758 95.7951H78.3828V94.3666H78.9489C79.3532 94.3666 79.6497 94.2857 79.8383 94.124C80.0001 93.9623 80.1079 93.6658 80.1079 93.2614V85.3369H81.5364V93.3693C81.5364 94.1509 81.2939 94.7709 80.8356 95.1752C80.3774 95.6065 79.7575 95.7951 78.9758 95.7951Z" fill="#006C68"/>
<path d="M85.0405 95.7951L83.585 96.6038V85.3369H85.0405V95.7951Z" fill="#006C68"/>
<path d="M95.283 88.3558V93.2614C95.283 94.2048 94.9596 94.8787 94.3397 95.3099C93.8814 95.6334 93.2884 95.7682 92.5876 95.7682C91.7251 95.7682 91.0512 95.5256 90.593 95.0674C90.1348 94.6091 89.8922 93.9892 89.8922 93.1806V90.8625C89.8922 90 90.1348 89.3531 90.6469 88.9218C91.1052 88.5444 91.6712 88.3288 92.372 88.3288H95.283V88.3558ZM91.5095 86.6037C91.2669 86.6037 91.0512 86.5229 90.8895 86.3342C90.7008 86.1455 90.62 85.9568 90.62 85.7143C90.62 85.4717 90.7008 85.283 90.8895 85.0943C91.0782 84.9326 91.2669 84.8248 91.5095 84.8248C91.752 84.8248 91.9407 84.9056 92.1294 85.0943C92.2911 85.256 92.399 85.4717 92.399 85.7143C92.399 85.9568 92.3181 86.1725 92.1294 86.3342C91.9677 86.4959 91.752 86.6037 91.5095 86.6037ZM93.8275 93.3153V89.8113H92.399C91.7251 89.8113 91.3747 90.1886 91.3747 90.9164V93.3423C91.3747 94.07 91.779 94.4204 92.6146 94.4204C93.4232 94.3935 93.8275 94.0161 93.8275 93.3153ZM93.7197 86.6037C93.4771 86.6037 93.2615 86.5229 93.0998 86.3342C92.9111 86.1455 92.8302 85.9568 92.8302 85.7143C92.8302 85.4717 92.9111 85.283 93.0998 85.0943C93.2884 84.9326 93.4771 84.8248 93.7197 84.8248C93.9353 84.8248 94.151 84.9056 94.3127 85.0943C94.5014 85.256 94.5822 85.4717 94.5822 85.7143C94.5822 85.9568 94.5014 86.1725 94.3127 86.3342C94.151 86.4959 93.9623 86.6037 93.7197 86.6037Z" fill="#006C68"/>
<path d="M97.682 99.7034L96.6847 98.4366C97.3855 98.221 97.8707 97.9245 98.1133 97.601C98.3558 97.2776 98.4906 96.7385 98.4906 96.0107V88.3827H99.9192V96.4689C99.9192 98.0053 99.1645 99.0835 97.682 99.7034Z" fill="#006C68"/>
<path d="M103.45 95.7951L101.995 96.6038V85.3369H103.45V95.7951Z" fill="#006C68"/>
<path d="M105.849 99.7035L104.852 98.4366C105.552 98.221 106.038 97.9245 106.28 97.601C106.523 97.2776 106.658 96.7385 106.658 96.0107V88.3827H108.086V96.469C108.086 98.0054 107.331 99.0835 105.849 99.7035ZM107.385 86.6037C107.143 86.6037 106.927 86.5229 106.738 86.3342C106.577 86.1725 106.469 85.9568 106.469 85.7143C106.469 85.4717 106.55 85.283 106.738 85.0943C106.9 84.9326 107.116 84.8248 107.385 84.8248C107.601 84.8248 107.817 84.9056 107.978 85.0943C108.14 85.256 108.248 85.4717 108.248 85.7143C108.248 85.9568 108.167 86.1455 107.978 86.3342C107.817 86.5229 107.601 86.6037 107.385 86.6037Z" fill="#006C68"/>
<path d="M111.806 99.7035L110.836 98.4097H111.051C113.046 98.4097 114.043 97.6819 114.043 96.2264V95.7682H112.803C111.914 95.7682 111.24 95.5256 110.782 95.0674C110.35 94.6361 110.135 94.0162 110.135 93.2345V90.8625C110.135 90.0269 110.377 89.38 110.863 88.9488C111.321 88.5445 111.914 88.3558 112.642 88.3558H115.472V95.9569C115.472 97.2507 115.148 98.1671 114.474 98.787C113.962 99.3261 113.046 99.6226 111.806 99.7035ZM114.07 94.3666V89.8113H112.642C112.264 89.8113 111.995 89.8922 111.833 90.0808C111.671 90.2426 111.59 90.5391 111.59 90.9164V93.2884C111.59 93.7197 111.671 94.0161 111.86 94.1509C112.049 94.3126 112.399 94.3666 112.938 94.3666H114.07Z" fill="#006C68"/>
<path d="M8.05939 116.361V108.652H9.51491V116.496C9.51491 117.736 8.94887 118.679 7.84375 119.326C7.00817 119.811 6.01087 120.054 4.87879 120.054C3.58499 120.054 2.47987 119.73 1.59038 119.11C0.700897 118.464 0.242676 117.574 0.242676 116.496V112.749L1.6982 111.806V116.361C1.6982 117.17 2.07556 117.79 2.83028 118.194C3.39632 118.464 4.07017 118.625 4.87879 118.625C5.84914 118.625 6.63082 118.437 7.19685 118.032C7.78984 117.601 8.05939 117.062 8.05939 116.361ZM5.01357 106.9C4.77098 106.9 4.55534 106.819 4.36666 106.631C4.17799 106.442 4.09712 106.253 4.09712 106.011C4.09712 105.768 4.17799 105.579 4.36666 105.391C4.55534 105.229 4.77098 105.121 5.01357 105.121C5.2292 105.121 5.44483 105.202 5.60656 105.391C5.76828 105.553 5.8761 105.768 5.8761 106.011C5.8761 106.253 5.79524 106.469 5.60656 106.631C5.41788 106.792 5.2292 106.9 5.01357 106.9Z" fill="#006C68"/>
<path d="M13.9084 116.092H13.8275C13.1537 116.092 12.6146 115.849 12.1833 115.364C11.806 114.96 11.5903 114.42 11.5903 113.8V105.633H13.0459V113.747C13.0459 114.367 13.3154 114.663 13.8275 114.663H13.9084V116.092Z" fill="#006C68"/>
<path d="M16.2534 114.663H13.8275V116.092H16.2534V114.663Z" fill="#006C68"/>
<path d="M24.9327 116.092H16.1187V114.663H22.6146V111.159C22.6146 110.458 22.2642 110.108 21.5903 110.108H17.8437V108.194C17.8437 106.496 18.7332 105.633 20.5122 105.633H22.992V107.089H20.3235C19.6227 107.089 19.2723 107.439 19.2723 108.113V108.652H21.5364C22.372 108.652 22.992 108.895 23.4502 109.38C23.8275 109.811 24.0432 110.404 24.0432 111.159V114.636H24.9596V116.092H24.9327Z" fill="#006C68"/>
<path d="M27.2507 114.663H24.8248V116.092H27.2507V114.663Z" fill="#006C68"/>
<path d="M38.0324 116.092H27.1429V114.663H31.3478V108.652H32.7764V114.663H35.2562V108.652H36.6847V114.663H38.1133C38.8141 114.663 39.1645 114.34 39.1645 113.666V108.679H40.5931V113.612C40.5931 114.42 40.3505 115.067 39.8653 115.499C39.434 115.876 38.8141 116.092 38.0324 116.092Z" fill="#006C68"/>
<path d="M47.4395 116.092H42.6956V114.663H45.2832L42.9381 108.652H44.4745L46.7926 114.663H47.3856C47.8168 114.663 48.0864 114.582 48.2751 114.42C48.4368 114.259 48.5446 113.962 48.5446 113.558V105.633H49.9732V113.666C49.9732 114.447 49.7306 115.067 49.2724 115.472C48.8411 115.903 48.2212 116.092 47.4395 116.092ZM45.4179 120H42.7225V119.407H43.3694C43.2616 119.218 43.1807 119.03 43.1807 118.814C43.1807 118.464 43.2885 118.194 43.5042 117.951C43.7198 117.736 43.9894 117.628 44.3398 117.628H44.9867V118.221H44.5554C44.0702 118.221 43.8276 118.41 43.8276 118.814C43.8276 119.218 44.0702 119.407 44.5554 119.407H45.4179V120Z" fill="#006C68"/>
<path d="M53.4771 116.092L52.0216 116.9V105.633H53.4771V116.092Z" fill="#006C68"/>
<path d="M57.1969 120L56.2265 118.706H56.4422C58.4368 118.706 59.4341 117.978 59.4341 116.523V116.065H58.1942C57.3047 116.065 56.6309 115.822 56.1457 115.364C55.7144 114.933 55.4988 114.313 55.4988 113.531V111.159C55.4988 110.323 55.7414 109.677 56.2265 109.245C56.6848 108.841 57.2778 108.652 58.0055 108.652H60.8357V116.253C60.8357 117.547 60.5123 118.464 59.8654 119.084C59.3263 119.623 58.4368 119.919 57.1969 120ZM59.461 114.663V110.108H58.0055C57.6282 110.108 57.3586 110.189 57.2238 110.377C57.0621 110.539 56.9813 110.836 56.9813 111.213V113.585C56.9813 114.016 57.0621 114.313 57.2508 114.447C57.4395 114.609 57.7899 114.663 58.329 114.663H59.461Z" fill="#006C68"/>
<path d="M72.0216 116.092H69.7035V115.148L69.0027 116.092H68.4636C67.5202 116.092 66.8194 115.849 66.3612 115.337C65.9838 114.906 65.7682 114.313 65.7682 113.558V111.186C65.7682 110.323 66.0377 109.65 66.6038 109.191C67.062 108.841 67.628 108.652 68.3019 108.652H71.1321V114.663H71.9946V116.092H72.0216ZM67.3854 106.9C67.1429 106.9 66.9272 106.819 66.7655 106.631C66.5768 106.442 66.496 106.253 66.496 106.011C66.496 105.768 66.5768 105.579 66.7655 105.391C66.9542 105.229 67.1429 105.121 67.3854 105.121C67.628 105.121 67.8167 105.202 68.0054 105.391C68.1671 105.553 68.2749 105.768 68.2749 106.011C68.2749 106.253 68.1941 106.469 68.0054 106.631C67.8437 106.792 67.628 106.9 67.3854 106.9ZM69.7035 114.663V110.108H68.2749C67.6011 110.108 67.2507 110.458 67.2507 111.159V113.612C67.2507 113.989 67.3315 114.286 67.5202 114.447C67.6819 114.609 67.9784 114.69 68.3827 114.69H69.7035V114.663ZM69.5957 106.9C69.3531 106.9 69.1644 106.819 68.9757 106.631C68.814 106.442 68.7062 106.253 68.7062 106.011C68.7062 105.768 68.7871 105.579 68.9757 105.391C69.1375 105.229 69.3531 105.121 69.5957 105.121C69.8383 105.121 70.0269 105.202 70.2156 105.391C70.3774 105.553 70.4852 105.768 70.4852 106.011C70.4852 106.253 70.4043 106.469 70.2156 106.631C70.0269 106.792 69.8383 106.9 69.5957 106.9Z" fill="#006C68"/>
<path d="M74.3667 114.663H71.9408V116.092H74.3667V114.663Z" fill="#006C68"/>
<path d="M75.8761 116.092H74.2319V114.663H75.984C76.6848 114.663 77.0352 114.34 77.0352 113.666V108.652H78.4637V113.585C78.4637 114.474 78.1672 115.148 77.6012 115.579C77.143 115.93 76.5769 116.092 75.8761 116.092ZM76.4152 119.137C76.4152 119.38 76.3344 119.569 76.1457 119.757C75.9839 119.919 75.7683 120.027 75.5257 120.027C75.2831 120.027 75.0675 119.946 74.9058 119.784C74.7441 119.623 74.6632 119.407 74.6632 119.164C74.6632 118.922 74.7441 118.733 74.9327 118.544C75.0945 118.383 75.3101 118.275 75.5527 118.275C75.7953 118.275 75.9839 118.356 76.1726 118.544C76.3344 118.679 76.4152 118.895 76.4152 119.137ZM77.7899 120C77.5473 120 77.3317 119.919 77.143 119.757C76.9813 119.596 76.8734 119.38 76.8734 119.137C76.8734 118.895 76.9543 118.706 77.143 118.518C77.3047 118.356 77.5203 118.248 77.7899 118.248C78.0055 118.248 78.2211 118.329 78.3829 118.518C78.5446 118.679 78.6524 118.895 78.6524 119.137C78.6524 119.38 78.5716 119.569 78.4098 119.757C78.2212 119.919 78.0055 120 77.7899 120Z" fill="#006C68"/>
<path d="M82.1834 120L81.213 118.706H81.4286C83.4233 118.706 84.4206 117.978 84.4206 116.523V116.065H83.1807C82.2912 116.065 81.6173 115.822 81.1591 115.364C80.7278 114.933 80.5122 114.313 80.5122 113.531V111.159C80.5122 110.323 80.7548 109.677 81.24 109.245C81.6982 108.841 82.2912 108.652 83.0189 108.652H85.8491V116.253C85.8491 117.547 85.5257 118.464 84.8518 119.084C84.3397 119.623 83.4233 119.919 82.1834 120ZM84.4475 114.663V110.108H83.0189C82.6416 110.108 82.372 110.189 82.2373 110.377C82.0755 110.539 81.9947 110.836 81.9947 111.213V113.585C81.9947 114.016 82.0755 114.313 82.2642 114.447C82.4529 114.609 82.8033 114.663 83.3424 114.663H84.4475Z" fill="#006C68"/>
<path d="M88.3289 120L87.3315 118.733C88.0324 118.517 88.5175 118.221 88.7601 117.898C89.0027 117.574 89.1375 117.035 89.1375 116.307V108.679H90.566V114.69H91.4555V116.119H90.566V116.765C90.5391 118.302 89.7844 119.38 88.3289 120Z" fill="#006C68"/>
<path d="M99.2184 116.092H91.3208V114.663H92.965V111.186C92.965 110.323 93.2076 109.677 93.7197 109.245C94.1779 108.868 94.744 108.652 95.4448 108.652H98.3289V114.663H99.1914V116.092H99.2184ZM94.6092 106.9C94.3666 106.9 94.151 106.819 93.9623 106.631C93.7736 106.442 93.6928 106.253 93.6928 106.011C93.6928 105.768 93.7736 105.579 93.9623 105.391C94.151 105.229 94.3666 105.121 94.6092 105.121C94.8248 105.121 95.0405 105.202 95.2022 105.391C95.3639 105.553 95.4717 105.768 95.4717 106.011C95.4717 106.253 95.3909 106.469 95.2022 106.631C95.0135 106.792 94.8248 106.9 94.6092 106.9ZM96.9003 114.663V110.108H95.4717C94.7979 110.108 94.4475 110.485 94.4475 111.213V114.69H96.9003V114.663ZM96.7655 106.9C96.523 106.9 96.3073 106.819 96.1456 106.631C95.9569 106.442 95.8761 106.253 95.8761 106.011C95.8761 105.768 95.9569 105.579 96.1456 105.391C96.3343 105.229 96.523 105.121 96.7655 105.121C97.0081 105.121 97.1968 105.202 97.3855 105.391C97.5472 105.553 97.655 105.768 97.655 106.011C97.655 106.253 97.5742 106.469 97.3855 106.631C97.2238 106.792 97.0081 106.9 96.7655 106.9Z" fill="#006C68"/>
<path d="M101.563 114.663H99.1376V116.092H101.563V114.663Z" fill="#006C68"/>
<path d="M102.049 116.092H101.456V114.663H102.022C102.426 114.663 102.722 114.582 102.911 114.42C103.073 114.259 103.181 113.962 103.181 113.558V105.633H104.609V113.666C104.609 114.447 104.367 115.067 103.908 115.472C103.45 115.903 102.83 116.092 102.049 116.092Z" fill="#006C68"/>
<path d="M108.086 116.092L106.631 116.9V105.633H108.086V116.092Z" fill="#006C68"/>
<path d="M111.806 120L110.836 118.706H111.051C113.046 118.706 114.043 117.978 114.043 116.523V116.065H112.803C111.914 116.065 111.24 115.822 110.782 115.364C110.35 114.933 110.135 114.313 110.135 113.531V111.159C110.135 110.323 110.377 109.677 110.863 109.245C111.321 108.841 111.914 108.652 112.642 108.652H115.472V116.253C115.472 117.547 115.148 118.464 114.474 119.084C113.962 119.623 113.046 119.919 111.806 120ZM114.07 114.663V110.108H112.642C112.264 110.108 111.995 110.189 111.833 110.377C111.671 110.539 111.59 110.836 111.59 111.213V113.585C111.59 114.016 111.671 114.313 111.86 114.447C112.049 114.609 112.399 114.663 112.938 114.663H114.07Z" fill="#006C68"/>
</svg>
