<svg width="120" height="106" viewBox="0 0 120 106" fill="none" xmlns="http://www.w3.org/2000/svg">
<path d="M120 105.127V101.851H110.309V89.0969H106.659V105.127H120ZM71.1505 105.127H84.9398V101.958H74.8006V98.4996H83.9258V95.5433H74.8006V92.2667H84.8864V89.0969H71.1505V105.127ZM41.0957 97.1122V92.1386H46.3681C46.9765 92.1173 47.5848 92.2027 48.1505 92.4161C48.5347 92.5655 48.8549 92.8537 49.047 93.2272C49.2284 93.6542 49.3138 94.1238 49.3032 94.5827C49.3779 95.2978 49.1217 96.0129 48.6094 96.5252C47.9584 96.9734 47.1686 97.1762 46.3681 97.1122H41.0957ZM37.4563 89.0969V105.127H41.1064V100.175H46.5816C48.6948 100.175 50.2744 99.7483 51.3203 98.8839C52.3663 98.0194 52.8892 96.6212 52.8892 94.6681C52.9426 93.5261 52.7078 92.3734 52.1848 91.3488C51.7152 90.5484 50.9788 89.9293 50.1036 89.6198C48.9723 89.2356 47.7769 89.0648 46.5816 89.0969H37.4563ZM6.06751 101.637C5.30973 101.317 4.70138 100.73 4.34918 99.9832C3.97563 99.0866 3.79419 98.1154 3.82621 97.1335C3.79419 96.1516 3.96496 95.1804 4.32783 94.2732C4.66937 93.5261 5.27772 92.9391 6.03549 92.6082C7.07075 92.192 8.1914 91.9999 9.31205 92.0532C10.4434 91.9999 11.564 92.1813 12.6313 92.5869C13.3784 92.9071 13.9867 93.4941 14.3176 94.2412C14.6805 95.1484 14.8619 96.1303 14.8192 97.1122C14.8619 98.0941 14.6805 99.076 14.3176 99.9832C13.9654 100.72 13.3571 101.307 12.5993 101.616C11.5533 102.022 10.4327 102.203 9.31205 102.16C8.21274 102.214 7.10277 102.032 6.06751 101.637ZM14.5844 104.498C15.8972 103.953 16.9858 102.972 17.6689 101.733C19.0137 98.8091 19.0137 95.4259 17.6689 92.5015C16.9858 91.2528 15.8972 90.2815 14.5844 89.7372C12.9088 89.0755 11.1158 88.7553 9.31205 88.8194C7.51901 88.7553 5.73665 89.0755 4.07169 89.7372C2.7696 90.2922 1.69164 91.2634 1.00858 92.5015C-0.336194 95.4259 -0.336194 98.8091 1.00858 101.733C1.69164 102.972 2.7696 103.953 4.07169 104.498C5.74732 105.17 7.54036 105.48 9.34407 105.416C11.1371 105.48 12.9195 105.159 14.5844 104.498Z" fill="#1D1D1B"/>
<path d="M105.314 39.863L96.5411 39.308L95.4845 39.244C95.5592 38.2621 95.6126 37.2802 95.6126 36.2876C95.6126 16.3828 79.2298 0 59.3249 0C42.4619 0 27.712 11.7508 23.9552 28.1976H15.9292C15.4916 28.1976 15.086 28.4004 14.8192 28.7419L12.77 31.5702C12.674 31.6983 12.6206 31.8477 12.6206 31.9972C12.6206 32.3814 12.9408 32.7016 13.325 32.7016L22.0661 33.2459L23.1654 33.3099C23.0907 34.2918 23.0373 35.2844 23.0373 36.277C23.0373 56.1818 39.4201 72.5646 59.3249 72.5646C76.188 72.5646 90.9379 60.8138 94.6947 44.367H102.721C103.158 44.367 103.564 44.1642 103.831 43.8227L105.88 40.9944C105.976 40.8663 106.029 40.7169 106.029 40.5674C106.019 40.1725 105.698 39.863 105.314 39.863ZM59.3143 4.19442C76.9138 4.21577 91.3755 18.6881 91.3968 36.277C91.3968 37.1842 91.3541 38.0807 91.2794 38.9665H91.2687L64.4479 37.2589L76.0813 29.2863C76.2414 29.1689 76.3374 28.9874 76.3374 28.7846C76.3374 28.4538 76.0599 28.1763 75.7291 28.1763H28.267C31.9598 14.1095 44.7672 4.2051 59.3143 4.19442ZM59.3143 68.3595C41.7254 68.3382 27.2531 53.8658 27.2317 36.277C27.2317 35.3591 27.2744 34.4626 27.3491 33.5661L54.1699 35.2417L42.5579 43.2677C42.3978 43.3851 42.3018 43.5665 42.3018 43.7693C42.3018 44.1002 42.5792 44.3776 42.9101 44.3776H90.3615C86.6687 58.4444 73.8613 68.3382 59.3143 68.3595Z" fill="#1D1D1B"/>
</svg>
