<svg width="148" height="110" viewBox="0 0 148 110" fill="none" xmlns="http://www.w3.org/2000/svg">
<path d="M39.6871 33.8316C39.6871 33.8316 39.5885 34.1275 39.5885 34.1867C39.5491 34.2853 39.5096 34.3839 39.4307 34.4826C39.2729 34.6798 39.0362 34.8573 38.7798 34.8771C38.4839 34.8968 38.188 34.7982 38.0302 34.5417C37.7935 34.1669 37.8132 33.7922 37.9119 33.3779C38.0302 32.8453 38.188 32.3719 38.3853 31.8985C38.4839 31.6618 38.5628 31.4448 38.6614 31.2673C38.7403 31.0701 38.8192 30.9122 38.8784 30.7939C39.0165 30.4191 39.2532 29.9457 39.4504 29.5709V29.2553C39.2137 29.5315 39.0362 29.8076 38.8587 30.0838C38.405 30.7939 37.9316 31.6421 37.5765 32.4903C37.4582 32.7664 37.3398 33.0426 37.2412 33.3188C37.0637 33.8711 36.9453 34.4431 36.965 35.0151C36.9848 35.4688 37.0637 35.9422 37.3201 36.2973C37.5173 36.5734 37.7935 36.8102 38.1091 36.9088C38.405 37.0074 38.7798 37.0666 39.0757 36.9088C39.2532 36.7904 39.4307 36.5735 39.5491 36.4156C39.9436 35.7253 40.1408 34.8968 39.845 34.1275C39.7858 34.0091 39.7266 33.9302 39.6871 33.8119" fill="#C7932C"/>
<path fill-rule="evenodd" clip-rule="evenodd" d="M57.618 19.3926L57.3616 21.0101C57.3616 21.0101 59.4722 22.0752 60.0442 23.9294C60.7149 25.7836 59.2749 26.908 59.3341 28.3085C59.3341 28.6833 59.63 28.9002 59.63 28.9002C61.0502 29.5906 62.1943 31.4448 59.63 30.8136V31.6026C59.63 31.6026 61.0502 32.0169 61.6223 31.3856C62.0365 30.9122 61.6814 29.4131 61.6814 29.4131C60.8333 27.9731 59.7681 29.3342 60.3993 26.9277C60.8924 24.8171 61.5434 24.3634 60.1231 21.9569C59.2749 20.4578 57.618 19.3926 57.618 19.3926Z" fill="#C7932C"/>
<path d="M76.8903 15.132C76.8508 15.2306 76.8114 15.2898 76.7916 15.4081C76.7127 15.6449 76.476 15.8816 76.1802 15.9013C75.8448 15.9013 75.5292 15.6449 75.3714 15.349C75.7659 14.3035 76.476 13.4356 76.6338 12.2521C76.1013 13.1397 75.3911 14.0076 75.1544 15.0925C75.1544 15.0925 75.115 15.2701 75.0953 15.5068V15.5659C75.0558 15.8421 75.0558 16.1972 75.0953 16.4339C75.2333 16.927 75.7265 17.1834 76.2393 17.0651C76.693 16.5522 77.1664 15.9013 76.8508 15.1517" fill="#C7932C"/>
<path d="M55.567 26.9676C55.567 26.9676 55.4881 27.1254 55.4684 27.2437C55.3698 27.5002 55.1331 27.7171 54.8964 27.7369C54.5413 27.7171 54.2454 27.4804 54.0876 27.1451C54.4821 26.1194 55.1923 25.2317 55.3501 24.0679C54.8175 24.9753 54.1074 25.8235 53.8904 26.9084C53.8904 26.9084 53.8312 27.0859 53.8115 27.3029V27.3818C53.7917 27.658 53.772 28.013 53.8312 28.2497C53.9693 28.7231 54.4624 28.9993 54.9555 28.8809C55.429 28.3681 55.9024 27.7171 55.5868 26.9478" fill="#C7932C"/>
<path d="M65.8833 4.02684C65.8833 4.02684 65.8044 4.16491 65.7847 4.28327C65.686 4.5397 65.469 4.75668 65.1929 4.79613C64.8378 4.7764 64.5222 4.5397 64.3644 4.22409C64.7589 3.17864 65.469 2.291 65.6466 1.1272C65.0943 2.03457 64.4039 2.88276 64.1474 3.94793C64.1474 3.94793 64.1277 4.12546 64.0883 4.36217C64.0883 4.40162 64.0488 4.42135 64.0488 4.44107C64.0488 4.71723 64.0291 5.07228 64.0883 5.30899C64.2263 5.80213 64.7195 6.05856 65.1929 5.9402C65.6663 5.44707 66.1594 4.79613 65.8438 4.02684" fill="#C7932C"/>
<path d="M90.9534 5.09192C90.9534 5.09192 90.2828 4.57906 89.4937 4.50016C89.0795 4.46071 88.5864 4.65796 88.3891 4.91439C88.3299 4.97357 87.8565 5.54561 88.1524 6.21627V6.25572C88.2905 6.53188 88.4483 6.78831 88.6258 7.02501C88.6258 7.02501 88.6258 7.02501 88.6258 7.04474C88.685 7.12364 88.7442 7.16309 88.8033 7.24199C88.8625 7.28144 88.8823 7.30117 88.902 7.32089C88.9809 7.38007 89.0401 7.41952 89.0795 7.45897C89.119 7.49842 89.1781 7.51815 89.2176 7.51815C89.3162 7.57733 89.3754 7.61678 89.474 7.65623C89.7502 7.77458 90.0461 7.83376 90.3419 7.83376C90.263 7.75485 90.1841 7.65623 90.0855 7.57733C90.0461 7.49842 89.9672 7.3998 89.8883 7.26172C89.7107 6.94611 89.8882 6.53188 90.0066 6.35435C90.1447 6.17682 90.5984 5.97956 90.9534 6.05847C92.2159 6.59105 92.926 7.93238 93.7347 8.93838C93.9714 9.21454 94.1687 9.68795 94.5435 9.68795C93.715 7.99156 92.5709 6.15709 90.8942 5.09192" fill="#C7932C"/>
<path d="M47.5181 18.6623C47.5181 18.6623 47.163 19.688 46.157 20.3981C45.1313 21.1082 43.4349 21.7197 42.9023 21.8381H42.9615H42.9221C42.9221 21.8381 42.9812 21.8381 43.001 21.8381C43.3955 21.8381 44.8552 21.8578 45.9006 21.5225C46.8869 21.2266 47.163 20.477 47.3406 20.1614C47.4195 20.0431 47.4786 19.8261 47.5378 19.6091C47.597 19.2738 47.6167 18.8595 47.5181 18.6623Z" fill="#C7932C"/>
<path d="M77.2444 41.8006C77.3825 41.4455 77.5994 41.1299 77.6586 40.9721C77.6586 40.9326 77.6783 40.9129 77.6981 40.8932L78.4476 41.3666C78.4476 41.3666 78.8619 40.7946 78.8421 40.3409C78.8421 39.9069 78.1715 39.3941 77.7375 39.6505C77.343 39.8872 77.0866 40.7748 76.9485 41.1891C76.8104 41.6033 76.2778 43.3589 76.2778 43.3589C76.2778 43.3589 76.0017 42.7079 75.6269 41.5244C75.2324 40.3606 74.7195 40.0647 74.3842 39.9069C74.2856 39.828 74.1869 39.8083 74.0489 39.8083C74.0291 39.8083 73.9897 39.8083 73.9897 39.8083C73.5557 39.8083 73.319 40.2225 73.2598 40.6368C73.2007 41.0904 73.4571 41.5244 73.6938 41.8006C73.9305 42.0767 74.2856 42.1951 74.5025 42.1162C74.6998 42.0767 74.7787 41.6428 74.7787 41.6428C75.0549 41.9584 75.3507 42.9446 75.5874 43.7337C75.6466 44.1479 75.7847 44.5424 75.8636 44.8975C74.5814 45.9232 74.8773 46.4952 74.8773 46.4952C75.0154 46.298 75.1535 46.1796 75.3113 46.081C75.3507 46.0415 75.4296 46.0021 75.5085 45.9824C75.6269 45.9232 75.765 45.9232 75.8833 45.9232H75.9031C76.2581 46.0021 76.4948 46.2388 76.554 46.298V46.3374H76.5145C76.3173 46.3966 76.0806 46.4952 75.8241 46.6925C74.6406 47.5801 74.6998 48.4086 75.0154 49.5329C75.0351 49.6316 75.0746 49.7302 75.0943 49.8288C75.2324 50.3417 75.3902 50.8743 75.548 51.3871C75.8241 52.3537 76.0609 53.261 76.0609 53.261C76.0609 53.261 76.2976 52.6693 76.337 52.4129C76.3765 52.1564 76.0609 50.7362 75.7255 49.7302C75.3902 48.7242 75.3902 48.093 75.3902 48.093C75.8241 47.6196 76.3962 47.3829 76.7512 47.3434C76.988 47.2842 77.5008 47.2448 77.777 47.2448H77.9545V47.2053C78.132 47.0475 78.2898 46.6727 78.2898 46.4952C78.2898 46.4558 78.3293 46.4163 78.2898 46.3177C78.2898 46.2585 78.2504 46.2191 78.2109 46.1599C78.1123 46.0415 77.9742 45.8837 77.7375 45.647C77.56 45.5089 77.4614 45.3709 77.3036 45.2722C77.0274 45.0553 76.7512 44.858 76.3765 44.7988C76.2976 44.7594 76.2384 44.7594 76.2384 44.7594C76.4948 44.4635 76.7315 43.4378 76.9288 42.6882C76.988 42.4121 77.0866 42.0964 77.2049 41.8203" fill="#C7932C"/>
<path d="M93.7553 15.9604C94.0117 16.059 94.2681 16.0196 94.4062 15.7829C94.8205 15.3489 95.1558 14.698 94.8599 14.0273C94.7613 14.2837 94.6627 14.698 94.3273 14.7966C93.8934 14.8755 93.5975 14.5796 93.3411 14.2837C93.7158 13.2186 94.4654 12.3112 94.6824 11.1474C94.0314 12.1928 93.2424 13.1988 93.0452 14.5205C93.0846 15.0925 93.1635 15.7632 93.7553 15.9604Z" fill="#C7932C"/>
<path d="M82.275 54.3657C82.5117 52.8666 83.3402 51.7225 84.3856 50.7165C86.0623 49.4343 87.1472 47.6788 88.4293 46.1007C88.6266 45.8838 88.666 45.4498 89.0803 45.509C90.6386 44.6608 92.0194 43.4181 93.124 42.0176C99.8504 32.3324 94.2286 19.9251 92.9267 17.2621C90.0468 11.6996 81.841 2.05383 81.9397 2.05383C81.9397 2.27081 82.6301 7.12327 82.709 7.28107C83.4585 12.2716 85.3127 18.8402 86.5357 23.0614C85.7467 22.8444 84.9577 22.588 84.1095 22.4105C83.5177 23.8702 82.9259 25.2904 82.4328 26.8093C83.4388 27.1051 86.6738 28.9791 87.2261 28.1506C87.9757 26.9868 88.5871 25.7046 88.6069 24.1463C88.2124 23.5743 87.4233 23.4559 86.7921 23.1601L86.9105 22.9431C86.9894 21.9963 85.5297 14.3033 85.5691 14.0074C86.7132 15.0923 90.0863 18.1301 92.1377 22.233C93.341 24.7775 94.6626 32.6283 89.6129 37.1059C89.4945 36.6128 89.3564 35.5279 89.3564 35.5279C89.2184 34.226 88.9225 32.9833 88.3702 31.8984C87.7192 30.7741 86.5357 30.0442 85.076 30.2612C83.3993 30.4782 82.7879 31.1686 82.275 32.0168C81.6241 33.0622 81.2098 35.2715 81.2098 35.2715C81.2098 35.2715 81.0126 36.6523 81.0717 37.3624L81.2098 38.5853C81.5649 40.5184 82.4525 42.1951 83.3204 43.8126C81.9791 44.7989 80.4405 45.9429 79.6121 47.4618C79.2965 48.0338 79.3359 48.7834 79.2767 49.4738L79.2176 52.8863C79.2176 52.8863 78.7836 57.8571 77.4423 62.2953C74.7202 71.3493 61.5238 68.9231 61.5238 68.9231C61.5238 68.9231 57.8746 68.5286 53.0024 66.5757C58.1113 71.2704 67.2837 72.1778 67.2837 72.1778C68.8617 72.3948 70.637 72.2764 72.2939 72.2764C72.2939 72.2764 73.4183 72.1975 74.0889 72.0791C74.0889 72.0791 77.1267 71.5268 79.3162 69.1795C80.8745 67.3253 81.2493 65.6092 81.6438 62.9463C82.058 60.3031 82.275 54.3262 82.275 54.3262M84.5434 36.4155C84.8985 36.238 85.1549 36.1394 85.5889 36.1394L86.2595 36.3366C86.6541 36.5142 87.1077 36.889 87.2655 37.3229C87.4036 38.3486 87.1275 39.3152 86.3384 39.8083C85.865 40.0845 85.2141 40.1437 84.6223 39.9661C84.0503 39.7097 83.4191 39.2363 83.3796 38.4867C83.3796 37.5793 83.853 36.9087 84.5237 36.4155" fill="#C7932C"/>
<path d="M94.031 44.3655C93.7943 44.5036 92.1177 45.9041 94.6031 46.8509C94.8201 46.9298 94.8201 46.5156 94.9187 46.3578C95.3132 46.7325 95.471 47.2257 95.5302 47.7583C95.7472 48.5867 95.7669 49.4744 96.2403 50.1845C97.0293 48.8037 96.9504 46.9101 97.8381 45.6082L98.5679 46.0816C98.7454 45.7068 99.0808 45.3123 98.8835 44.7994C98.7257 44.5233 98.489 44.1485 98.1339 44.1288C97.8578 44.1682 97.6605 44.3852 97.5422 44.5825C97.1279 45.7857 96.8123 47.0679 96.4178 48.2514C96.3192 48.0344 96.2206 47.7977 96.1417 47.5807C95.6288 46.4169 95.6288 44.5825 94.0508 44.3852" fill="#C7932C"/>
<path d="M90.0069 51.5256C89.1784 52.65 88.4683 53.7743 87.9555 55.1748C87.8371 55.5102 87.5215 57.8575 87.8568 58.469C88.1527 59.0213 88.4486 59.258 89.2376 59.2383C91.0918 59.2383 90.4211 56.3189 90.2436 56.1019C90.1844 56.5359 90.0266 57.1671 89.5927 57.3249C89.0206 57.5616 88.3894 57.246 88.3302 56.7331C88.1133 54.7409 89.4546 53.3996 90.0661 51.8018C90.0661 51.8018 90.0661 51.5651 89.9872 51.5454" fill="#C7932C"/>
<path d="M71.8602 57.8571C71.8602 57.8571 70.7359 59.5732 70.6372 59.731C70.1047 60.6778 69.7496 61.6246 69.651 62.7095C69.6115 63.0054 69.5918 63.321 69.5918 63.6366C69.5326 64.2875 69.5918 65.0371 70.2625 65.3922C70.5189 65.5303 70.8148 65.5697 71.1107 65.5697C72.9648 65.5697 72.2745 62.6701 72.1166 62.4531C72.0575 62.8673 71.9194 63.5183 71.4854 63.6563C70.9134 63.893 70.2822 63.5774 70.223 63.0646C70.0258 61.092 71.3474 59.731 71.9589 58.1529C71.9589 58.1529 71.9588 57.8965 71.8602 57.8571Z" fill="#C7932C"/>
<path d="M60.1032 58.7054C60.6949 57.9756 61.1881 57.009 60.8133 55.9044C60.6949 55.7663 60.5766 55.5099 60.3201 55.4704C59.8467 55.2535 59.6889 55.7269 59.393 55.9439C59.1366 56.2989 58.8802 56.8118 59.0774 57.2655C59.1958 57.1077 59.1563 56.8907 59.393 56.7723C59.4917 56.6145 59.7678 56.5356 60.0045 56.5948C60.261 56.7526 60.4977 56.9696 60.5766 57.2655C60.044 58.2517 59.255 59.0802 58.8999 60.1651L60.1032 58.6857V58.7054Z" fill="#C7932C"/>
<path d="M88.9815 53.34C88.4489 54.1093 88.0149 55.1153 88.4686 56.1607C88.5869 56.2988 88.7447 56.5355 88.9815 56.5552C89.4351 56.7328 89.5929 56.2594 89.8691 56.0424C90.1058 55.6479 90.3031 55.135 90.1058 54.6813C90.0072 54.8391 90.0466 55.0561 89.8296 55.1942C89.7507 55.3717 89.4746 55.4703 89.2379 55.4309C88.9815 55.2731 88.7053 55.0758 88.6461 54.7799C89.0998 53.7739 89.8296 52.8863 90.1058 51.7817L89.0012 53.34H88.9815Z" fill="#C7932C"/>
<path d="M75.4895 57.3441C74.9569 58.1134 74.5229 59.1194 74.9569 60.1649C75.095 60.2832 75.2528 60.5397 75.4895 60.5594C75.9432 60.7369 76.101 60.2635 76.3771 60.0268C76.6138 59.6323 76.8308 59.1194 76.6138 58.6855C76.4955 58.8235 76.5349 59.0405 76.318 59.1983C76.2193 59.3561 75.9432 59.4548 75.7262 59.4153C75.4698 59.2772 75.1936 59.08 75.1147 58.7841C75.5881 57.7584 76.318 56.8707 76.5941 55.7858L75.4895 57.3441Z" fill="#C7932C"/>
<path d="M96.4577 9.11554C96.4577 9.11554 99.0812 42.6685 100.699 45.1539C100.699 45.1539 98.5092 24.5408 98.9037 23.4165C98.9037 23.4165 103.224 29.7286 104.486 38.1514C104.486 38.1514 108.293 54.6221 84.7803 64.0312C84.7803 64.0312 91.4869 64.0706 94.4457 63.0252C94.4457 63.0252 104.841 60.4214 106.577 43.7337C106.577 43.7337 108.53 27.1643 96.4775 9.11554" fill="#C7932C"/>
<path d="M47.5583 17.302C47.9331 17.3414 48.0317 16.7694 48.0317 16.7694C48.3473 17.0061 48.5051 17.4795 48.584 17.874C48.6037 18.0318 48.6432 18.1502 48.6629 18.2882C48.7615 19.0181 48.8799 19.8071 49.2349 20.458C49.2349 20.4975 49.2744 20.5172 49.2941 20.5764C49.2744 20.5764 49.5506 20.1227 49.5703 20.0833C49.8859 19.3731 50.0634 18.6433 50.2212 17.9135C50.3593 17.2231 50.4974 16.5327 50.9116 15.9804L51.6414 16.4735L51.6612 16.4538C51.9965 15.9409 52.1149 15.6056 52.0557 15.3491C52.0557 15.1519 51.7203 14.6193 51.3061 14.5601C51.3061 14.5601 51.2272 14.5404 51.1878 14.5404H51.1483C51.1483 14.5404 51.1286 14.5601 51.0891 14.5601C51.0694 14.5601 51.0497 14.5601 51.0102 14.5601C50.4382 14.7574 50.2015 16.0001 50.1029 16.4143C50.0042 16.8286 49.4914 18.6038 49.4914 18.6038C49.3336 18.1896 48.7024 16.1382 48.7024 16.1382C48.2881 15.1322 47.5583 14.6785 47.1638 14.6785C46.8679 14.6982 46.3156 15.1322 46.4537 15.8817C46.5917 16.651 47.1638 17.2231 47.5583 17.2625" fill="#C7932C"/>
<path d="M85.7261 64.7811C85.45 64.9783 85.3119 65.4518 85.2133 65.7674C85.1738 65.9646 85.1344 66.1619 85.1147 66.3591C85.0555 67.227 85.0358 67.2665 84.7793 67.4046H84.7004C84.7004 67.4046 83.9706 66.2013 83.5563 65.8463C83.5169 65.8265 83.4577 65.7674 83.3985 65.7279C83.3788 65.7279 83.3591 65.6885 83.3196 65.6687C83.0829 65.5109 82.8265 65.4123 82.6687 65.4912H82.649C82.649 65.4912 82.5701 65.5701 82.5503 65.6293C82.432 66.0041 82.4912 66.6353 82.8265 66.8523C83.0632 67.0101 83.2407 66.8523 83.2407 66.7931C83.2605 66.7536 83.3591 66.6353 83.4972 66.6155C83.5366 66.6155 83.5958 66.6353 83.6352 66.655C83.8325 66.8128 84.0495 66.9706 84.2073 67.1876C84.3454 67.3651 84.4243 67.5821 84.5032 67.7991C84.5623 67.878 84.6018 67.9766 84.661 68.0752C84.661 68.1147 84.8385 68.2922 84.8188 68.3119C84.7596 68.5092 84.6807 68.6867 84.5821 68.8643C84.4045 69.1404 84.1087 69.4955 83.7141 69.7913C82.8462 70.4028 81.3865 70.9354 80.9329 71.0341H80.992C80.992 71.0341 80.9723 71.0341 80.9526 71.0341C80.992 71.0341 81.0118 71.0341 81.0118 71.0341H81.0907C81.5049 71.0341 82.649 71.034 83.5169 70.7776C84.1678 70.5804 84.661 70.0281 84.8582 69.3771C84.9371 69.1207 84.9569 68.8445 84.9569 68.5684C84.9569 68.5486 84.8977 68.3317 84.9174 68.3317C84.9569 68.2922 84.9569 68.2528 84.9569 68.2133C84.9569 68.2133 84.9569 68.2133 84.9963 68.1739C85.1738 67.7596 85.2527 67.2665 85.3908 66.8128C85.4697 66.4775 85.5881 66.1421 85.667 65.9252C85.667 65.9252 85.805 65.6885 85.9431 65.7082C86.0812 65.7082 86.2982 65.7871 86.3968 66.0632C86.3968 66.0632 86.4757 65.9843 86.4757 65.9646C86.5349 65.8265 86.5743 65.6885 86.5941 65.5701C86.6335 65.1756 86.5941 64.643 86.0615 64.643C85.9431 64.643 85.8248 64.6627 85.7261 64.7416" fill="#C7932C"/>
<path d="M79.9068 5.072C79.7687 4.87475 78.7824 3.45452 78.3287 2.98111C77.0268 1.6595 75.8236 1.10719 75.8236 1.10719C75.8236 1.10719 72.4111 -0.904806 70.3005 0.495701C68.1899 1.89621 67.1444 5.28898 66.8288 7.18263C65.6058 15.1714 67.1049 17.4596 67.1049 17.4596C67.1641 17.5977 67.2233 17.6963 67.3219 17.8146L72.1349 22.7263C73.5354 24.3438 73.279 25.6654 73.2396 26.2769C73.8708 25.5076 74.3047 24.6002 74.502 23.5942C74.6992 22.8052 74.3442 20.2409 74.3442 20.2409C73.9694 16.9862 68.8013 13.1397 68.8013 13.1397C68.8013 13.1397 68.4068 12.6268 68.6041 10.7332C68.6041 10.7332 68.7816 9.52995 69.5115 8.34643C70.044 7.49823 70.5175 6.76839 71.9377 6.61059C72.2336 6.57114 72.2927 6.61059 72.5689 6.61059C75.4291 6.84729 77.5792 8.78039 79.0783 11.0291C80.4788 13.1397 80.5971 15.9802 80.5971 15.9802C80.5971 15.9802 79.7884 26.1585 71.2078 32.1156C70.044 27.7168 68.3871 23.6139 66.5329 19.6097C65.093 16.6903 63.6727 13.7315 62.075 10.9107V12.0548C62.075 12.0548 64.3434 35.8634 64.4223 36.4355C63.2782 36.8891 61.8777 37.4612 60.2997 37.7768C60.3588 38.0135 60.3983 38.2305 60.418 38.4474C60.6745 38.4474 61.4043 38.6447 64.6393 38.0924C64.6393 38.7039 65.7044 45.2922 66.3159 46.9688C66.454 45.6472 65.4875 37.974 65.4875 37.974C66.3948 37.974 69.4523 37.3428 69.5904 37.2836C70.6161 41.7416 70.3794 44.9568 70.3794 44.9568C70.3794 44.9568 70.1032 50.7561 67.243 54.07C63.8108 58.7449 58.9583 62.8281 52.4489 61.901C52.4489 61.901 46.3932 60.7372 43.3752 57.3839C45.8212 60.4413 48.8392 63.2029 52.2714 64.8795C53.3563 65.3924 61.424 68.292 66.5526 62.69C74.502 53.5966 72.6281 41.2287 72.6281 41.2287C72.6281 41.2287 72.2927 37.2639 72.0758 36.5341C86.7909 31.3857 82.4513 8.30698 79.9659 5.03255M65.3099 36.0409C65.093 34.2657 64.5012 25.0341 64.5012 25.0341C66.1187 27.8943 67.5389 30.8926 68.6238 34.0684C67.5784 34.7982 66.454 35.5281 65.3099 36.0409Z" fill="#C7932C"/>
<path d="M53.6926 42.9054C52.9233 42.4123 52.0356 42.1756 51.148 41.8994C50.5562 41.7022 49.9645 41.5049 49.2938 41.4063C48.6429 42.8265 48.1694 44.3849 47.5974 45.8248C49.0571 46.3377 50.6549 46.7125 51.9962 47.5015C51.9962 47.5015 53.949 43.2013 53.6926 42.9252" fill="#C7932C"/>
<path d="M60.0832 37.4413C59.7085 35.8239 58.9983 34.3247 57.9726 33.0426C55.8817 30.3994 53.0215 30.3007 53.0215 30.3007C51.9366 30.2613 51.0293 30.5177 50.1416 30.853C48.2677 31.8196 46.8475 33.5752 46.8475 35.9225V38.0726L46.9461 39.4533C46.9461 39.4533 46.9461 40.7552 47.1236 41.2484C47.3209 41.1892 47.4984 41.1103 47.6562 40.9525C48.1099 40.124 47.9718 38.9207 48.3466 38.0726C49.0764 36.7115 50.6545 36.1789 52.5678 36.7904C55.6056 37.895 57.874 40.8144 58.3079 44.0691C58.2685 47.738 56.6313 51.19 53.2385 52.3932C51.2265 53.3203 49.2145 53.0244 49.2145 53.0244C41.4032 51.2294 41.561 43.2012 41.561 43.2012V42.0176C41.561 42.0176 42.1725 36.1 47.5576 28.8213C52.1733 23.022 56.651 17.1636 59.6296 10.4767C60.241 9.07616 60.7539 7.69538 61.0892 6.15679C61.4048 4.12507 61.2668 2.72457 60.8328 2.40896C60.1424 2.34978 59.2153 2.78374 58.5052 3.1388C49.0567 7.16279 41.0087 15.8814 38.3853 25.9414C38.5628 25.4877 38.7798 25.0538 39.0362 24.6198C43.0405 17.2228 48.8003 9.11561 56.9863 5.86091C57.3414 5.72283 57.874 5.5453 58.5447 5.34805C60.1621 5.19025 57.9134 10.4175 57.0652 12.1139C52.627 20.9903 44.2832 27.6378 40.8312 37.1257C40.5748 37.8161 40.1211 39.6111 39.9436 40.9525C39.6674 42.8264 39.5491 44.8581 39.628 46.8898L39.8844 48.5665C42.3303 60.0467 54.8954 61.5064 59.3929 50.973C61.1879 44.937 60.7145 40.9919 60.4777 39.3547C60.3988 38.7629 60.2016 37.8556 60.1621 37.5005" fill="#C7932C"/>
<path d="M7.55484 98.9456L5.7401 102.437C5.12862 103.601 4.55658 104.883 4.55658 106.244C4.55658 107.605 5.46395 108.039 6.35159 108.355C6.60802 108.434 6.70665 108.512 6.70665 108.611C6.70665 108.729 6.54885 108.789 6.31214 108.789C6.07544 108.789 4.87218 108.69 3.03772 108.69C1.69639 108.69 0.828469 108.789 0.43396 108.789C0.0986272 108.789 0 108.71 0 108.611C0 108.355 0.414234 108.236 0.631214 108.059C1.97254 106.994 3.76756 104.232 4.51713 102.792L12.6835 86.9328C12.7821 86.7553 12.861 86.6567 12.9202 86.6567H12.9991C12.9991 86.6567 13.1963 86.7948 13.2555 86.9328L23.0788 105.258C23.6311 106.283 24.282 107.25 25.3077 108.019C25.6628 108.276 26.077 108.414 26.077 108.591C26.077 108.69 25.8995 108.769 25.6036 108.769C25.3669 108.769 23.8086 108.67 21.8755 108.67C19.1337 108.67 18.0291 108.769 17.8318 108.769C17.6543 108.769 17.4767 108.729 17.4767 108.67C17.4767 108.532 17.6543 108.453 17.9304 108.414C18.6997 108.138 18.8575 107.506 18.8575 106.678C18.8575 106.086 18.1671 104.449 17.3584 102.871L15.4647 98.9456H7.55484ZM11.4802 91.1738L7.96908 98.1172H15.0308L11.4802 91.1738Z" fill="#231F20"/>
<path d="M32.3688 104.469C32.3688 106.579 32.4675 107.822 34.2822 108.473C34.4203 108.532 34.4794 108.611 34.4794 108.67C34.4794 108.729 34.3019 108.769 34.1638 108.769C33.9863 108.769 33.1381 108.67 30.633 108.67C28.838 108.67 27.4177 108.769 27.181 108.769C26.9838 108.769 26.8457 108.769 26.8457 108.67C26.8457 108.611 26.9049 108.532 27.043 108.473C28.8577 107.704 28.9366 106.579 28.9366 104.469V88.5305C28.9366 86.8933 28.621 86.2226 27.8122 86.0648C27.615 86.0451 27.2994 85.9465 27.2994 85.8084C27.2994 85.6309 27.5755 85.6111 27.8122 85.5717C29.3706 85.2758 30.7908 84.9405 32.3688 84.5065V104.469Z" fill="#231F20"/>
<path d="M45.1911 93.2445H42.2125V104.468C42.2125 106.579 42.252 107.545 43.9681 108.433C44.1062 108.433 44.3034 108.512 44.3034 108.571C44.3034 108.63 44.1653 108.67 43.83 108.67H37.2023C36.9458 108.67 36.7289 108.63 36.7289 108.571C36.7289 108.473 37.0445 108.433 37.2023 108.354C38.7014 107.762 38.8 106.579 38.8 104.449V93.2248H35.9004L36.3541 92.1596H38.8198V91.0944C38.8198 86.0644 42.5281 84.4864 47.6568 84.4864L46.7297 86.9323C46.6113 87.2085 46.5324 87.5438 46.3943 87.5438C46.2562 87.5438 46.0984 87.4255 45.9998 87.2874C45.3883 86.2617 44.6979 85.6699 43.9286 85.6699C42.5873 85.6699 42.252 86.5773 42.252 88.2145V92.1399H45.5264L45.2305 93.205L45.1911 93.2445Z" fill="#231F20"/>
<path d="M64.088 105.77C64.088 106.875 64.2655 107.861 65.2912 108.334C65.4885 108.433 65.6266 108.433 65.6266 108.512C65.6266 108.611 65.4293 108.65 65.2123 108.65H61.5828C61.1292 107.585 60.8727 106.421 60.7938 105.257H60.7149C59.413 107.96 57.4997 109.163 54.5606 109.163C51.0889 109.163 47.5383 107.565 47.5383 103.6C47.5383 98.5309 55.251 98.018 58.7818 98.018H60.6952V96.9134C60.6952 93.6982 59.1763 91.4495 55.823 91.4495C52.7656 91.4495 50.9706 92.3568 49.7673 95.2762C49.6292 95.5918 49.5701 95.8482 49.4911 95.8482C49.4122 95.8482 49.3925 95.6904 49.3136 95.4734L48.4457 92.4752C51.1678 91.0352 53.3376 90.8182 56.3162 90.8182C60.1232 90.8182 64.1077 92.199 64.1077 96.3808V105.75L64.088 105.77ZM60.6557 98.669H58.6832C55.0734 98.669 51.3848 99.7341 51.3848 104.133C51.3848 106.579 53.1601 108.354 55.5074 108.354C59.4328 108.354 60.636 104.212 60.636 101.016V98.6887L60.6557 98.669Z" fill="#231F20"/>
<path d="M72.8659 95.493H72.9054C74.2072 92.7117 76.5348 90.68 79.6712 90.8378L78.2707 94.27C77.6986 93.836 76.9096 93.7177 76.1995 93.7177C74.3059 93.7177 73.0237 96.1636 73.0237 98.3334V104.468C73.0237 106.579 73.2012 108.137 74.9371 108.472C75.1541 108.531 75.2724 108.61 75.2724 108.689C75.2724 108.788 75.1541 108.788 74.9962 108.788C74.7793 108.788 73.1223 108.689 71.3076 108.689C69.4929 108.689 67.9543 108.788 67.7373 108.788C67.5598 108.788 67.4414 108.748 67.4414 108.689C67.4414 108.63 67.5598 108.551 67.7767 108.531C69.3548 107.959 69.5915 107.289 69.5915 104.488V96.5187C69.5915 94.2108 69.4731 93.0273 68.2896 92.7511C67.974 92.6525 67.7767 92.5736 67.7767 92.4947C67.8162 92.3763 68.2501 92.4158 68.4869 92.3369C70.0452 92.0805 71.4062 91.7451 72.8265 91.2323V95.5324L72.8659 95.493Z" fill="#231F20"/>
<path d="M99.6136 100.011C99.6136 101.845 99.6136 103.68 99.7714 105.475C99.8701 106.777 100.363 108.039 101.527 108.355C101.665 108.414 101.783 108.473 101.783 108.532C101.783 108.631 101.606 108.67 101.211 108.67H97.286C96.6745 107.487 96.4773 106.165 96.2998 105.356H96.2406C94.9387 107.605 92.8281 109.183 89.4748 109.183C84.7801 109.183 80.8547 105.613 80.8547 100.011C80.8547 95.2767 84.6026 90.8385 89.4748 90.8385C92.3547 90.8385 94.7809 91.8642 96.1222 93.6592H96.2011V88.5109C96.2011 87.3274 96.2011 86.2227 94.8992 85.9466C94.6625 85.8677 94.4653 85.8282 94.4653 85.7296C94.4653 85.5915 94.8204 85.5718 95.0571 85.5323C96.6154 85.2364 98.0159 84.9011 99.6136 84.4672V99.9714V100.011ZM90.5597 108.355C92.7492 108.355 96.3787 106.224 96.3787 100.011C96.3787 93.0083 92.7295 91.6867 90.5597 91.6867C88.3899 91.6867 84.7209 93.0083 84.7209 100.011C84.7209 107.013 88.3504 108.355 90.5597 108.355Z" fill="#231F20"/>
<path d="M119.694 105.77C119.694 106.875 119.852 107.861 120.877 108.334C121.074 108.433 121.213 108.433 121.213 108.512C121.213 108.611 121.015 108.65 120.779 108.65H117.169C116.695 107.585 116.439 106.421 116.38 105.257H116.301C114.999 107.96 113.046 109.163 110.147 109.163C106.675 109.163 103.105 107.565 103.105 103.6C103.105 98.5309 110.837 98.018 114.348 98.018H116.242V96.9134C116.242 93.6982 114.723 91.4495 111.37 91.4495C108.292 91.4495 106.497 92.3568 105.294 95.2762C105.156 95.5918 105.097 95.8482 105.038 95.8482C104.979 95.8482 104.919 95.6904 104.86 95.4734L103.992 92.4752C106.734 91.0352 108.884 90.8182 111.843 90.8182C115.65 90.8182 119.654 92.199 119.654 96.3808V105.75L119.694 105.77ZM116.261 98.669H114.289C110.679 98.669 106.971 99.7341 106.971 104.133C106.971 106.579 108.726 108.354 111.113 108.354C115.039 108.354 116.242 104.212 116.242 101.016V98.6887L116.261 98.669Z" fill="#231F20"/>
<path d="M127.879 96.0064H127.958C128.708 93.166 130.365 90.8384 134.764 90.8384C138.432 90.8384 141.865 92.7123 141.865 98.0184V104.449C141.786 107.625 142.22 108.078 143.206 108.414C143.443 108.493 143.66 108.591 143.66 108.65C143.66 108.749 143.482 108.749 143.127 108.749C142.851 108.749 141.983 108.65 140.149 108.65C138.314 108.65 137.15 108.749 136.716 108.749C136.499 108.749 136.361 108.749 136.361 108.65C136.361 108.591 136.421 108.493 136.657 108.433C137.841 108.315 138.472 107.408 138.472 104.429V97.979C138.472 94.9018 137.111 91.6274 133.56 91.6274C129.595 91.6274 128.274 95.6908 128.274 100.366V104.429C128.274 106.54 128.392 108.098 129.872 108.374C130.108 108.394 130.227 108.473 130.227 108.572C130.227 108.71 130.128 108.749 129.951 108.749C129.694 108.749 128.333 108.65 126.538 108.65C124.743 108.65 123.204 108.749 122.968 108.749C122.771 108.749 122.672 108.71 122.672 108.572C122.672 108.473 122.81 108.394 123.047 108.374C124.704 108.098 124.842 106.54 124.842 104.429V96.1642C124.842 94.1523 124.605 93.0279 123.678 92.6334C123.323 92.4756 123.086 92.377 123.086 92.2981C123.086 92.1994 123.323 92.1994 123.717 92.1205C125.335 91.8246 126.676 91.5879 127.919 91.154V95.9473L127.879 96.0064Z" fill="#231F20"/>
<path d="M141.826 87.6622C141.826 85.9066 143.207 84.4864 144.923 84.4864C146.639 84.4864 148 85.9066 148 87.6622C148 89.4178 146.639 90.8183 144.923 90.8183C143.207 90.8183 141.826 89.4178 141.826 87.6622ZM147.527 87.6622C147.527 86.1828 146.383 84.8809 144.923 84.8809C143.463 84.8809 142.339 86.2025 142.339 87.6622C142.339 89.1219 143.503 90.4238 144.923 90.4238C146.343 90.4238 147.527 89.1219 147.527 87.6622ZM143.463 85.9066H145.081C145.613 85.9066 146.146 86.1631 146.146 86.7351C146.146 87.2085 145.83 87.5636 145.416 87.7214L145.929 88.4512C146.166 88.7668 146.442 89.0824 146.6 89.2205V89.2994H146.028C145.732 89.2994 145.515 88.6682 144.923 87.82H144.489V88.7076C144.489 89.1021 144.45 89.1021 144.923 89.1613V89.2994H143.444V89.1613C143.897 89.1021 143.897 89.1021 143.897 88.7076V86.4984C143.897 86.0842 143.897 86.1039 143.444 86.0644V85.9066H143.463ZM144.509 87.6425H144.903C145.337 87.6425 145.534 87.2874 145.534 86.7943C145.534 86.3011 145.239 86.1039 144.883 86.1039H144.509V87.6425Z" fill="#231F20"/>
</svg>
