<svg width="179" height="109" viewBox="0 0 179 109" fill="none" xmlns="http://www.w3.org/2000/svg">
<path d="M101.342 21.8429C99.4038 17.19 96.3006 11.7642 91.9079 7.11127L89.325 4.26825L86.6102 7.11127C81.8291 12.1525 78.7259 17.9668 76.6596 22.8761C72.6553 33.215 70.7134 44.5871 71.1018 56.2156C74.205 45.8766 78.9861 34.5045 85.1887 23.0043C85.3169 40.9673 86.7384 60.0917 89.193 74.567C91.6477 60.0955 93.0692 41.0993 93.1974 23.0043C98.7552 33.4714 103.665 44.7153 107.284 56.2156C107.801 43.9385 105.735 32.3101 101.338 21.8429" fill="#419193"/>
<path d="M70.3252 2.07382C64.379 3.49533 58.5648 5.43341 53.0107 8.14823C51.5892 8.793 50.1677 9.56974 48.8744 10.3465C48.2296 10.7348 47.4528 11.1232 46.8081 11.5078C46.4197 11.768 46.1633 11.8962 45.7749 12.1526C45.5148 12.2808 45.1302 12.6692 44.87 12.6692C53.1389 10.7311 60.5066 9.56597 70.4572 8.9212C70.4572 8.9212 67.6141 12.9256 65.4159 20.938C64.2546 25.4627 64.3828 31.9217 65.4159 37.736C65.4159 37.736 67.4822 27.9136 73.1682 17.0581C76.2714 11.1119 80.5359 5.04127 86.09 0C80.9205 0.1282 75.4947 0.776744 70.3252 2.06628" fill="#DAC69C"/>
<path d="M107.929 2.07382C113.875 3.49533 119.69 5.43341 125.244 8.14823C126.665 8.793 128.087 9.56974 129.38 10.3465C130.025 10.7348 130.801 11.1232 131.446 11.5078C131.835 11.768 132.091 11.8962 132.479 12.1526C132.74 12.2808 133.124 12.6692 133.384 12.6692C125.115 10.7311 117.748 9.56597 107.797 8.9212C107.797 8.9212 110.64 12.9256 112.838 20.938C114 25.4627 113.872 31.9217 112.838 37.736C112.838 37.736 110.772 27.9136 105.086 17.0581C101.983 11.1119 97.7184 5.04127 92.1643 0C97.462 0.1282 102.76 0.776744 107.929 2.06628" fill="#BABBBE"/>
<path d="M6.7228 78.6281H5.1731V80.3098H6.7228V78.6281Z" fill="#419193"/>
<path d="M4.39651 78.6281H2.8468V80.3098H4.39651V78.6281Z" fill="#419193"/>
<path d="M13.5702 92.3266H12.0205V94.0083H13.5702V92.3266Z" fill="#419193"/>
<path d="M16.0248 92.3266H14.4751V94.0083H16.0248V92.3266Z" fill="#419193"/>
<path d="M14.8636 82.1158H13.1819V89.4836H8.52903V82.1158C8.14066 82.1158 7.49589 81.9876 6.59095 81.9876C5.68601 81.9876 4.90927 81.8594 4.3927 81.8594C3.35956 81.8594 2.45462 81.9876 1.80985 82.2478C1.16508 82.508 0.776713 83.0245 0.516543 83.6693C0.256373 84.3141 0.128174 85.219 0.128174 86.3841C0.128174 87.5492 0.256373 88.4504 0.516543 89.0989C0.776713 89.7437 1.29328 90.2603 1.93805 90.5205C2.58282 90.7806 3.48776 90.9088 4.5209 90.9088H14.988V82.1196H14.8598L14.8636 82.1158ZM6.85112 89.4836H4.65287C3.87613 89.4836 3.35956 89.3554 2.97119 89.2234C2.58282 89.0952 2.19445 88.7068 2.06625 88.3184C1.93805 87.8019 1.80608 87.1571 1.80608 86.3804C1.80608 85.6036 1.93428 85.0871 2.06625 84.5705C2.19445 84.1821 2.58282 83.7937 2.97119 83.6655C3.35956 83.5373 3.87613 83.4054 4.65287 83.4054C5.16944 83.4054 5.94618 83.4054 6.85112 83.5336V89.4798V89.4836Z" fill="#419193"/>
<path d="M19.5167 91.4216C19.5167 92.1984 19.3885 92.8432 19.1283 93.2315C18.8681 93.6199 18.4835 93.8763 17.9669 93.8763H17.062V95.426H18.3553C19.3885 95.426 20.037 95.0376 20.5536 94.2647C21.0701 93.4879 21.3303 92.4548 21.3303 91.0333V82.1158H19.6486V91.4216H19.5204H19.5167Z" fill="#419193"/>
<path d="M25.5907 78.2397H23.9091V90.9051H27.2686V89.4836H25.5907V78.2397Z" fill="#419193"/>
<path d="M35.1531 78.6281H33.6034V80.3098H35.1531V78.6281Z" fill="#419193"/>
<path d="M32.6985 78.6281H31.1488V80.3098H32.6985V78.6281Z" fill="#419193"/>
<path d="M36.7029 82.2439L36.0581 82.1157C35.2814 81.9875 34.5084 81.9875 33.6035 81.9875C32.4421 81.9875 31.6654 82.1157 31.0206 82.3759C30.3759 82.6361 29.9875 83.1527 29.7273 83.7974C29.4672 84.4422 29.339 85.3471 29.339 86.5122C29.339 87.6774 29.4672 88.7105 29.7273 89.3553H27.4009V90.905H38.3846V89.3553H36.7029V82.2477V82.2439ZM35.0212 89.4797H31.4015C31.2733 89.2195 31.1413 88.9631 31.0131 88.4466C30.8849 88.0582 30.8849 87.4134 30.8849 86.6367C30.8849 85.8599 31.0131 85.2152 31.1451 84.6986C31.2733 84.3102 31.5334 83.9219 31.9218 83.6655C32.3102 83.4053 32.8267 83.4053 33.4715 83.4053C33.7317 83.4053 34.2483 83.4053 35.0212 83.5335V89.4797Z" fill="#419193"/>
<path d="M45.6202 89.0952C46.5251 88.4504 47.1699 87.6737 47.6864 86.7687C48.203 85.8638 48.4632 85.087 48.4632 84.4423L48.5914 83.149C47.8146 82.7606 47.1699 82.5042 46.2649 82.244C45.4882 81.9839 44.7152 81.8557 43.9385 81.8557C43.1617 81.8557 42.3888 81.9839 41.612 82.244C40.8353 82.5042 40.0623 82.7606 39.4138 83.149V84.4423C39.4138 85.087 39.6739 85.8638 40.1905 86.7687C40.7071 87.6737 41.3518 88.3184 42.2568 89.0952C41.612 89.3553 40.9635 89.4835 40.4469 89.4835H38.2487V91.0332H40.5751C41.0917 91.0332 41.7364 90.905 42.385 90.7731C43.0335 90.6411 43.5463 90.3847 44.0667 90.1283C44.5832 90.3885 45.228 90.5167 45.7483 90.7731C46.3931 90.9013 46.9097 91.0332 47.5582 91.0332H49.6245V89.4835H47.5582C46.9135 89.4835 46.2649 89.3553 45.6202 89.0952ZM43.9385 88.3184C43.1617 87.8019 42.3888 87.1571 41.8722 86.3803C41.3556 85.6036 41.0954 84.8306 41.0954 84.0539C42.1286 83.6655 43.1617 83.4091 43.9385 83.4091C44.7152 83.4091 45.7483 83.6693 46.7815 84.0539C46.7815 84.8306 46.5213 85.6036 46.0047 86.3803C45.6164 87.1571 44.8434 87.8019 43.9385 88.3184Z" fill="#419193"/>
<path d="M51.6947 89.4836H49.4965V90.9051H53.3726V78.2397H51.6947V89.4836Z" fill="#419193"/>
<path d="M58.1575 78.2397H56.4758V90.9051H58.1575V78.2397Z" fill="#419193"/>
<path d="M71.0753 78.6281H69.5256V80.3098H71.0753V78.6281Z" fill="#419193"/>
<path d="M68.7489 78.6281H67.1992V80.3098H68.7489V78.6281Z" fill="#419193"/>
<path d="M80.2532 92.3266H78.7035V94.0083H80.2532V92.3266Z" fill="#419193"/>
<path d="M77.9267 92.3266H76.377V94.0083H77.9267V92.3266Z" fill="#419193"/>
<path d="M79.0918 82.1158H77.4102V89.4836H72.8855V82.1158C72.4971 82.1158 71.8523 81.9876 70.9474 81.9876C70.0424 81.9876 69.2657 81.8594 68.7491 81.8594C67.716 81.8594 66.8111 81.9876 66.1663 82.2478C65.5215 82.508 65.1332 83.0245 64.873 83.6693C64.6128 84.3141 64.4846 85.219 64.4846 86.3841C64.4846 87.5492 64.6128 88.4504 64.873 89.0989C65.1332 89.7437 65.6497 90.2603 66.2945 90.5205C66.9393 90.7806 67.8442 90.9088 68.8773 90.9088H81.9273V89.3591H79.3445V82.1234H79.0843L79.0918 82.1158ZM71.0794 89.4836H69.0131C68.2363 89.4836 67.7198 89.3554 67.3314 89.2234C66.943 89.0914 66.5547 88.7068 66.4265 88.3184C66.2983 87.9301 66.1663 87.2853 66.1663 86.5086C66.1663 85.7318 66.2945 85.2153 66.4265 84.6987C66.5547 84.3103 66.943 83.9219 67.3314 83.7937C67.7198 83.6655 68.2363 83.5336 69.0131 83.5336C69.5296 83.5336 70.3064 83.5336 71.2113 83.6618V89.476H71.0831L71.0794 89.4836Z" fill="#419193"/>
<path d="M98.6006 78.6281H97.0509V80.3098H98.6006V78.6281Z" fill="#419193"/>
<path d="M104.419 78.6281H102.869V80.3098H104.419V78.6281Z" fill="#419193"/>
<path d="M106.873 78.6281H105.324V80.3098H106.873V78.6281Z" fill="#419193"/>
<path d="M105.712 82.1157H104.03V89.4835H98.7327V82.1157H97.0511V89.4835H93.8197C93.5595 89.4835 93.3031 89.4835 93.0429 89.2233C92.7828 89.0951 92.6546 88.9631 92.5264 88.7067V86.5085C92.5264 84.8268 92.138 83.6655 91.4932 83.0207C90.8485 82.2439 89.6834 81.9875 88.1336 81.9875C87.4889 81.9875 86.8403 81.9875 86.3238 82.1157C85.8072 82.2439 85.2906 82.3759 85.0304 82.5041C84.9022 83.0207 84.7703 83.6655 84.6421 84.4422C84.5139 85.2189 84.5139 85.9919 84.5139 86.7686C84.5139 87.6736 84.6421 88.7067 84.7741 89.6117H81.931V91.1614H92.5264V90.3846C92.6546 90.6448 92.9147 90.773 93.1711 90.9012C93.4275 91.0294 93.6877 91.1614 93.8159 91.1614H108.287V89.6117H105.573V82.1157H105.701H105.712ZM90.7203 89.4835H86.3275C86.3275 89.2233 86.1993 88.7067 86.1993 88.1902C86.1993 87.6736 86.0711 87.157 86.0711 86.6404C86.0711 85.7355 86.1993 84.7024 86.3313 83.6692C86.8479 83.541 87.3644 83.541 87.881 83.541C88.9141 83.541 89.5627 83.8012 90.0793 84.3178C90.5958 84.8343 90.724 85.6111 90.724 86.6442V89.4872L90.7203 89.4835Z" fill="#419193"/>
<path d="M110.493 89.4836H108.295V90.9051H112.171V78.2397H110.493V89.4836Z" fill="#419193"/>
<path d="M116.956 78.2397H115.274V90.9051H116.956V78.2397Z" fill="#419193"/>
<path d="M135.688 78.6281H134.139V80.3098H135.688V78.6281Z" fill="#419193"/>
<path d="M134.915 82.1159H133.494C132.46 82.1159 131.555 82.2441 130.911 82.6324C130.266 82.8926 129.878 83.4092 129.617 84.054C129.357 84.6987 129.229 85.6037 129.229 86.897C129.229 88.0583 129.357 88.9633 129.617 89.4798C129.878 90.1246 130.134 90.513 130.65 90.6412C131.167 90.9013 131.812 91.0295 132.589 91.0295H135.043V91.4179C135.043 92.1946 134.783 92.8394 134.398 93.356C134.01 93.8725 133.237 94.1327 132.332 94.1327H127.423C126.518 94.1327 125.873 93.8725 125.357 93.356C124.968 92.8394 124.712 92.1946 124.712 91.4179C124.712 91.0295 124.712 90.513 124.84 89.7362C124.968 88.9595 125.1 88.3147 125.228 87.538L125.357 86.7612L123.807 86.5011C123.29 88.9557 123.162 90.7656 123.162 91.6705C123.162 92.4473 123.29 93.092 123.679 93.7368C124.067 94.3816 124.455 94.7699 125.1 95.1583C125.745 95.5467 126.522 95.6749 127.427 95.6749H132.468C133.373 95.6749 134.15 95.5467 134.794 95.1583C135.439 94.7699 135.956 94.3816 136.216 93.7368C136.604 93.092 136.732 92.4435 136.732 91.6705V82.3647L136.088 82.2365C135.827 82.1083 135.443 82.1083 134.926 82.1083L134.915 82.1159ZM135.043 89.4836H133.105C132.589 89.4836 132.072 89.3554 131.812 89.2234C131.552 89.0915 131.295 88.8351 131.167 88.4467C131.039 88.0583 130.907 87.5417 130.907 86.765C130.907 85.9883 131.035 85.3435 131.167 84.9551C131.295 84.4386 131.555 84.1784 131.944 83.922C132.332 83.6618 132.849 83.6618 133.494 83.6618C133.882 83.6618 134.398 83.6618 135.043 83.79V89.476V89.4836Z" fill="#419193"/>
<path d="M133.366 78.6281H131.816V80.3098H133.366V78.6281Z" fill="#419193"/>
<path d="M142.539 81.7275C141.506 81.7275 140.858 81.8557 140.213 82.244C139.696 82.6324 139.308 83.0208 139.051 83.7938C138.791 84.4385 138.663 85.4754 138.663 86.6368C138.663 87.9301 138.923 88.9632 139.308 89.74C139.696 90.6449 140.601 91.0333 142.023 91.0333H144.477C144.477 91.81 144.477 92.4548 144.217 92.8432C144.089 93.2315 143.957 93.4879 143.701 93.7481C143.44 93.8763 143.184 94.0083 142.667 94.0083C142.023 94.0083 141.118 93.8801 139.953 93.7481V95.2978C141.374 95.426 142.279 95.558 142.796 95.558C144.089 95.558 144.994 95.0414 145.378 94.0083C145.895 92.9751 146.023 91.6818 146.023 89.8719V82.2478C145.635 82.1196 144.99 82.1196 144.342 81.9876C143.697 81.7275 143.18 81.7275 142.532 81.7275H142.539ZM144.477 89.4798H142.667C141.763 89.4798 141.118 89.2196 140.858 88.7031C140.597 88.1865 140.469 87.4097 140.469 86.6368C140.469 85.4754 140.729 84.5705 140.986 84.1821C141.374 83.6656 142.019 83.4054 142.924 83.4054C143.312 83.4054 143.829 83.4054 144.474 83.5336V89.4798H144.477Z" fill="#419193"/>
<path d="M161.275 78.6281H159.725V80.3098H161.275V78.6281Z" fill="#419193"/>
<path d="M161.407 82.1159H159.726V89.4836H155.333V87.8019C155.333 86.3804 155.073 85.219 154.688 84.3141C154.3 83.4092 153.655 82.7644 153.007 82.376C152.358 81.9877 151.585 81.7313 150.68 81.7313C150.292 81.7313 149.903 81.7313 149.519 81.8595C149.13 81.8595 148.874 81.9877 148.614 81.9877L148.742 83.281H150.292C151.197 83.281 151.973 83.6693 152.618 84.3141C153.263 84.9589 153.651 86.2522 153.651 87.9339V89.6155H147.837V91.1653H163.99V89.6155H161.275V82.1196H161.404L161.407 82.1159Z" fill="#419193"/>
<path d="M176.395 83.2809C175.751 82.376 174.714 81.8594 173.164 81.8594C172.387 81.8594 171.742 81.9876 171.098 82.2478C170.581 82.508 170.065 82.8926 169.548 83.2809C169.16 83.6693 168.643 84.1859 168.126 84.8307V81.9876H166.445V89.3554H163.862V90.9051H177.172V86.5123C177.3 85.219 177.044 84.1859 176.395 83.2809ZM175.619 89.4836H168.251V87.0289C169.801 84.5743 171.354 83.4091 172.904 83.4091C173.809 83.4091 174.454 83.6693 174.97 84.3141C175.487 84.9588 175.615 85.7356 175.615 86.7687V89.4836H175.619Z" fill="#419193"/>
<path d="M0.00364644 100.984H2.5865C3.10307 100.984 3.49143 100.984 3.74783 101.244C4.008 101.372 4.26441 101.504 4.52458 101.761C4.65278 102.021 4.78475 102.149 4.91295 102.405C5.04115 102.666 5.04114 102.922 5.04114 103.182C5.04114 103.442 5.04115 103.699 4.91295 103.827C4.78475 104.087 4.65278 104.215 4.52458 104.472C4.39638 104.6 4.2644 104.732 4.008 104.86C3.74783 104.988 3.49143 105.12 3.23126 105.12L5.29754 108.48H4.00423L2.06616 105.12H1.03301V108.48H-0.00012207V100.984H0.00364644ZM1.03679 104.215H2.97487C3.10307 104.215 3.36323 104.087 3.49143 104.087C3.61963 103.959 3.7516 103.827 3.8798 103.699C4.008 103.57 4.008 103.31 4.008 103.054C4.008 102.797 4.008 102.537 3.8798 102.409C3.7516 102.281 3.61963 102.149 3.49143 102.021C3.36323 102.021 3.10307 101.893 2.97487 101.893H1.03679V104.219V104.215Z" fill="#419193"/>
<path d="M6.46643 100.984H11.3757V101.889H7.49957V104.215H11.1156V105.12H7.49957V107.575H11.5039V108.48H6.46643V100.984Z" fill="#419193"/>
<path d="M15.2518 100.984H16.1567L19.3881 108.48H18.2268L17.45 106.67H13.8303L13.1855 108.48H12.0242L15.2556 100.984H15.2518ZM17.0617 105.765L15.6402 102.277L14.2186 105.765H17.0617Z" fill="#419193"/>
<path d="M20.4213 100.984H21.4544V107.575H24.814V108.48H20.4213V100.984Z" fill="#419193"/>
<path d="M28.8223 100.984H33.6034V101.889H29.8554V104.215H33.3432V105.12H29.8554V107.575H33.8598V108.48H28.8223V100.984Z" fill="#419193"/>
<path d="M35.5412 106.926C35.6694 107.186 35.9296 107.443 36.186 107.571C36.4424 107.699 36.8308 107.831 37.0909 107.831C37.2191 107.831 37.4793 107.831 37.6075 107.703C37.7357 107.703 37.9959 107.575 38.1241 107.443C38.2523 107.311 38.3843 107.183 38.5125 107.054C38.6407 106.926 38.6407 106.666 38.6407 106.538C38.6407 106.278 38.5125 106.021 38.3805 105.893C38.2523 105.765 37.9921 105.633 37.7357 105.505C37.4793 105.377 37.2191 105.245 36.8308 105.245C36.5706 105.116 36.186 104.984 35.9258 104.856C35.6657 104.728 35.4093 104.468 35.2811 104.211C35.1529 103.955 35.0209 103.567 35.0209 103.05C35.0209 102.79 35.0209 102.662 35.1491 102.405C35.2773 102.149 35.4093 101.889 35.5375 101.761C35.7976 101.5 36.054 101.372 36.3142 101.244C36.5744 101.116 36.959 100.984 37.4755 100.984C37.8639 100.984 38.2523 100.984 38.6369 101.112C39.0253 101.24 39.2817 101.5 39.67 101.757L38.8933 102.534C38.7651 102.405 38.6331 102.145 38.3767 102.017C38.1165 101.889 37.8601 101.889 37.6 101.889C37.3398 101.889 37.0834 101.889 36.9552 102.017C36.827 102.145 36.5668 102.145 36.5668 102.277C36.4386 102.405 36.4386 102.537 36.3067 102.666C36.3067 102.794 36.1785 102.926 36.1785 103.054C36.1785 103.314 36.3067 103.57 36.4386 103.831C36.5668 103.959 36.827 104.091 37.0834 104.219C37.3398 104.347 37.6 104.479 37.9883 104.479C38.2485 104.607 38.6331 104.739 38.8933 104.868C39.1535 104.996 39.4099 105.256 39.5381 105.512C39.6663 105.772 39.7982 106.157 39.7982 106.545C39.7982 106.934 39.67 107.19 39.5381 107.579C39.4099 107.839 39.2779 108.095 39.0215 108.355C38.7613 108.615 38.5049 108.744 38.2447 108.872C37.9846 109 37.6 109 37.2116 109C36.695 109 36.3067 108.872 35.7901 108.74C35.4017 108.612 35.0134 108.352 34.757 107.963L35.5337 106.93L35.5412 106.926Z" fill="#419193"/>
<path d="M42.777 101.889H40.3224V100.984H46.1366V101.889H43.682V108.48H42.777V101.889Z" fill="#419193"/>
<path d="M48.5913 100.984H49.4962L52.7276 108.48H51.5663L50.7895 106.67H47.1698L46.525 108.48H45.3636L48.595 100.984H48.5913ZM50.4012 105.765L48.9796 102.277L47.5581 105.765H50.4012Z" fill="#419193"/>
<path d="M54.2774 101.889H51.8228V100.984H57.637V101.889H55.3105V108.48H54.2774V101.889Z" fill="#419193"/>
<path d="M58.8019 100.984H63.583V101.889H59.835V104.215H63.3228V105.12H59.835V107.575H63.8394V108.48H58.8019V100.984Z" fill="#419193"/>
<path d="M67.9758 100.984H70.5587C71.0752 100.984 71.5918 100.984 71.9802 101.112C72.3685 101.24 72.7569 101.372 73.0133 101.629C73.2697 101.885 73.5299 102.017 73.7901 102.273C73.9183 102.534 74.1784 102.79 74.3066 103.05C74.4348 103.31 74.4348 103.567 74.5668 103.827C74.5668 104.087 74.695 104.343 74.695 104.604C74.695 105.12 74.5668 105.509 74.4348 106.025C74.3066 106.413 74.0464 106.93 73.6581 107.186C73.2697 107.575 72.8813 107.831 72.3648 108.091C71.8482 108.352 71.2034 108.352 70.5549 108.352H68.1002V100.984H67.972H67.9758ZM69.009 107.447H70.3023C70.6906 107.447 71.2072 107.447 71.4636 107.318C71.852 107.19 72.2403 107.058 72.4967 106.802C72.7531 106.545 73.0133 106.285 73.1415 105.897C73.2697 105.509 73.4017 105.12 73.4017 104.736C73.4017 104.475 73.4017 104.219 73.2735 103.831C73.1453 103.57 73.0133 103.186 72.8851 102.926C72.6249 102.665 72.3685 102.409 71.9802 102.149C71.5918 101.889 71.0752 101.889 70.5587 101.889H69.009V107.447Z" fill="#419193"/>
<path d="M75.9883 100.984H80.7694V101.889H77.0214V104.215H80.513V105.12H77.0214V107.575H81.0296V108.48H75.9883V100.984Z" fill="#419193"/>
<path d="M81.4142 100.984H82.5793L84.7738 107.058L87.1002 100.984H88.2653L85.2941 108.48H84.3892L81.4142 100.984Z" fill="#419193"/>
<path d="M89.1704 100.984H93.9515V101.889H90.0753V104.215H93.6913V105.12H90.0753V107.575H94.0797V108.48H89.1704V100.984Z" fill="#419193"/>
<path d="M95.6294 100.984H96.5343V107.575H100.026V108.48H95.6294V100.984Z" fill="#419193"/>
<path d="M104.547 108.608C104.03 108.608 103.385 108.48 102.997 108.348C102.481 108.087 102.092 107.831 101.704 107.571C101.315 107.183 101.059 106.794 100.927 106.278C100.795 105.761 100.667 105.244 100.667 104.728C100.667 104.211 100.795 103.695 100.927 103.178C101.059 102.662 101.444 102.273 101.704 101.885C102.092 101.497 102.481 101.24 102.997 101.108C103.514 100.848 104.03 100.848 104.547 100.848C105.063 100.848 105.58 100.976 106.097 101.108C106.613 101.368 107.001 101.625 107.39 101.885C107.778 102.273 108.035 102.662 108.167 103.178C108.295 103.695 108.427 104.211 108.427 104.728C108.427 105.244 108.299 105.761 108.167 106.278C107.906 106.794 107.65 107.183 107.39 107.571C107.001 107.959 106.613 108.216 106.097 108.348C105.58 108.608 105.063 108.608 104.547 108.608ZM104.547 107.703C104.935 107.703 105.324 107.575 105.708 107.443C106.097 107.315 106.353 107.054 106.613 106.798C106.873 106.542 107.001 106.281 107.13 105.893C107.258 105.505 107.39 105.116 107.39 104.732C107.39 104.347 107.262 103.955 107.13 103.57C107.001 103.182 106.869 102.926 106.613 102.665C106.353 102.405 106.097 102.149 105.708 102.021C105.32 101.892 104.931 101.76 104.547 101.76C104.162 101.76 103.77 101.889 103.385 102.021C102.997 102.149 102.741 102.409 102.481 102.665C102.22 102.926 102.092 103.31 101.964 103.57C101.836 103.959 101.704 104.347 101.704 104.732C101.704 105.116 101.832 105.508 101.964 105.893C102.092 106.281 102.224 106.538 102.481 106.798C102.741 107.058 102.997 107.315 103.385 107.443C103.646 107.571 104.03 107.703 104.547 107.703Z" fill="#419193"/>
<path d="M109.844 100.984H112.427C112.944 100.984 113.332 100.984 113.589 101.244C113.849 101.372 114.105 101.504 114.365 101.761C114.494 102.021 114.626 102.149 114.754 102.405C114.882 102.666 114.882 102.922 114.882 103.182C114.882 103.442 114.882 103.699 114.754 103.959C114.626 104.219 114.494 104.475 114.365 104.604C114.237 104.864 113.977 104.992 113.589 105.12C113.328 105.248 112.944 105.38 112.427 105.38H110.878V108.484H109.844V100.988V100.984ZM110.878 104.215H112.816C112.944 104.215 113.204 104.087 113.332 104.087C113.46 103.959 113.592 103.827 113.721 103.699C113.849 103.57 113.849 103.31 113.849 103.054C113.849 102.797 113.849 102.537 113.721 102.409C113.592 102.281 113.46 102.149 113.332 102.021C113.204 101.893 112.944 101.893 112.816 101.893H110.878V104.219V104.215Z" fill="#419193"/>
<path d="M116.047 100.984H117.6L119.923 106.67L122.382 100.984H123.803V108.48H122.898V102.277H122.766L120.312 108.48H119.667L117.084 102.277V108.48H116.047V100.984Z" fill="#419193"/>
<path d="M125.741 100.984H130.522V101.889H126.774V104.215H130.262V105.12H126.774V107.575H130.779V108.48H125.741V100.984Z" fill="#419193"/>
<path d="M132.2 100.984H133.494L137.63 107.186V100.984H138.663V108.48H137.37L133.237 102.277V108.48H132.2V100.984Z" fill="#419193"/>
<path d="M142.151 101.889H139.696V100.984H145.51V101.889H143.184V108.48H142.151V101.889Z" fill="#419193"/>
<path d="M149.519 100.984H154.3V101.889H150.552V104.343H154.039V105.248H150.552V108.48H149.519V100.984Z" fill="#419193"/>
<path d="M156.494 100.984V105.509C156.494 105.769 156.494 106.025 156.622 106.285C156.622 106.545 156.75 106.802 156.882 106.93C157.011 107.19 157.271 107.318 157.527 107.447C157.787 107.575 158.044 107.707 158.432 107.707C158.82 107.707 159.077 107.579 159.337 107.447C159.597 107.318 159.725 107.186 159.854 106.93C159.982 106.674 160.114 106.542 160.114 106.285C160.242 106.025 160.242 105.769 160.242 105.509V100.984H161.275V105.765C161.275 106.153 161.147 106.542 161.015 106.926C160.887 107.315 160.627 107.571 160.37 107.831C160.114 108.091 159.854 108.348 159.465 108.476C159.077 108.604 158.688 108.736 158.304 108.736C157.919 108.736 157.527 108.608 157.143 108.476C156.754 108.348 156.498 108.088 156.238 107.831C155.977 107.571 155.721 107.315 155.593 106.926C155.465 106.538 155.333 106.15 155.333 105.765V100.984H156.494Z" fill="#419193"/>
<path d="M163.085 100.984H164.378L168.515 107.186V100.984H169.548V108.48H168.254L164.122 102.277V108.48H163.085V100.984Z" fill="#419193"/>
<path d="M171.358 100.984H173.94C174.457 100.984 174.974 100.984 175.362 101.112C175.75 101.24 176.139 101.372 176.395 101.629C176.655 101.889 176.912 102.017 177.172 102.273C177.432 102.534 177.56 102.79 177.688 103.05C177.817 103.31 177.949 103.567 177.949 103.827C177.949 104.087 178.077 104.343 178.077 104.604C178.077 105.12 177.949 105.509 177.817 106.025C177.688 106.413 177.428 106.93 177.04 107.186C176.652 107.575 176.263 107.831 175.747 108.091C175.23 108.352 174.585 108.352 173.937 108.352H171.482V100.984H171.354H171.358ZM172.391 107.447H173.684C174.072 107.447 174.589 107.447 174.845 107.318C175.234 107.19 175.622 107.058 175.879 106.802C176.139 106.542 176.395 106.285 176.523 105.897C176.652 105.509 176.784 105.12 176.784 104.736C176.784 104.475 176.784 104.219 176.655 103.831C176.527 103.57 176.395 103.186 176.267 102.926C176.007 102.665 175.75 102.409 175.362 102.149C174.974 101.889 174.457 101.889 173.94 101.889H172.391V107.447Z" fill="#419193"/>
</svg>
