<svg width="16" height="11" viewBox="0 0 16 11" fill="none" xmlns="http://www.w3.org/2000/svg">
<g clip-path="url(#clip0_14_556)">
<path d="M0.0909424 6.51831H11.97V10.498H0.0909424V6.51831Z" fill="#B0B0B0"/>
<path d="M6.69717 0.51001H7.9992C8.01449 0.736894 8.02068 0.957522 8.04548 1.17606C8.16324 2.21581 8.58307 2.68167 9.59626 2.93317C10.3706 3.12543 11.1512 3.30811 11.8623 3.68931C12.6235 4.0972 13.1627 4.68526 13.2875 5.58487C13.2978 5.65911 13.2966 5.73502 13.3015 5.82594H11.9838C11.9937 5.25998 11.6049 5.00307 11.1698 4.84083C10.5202 4.59893 9.85328 4.4004 9.18677 4.20772C8.2277 3.93079 7.46243 3.41488 7.02319 2.48482C6.73229 1.86839 6.67279 1.20734 6.69758 0.51001H6.69717Z" fill="#B0B0B0"/>
<path d="M13.3154 10.5001V6.52002H15.9372V10.5001H13.3154Z" fill="#B0B0B0"/>
<path d="M10.0132 0.5C10.8347 0.51418 11.6231 0.614276 12.3619 0.959607C12.9917 1.25406 13.4181 1.7487 13.6743 2.39265C13.7408 2.56031 13.828 2.64998 14.0111 2.70128C14.9284 2.95777 15.4825 3.59713 15.7416 4.4955C15.8631 4.91757 15.9123 5.36132 15.9994 5.82302H14.6801C14.5941 5.46017 14.5379 5.09565 14.4193 4.75366C14.2284 4.20271 13.8826 3.82777 13.2408 3.82986C12.947 3.83069 12.6813 3.59296 12.6619 3.30018C12.614 2.58992 12.1586 2.25502 11.5632 2.08485C11.0644 1.94222 10.5446 1.87632 10.0128 1.77205V0.5H10.0132Z" fill="#B0B0B0"/>
</g>
<defs>
<clipPath id="clip0_14_556">
<rect width="15.9091" height="10" fill="white" transform="translate(0.0909424 0.5)"/>
</clipPath>
</defs>
</svg>
