<svg width="25" height="20" viewBox="0 0 25 20" fill="none" xmlns="http://www.w3.org/2000/svg">
<path d="M24.9991 13.8639H7.98856V0.5H24.9991V13.8639ZM10.1502 6.38048V12.17H22.8375V6.38048H10.1502ZM10.0452 4.52453H15.2736V2.21099H10.0452V4.52453ZM17.638 4.55864H22.8302V2.19963H17.638V4.55864Z" fill="#B0B0B0"/>
<path d="M4.70961 11.3201C5.24187 11.3628 5.76326 11.4026 6.56708 11.4651C5.40842 12.2069 4.39098 12.8578 3.26853 13.574C2.6711 13.0482 1.78762 12.2694 0.867941 11.4622C1.28795 11.4225 1.79124 11.3741 2.38144 11.3201V3.01811C1.83469 2.97264 1.28433 2.92432 0.752075 2.87885C1.71883 2.12567 2.63127 1.41228 3.6813 0.585205C4.38736 1.31565 5.19842 2.15693 5.91896 2.89874C5.87551 2.90443 5.33239 2.96411 4.70961 3.03517V11.3201Z" fill="#B0B0B0"/>
<path d="M11.1653 18.2011C11.1183 18.6616 11.0784 19.0737 11.035 19.5C10.1081 18.7042 9.21372 17.934 8.37732 17.2177C9.10148 16.672 10.0393 15.9672 10.9734 15.2652C11.0169 15.4812 11.1038 15.899 11.2052 16.3907H21.7779C21.8358 15.9587 21.8901 15.5238 21.9408 15.1628C22.904 15.8791 23.8418 16.5782 24.928 17.3854C23.9902 17.9937 22.9547 18.6644 21.9481 19.3153C21.9155 19.105 21.8467 18.6758 21.7707 18.2011H11.1653Z" fill="#B0B0B0"/>
</svg>
