<svg width="12" height="13" viewBox="0 0 12 13" fill="none" xmlns="http://www.w3.org/2000/svg">
<circle cx="6" cy="6.5" r="5.5" stroke="#013363"/>
<path d="M6.11346 8.10484C5.86417 8.10484 5.66089 7.90502 5.65661 7.65577L5.5859 3.5367C5.58083 3.24179 5.81851 3 6.11346 3C6.40841 3 6.64608 3.24179 6.64102 3.5367L6.5703 7.65577C6.56603 7.90502 6.36275 8.10484 6.11346 8.10484ZM6.11346 10.4163C5.94549 10.4163 5.79943 10.3578 5.67527 10.241C5.55842 10.1168 5.5 9.97077 5.5 9.8028C5.5 9.62753 5.55842 9.48147 5.67527 9.36462C5.79943 9.24777 5.94549 9.18935 6.11346 9.18935C6.28143 9.18935 6.42384 9.24777 6.54069 9.36462C6.66484 9.48147 6.72691 9.62753 6.72691 9.8028C6.72691 9.97077 6.66484 10.1168 6.54069 10.241C6.42384 10.3578 6.28143 10.4163 6.11346 10.4163Z" fill="#013363"/>
</svg>
