<svg width="16" height="18" viewBox="0 0 16 18" fill="none" xmlns="http://www.w3.org/2000/svg">
<g clip-path="url(#clip0_14_543)">
<path d="M7.80234 17.1628C5.71 17.1628 3.61367 17.1471 1.52133 17.1667C-0.103829 17.1824 -0.299487 16.2856 0.347381 15.1773C2.02445 12.303 4.75167 10.9441 8.00598 10.9402C11.2643 10.9402 13.9875 12.3069 15.6606 15.1773C16.3114 16.2934 16.0918 17.1784 14.4747 17.1667C12.2506 17.1471 10.0264 17.1628 7.79834 17.1628H7.80234Z" fill="#B0B0B0"/>
<path d="M8.09784 9.69095C5.65811 9.75752 3.41803 7.67027 3.31022 5.24232C3.2064 2.77914 5.45846 0.5 7.99801 0.5C10.4617 0.5 12.6539 2.62249 12.6858 5.04652C12.7178 7.45489 10.5735 9.62437 8.09784 9.69095Z" fill="#B0B0B0"/>
</g>
<defs>
<clipPath id="clip0_14_543">
<rect width="16" height="16.6667" fill="white" transform="translate(0 0.5)"/>
</clipPath>
</defs>
</svg>
