<svg width="16" height="17" viewBox="0 0 16 17" fill="none" xmlns="http://www.w3.org/2000/svg">
<g clip-path="url(#clip0_14_549)">
<path d="M14.3779 9.62908C14.3739 13.4023 11.1679 16.4942 7.25189 16.5019C3.29388 16.5077 0.0658852 13.383 0.0898852 9.56539C0.113885 5.80182 3.34389 2.73113 7.26589 2.74271C11.1819 2.75622 14.3799 5.85393 14.3779 9.62715V9.62908ZM7.96789 10.3702V5.10507H6.52188V10.3702H7.96789Z" fill="#B0B0B0"/>
<path d="M4.88794 1.907V0.5H9.56594V1.907H4.88794Z" fill="#B0B0B0"/>
<path d="M12.7629 1.82983C13.5609 2.47833 14.2849 3.06506 15.0869 3.71741C14.7389 4.12079 14.4329 4.47591 14.0769 4.89087C13.2889 4.25203 12.5429 3.64407 11.7369 2.98979C12.0749 2.60764 12.3689 2.27374 12.7629 1.82983Z" fill="#B0B0B0"/>
</g>
<defs>
<clipPath id="clip0_14_549">
<rect width="15" height="16" fill="white" transform="translate(0.0909119 0.5)"/>
</clipPath>
</defs>
</svg>
