<svg width="25" height="24" viewBox="0 0 25 24" fill="none" xmlns="http://www.w3.org/2000/svg">
<path d="M12.6466 16.4139C11.9565 16.4139 11.4283 15.7834 11.5612 15.0976L12.1573 12.0198C12.1092 12.0336 9.74291 12.0125 9.74291 12.0125L7.368 4.31911C7.2822 4.04102 6.98712 3.88529 6.70908 3.97108C6.43098 4.05692 6.27521 4.35196 6.36105 4.63L8.64 12.0125H6.90848C6.54346 12.0125 6.24758 12.3084 6.24758 12.6734V20.1547H4.58939C4.622 20.1077 4.6441 20.0542 4.65419 19.9979L5.39735 15.8486C5.40767 15.791 5.40523 15.7319 5.39019 15.6753C5.37516 15.6188 5.3479 15.5662 5.31034 15.5213C5.27278 15.4764 5.22583 15.4403 5.1728 15.4156C5.11978 15.3908 5.06196 15.378 5.00344 15.378H1.00652C0.948003 15.378 0.890194 15.3908 0.837172 15.4156C0.784149 15.4403 0.737204 15.4764 0.699645 15.5213C0.662086 15.5662 0.634827 15.6188 0.619789 15.6753C0.604752 15.7319 0.602302 15.791 0.612611 15.8486L1.35577 19.9979C1.36588 20.0542 1.38798 20.1077 1.42058 20.1547H0.855171C0.3829 20.1547 0 20.5375 0 21.0098V22.2268C0 22.5178 0.235924 22.7537 0.526958 22.7537H1.11448C1.11444 22.7472 1.11401 22.7407 1.11401 22.7341C1.11401 22.559 1.13609 22.3891 1.17731 22.2268C1.40401 21.3337 2.21462 20.6709 3.17728 20.6709C4.13994 20.6709 4.95054 21.3336 5.17724 22.2268C5.21933 22.3926 5.24059 22.563 5.24054 22.7341C5.24054 22.7407 5.24012 22.7472 5.24007 22.7537H7.43788C7.43784 22.7472 7.43741 22.7407 7.43741 22.7341C7.43741 22.559 7.45949 22.3891 7.50071 22.2268C7.72741 21.3337 8.53802 20.6709 9.50068 20.6709C10.4633 20.6709 11.2739 21.3336 11.5006 22.2268C11.5427 22.3926 11.564 22.563 11.5639 22.7341C11.5639 22.7407 11.5635 22.7472 11.5635 22.7537H12.2561C12.5472 22.7537 12.7831 22.5178 12.7831 22.2268V16.4139H12.6466Z" fill="#00ACE4"/>
<path d="M9.50059 21.3718C8.77728 21.3718 8.19098 21.9582 8.19098 22.6814C8.19098 23.4047 8.77733 23.991 9.50059 23.991C10.2239 23.991 10.8102 23.4047 10.8102 22.6814C10.8102 21.9582 10.2239 21.3718 9.50059 21.3718ZM9.50059 23.148C9.24297 23.148 9.0341 22.9391 9.0341 22.6815C9.0341 22.4239 9.24297 22.215 9.50059 22.215C9.75825 22.215 9.96707 22.4239 9.96707 22.6815C9.96712 22.9391 9.75821 23.148 9.50059 23.148ZM3.17728 21.3718C2.45398 21.3718 1.86768 21.9582 1.86768 22.6814C1.86768 23.4047 2.45403 23.991 3.17728 23.991C3.90054 23.991 4.48689 23.4047 4.48689 22.6814C4.48689 21.9582 3.90054 21.3718 3.17728 21.3718ZM3.17728 23.148C2.91966 23.148 2.7108 22.9391 2.7108 22.6815C2.7108 22.4239 2.91966 22.215 3.17728 22.215C3.43495 22.215 3.64376 22.4239 3.64376 22.6815C3.64376 22.9391 3.4349 23.148 3.17728 23.148ZM24.0933 20.8188C24.0924 19.9642 23.5103 19.2463 22.7214 19.0378L22.7112 9.28474L22.9845 9.1709C23.4672 8.96985 23.6954 8.41569 23.4944 7.93306C23.3551 7.59873 23.0463 7.38671 22.7092 7.35466L22.7031 1.49892C22.7028 1.23712 22.4906 1.02515 22.2289 1.02515H22.2284C21.9664 1.02543 21.7543 1.23796 21.7546 1.49987L21.761 7.62951L20.3982 8.19713C20.1325 7.53604 19.8993 7.01224 19.7147 6.47516C19.3613 5.44661 18.8152 4.82647 18.0874 4.62344L17.2592 6.96028L18.2235 13.0499C18.2347 13.1208 18.2304 13.1932 18.211 13.2623C18.1915 13.3313 18.1572 13.3953 18.1106 13.4498C18.064 13.5044 18.0062 13.5483 17.941 13.5784C17.8758 13.6085 17.8049 13.6241 17.7331 13.6241C16.5513 13.6227 15.5425 13.6191 14.0105 13.6191C13.7244 13.6191 13.504 13.3602 13.5529 13.0757L13.7583 11.8803L12.8593 11.4438L12.1302 15.2077C12.0672 15.5333 12.3182 15.8342 12.6466 15.8342H13.3689V22.8591C13.3689 23.4865 13.8775 23.9951 14.5049 23.9951C15.1323 23.9951 15.6409 23.4865 15.6409 22.8591V15.8343H16.1314V22.8591C16.1314 23.4818 16.6364 23.9951 17.2673 23.9951C17.8947 23.9951 18.4033 23.4865 18.4033 22.8591V15.8343H19.1257C19.4558 15.8343 19.705 15.533 19.642 15.2078L18.2809 8.02347C18.3244 8.12974 18.7772 9.22554 18.9718 9.76643C19.1523 10.2681 19.7217 10.5301 20.2265 10.3197L21.7634 9.67959L21.7731 19.0388C20.9846 19.2489 20.4041 19.9681 20.4049 20.8226L20.4051 20.9627L24.0937 20.9595L24.0933 20.8188Z" fill="#00ACE4"/>
<path d="M24.0942 21.6973L20.4056 21.7005L20.4074 23.352C20.4078 23.7109 21.2338 24.001 22.2524 24C23.2709 23.9989 24.0964 23.7071 24.096 23.3482L24.0942 21.6973Z" fill="#00ACE4"/>
<path d="M15.8857 3.92359C16.9692 3.92359 17.8475 3.04527 17.8475 1.9618C17.8475 0.878326 16.9692 0 15.8857 0C14.8023 0 13.924 0.878326 13.924 1.9618C13.924 3.04527 14.8023 3.92359 15.8857 3.92359Z" fill="#00ACE4"/>
<path d="M14.4149 4.54919L15.2366 6.86782H16.5093C16.7832 6.09495 17.0571 5.32208 17.331 4.54919H14.4149ZM15.2276 9.8135C12.9713 8.71784 13.5751 9.01523 12.9021 8.67309L13.9692 6.92759L13.5651 8.33052L14.3013 8.688L14.506 7.01484L13.6611 4.6308C13.2595 4.75199 12.9767 4.99525 12.7602 5.26911C12.5068 5.58956 10.7733 8.46187 10.7166 8.54992C10.4088 9.02855 10.5914 9.6669 11.0988 9.91327L14.4006 11.5166C14.8709 11.745 15.4373 11.5488 15.6657 11.0786C15.894 10.6083 15.6979 10.0419 15.2276 9.8135Z" fill="#00ACE4"/>
</svg>
