<svg width="24" height="24" viewBox="0 0 24 24" fill="none" xmlns="http://www.w3.org/2000/svg">
<path d="M9.42857 16.2857C9.42857 16.7404 9.24796 17.1764 8.92647 17.4979C8.60498 17.8194 8.16894 18 7.71429 18C7.25963 18 6.82359 17.8194 6.5021 17.4979C6.18061 17.1764 6 16.7404 6 16.2857V1.71429H0.857143V16.2857C0.857143 20.073 3.927 23.1429 7.71429 23.1429C11.5016 23.1429 14.5714 20.073 14.5714 16.2857V15.4286H9.42857V16.2857ZM2.57143 11.5714C2.57143 11.6851 2.52628 11.7941 2.4459 11.8745C2.36553 11.9548 2.25652 12 2.14286 12C2.02919 12 1.92018 11.9548 1.83981 11.8745C1.75944 11.7941 1.71429 11.6851 1.71429 11.5714V5.57143C1.71429 5.45776 1.75944 5.34876 1.83981 5.26838C1.92018 5.18801 2.02919 5.14286 2.14286 5.14286C2.25652 5.14286 2.36553 5.18801 2.4459 5.26838C2.52628 5.34876 2.57143 5.45776 2.57143 5.57143V11.5714ZM2.57143 3.85714C2.57143 3.97081 2.52628 4.07982 2.4459 4.16019C2.36553 4.24056 2.25652 4.28571 2.14286 4.28571C2.02919 4.28571 1.92018 4.24056 1.83981 4.16019C1.75944 4.07982 1.71429 3.97081 1.71429 3.85714V3C1.71429 2.88634 1.75944 2.77733 1.83981 2.69695C1.92018 2.61658 2.02919 2.57143 2.14286 2.57143C2.25652 2.57143 2.36553 2.61658 2.4459 2.69695C2.52628 2.77733 2.57143 2.88634 2.57143 3V3.85714ZM6.85714 0.428571C6.85714 0.314907 6.81199 0.205898 6.73162 0.125526C6.65124 0.0451529 6.54224 0 6.42857 0L0.428571 0C0.314907 0 0.205898 0.0451529 0.125526 0.125526C0.0451529 0.205898 0 0.314907 0 0.428571C0 0.542236 0.0451529 0.651244 0.125526 0.731617C0.205898 0.81199 0.314907 0.857143 0.428571 0.857143H6.42857C6.54224 0.857143 6.65124 0.81199 6.73162 0.731617C6.81199 0.651244 6.85714 0.542236 6.85714 0.428571Z" fill="#00ACE4"/>
<path d="M15.0001 9.42859H9.0001C8.76341 9.42859 8.57153 9.62047 8.57153 9.85716V14.1429C8.57153 14.3796 8.76341 14.5714 9.0001 14.5714H15.0001C15.2368 14.5714 15.4287 14.3796 15.4287 14.1429V9.85716C15.4287 9.62047 15.2368 9.42859 15.0001 9.42859Z" fill="#00ACE4"/>
<path d="M23.5713 23.1429H17.5713C17.4577 23.1429 17.3487 23.188 17.2683 23.2684C17.1879 23.3488 17.1428 23.4578 17.1428 23.5715C17.1428 23.6851 17.1879 23.7941 17.2683 23.8745C17.3487 23.9549 17.4577 24 17.5713 24H23.5713C23.685 24 23.794 23.9549 23.8744 23.8745C23.9547 23.7941 23.9999 23.6851 23.9999 23.5715C23.9999 23.4578 23.9547 23.3488 23.8744 23.2684C23.794 23.188 23.685 23.1429 23.5713 23.1429ZM17.9999 7.71432V22.2857H23.1428V7.71432C23.1428 3.92703 20.0729 0.857178 16.2856 0.857178C12.4983 0.857178 9.42847 3.92703 9.42847 7.71432V8.57146H14.5713V7.71432C14.5713 7.25966 14.7519 6.82363 15.0734 6.50214C15.3949 6.18065 15.831 6.00003 16.2856 6.00003C16.7403 6.00003 17.1763 6.18065 17.4978 6.50214C17.8193 6.82363 17.9999 7.25966 17.9999 7.71432Z" fill="#00ACE4"/>
</svg>
