<svg width="19" height="24" viewBox="0 0 19 24" fill="none" xmlns="http://www.w3.org/2000/svg">
<path d="M18.4493 16.8569L16.5233 15.6156L17.5743 15.2841C17.7579 15.2163 17.9111 15.0719 18.0017 14.8812C18.0924 14.6905 18.1137 14.4681 18.0611 14.2603C18.0085 14.0525 17.8861 13.8754 17.7194 13.7658C17.5527 13.6562 17.3546 13.6227 17.1663 13.6722L15.3553 14.2437C15.1692 14.3055 14.9938 14.4017 14.8363 14.5284L10.9143 12L14.8443 9.46716C15.0013 9.58772 15.1753 9.68707 15.3683 9.74512L17.0723 10.2553C17.2645 10.3127 17.4692 10.2826 17.6414 10.1715C17.8137 10.0605 17.9394 9.87756 17.9908 9.66307C18.0423 9.44858 18.0153 9.22005 17.9158 9.02777C17.8163 8.83549 17.6525 8.6952 17.4603 8.63777L16.5533 8.36651L18.4493 7.14419C18.6202 7.03238 18.7445 6.84967 18.7951 6.63593C18.8457 6.4222 18.8185 6.19479 18.7195 6.00333C18.6205 5.81187 18.4576 5.6719 18.2665 5.61398C18.0754 5.55605 17.8715 5.58487 17.6993 5.69414L15.7733 6.93544L16.0413 5.7533C16.0671 5.64614 16.0735 5.53434 16.0602 5.42438C16.0469 5.31443 16.0142 5.20852 15.9639 5.11281C15.9136 5.0171 15.8468 4.9335 15.7673 4.86687C15.6879 4.80024 15.5973 4.75191 15.501 4.72468C15.4046 4.69746 15.3044 4.69189 15.2061 4.70829C15.1078 4.7247 15.0134 4.76275 14.9283 4.82023C14.8433 4.87772 14.7694 4.9535 14.7109 5.04316C14.6523 5.13282 14.6103 5.23457 14.5873 5.34251L14.1253 7.37861C14.0797 7.58928 14.0665 7.80709 14.0863 8.0227L10.1643 10.5511V5.48428C10.3363 5.39163 10.5003 5.27442 10.6413 5.11591L11.8883 3.72391C11.9579 3.64621 12.0131 3.55398 12.0508 3.45247C12.0885 3.35095 12.1078 3.24216 12.1078 3.13228C12.1078 3.0224 12.0885 2.9136 12.0508 2.81209C12.0131 2.71058 11.9579 2.61835 11.8883 2.54065C11.8187 2.46296 11.7361 2.40133 11.6451 2.35928C11.5542 2.31723 11.4567 2.29559 11.3583 2.29559C11.2599 2.29559 11.1624 2.31723 11.0715 2.35928C10.9805 2.40133 10.8979 2.46296 10.8283 2.54065L10.1643 3.28186V0.837209C10.1643 0.615168 10.0853 0.40222 9.94464 0.245213C9.80399 0.0882058 9.61322 0 9.41431 0C9.2154 0 9.02463 0.0882058 8.88398 0.245213C8.74333 0.40222 8.66431 0.615168 8.66431 0.837209V3.31981L7.88131 2.47033C7.73828 2.31827 7.54728 2.23534 7.3498 2.23953C7.15232 2.24373 6.96429 2.33472 6.82654 2.49274C6.6888 2.65077 6.61246 2.86307 6.6141 3.08354C6.61574 3.30402 6.69523 3.51488 6.83531 3.67033L8.18431 5.13488C8.32731 5.29116 8.49131 5.40614 8.66431 5.49544V10.5511L4.73431 8.01823C4.75143 7.80137 4.73554 7.58285 4.68731 7.37191L4.23131 5.46977C4.20583 5.36356 4.16187 5.264 4.10192 5.17676C4.04197 5.08952 3.96722 5.01632 3.88193 4.96133C3.79664 4.90634 3.70248 4.87064 3.60483 4.85627C3.50718 4.8419 3.40795 4.84914 3.31281 4.87758C3.21767 4.90602 3.12847 4.9551 3.05032 5.02202C2.97217 5.08893 2.90659 5.17238 2.85733 5.26759C2.80807 5.36279 2.77609 5.4679 2.76322 5.57691C2.75034 5.68591 2.75683 5.79668 2.78231 5.90288L3.02431 6.91647L1.12931 5.69414C1.04398 5.6383 0.9496 5.60185 0.851602 5.58689C0.753604 5.57194 0.653923 5.57877 0.558299 5.60699C0.462674 5.63521 0.372995 5.68427 0.294424 5.75133C0.215853 5.8184 0.149942 5.90215 0.100486 5.99777C0.0510297 6.09339 0.0190052 6.19898 0.00625629 6.30847C-0.00649266 6.41796 0.000285646 6.52919 0.026201 6.63574C0.0521163 6.7423 0.0966567 6.84208 0.157258 6.92934C0.217859 7.0166 0.293324 7.08962 0.379308 7.14419L2.30531 8.38549L1.25431 8.71702C1.15746 8.74482 1.06656 8.79395 0.986972 8.86154C0.907382 8.92912 0.840703 9.01379 0.790857 9.11056C0.741012 9.20734 0.709008 9.31426 0.696726 9.42504C0.684444 9.53583 0.692133 9.64824 0.719341 9.75565C0.74655 9.86307 0.792727 9.96333 0.855157 10.0505C0.917587 10.1377 0.99501 10.2101 1.08287 10.2634C1.17073 10.3167 1.26725 10.3499 1.36676 10.361C1.46627 10.372 1.56676 10.3607 1.66231 10.3278L3.47231 9.7574C3.66531 9.696 3.83631 9.59442 3.99231 9.47274L7.91431 12L3.98431 14.5328C3.82428 14.4084 3.64687 14.3145 3.45931 14.2549L1.75631 13.7459C1.66117 13.7173 1.56192 13.71 1.46425 13.7243C1.36657 13.7386 1.27238 13.7743 1.18704 13.8292C1.0147 13.9402 0.888893 14.123 0.837309 14.3375C0.811767 14.4437 0.805214 14.5545 0.818026 14.6635C0.830837 14.7725 0.862762 14.8777 0.911977 14.9729C1.01137 15.1653 1.17516 15.3058 1.36731 15.3633L2.27531 15.6346L0.379308 16.8569C0.293324 16.9115 0.217859 16.9845 0.157258 17.0718C0.0966567 17.159 0.0521163 17.2588 0.026201 17.3654C0.000285646 17.4719 -0.00649266 17.5832 0.00625629 17.6926C0.0190052 17.8021 0.0510297 17.9077 0.100486 18.0033C0.149942 18.099 0.215853 18.1827 0.294424 18.2498C0.372995 18.3169 0.462674 18.3659 0.558299 18.3941C0.653923 18.4224 0.753604 18.4292 0.851602 18.4142C0.9496 18.3993 1.04398 18.3628 1.12931 18.307L3.05431 17.0657L2.78631 18.2478C2.74624 18.4597 2.78119 18.6807 2.88384 18.8645C2.9865 19.0483 3.14888 19.1806 3.33697 19.2337C3.52507 19.2868 3.72427 19.2566 3.89285 19.1494C4.06143 19.0422 4.18631 18.8663 4.24131 18.6586L4.70231 16.6225C4.75131 16.406 4.75931 16.1894 4.74131 15.9784L8.66431 13.45V18.5168C8.48752 18.6082 8.3259 18.7324 8.18631 18.8841L6.93931 20.2761C6.86964 20.3539 6.81438 20.4462 6.77668 20.5478C6.73897 20.6494 6.71957 20.7583 6.71957 20.8683C6.71957 20.9783 6.73897 21.0872 6.77668 21.1888C6.81438 21.2904 6.86964 21.3827 6.93931 21.4605C7.08001 21.6175 7.27083 21.7058 7.46981 21.7058C7.56833 21.7058 7.66589 21.6841 7.75691 21.642C7.84794 21.5999 7.93064 21.5382 8.00031 21.4605L8.66431 20.7193V23.1628C8.66431 23.3848 8.74333 23.5978 8.88398 23.7548C9.02463 23.9118 9.2154 24 9.41431 24C9.61322 24 9.80399 23.9118 9.94464 23.7548C10.0853 23.5978 10.1643 23.3848 10.1643 23.1628V20.6813L10.9473 21.5308C11.0177 21.6079 11.101 21.6686 11.1925 21.7095C11.284 21.7505 11.3819 21.7707 11.4804 21.7692C11.579 21.7676 11.6763 21.7443 11.7667 21.7005C11.8572 21.6567 11.9389 21.5933 12.0073 21.514C12.1458 21.3549 12.222 21.1408 12.2192 20.919C12.2164 20.6971 12.1348 20.4855 11.9923 20.3308L10.6443 18.8662C10.5036 18.7171 10.3413 18.5955 10.1643 18.5068V13.45L14.0943 15.9829C14.0793 16.1961 14.0893 16.4127 14.1413 16.6292L14.5973 18.5313C14.6488 18.7458 14.7744 18.9287 14.9467 19.0398C15.1189 19.1508 15.3237 19.181 15.5158 19.1235C15.708 19.0661 15.8718 18.9258 15.9713 18.7335C16.0708 18.5412 16.0978 18.3127 16.0463 18.0982L15.8033 17.0847L17.6993 18.307C17.7845 18.3621 17.8787 18.3979 17.9764 18.4124C18.074 18.4268 18.1733 18.4195 18.2684 18.391C18.3636 18.3625 18.4528 18.3133 18.5308 18.2462C18.6089 18.1791 18.6743 18.0954 18.7233 18C18.8226 17.8078 18.8496 17.5795 18.7982 17.3652C18.7468 17.1508 18.6213 16.968 18.4493 16.8569Z" fill="#00ACE4"/>
</svg>
