<svg width="24" height="24" viewBox="0 0 24 24" fill="none" xmlns="http://www.w3.org/2000/svg">
<path d="M14.2519 20.9728V21.6741C14.2519 22.2321 13.842 22.6963 13.3086 22.7753L13.1358 23.4123C13.042 23.758 12.7309 24 12.3704 24H10.6568C10.2963 24 9.98519 23.758 9.89136 23.4123L9.72346 22.7753C9.18519 22.6914 8.77531 22.2321 8.77531 21.6691V20.9679C8.77531 20.5926 9.07654 20.2914 9.45185 20.2914H13.5753C13.9506 20.2963 14.2519 20.5975 14.2519 20.9728ZM17.4272 11.521C17.4272 13.116 16.7951 14.563 15.7679 15.6247C14.9877 16.4346 14.484 17.4667 14.3161 18.5679C14.242 19.042 13.8321 19.3926 13.3481 19.3926H9.67901C9.2 19.3926 8.78518 19.0469 8.71605 18.5728C8.54321 17.4716 8.03457 16.4247 7.25432 15.6198C6.24691 14.5728 5.61975 13.1506 5.60494 11.5852C5.57037 8.2963 8.18765 5.63457 11.4765 5.60988C14.7605 5.58519 17.4272 8.24198 17.4272 11.521ZM12.1827 7.94074C12.1827 7.57531 11.8864 7.27407 11.516 7.27407C9.16543 7.27407 7.24938 9.18519 7.24938 11.5407C7.24938 11.9062 7.54568 12.2074 7.91605 12.2074C8.28148 12.2074 8.58272 11.9111 8.58272 11.5407C8.58272 9.92099 9.90123 8.60741 11.516 8.60741C11.8864 8.60741 12.1827 8.31111 12.1827 7.94074ZM11.516 3.66914C11.8815 3.66914 12.1827 3.37284 12.1827 3.00247V0.666667C12.1827 0.301235 11.8864 0 11.516 0C11.1457 0 10.8494 0.296296 10.8494 0.666667V3.00247C10.8494 3.37284 11.1506 3.66914 11.516 3.66914ZM3.66914 11.516C3.66914 11.1506 3.37284 10.8494 3.00247 10.8494H0.666667C0.301235 10.8494 0 11.1457 0 11.516C0 11.8815 0.296296 12.1827 0.666667 12.1827H3.00247C3.37284 12.1827 3.66914 11.8864 3.66914 11.516ZM22.3654 10.8494H20.0296C19.6642 10.8494 19.363 11.1457 19.363 11.516C19.363 11.8815 19.6593 12.1827 20.0296 12.1827H22.3654C22.7309 12.1827 23.0321 11.8864 23.0321 11.516C23.0321 11.1506 22.7358 10.8494 22.3654 10.8494ZM5.02716 17.0667L3.37284 18.721C3.11111 18.9827 3.11111 19.4025 3.37284 19.6642C3.50123 19.7926 3.67407 19.8568 3.84198 19.8568C4.00988 19.8568 4.18272 19.7926 4.31111 19.6642L5.96543 18.0099C6.22716 17.7481 6.22716 17.3284 5.96543 17.0667C5.70864 16.8049 5.28395 16.8049 5.02716 17.0667ZM17.5358 6.16296C17.7037 6.16296 17.8765 6.09877 18.0049 5.97037L19.6593 4.31605C19.921 4.05432 19.921 3.63457 19.6593 3.37284C19.3975 3.11111 18.9778 3.11111 18.716 3.37284L17.0617 5.02716C16.8 5.28889 16.8 5.70864 17.0617 5.97037C17.1951 6.09877 17.363 6.16296 17.5358 6.16296ZM5.02716 5.96543C5.15556 6.09383 5.32839 6.15802 5.4963 6.15802C5.6642 6.15802 5.83704 6.09383 5.96543 5.96543C6.22716 5.7037 6.22716 5.28395 5.96543 5.02222L4.31111 3.3679C4.04938 3.10617 3.62963 3.10617 3.3679 3.3679C3.10617 3.62963 3.10617 4.04938 3.3679 4.31111L5.02716 5.96543ZM18.0049 17.0667C17.7432 16.8049 17.3235 16.8049 17.0617 17.0667C16.8 17.3284 16.8 17.7481 17.0617 18.0099L18.716 19.6642C18.8444 19.7926 19.0173 19.8568 19.1852 19.8568C19.3531 19.8568 19.5259 19.7926 19.6543 19.6642C19.916 19.4025 19.916 18.9827 19.6543 18.721L18.0049 17.0667Z" fill="#00ACE4"/>
</svg>
