<svg width="24" height="17" viewBox="0 0 24 17" fill="none" xmlns="http://www.w3.org/2000/svg">
<path d="M16.9453 13.3594C17.3336 13.3594 17.6484 13.0446 17.6484 12.6562C17.6484 12.2679 17.3336 11.9531 16.9453 11.9531C16.557 11.9531 16.2422 12.2679 16.2422 12.6562C16.2422 13.0446 16.557 13.3594 16.9453 13.3594Z" fill="#00ACE4"/>
<path d="M4.21875 3.51562H9.89062V7.73438H4.21875V3.51562Z" fill="#00ACE4"/>
<path d="M0 0V16.875H24V0H0ZM14.0625 2.10938H19.8281V3.51562H14.0625V2.10938ZM4.92867 14.7656H3.52242V13.3594H4.92867V14.7656ZM4.92867 11.9531H3.52242V10.5469H4.92867V11.9531ZM7.728 14.7656H6.32175V13.3594H7.728V14.7656ZM7.728 11.9531H6.32175V10.5469H7.728V11.9531ZM10.5274 14.7656H9.12113V13.3594H10.5274V14.7656ZM10.5274 11.9531H9.12113V10.5469H10.5274V11.9531ZM11.2969 9.14062H2.8125V2.10938H11.2969V9.14062ZM16.9453 14.7656C15.7822 14.7656 14.8359 13.8194 14.8359 12.6562C14.8359 11.4931 15.7822 10.5469 16.9453 10.5469C18.1084 10.5469 19.0547 11.4931 19.0547 12.6562C19.0547 13.8194 18.1084 14.7656 16.9453 14.7656ZM19.8281 9.14062H14.0625V7.73438H19.8281V9.14062ZM21.1875 6.32812H12.7031V4.92188H21.1875V6.32812Z" fill="#00ACE4"/>
</svg>
