<svg width="20" height="20" viewBox="0 0 20 20" fill="none" xmlns="http://www.w3.org/2000/svg">
<path d="M17.976 7.416C17.976 7.08 17.76 6.768 17.448 6.648C16.128 6.168 14.808 5.976 13.512 6.048V17.448H17.976V7.416ZM13.176 1.848C13.176 1.512 12.96 1.2 12.648 1.08C9.024 -0.36 5.376 -0.36 1.752 1.08C1.44 1.2 1.224 1.512 1.224 1.848V17.472H13.176V1.848ZM6.072 2.64C5.808 2.88 5.664 3.24 5.664 3.6V16.08C5.664 16.176 5.592 16.248 5.496 16.248C5.4 16.248 5.328 16.176 5.328 16.08V15.024H3V16.08C3 16.176 2.928 16.248 2.832 16.248C2.736 16.248 2.664 16.176 2.664 16.08V3.6C2.664 3.144 2.856 2.712 3.168 2.4C3.24 2.328 3.336 2.352 3.408 2.4C3.48 2.472 3.456 2.568 3.408 2.64C3.144 2.88 3 3.24 3 3.6V4.008H5.328V3.6C5.328 3.144 5.52 2.712 5.832 2.4C5.904 2.328 6 2.352 6.072 2.4C6.12 2.472 6.12 2.592 6.072 2.64ZM9.168 11.784C8.328 11.784 7.656 11.112 7.656 10.272C7.656 9.432 9.168 6.936 9.168 6.936C9.168 6.936 10.68 9.456 10.68 10.272C10.68 11.112 9.984 11.784 9.168 11.784ZM18.144 17.784H0V19.2H19.2V17.784H18.144Z" fill="#00ACE4"/>
<path d="M3 4.31995H5.328V6.14395H3V4.31995ZM3 6.47995H5.328V8.30395H3V6.47995ZM3 8.61595H5.328V10.4399H3V8.61595ZM3 10.7519H5.328V12.5759H3V10.7519ZM3 12.8879H5.328V14.7119H3V12.8879Z" fill="#00ACE4"/>
</svg>
