<svg width="18" height="23" viewBox="0 0 18 23" fill="none" xmlns="http://www.w3.org/2000/svg">
<path d="M17.625 11.25H15.2498L14.646 9.891C14.5282 9.62571 14.336 9.40031 14.0927 9.24215C13.8493 9.08399 13.5652 8.99987 13.275 9H4.72425C4.13175 9 3.594 9.3495 3.35325 9.891L2.7495 11.25H0.375C0.275544 11.25 0.180161 11.2895 0.109835 11.3598C0.0395089 11.4302 5.88825e-08 11.5255 5.88825e-08 11.625V12.135C-6.86419e-05 12.3084 0.0599818 12.4766 0.169927 12.6107C0.279873 12.7449 0.432916 12.8368 0.603 12.8707L1.91325 13.1325L0.75 15.75V21.75C0.75 21.9489 0.829018 22.1397 0.96967 22.2803C1.11032 22.421 1.30109 22.5 1.5 22.5H3.75C3.94891 22.5 4.13968 22.421 4.28033 22.2803C4.42098 22.1397 4.5 21.9489 4.5 21.75V19.5H13.5V21.75C13.5 21.9489 13.579 22.1397 13.7197 22.2803C13.8603 22.421 14.0511 22.5 14.25 22.5H16.5C16.6989 22.5 16.8897 22.421 17.0303 22.2803C17.171 22.1397 17.25 21.9489 17.25 21.75V15.75L16.0868 13.1325L17.397 12.8707C17.5671 12.8368 17.7201 12.7449 17.8301 12.6107C17.94 12.4766 18.0001 12.3084 18 12.135V11.625C18 11.5255 17.9605 11.4302 17.8902 11.3598C17.8198 11.2895 17.7245 11.25 17.625 11.25ZM4.3815 10.3477C4.4415 10.2127 4.5765 10.125 4.72425 10.125H13.275C13.4228 10.125 13.5578 10.2128 13.6185 10.3485L15.0187 13.5H2.9805L4.3815 10.3477ZM3.75 17.625C3.60221 17.625 3.45588 17.5958 3.31937 17.5392C3.18285 17.4826 3.05882 17.3997 2.95435 17.2951C2.84988 17.1906 2.76703 17.0665 2.71052 16.9299C2.65401 16.7934 2.62495 16.647 2.625 16.4993C2.62505 16.3515 2.65421 16.2051 2.71081 16.0686C2.76741 15.9321 2.85034 15.8081 2.95488 15.7036C3.05942 15.5991 3.1835 15.5163 3.32006 15.4598C3.45661 15.4033 3.60296 15.3742 3.75075 15.3743C4.04922 15.3743 4.33542 15.493 4.5464 15.7041C4.75738 15.9152 4.87585 16.2015 4.87575 16.5C4.87565 16.7985 4.75699 17.0847 4.54587 17.2957C4.33475 17.5066 4.04847 17.6251 3.75 17.625ZM10.5 17.25H7.5C7.30109 17.25 7.11032 17.171 6.96967 17.0303C6.82902 16.8897 6.75 16.6989 6.75 16.5C6.75 16.3011 6.82902 16.1103 6.96967 15.9697C7.11032 15.829 7.30109 15.75 7.5 15.75H10.5C10.6989 15.75 10.8897 15.829 11.0303 15.9697C11.171 16.1103 11.25 16.3011 11.25 16.5C11.25 16.6989 11.171 16.8897 11.0303 17.0303C10.8897 17.171 10.6989 17.25 10.5 17.25ZM14.25 17.625C14.1022 17.625 13.9559 17.5958 13.8194 17.5392C13.6828 17.4826 13.5588 17.3997 13.4543 17.2951C13.3499 17.1906 13.267 17.0665 13.2105 16.9299C13.154 16.7934 13.125 16.647 13.125 16.4993C13.125 16.3515 13.1542 16.2051 13.2108 16.0686C13.2674 15.9321 13.3503 15.8081 13.4549 15.7036C13.5594 15.5991 13.6835 15.5163 13.8201 15.4598C13.9566 15.4033 14.103 15.3742 14.2507 15.3743C14.5492 15.3743 14.8354 15.493 15.0464 15.7041C15.2574 15.9152 15.3758 16.2015 15.3757 16.5C15.3757 16.7985 15.257 17.0847 15.0459 17.2957C14.8348 17.5066 14.5485 17.6251 14.25 17.625ZM9 5.0625C8.85082 5.0625 8.70774 5.00324 8.60225 4.89775C8.49676 4.79226 8.4375 4.64918 8.4375 4.5V3.75C8.4375 3.60082 8.49676 3.45774 8.60225 3.35225C8.70774 3.24676 8.85082 3.1875 9 3.1875C9.14918 3.1875 9.29226 3.24676 9.39775 3.35225C9.50324 3.45774 9.5625 3.60082 9.5625 3.75V4.5C9.5625 4.64918 9.50324 4.79226 9.39775 4.89775C9.29226 5.00324 9.14918 5.0625 9 5.0625ZM9 8.0625C8.85082 8.0625 8.70774 8.00324 8.60225 7.89775C8.49676 7.79226 8.4375 7.64918 8.4375 7.5V6.75C8.4375 6.60082 8.49676 6.45774 8.60225 6.35225C8.70774 6.24676 8.85082 6.1875 9 6.1875C9.14918 6.1875 9.29226 6.24676 9.39775 6.35225C9.50324 6.45774 9.5625 6.60082 9.5625 6.75V7.5C9.5625 7.64918 9.50324 7.79226 9.39775 7.89775C9.29226 8.00324 9.14918 8.0625 9 8.0625ZM13.05 5.00025C12.9405 5.00034 12.8333 4.96845 12.7416 4.9085C12.65 4.84854 12.5778 4.76313 12.534 4.66275L12.234 3.975C12.1746 3.83811 12.1719 3.68328 12.2264 3.54439C12.281 3.40551 12.3883 3.2939 12.525 3.234C12.5927 3.20441 12.6656 3.18847 12.7394 3.18708C12.8133 3.1857 12.8867 3.1989 12.9555 3.22593C13.0243 3.25296 13.087 3.29329 13.1402 3.34461C13.1933 3.39593 13.2358 3.45723 13.2653 3.525L13.5653 4.21275C13.6026 4.29833 13.6181 4.39186 13.6102 4.48491C13.6024 4.57795 13.5715 4.66759 13.5204 4.74572C13.4693 4.82386 13.3995 4.88804 13.3174 4.93247C13.2353 4.97691 13.1434 5.0002 13.05 5.00025ZM14.25 7.74975C14.1405 7.74984 14.0333 7.71795 13.9416 7.658C13.85 7.59804 13.7778 7.51263 13.734 7.41225L13.434 6.7245C13.4031 6.65657 13.386 6.58317 13.3838 6.50858C13.3815 6.43399 13.3942 6.3597 13.4209 6.29003C13.4477 6.22036 13.488 6.15672 13.5396 6.10279C13.5912 6.04887 13.653 6.00575 13.7214 5.97595C13.7898 5.94614 13.8635 5.93025 13.9381 5.92919C14.0127 5.92814 14.0868 5.94194 14.156 5.9698C14.2252 5.99765 14.2882 6.039 14.3413 6.09145C14.3944 6.14389 14.4365 6.20637 14.4653 6.27525L14.7653 6.963C14.8024 7.04854 14.8178 7.14199 14.8099 7.23494C14.802 7.32788 14.7711 7.4174 14.7199 7.49543C14.6688 7.57346 14.5991 7.63756 14.5171 7.68196C14.4351 7.72635 14.3433 7.74965 14.25 7.74975ZM4.95 5.00025C4.85663 5.0002 4.76473 4.97691 4.68261 4.93247C4.60048 4.88804 4.53071 4.82386 4.47959 4.74572C4.42847 4.66759 4.3976 4.57795 4.38977 4.48491C4.38194 4.39186 4.3974 4.29833 4.43475 4.21275L4.73475 3.525C4.79586 3.39062 4.90736 3.28564 5.04518 3.23273C5.183 3.17982 5.3361 3.18321 5.47144 3.24217C5.60678 3.30113 5.71352 3.41094 5.76863 3.54789C5.82374 3.68485 5.82279 3.83798 5.766 3.97425L5.466 4.662C5.4223 4.76252 5.35018 4.84809 5.25851 4.90818C5.16684 4.96828 5.05961 5.00028 4.95 5.00025ZM3.75 7.74975C3.65672 7.74965 3.56493 7.72635 3.4829 7.68196C3.40086 7.63756 3.33115 7.57346 3.28005 7.49543C3.22895 7.4174 3.19805 7.32788 3.19014 7.23494C3.18223 7.14199 3.19756 7.04854 3.23475 6.963L3.53475 6.27525C3.59586 6.14087 3.70736 6.03589 3.84518 5.98298C3.983 5.93007 4.1361 5.93346 4.27144 5.99242C4.40678 6.05138 4.51352 6.16119 4.56863 6.29814C4.62373 6.4351 4.62279 6.58823 4.566 6.7245L4.266 7.41225C4.22211 7.51258 4.14993 7.59793 4.05828 7.65788C3.96664 7.71782 3.85951 7.74974 3.75 7.74975ZM16.125 2.25H1.875C1.77554 2.25 1.68016 2.21049 1.60984 2.14016C1.53951 2.06984 1.5 1.97446 1.5 1.875V1.125C1.5 1.02554 1.53951 0.930161 1.60984 0.859835C1.68016 0.789509 1.77554 0.75 1.875 0.75H16.125C16.2245 0.75 16.3198 0.789509 16.3902 0.859835C16.4605 0.930161 16.5 1.02554 16.5 1.125V1.875C16.5 1.97446 16.4605 2.06984 16.3902 2.14016C16.3198 2.21049 16.2245 2.25 16.125 2.25Z" fill="#00ACE4"/>
</svg>
