<svg width="24" height="17" viewBox="0 0 24 17" fill="none" xmlns="http://www.w3.org/2000/svg">
<path d="M21.2919 8.06147H2.70797V7.58503C2.70797 7.06317 3.13256 6.63858 3.65442 6.63858H20.3454C20.8673 6.63858 21.2919 7.06317 21.2919 7.58503V8.06147ZM24 6.69591C24 7.44891 23.3874 8.06147 22.6344 8.06147H21.9969V7.58503C21.9969 6.67444 21.2561 5.93358 20.3454 5.93358H3.65442C2.74383 5.93358 2.00297 6.67444 2.00297 7.58503V8.06147H1.36556C0.612563 8.06147 0 7.44886 0 6.69591V1.36556C0 0.612563 0.612563 0 1.36556 0H22.6344C23.3874 0 24 0.612563 24 1.36556V6.69591ZM20.8709 1.9185C20.1822 1.9185 19.622 2.47875 19.622 3.16744C19.622 3.85613 20.1823 4.41638 20.8709 4.41638C21.5595 4.41638 22.1198 3.85608 22.1198 3.16744C22.1198 2.4788 21.5596 1.9185 20.8709 1.9185ZM20.8709 3.71137C20.571 3.71137 20.327 3.46734 20.327 3.16744C20.327 2.86753 20.571 2.62355 20.8709 2.62355C21.1708 2.62355 21.4148 2.86753 21.4148 3.16744C21.4148 3.46734 21.1709 3.71137 20.8709 3.71137ZM16.0868 11.2792C16.0527 10.2195 15.2439 9.49711 15.2095 9.46688C15.1393 9.40517 15.0474 9.37389 14.9541 9.37992C14.8608 9.38595 14.7738 9.4288 14.712 9.49903C14.6503 9.56927 14.6191 9.66114 14.6251 9.75443C14.6281 9.80063 14.6401 9.84579 14.6606 9.88732C14.681 9.92886 14.7094 9.96596 14.7442 9.99652C14.7503 10.0019 15.3581 10.5562 15.3822 11.3019C15.3974 11.7727 15.1771 12.2393 14.7276 12.6888C13.719 13.6974 13.7764 14.7242 14.0021 15.408C14.2385 16.1244 14.706 16.6042 14.7258 16.6243C14.7585 16.6575 14.7975 16.6839 14.8405 16.7019C14.8835 16.72 14.9297 16.7292 14.9763 16.7291C15.0653 16.7291 15.1545 16.6956 15.2232 16.6283C15.362 16.4924 15.3643 16.2694 15.2288 16.1302C15.2249 16.1262 14.8454 15.7318 14.6648 15.1661C14.4373 14.4531 14.6261 13.7874 15.2262 13.1874C15.819 12.5945 16.1086 11.9525 16.0868 11.2792ZM17.8027 12.0499C17.7801 11.3479 17.2463 10.8712 17.2237 10.8512C17.1534 10.7895 17.0616 10.7583 16.9683 10.7643C16.875 10.7703 16.7879 10.8132 16.7262 10.8834C16.6645 10.9536 16.6332 11.0455 16.6392 11.1388C16.6452 11.2321 16.6881 11.3192 16.7583 11.3809C16.7616 11.3837 17.0854 11.679 17.0981 12.0727C17.106 12.3182 16.9861 12.5666 16.7417 12.811C16.0802 13.4726 16.119 14.1498 16.2682 14.6014C16.419 15.0584 16.7075 15.3599 16.7399 15.3928C16.7725 15.426 16.8115 15.4524 16.8544 15.4704C16.8973 15.4884 16.9434 15.4976 16.99 15.4975C17.0821 15.4976 17.1705 15.4615 17.2364 15.3971C17.3752 15.2617 17.378 15.0389 17.2433 14.8993C17.1632 14.8163 16.4831 14.0667 17.2402 13.3096C17.6279 12.9218 17.8172 12.498 17.8027 12.0499ZM13.4612 12.0499C13.4386 11.3479 12.9049 10.8712 12.8822 10.8512C12.812 10.7895 12.7201 10.7583 12.6268 10.7643C12.5335 10.7703 12.4464 10.8132 12.3847 10.8834C12.323 10.9536 12.2917 11.0455 12.2977 11.1388C12.3038 11.2321 12.3466 11.3192 12.4169 11.3809C12.4201 11.3837 12.7439 11.679 12.7566 12.0727C12.7645 12.3182 12.6446 12.5666 12.4003 12.811C11.7387 13.4726 11.7776 14.1498 11.9267 14.6014C12.0775 15.0584 12.3661 15.3599 12.3985 15.3928C12.4311 15.426 12.47 15.4524 12.5129 15.4704C12.5559 15.4884 12.602 15.4976 12.6485 15.4975C12.7406 15.4976 12.8291 15.4615 12.8949 15.3971C13.0338 15.2617 13.0365 15.0389 12.9019 14.8993C12.8219 14.8163 12.1417 14.0667 12.8988 13.3096C13.2864 12.9218 13.4757 12.498 13.4612 12.0499ZM8.90198 12.0739C8.87884 12.0338 8.84803 11.9986 8.8113 11.9705C8.77457 11.9423 8.73265 11.9216 8.68793 11.9096C8.64322 11.8976 8.59658 11.8946 8.55068 11.9006C8.50478 11.9067 8.46052 11.9217 8.42044 11.9449L7.40503 12.5311V11.2415C7.40503 11.148 7.36789 11.0584 7.30179 10.9923C7.23568 10.9262 7.14602 10.889 7.05253 10.889C6.95904 10.889 6.86938 10.9262 6.80328 10.9923C6.73717 11.0584 6.70003 11.148 6.70003 11.2415V12.5311L5.58319 11.8863C5.54308 11.8626 5.49865 11.847 5.45249 11.8406C5.40633 11.8341 5.35934 11.8369 5.31425 11.8487C5.26916 11.8605 5.22686 11.8811 5.18981 11.9094C5.15275 11.9377 5.12167 11.973 5.09836 12.0134C5.07505 12.0538 5.05998 12.0984 5.05402 12.1446C5.04806 12.1908 5.05133 12.2378 5.06363 12.2827C5.07594 12.3277 5.09704 12.3698 5.12572 12.4065C5.15439 12.4433 5.19007 12.474 5.23069 12.4968L6.34758 13.1416L5.23069 13.7865C5.19007 13.8093 5.15439 13.84 5.12572 13.8768C5.09704 13.9135 5.07594 13.9556 5.06363 14.0005C5.05133 14.0455 5.04806 14.0925 5.05402 14.1387C5.05998 14.1849 5.07505 14.2295 5.09836 14.2699C5.12167 14.3102 5.15275 14.3456 5.18981 14.3739C5.22686 14.4021 5.26916 14.4228 5.31425 14.4346C5.35934 14.4464 5.40633 14.4492 5.45249 14.4427C5.49865 14.4363 5.54308 14.4207 5.58319 14.397L6.70003 13.7521V14.9247C6.70003 15.0182 6.73717 15.1078 6.80328 15.1739C6.86938 15.24 6.95904 15.2772 7.05253 15.2772C7.14602 15.2772 7.23568 15.24 7.30179 15.1739C7.36789 15.1078 7.40503 15.0182 7.40503 14.9247V13.7521L8.42044 14.3384C8.46052 14.3616 8.50478 14.3766 8.55068 14.3826C8.59658 14.3887 8.64322 14.3856 8.68793 14.3737C8.73265 14.3617 8.77457 14.341 8.8113 14.3128C8.84803 14.2846 8.87884 14.2495 8.90198 14.2094C8.92513 14.1693 8.94015 14.1251 8.9462 14.0792C8.95224 14.0333 8.94918 13.9866 8.9372 13.9419C8.92521 13.8972 8.90454 13.8553 8.87636 13.8186C8.84817 13.7819 8.81303 13.751 8.77294 13.7279L7.75748 13.1416L8.77294 12.5554C8.81303 12.5322 8.84817 12.5014 8.87636 12.4647C8.90454 12.428 8.92521 12.3861 8.9372 12.3414C8.94918 12.2966 8.95224 12.25 8.9462 12.2041C8.94015 12.1582 8.92513 12.114 8.90198 12.0739Z" fill="#00ACE4"/>
</svg>
