<svg width="24" height="20" viewBox="0 0 24 20" fill="none" xmlns="http://www.w3.org/2000/svg">
<path d="M21.925 4.36266C22.0305 4.39272 22.1232 4.45621 22.1894 4.54358C22.2556 4.63096 22.2916 4.73747 22.2919 4.84707V18.3189H15.182V3.57863C17.4574 3.47107 19.7351 3.7359 21.925 4.36266ZM4.87506 4.76715H2.24102V5.98046H4.87506V4.76715ZM4.87506 1.77652C3.98917 1.88333 3.10983 2.03879 2.24102 2.24218V2.61648H4.87506V1.77652ZM9.42274 1.2016V0.803117C9.42328 0.721569 9.39528 0.642401 9.34357 0.579336C9.29187 0.516272 9.21973 0.473288 9.13966 0.457835C8.18043 0.278866 7.19638 0.278866 6.23716 0.457835C6.15707 0.473277 6.08491 0.516255 6.03319 0.57932C5.98147 0.642384 5.95345 0.721558 5.95399 0.803117V1.20198C7.10872 1.11816 8.268 1.11812 9.42274 1.20184V1.2016ZM17.9284 3.15802V3.06718C17.929 2.98563 17.9009 2.90647 17.8492 2.8434C17.7975 2.78034 17.7254 2.73736 17.6453 2.7219C16.7988 2.564 15.9322 2.54542 15.0797 2.66691C15.1449 2.80543 15.1796 2.95631 15.1815 3.10937C16.0972 3.06499 17.0149 3.08132 17.9284 3.15826V3.15802ZM4.87506 3.08485H2.24102V4.29816H4.87506V3.08485ZM22.5657 18.7876H0.448892C0.390161 18.787 0.331893 18.7981 0.277458 18.8201C0.223024 18.8422 0.173502 18.8748 0.131758 18.9162C0.0900144 18.9575 0.0568762 19.0067 0.0342604 19.0609C0.0116446 19.1151 0 19.1732 0 19.232C0 19.2907 0.0116446 19.3488 0.0342604 19.403C0.0568762 19.4572 0.0900144 19.5064 0.131758 19.5477C0.173502 19.5891 0.223024 19.6217 0.277458 19.6438C0.331893 19.6658 0.390161 19.6769 0.448892 19.6763H22.5658C22.6246 19.6769 22.6828 19.6658 22.7373 19.6438C22.7917 19.6217 22.8412 19.5891 22.883 19.5477C22.9247 19.5064 22.9578 19.4572 22.9805 19.403C23.0031 19.3488 23.0147 19.2907 23.0147 19.232C23.0147 19.1732 23.0031 19.1151 22.9805 19.0609C22.9578 19.0067 22.9247 18.9575 22.883 18.9162C22.8412 18.8748 22.7917 18.8422 22.7373 18.8201C22.6828 18.7981 22.6246 18.787 22.5658 18.7876H22.5657ZM4.87506 9.81301H2.24102V11.0266H4.87506V9.81301ZM4.87506 11.4951H2.24102V12.7084H4.87506V11.4951ZM4.87506 13.1771H2.24102V14.3904H4.87506V13.1771ZM14.7133 3.12188C14.7128 2.98877 14.6691 2.85942 14.5887 2.75331C14.5084 2.6472 14.3957 2.57007 14.2677 2.53355C11.3086 1.69674 8.32117 1.42787 5.34381 1.72548V15.6743C5.34381 15.7364 5.31912 15.796 5.27517 15.84C5.23121 15.8839 5.1716 15.9086 5.10944 15.9086C5.04728 15.9086 4.98766 15.8839 4.94371 15.84C4.89976 15.796 4.87506 15.7364 4.87506 15.6743V14.8594H2.24102V15.6743C2.24102 15.7364 2.21632 15.796 2.17237 15.84C2.12842 15.8839 2.0688 15.9086 2.00664 15.9086C1.94448 15.9086 1.88487 15.8839 1.84091 15.84C1.79696 15.796 1.77227 15.7364 1.77227 15.6743V2.35646C1.55043 2.41254 1.32935 2.47158 1.10908 2.53355C0.981075 2.57007 0.868404 2.6472 0.788036 2.75331C0.707668 2.85942 0.663957 2.98877 0.663486 3.12188V18.3191H14.7133V3.12188ZM4.87506 6.44921H2.24102V7.66252H4.87506V6.44921ZM4.87506 8.13127H2.24102V9.34449H4.87506V8.13127Z" fill="#00ACE4"/>
</svg>
