<svg width="24" height="24" viewBox="0 0 24 24" fill="none" xmlns="http://www.w3.org/2000/svg">
<path d="M19.0313 9.89062H12.7031V15.5156H21.4128L19.698 10.3713C19.6514 10.2313 19.562 10.1095 19.4423 10.0232C19.3226 9.93692 19.1788 9.89053 19.0313 9.89062ZM4.30206 10.3713L2.58728 15.5156H11.2969V9.89062H4.96877C4.82123 9.89053 4.67741 9.93692 4.55773 10.0232C4.43805 10.1095 4.3486 10.2313 4.30206 10.3713ZM21.8815 16.9219H12.7031V24H23.2969C23.5226 24 23.7349 23.8914 23.8675 23.7081C23.9326 23.6176 23.9753 23.513 23.992 23.4028C24.0087 23.2925 23.9989 23.1799 23.9635 23.0742L21.8815 16.9219ZM0.0364393 23.0744C-0.0357013 23.2884 0.000767458 23.5246 0.13258 23.7082C0.197828 23.7985 0.283565 23.872 0.382749 23.9227C0.481933 23.9735 0.591736 23.9999 0.703142 24H11.2969V16.9219H2.11853L0.0364393 23.0744ZM10.5938 4.26562C9.43066 4.26562 8.48439 3.31931 8.48439 2.15625C8.48439 1.76766 8.17 1.45312 7.78127 1.45312C7.39267 1.45312 7.07814 1.76766 7.07814 2.15625C7.07814 3.31936 6.13202 4.26562 4.96877 4.26562C4.58017 4.26562 4.26564 4.58002 4.26564 4.96875C4.26564 5.35734 4.58017 5.67188 4.96877 5.67188C6.13202 5.67188 7.07814 6.61819 7.07814 7.78125C7.07814 8.16984 7.39267 8.48438 7.78127 8.48438C8.17 8.48438 8.48439 8.16984 8.48439 7.78125C8.48439 6.61814 9.43071 5.67188 10.5938 5.67188C10.9825 5.67188 11.2969 5.35734 11.2969 4.96875C11.2969 4.58002 10.9825 4.26562 10.5938 4.26562ZM19.0313 2.85938C17.8682 2.85938 16.9219 1.86619 16.9219 0.703125C16.9219 0.314531 16.6074 0 16.2188 0C15.83 0 15.5156 0.314531 15.5156 0.703125C15.5156 1.86623 14.5693 2.85938 13.4063 2.85938C13.0177 2.85938 12.7031 3.17377 12.7031 3.5625C12.7031 3.95109 13.0177 4.26562 13.4063 4.26562C14.5694 4.26562 15.5156 5.21194 15.5156 6.375C15.5156 6.76359 15.83 7.07812 16.2188 7.07812C16.6074 7.07812 16.9219 6.76359 16.9219 6.375C16.9219 5.21189 17.8682 4.26562 19.0313 4.26562C19.4199 4.26562 19.7344 3.95109 19.7344 3.5625C19.7344 3.17377 19.4199 2.85938 19.0313 2.85938Z" fill="#00ACE4"/>
</svg>
