<svg width="24" height="24" viewBox="0 0 24 24" fill="none" xmlns="http://www.w3.org/2000/svg">
<path d="M0.143918 3.6473C0.271895 3.11462 0.935453 2.92566 1.32477 3.31502L3.91507 5.90672H5.90504V3.91675L3.31817 1.33124C2.93068 0.943746 3.11744 0.280891 3.64744 0.151086C4.87068 -0.148465 6.85549 -0.103743 8.39004 1.43029C9.73263 2.77288 10.1639 4.77692 9.53293 6.55125L17.4488 14.4671C19.2231 13.8361 21.2271 14.2674 22.5697 15.61C24.0652 17.1054 24.1532 19.1108 23.8545 20.3544C23.7265 20.8871 23.063 21.076 22.6736 20.6867L20.0833 18.095H18.0934V20.0849L20.6796 22.6697C21.0672 23.0573 20.8802 23.7203 20.3501 23.8499C19.1274 24.1489 17.1432 24.1057 15.6084 22.5713C14.2658 21.2288 13.8346 19.2247 14.4655 17.4504L6.54971 9.53457C4.77537 10.1655 2.77181 9.73427 1.42875 8.39168C-0.0667522 6.89627 -0.154836 4.89092 0.143918 3.6473Z" fill="#00ACE4"/>
<path d="M11.9993 16.9732L6.00029 22.9717C4.79975 24.1723 2.93963 24.3218 1.57548 23.4189L6.99504 17.9998C7.26928 17.7251 7.26928 17.2798 6.99504 17.0051C6.72034 16.7308 6.275 16.7308 6.00029 17.0051L0.581193 22.4247C-0.321678 21.0605 -0.172606 19.2004 1.02841 17.9998L7.02692 12.0009L11.9993 16.9732ZM23.926 2.01209L21.9369 5.98969C21.8338 6.19642 21.636 6.33893 21.4072 6.37174L18.159 6.83537L14.9826 10.0118L13.9883 9.01754L17.1643 5.84155L17.6284 2.5929C17.6612 2.36414 17.8037 2.16631 18.0104 2.06318L21.988 0.0741485C22.12 0.00829309 22.2694 -0.0144207 22.415 0.00921653C22.5606 0.0328537 22.6951 0.101647 22.7995 0.205876L23.7943 1.20063C23.8985 1.30502 23.9673 1.43952 23.9909 1.58512C24.0145 1.73073 23.9918 1.88009 23.926 2.01209Z" fill="#00ACE4"/>
</svg>
