<svg width="21" height="24" viewBox="0 0 21 24" fill="none" xmlns="http://www.w3.org/2000/svg">
<path d="M1.09167 22.6133H20.9678V23.8889H1.09167V22.6133ZM3.445 16.8155L4.39444 17.1233L3.445 17.4311L2.87389 17.6166C2.83119 17.6306 2.79238 17.6544 2.76063 17.6862C2.72887 17.7179 2.70505 17.7567 2.69111 17.7994L2.19722 19.32L1.70333 17.7994C1.67556 17.7127 1.60722 17.6455 1.52056 17.6166L0 17.1233L1.52056 16.63C1.60722 16.6022 1.675 16.5339 1.70333 16.4472L2.19722 14.9266L2.69111 16.4472C2.71889 16.5339 2.78722 16.6016 2.87389 16.63L3.445 16.8155Z" fill="#00ACE4"/>
<path d="M5.66439 12.2289L7.19328 12.7244L7.70328 14.295C7.74106 14.4122 7.84995 14.4911 7.97328 14.4911C8.09662 14.4911 8.20606 14.4122 8.24384 14.295L8.75328 12.7244L10.2822 12.2289H10.7449V20.69H3.83606V17.9022L5.40384 17.3939C5.52162 17.3555 5.6005 17.2466 5.6005 17.1233C5.6005 17 5.52162 16.8905 5.40384 16.8533L3.83606 16.345V12.2294H5.66439V12.2289ZM11.3144 12.2289H18.2233V20.69H11.3144V12.2289ZM16.2938 7.12942L15.2983 7.45275C15.2111 7.48053 15.1438 7.54886 15.1149 7.63553L14.7916 8.63164L14.4677 7.63553C14.4539 7.59279 14.4301 7.55393 14.3983 7.52216C14.3665 7.49039 14.3277 7.4666 14.2849 7.45275L13.2888 7.12942L14.2849 6.80609C14.3716 6.77831 14.4394 6.71053 14.4677 6.62331L14.7916 5.6272L15.1149 6.62331C15.1288 6.66605 15.1526 6.70491 15.1844 6.73668C15.2161 6.76845 15.255 6.79224 15.2977 6.80609L16.2938 7.12942Z" fill="#00ACE4"/>
<path d="M9.3156 11.9444L8.4406 12.2283C8.35394 12.2561 8.28616 12.3244 8.25783 12.4111L7.97338 13.2861L7.68949 12.4111C7.67553 12.3683 7.65164 12.3295 7.61977 12.2977C7.58791 12.2659 7.54897 12.2422 7.50616 12.2283L6.63171 11.9444L7.50671 11.6606C7.59394 11.6328 7.66116 11.5644 7.69005 11.4778L7.97394 10.6028L8.25838 11.4778C8.28616 11.5644 8.35449 11.6322 8.44116 11.6606L9.3156 11.9444Z" fill="#00ACE4"/>
<path d="M10.7456 3.19885V11.66H10.2828L8.75389 11.1644L8.24445 9.59385C8.20611 9.47663 8.09723 9.39774 7.97389 9.39774C7.85056 9.39774 7.74111 9.47663 7.70389 9.59385L7.19389 11.1644L5.665 11.66H3.83667V3.19885H10.7456ZM18.2233 3.19885V11.66H11.3144V3.19885H18.2233ZM17.5 7.12941C17.5 7.00608 17.4206 6.89663 17.3033 6.85941L15.6111 6.31052L15.0622 4.61941C15.0439 4.56214 15.0077 4.51227 14.9589 4.47719C14.9105 4.4418 14.8522 4.42273 14.7922 4.42274C14.6689 4.42274 14.5594 4.50219 14.5217 4.61941L13.9728 6.31052L12.2806 6.85941C12.1633 6.89719 12.0844 7.00608 12.0844 7.12941C12.0844 7.25274 12.1633 7.36219 12.2806 7.39996L13.9728 7.94885L14.5217 9.63941C14.5401 9.69658 14.5762 9.74643 14.6248 9.78179C14.6733 9.81715 14.7319 9.8362 14.7919 9.8362C14.852 9.8362 14.9105 9.81715 14.9591 9.78179C15.0077 9.74643 15.0438 9.69658 15.0622 9.63941L15.6111 7.94885L17.3033 7.39996C17.3606 7.38153 17.4104 7.34539 17.4458 7.29676C17.4811 7.24813 17.5001 7.18953 17.5 7.12941Z" fill="#00ACE4"/>
<path d="M3.26723 16.16L3.18723 16.1339L2.48167 13.9606V1.84444H19.5783V22.0444H2.48223V20.2861L3.18779 18.1128L3.26779 18.0867V20.9744C3.26779 21.1317 3.39501 21.2589 3.55223 21.2589H18.5083C18.6656 21.2589 18.7928 21.1317 18.7928 20.9744V2.91444C18.7928 2.75722 18.6656 2.63 18.5083 2.63H3.55167C3.39445 2.63 3.26723 2.75722 3.26723 2.91444V16.16ZM1.09167 0H20.9678V1.27556H1.09167V0Z" fill="#00ACE4"/>
</svg>
