<svg width="19" height="24" viewBox="0 0 19 24" fill="none" xmlns="http://www.w3.org/2000/svg">
<path d="M14.6237 5.77533C14.5051 5.75685 14.3843 5.75685 14.2657 5.77533C13.9925 5.74125 10.1137 5.76285 10.3652 5.76285C10.1445 5.75451 9.92536 5.80346 9.72918 5.90493C8.43318 6.60237 7.39638 6.68877 6.64902 6.58365L6.08118 7.33053C6.77901 7.76381 7.35997 8.36158 7.77318 9.07149C8.21142 9.03453 8.68038 8.94189 9.18054 8.79357V21.8049C9.18155 22.1319 9.31181 22.4452 9.54291 22.6764C9.77401 22.9077 10.0872 23.0382 10.4141 23.0395C10.5763 23.0396 10.7368 23.0077 10.8867 22.9456C11.0365 22.8836 11.1726 22.7927 11.2872 22.678C11.4019 22.5634 11.4928 22.4273 11.5549 22.2775C11.6169 22.1276 11.6488 21.9671 11.6487 21.8049V14.3985H12.8833V21.8049C12.8843 22.132 13.0147 22.4455 13.246 22.6768C13.4773 22.9081 13.7907 23.0385 14.1178 23.0395C14.4449 23.0385 14.7584 22.9081 14.9897 22.6768C15.221 22.4455 15.3514 22.132 15.3524 21.8049V9.08397C15.9015 9.83037 16.3767 11.1883 16.0805 13.6329C16.0611 13.7939 16.0737 13.957 16.1175 14.1131C16.1613 14.2691 16.2356 14.415 16.3359 14.5423C16.4363 14.6696 16.5608 14.7758 16.7023 14.8548C16.8438 14.9339 16.9995 14.9842 17.1605 15.0029C17.6405 15.1229 18.4373 14.7269 18.5309 13.9291C19.2346 8.15181 16.2783 6.07149 14.6237 5.77533Z" fill="#00ACE4"/>
<path d="M12.2669 4.93632C13.63 4.93632 14.735 3.83129 14.735 2.46816C14.735 1.10503 13.63 0 12.2669 0C10.9037 0 9.79871 1.10503 9.79871 2.46816C9.79871 3.83129 10.9037 4.93632 12.2669 4.93632Z" fill="#00ACE4"/>
<path d="M3.32112 13.4299L6.08352 13.2772C8.98656 12.911 7.70496 10.4529 7.70496 10.4529C7.17696 8.71147 5.99856 7.92811 5.28336 7.60267C5.23632 7.58107 5.18688 7.57243 5.13792 7.55899L6.15744 6.21163C6.18151 6.17994 6.1967 6.14242 6.20147 6.10292C6.20624 6.06341 6.20041 6.02335 6.18458 5.98685C6.16875 5.95034 6.14348 5.91871 6.11138 5.8952C6.07928 5.87169 6.0415 5.85715 6.00192 5.85307L3.99264 5.64331C3.95153 5.63901 3.91004 5.64616 3.87274 5.66396C3.83544 5.68177 3.80379 5.70955 3.78129 5.74422C3.75879 5.77889 3.74631 5.81911 3.74523 5.86042C3.74416 5.90174 3.75453 5.94255 3.7752 5.97835L4.67568 7.54315C4.53168 7.57291 4.39248 7.62715 4.27152 7.71979C2.22096 9.28987 1.62048 9.64267 1.10496 10.6156C0.0864 12.5395 1.7664 13.5153 3.32112 13.4299ZM8.30064 15.9849C0.1368 15.9849 0 15.7727 0 16.4543C0 16.967 0.45456 16.9238 0.93024 16.9238L2.22432 23.0371H6.54576L7.83984 16.9238C8.31552 16.9238 8.77008 16.967 8.77008 16.4543C8.77008 16.3298 8.72062 16.2104 8.63258 16.1224C8.54455 16.0344 8.42514 15.9849 8.30064 15.9849Z" fill="#00ACE4"/>
</svg>
