<svg width="24" height="24" viewBox="0 0 24 24" fill="none" xmlns="http://www.w3.org/2000/svg">
<path d="M11.8431 8.78674C12.0689 8.87529 12.2903 8.65856 12.2155 8.42796C11.7018 6.84505 9.84201 6.25456 8.1131 7.65891C7.20366 8.39771 6.86192 8.55469 6.8533 8.55866C7.45284 9.15809 8.13778 11.1696 9.63256 11.3921C11.2792 11.6906 12.7366 10.0706 11.5442 9.32926C10.7601 8.84178 9.83682 8.5586 8.84718 8.5586C9.88468 8.32474 10.9204 8.42502 11.8431 8.78674ZM19.2993 7.65881C16.3149 5.23462 14.4116 9.0576 15.5946 8.67864C16.4349 8.40949 17.3535 8.35087 18.2749 8.55855C16.7137 8.55855 15.2746 9.274 14.3151 10.4386C14.3939 8.60845 14.5131 7.4629 14.6513 6.61076C15.4488 6.58335 16.5117 5.93937 17.0954 4.81251C18.1016 3.01163 17.635 1.16514 17.4848 0C16.6985 0.765677 13.2638 -0.131495 11.9021 2.20178C11.3007 3.23248 11.4755 4.48672 12.1082 5.40455C12.3085 5.69512 12.7874 5.5557 12.8011 5.20308C12.8605 3.66916 13.6239 2.51023 15.0471 1.86834C14.4085 2.6958 13.9892 3.6222 13.7726 4.57971C13.4358 6.07129 13.0841 7.04973 12.955 11.8038C12.9419 12.286 13.3325 12.685 13.8147 12.679C14.1639 12.6746 14.463 12.4531 14.5972 12.1307C14.8014 11.6405 15.1338 11.1332 15.6747 10.6684C16.1887 11.2365 16.9708 11.5388 17.78 11.392C19.2684 11.1705 19.9631 9.15461 20.5592 8.5585C20.5505 8.55464 20.2087 8.39766 19.2993 7.65881ZM23.6865 13.5824C22.7535 12.9494 21.738 13.4004 21.2717 13.6697L15.4196 17.9529L11.993 17.9537L11.1363 17.097H14.2832C15.2296 17.097 16.2896 16.4806 16.2896 15.3834C16.2896 14.2185 15.2296 13.6697 14.2832 13.6697H13.1039C12.2279 13.6697 11.2042 13.7478 10.4824 13.3614C9.79656 13.0124 9.00684 12.8139 8.16385 12.8139C6.7483 12.8139 5.48138 13.3782 4.61323 14.2681L0 18.8096L5.13985 23.9494L6.85314 21.3795H14.9493C15.8127 21.3795 16.6461 21.0628 17.2916 20.4893L23.745 14.7565C24.1038 14.4378 24.0836 13.8518 23.6865 13.5824Z" fill="#00ACE4"/>
</svg>
