<svg width="32" height="32" viewBox="0 0 32 32" fill="none" xmlns="http://www.w3.org/2000/svg">
<path d="M7.27577 24.7018H8.95998V26.386H7.27577V24.7018ZM4.46875 16.2807H6.15296V17.9649H4.46875V16.2807ZM7.27577 27.5088H8.95998V29.193H7.27577V27.5088ZM4.46875 19.0877H6.15296V20.772H4.46875V19.0877ZM15.6968 24.7018C15.1012 24.7018 14.5301 24.9384 14.1089 25.3595C13.6878 25.7806 13.4512 26.3518 13.4512 26.9474V32H17.9424V26.9474C17.9424 26.3518 17.7058 25.7806 17.2847 25.3595C16.8636 24.9384 16.2924 24.7018 15.6968 24.7018ZM16.8196 29.193C16.8196 29.3419 16.7605 29.4847 16.6552 29.59C16.5499 29.6953 16.4071 29.7544 16.2582 29.7544C16.1093 29.7544 15.9665 29.6953 15.8613 29.59C15.756 29.4847 15.6968 29.3419 15.6968 29.193V28.0702C15.6968 27.9213 15.756 27.7785 15.8613 27.6732C15.9665 27.5679 16.1093 27.5088 16.2582 27.5088C16.4071 27.5088 16.5499 27.5679 16.6552 27.6732C16.7605 27.7785 16.8196 27.9213 16.8196 28.0702V29.193ZM4.46875 24.7018H6.15296V26.386H4.46875V24.7018ZM4.46875 27.5088H6.15296V29.193H4.46875V27.5088ZM7.27577 16.2807H8.95998V17.9649H7.27577V16.2807ZM21.2497 8.32676C20.7232 7.80035 20.0093 7.50462 19.2648 7.50462C18.5204 7.50462 17.8064 7.80035 17.28 8.32676L16.8825 8.72367L23.2342 15.0754L23.6306 14.6779C24.157 14.1515 24.4527 13.4375 24.4527 12.6931C24.4527 11.9486 24.157 11.2347 23.6306 10.7082L21.2497 8.32676ZM30.7789 1.17897C30.5766 0.976494 30.3352 0.817204 30.0695 0.710752C29.8038 0.6043 29.5192 0.552903 29.233 0.559674C28.9469 0.566445 28.665 0.631244 28.4046 0.750144C28.1442 0.869045 27.9107 1.03957 27.7182 1.25139L22.025 7.51385L24.444 9.93294L30.7043 4.24199C30.9166 4.04957 31.0876 3.81602 31.2069 3.5555C31.3262 3.29498 31.3913 3.01294 31.3983 2.72649C31.4053 2.44004 31.354 2.15516 31.2475 1.88913C31.141 1.62311 30.9816 1.3815 30.7789 1.17897ZM12.8286 10.4129C12.5417 10.8194 12.3896 11.7306 12.6602 12.992C12.668 13.0274 12.6798 13.0723 12.6888 13.1105L14.7514 12.5491C14.8951 12.51 15.0484 12.5296 15.1777 12.6035C15.3069 12.6775 15.4015 12.7998 15.4405 12.9435C15.4796 13.0871 15.46 13.2405 15.3861 13.3697C15.3121 13.4989 15.1898 13.5935 15.0462 13.6326L13.0223 14.1839C13.3755 15.0847 13.8823 15.9175 14.5201 16.6451L16.4036 14.7616C16.5095 14.6593 16.6513 14.6027 16.7985 14.604C16.9457 14.6053 17.0865 14.6643 17.1906 14.7684C17.2947 14.8725 17.3537 15.0133 17.355 15.1605C17.3563 15.3077 17.2997 15.4495 17.1975 15.5554L15.3139 17.4389C16.0415 18.0768 16.8743 18.5836 17.7751 18.9367L18.3264 16.9157C18.3458 16.8445 18.379 16.7779 18.4241 16.7196C18.4692 16.6612 18.5253 16.6124 18.5893 16.5758C18.6533 16.5391 18.7239 16.5155 18.797 16.5061C18.8702 16.4968 18.9444 16.5019 19.0156 16.5213C19.0867 16.5406 19.1533 16.5738 19.2117 16.6189C19.27 16.664 19.3189 16.7202 19.3555 16.7842C19.3921 16.8482 19.4158 16.9187 19.4251 16.9919C19.4344 17.065 19.4293 17.1393 19.4099 17.2104L18.8485 19.273C18.8867 19.282 18.9316 19.2938 18.967 19.3016C20.2279 19.5711 21.1396 19.4195 21.5461 19.1332L22.414 15.8406L16.1173 9.54388L12.8286 10.4129Z" fill="#00ACE4"/>
<path d="M18.7307 20.3964C18.4954 20.3459 18.2613 20.2842 18.0289 20.2123H18.0098C18.0036 20.2123 17.9952 20.2033 17.9868 20.2005C16.5226 19.7458 15.1909 18.9419 14.1065 17.8581C13.0221 16.7742 12.2175 15.443 11.762 13.979C11.7586 13.9684 11.7513 13.9599 11.7479 13.9487C11.7446 13.9375 11.7479 13.9392 11.7479 13.9347C11.6762 13.7018 11.6142 13.466 11.5621 13.2279C11.214 11.5998 11.4223 10.2154 12.1201 9.51812C12.1905 9.44738 12.2785 9.39678 12.375 9.3716L15.7934 8.47054C15.8389 8.26619 15.9416 8.07868 16.0893 7.93047L16.2313 7.78844L11.2056 4.06689L0 12.351H9.7993C9.94819 12.351 10.091 12.4101 10.1963 12.5154C10.3016 12.6207 10.3607 12.7635 10.3607 12.9124C10.3607 13.0613 10.3016 13.2041 10.1963 13.3093C10.091 13.4146 9.94819 13.4738 9.7993 13.4738H1.66456V32.0001H12.3312V26.9475C12.3312 26.0541 12.6861 25.1973 13.3178 24.5656C13.9495 23.9339 14.8063 23.579 15.6996 23.579C16.593 23.579 17.4498 23.9339 18.0815 24.5656C18.7132 25.1973 19.0681 26.0541 19.0681 26.9475V32.0001H20.7523V20.525C20.5687 20.5475 20.384 20.5598 20.1993 20.5615C19.7053 20.5578 19.2131 20.5025 18.7307 20.3964ZM10.0828 29.7545C10.0828 29.9034 10.0237 30.0462 9.91838 30.1514C9.81309 30.2567 9.6703 30.3159 9.5214 30.3159H3.90737C3.75848 30.3159 3.61568 30.2567 3.5104 30.1514C3.40511 30.0462 3.34596 29.9034 3.34596 29.7545V24.1404C3.34596 23.9915 3.40511 23.8487 3.5104 23.7435C3.61568 23.6382 3.75848 23.579 3.90737 23.579H9.5214C9.6703 23.579 9.81309 23.6382 9.91838 23.7435C10.0237 23.8487 10.0828 23.9915 10.0828 24.1404V29.7545ZM10.0828 21.3334C10.0828 21.4823 10.0237 21.6251 9.91838 21.7304C9.81309 21.8357 9.6703 21.8948 9.5214 21.8948H3.90737C3.75848 21.8948 3.61568 21.8357 3.5104 21.7304C3.40511 21.6251 3.34596 21.4823 3.34596 21.3334V15.7194C3.34596 15.5705 3.40511 15.4277 3.5104 15.3224C3.61568 15.2171 3.75848 15.158 3.90737 15.158H9.5214C9.6703 15.158 9.81309 15.2171 9.91838 15.3224C10.0237 15.4277 10.0828 15.5705 10.0828 15.7194V21.3334Z" fill="#00ACE4"/>
<path d="M7.27577 19.0877H8.95998V20.7719H7.27577V19.0877ZM26.0631 23.0175C25.542 23.0175 25.0422 22.8105 24.6737 22.442C24.3052 22.0735 24.0982 21.5738 24.0982 21.0526C24.0982 20.5315 24.3052 20.0317 24.6737 19.6632C25.0422 19.2947 25.542 19.0877 26.0631 19.0877C26.5843 19.0877 27.084 19.2947 27.4525 19.6632C27.821 20.0317 28.0281 20.5315 28.0281 21.0526C28.0281 21.5738 27.821 22.0735 27.4525 22.442C27.084 22.8105 26.5843 23.0175 26.0631 23.0175ZM26.0631 20.2105C25.8398 20.2105 25.6256 20.2992 25.4677 20.4572C25.3098 20.6151 25.221 20.8293 25.221 21.0526C25.221 21.276 25.3098 21.4902 25.4677 21.6481C25.6256 21.806 25.8398 21.8947 26.0631 21.8947C26.2865 21.8947 26.5007 21.806 26.6586 21.6481C26.8165 21.4902 26.9052 21.276 26.9052 21.0526C26.9052 20.8293 26.8165 20.6151 26.6586 20.4572C26.5007 20.2992 26.2865 20.2105 26.0631 20.2105ZM16.5193 3.92982C15.9982 3.92982 15.4984 3.72281 15.1299 3.35432C14.7614 2.98582 14.5544 2.48604 14.5544 1.96491C14.5544 1.44379 14.7614 0.944002 15.1299 0.575509C15.4984 0.207017 15.9982 0 16.5193 0C17.0404 0 17.5402 0.207017 17.9087 0.575509C18.2772 0.944002 18.4842 1.44379 18.4842 1.96491C18.4842 2.48604 18.2772 2.98582 17.9087 3.35432C17.5402 3.72281 17.0404 3.92982 16.5193 3.92982ZM16.5193 1.12281C16.4087 1.12281 16.2992 1.14459 16.197 1.18691C16.0949 1.22923 16.002 1.29126 15.9238 1.36945C15.8456 1.44765 15.7836 1.54048 15.7413 1.64265C15.699 1.74482 15.6772 1.85433 15.6772 1.96491C15.6772 2.0755 15.699 2.185 15.7413 2.28717C15.7836 2.38934 15.8456 2.48217 15.9238 2.56037C16.002 2.63857 16.0949 2.7006 16.197 2.74292C16.2992 2.78524 16.4087 2.80702 16.5193 2.80702C16.7426 2.80702 16.9568 2.7183 17.1147 2.56037C17.2727 2.40245 17.3614 2.18825 17.3614 1.96491C17.3614 1.74157 17.2727 1.52738 17.1147 1.36945C16.9568 1.21153 16.7426 1.12281 16.5193 1.12281ZM29.1509 15.1579C29.002 15.1579 28.8592 15.0987 28.7539 14.9935C28.6486 14.8882 28.5895 14.7454 28.5895 14.5965V13.4737C28.5895 13.3248 28.6486 13.182 28.7539 13.0767C28.8592 12.9714 29.002 12.9123 29.1509 12.9123C29.2998 12.9123 29.4425 12.9714 29.5478 13.0767C29.6531 13.182 29.7123 13.3248 29.7123 13.4737V14.5965C29.7123 14.7454 29.6531 14.8882 29.5478 14.9935C29.4425 15.0987 29.2998 15.1579 29.1509 15.1579ZM29.1509 18.5263C29.002 18.5263 28.8592 18.4672 28.7539 18.3619C28.6486 18.2566 28.5895 18.1138 28.5895 17.9649V16.8421C28.5895 16.6932 28.6486 16.5504 28.7539 16.4451C28.8592 16.3398 29.002 16.2807 29.1509 16.2807C29.2998 16.2807 29.4425 16.3398 29.5478 16.4451C29.6531 16.5504 29.7123 16.6932 29.7123 16.8421V17.9649C29.7123 18.1138 29.6531 18.2566 29.5478 18.3619C29.4425 18.4672 29.2998 18.5263 29.1509 18.5263ZM31.3965 16.2807H30.2737C30.1248 16.2807 29.982 16.2216 29.8767 16.1163C29.7714 16.011 29.7123 15.8682 29.7123 15.7193C29.7123 15.5704 29.7714 15.4276 29.8767 15.3223C29.982 15.217 30.1248 15.1579 30.2737 15.1579H31.3965C31.5454 15.1579 31.6882 15.217 31.7934 15.3223C31.8987 15.4276 31.9579 15.5704 31.9579 15.7193C31.9579 15.8682 31.8987 16.011 31.7934 16.1163C31.6882 16.2216 31.5454 16.2807 31.3965 16.2807ZM28.0281 16.2807H26.9052C26.7564 16.2807 26.6136 16.2216 26.5083 16.1163C26.403 16.011 26.3438 15.8682 26.3438 15.7193C26.3438 15.5704 26.403 15.4276 26.5083 15.3223C26.6136 15.217 26.7564 15.1579 26.9052 15.1579H28.0281C28.1769 15.1579 28.3197 15.217 28.425 15.3223C28.5303 15.4276 28.5895 15.5704 28.5895 15.7193C28.5895 15.8682 28.5303 16.011 28.425 16.1163C28.3197 16.2216 28.1769 16.2807 28.0281 16.2807ZM6.69472 4.49123C6.54584 4.4912 6.40307 4.43203 6.29781 4.32674L5.4557 3.48463C5.35344 3.37875 5.29685 3.23694 5.29813 3.08974C5.29941 2.94254 5.35845 2.80173 5.46254 2.69765C5.56663 2.59356 5.70744 2.53451 5.85464 2.53324C6.00183 2.53196 6.14364 2.58854 6.24953 2.69081L7.09163 3.53291C7.17012 3.61143 7.22357 3.71145 7.24522 3.82033C7.26687 3.92922 7.25576 4.04208 7.21328 4.14465C7.17079 4.24722 7.09886 4.33489 7.00656 4.39658C6.91426 4.45827 6.80574 4.4912 6.69472 4.49123ZM4.1684 1.96491C4.01952 1.96488 3.87675 1.90571 3.77149 1.80042L2.92939 0.958316C2.82712 0.852434 2.77054 0.710622 2.77181 0.563424C2.77309 0.416226 2.83214 0.275419 2.93623 0.17133C3.04031 0.0672411 3.18112 0.00819895 3.32832 0.00691984C3.47552 0.00564072 3.61733 0.0622271 3.72321 0.164491L4.56532 1.0066C4.64381 1.08511 4.69725 1.18513 4.71891 1.29402C4.74056 1.4029 4.72944 1.51576 4.68696 1.61833C4.64448 1.7209 4.57254 1.80857 4.48024 1.87026C4.38794 1.93195 4.27942 1.96489 4.1684 1.96491ZM3.3263 4.49123C3.21528 4.4912 3.10676 4.45827 3.01446 4.39658C2.92216 4.33489 2.85022 4.24722 2.80774 4.14465C2.76526 4.04208 2.75414 3.92922 2.7758 3.82033C2.79745 3.71145 2.8509 3.61143 2.92939 3.53291L3.77149 2.69081C3.82328 2.63719 3.88523 2.59442 3.95372 2.565C4.02221 2.53557 4.09588 2.52009 4.17042 2.51944C4.24497 2.51879 4.31889 2.53299 4.38789 2.56122C4.45688 2.58945 4.51956 2.63114 4.57227 2.68385C4.62499 2.73656 4.66667 2.79924 4.6949 2.86824C4.72313 2.93723 4.73733 3.01116 4.73669 3.0857C4.73604 3.16024 4.72055 3.23391 4.69113 3.3024C4.66171 3.3709 4.61894 3.43284 4.56532 3.48463L3.72321 4.32674C3.61795 4.43203 3.47518 4.4912 3.3263 4.49123ZM5.85261 1.96491C5.7416 1.96489 5.63308 1.93195 5.54078 1.87026C5.44848 1.80857 5.37654 1.7209 5.33406 1.61833C5.29158 1.51576 5.28046 1.4029 5.30211 1.29402C5.32376 1.18513 5.37721 1.08511 5.4557 1.0066L6.29781 0.164491C6.40369 0.0622271 6.5455 0.00564072 6.6927 0.00691984C6.8399 0.00819895 6.9807 0.0672411 7.08479 0.17133C7.18888 0.275419 7.24792 0.416226 7.2492 0.563424C7.25048 0.710622 7.1939 0.852434 7.09163 0.958316L6.24953 1.80042C6.14427 1.90571 6.0015 1.96488 5.85261 1.96491Z" fill="#00ACE4"/>
</svg>
